<svg width="687" height="843" viewBox="0 0 687 843" fill="none" xmlns="http://www.w3.org/2000/svg">
<path d="M193.446 300.28C194.456 299.42 195.554 298.766 196.74 298.317C197.926 297.869 199.409 297.757 201.189 297.984L200.808 300.98C199.681 300.816 198.681 300.835 197.808 301.037C196.923 301.249 196.06 301.713 195.218 302.429C194.04 303.433 193.426 304.507 193.376 305.654C193.317 306.788 193.712 307.855 194.563 308.854C195.145 309.538 195.875 310.02 196.752 310.299C197.619 310.567 198.52 310.613 199.454 310.437C200.388 310.261 201.237 309.848 202 309.199L216.339 296.986L218.231 299.208L210.237 306.016L218.034 315.172C218.07 315.896 218.002 316.748 217.829 317.728C217.646 318.716 217.242 319.777 216.618 320.908C215.985 322.028 215.017 323.143 213.716 324.251C211.965 325.742 210.254 326.619 208.581 326.882C206.897 327.155 205.347 326.984 203.933 326.368C202.498 325.752 201.288 324.865 200.304 323.71C198.823 321.971 198.069 320.154 198.043 318.259C198.006 316.375 198.686 314.537 200.084 312.746L199.998 312.645C198.777 313.279 197.664 313.598 196.66 313.601C195.635 313.602 194.722 313.383 193.921 312.942C193.099 312.5 192.392 311.931 191.8 311.235C190.949 310.237 190.429 309.103 190.238 307.833C190.037 306.552 190.199 305.253 190.722 303.935C191.237 302.607 192.144 301.389 193.446 300.28ZM207.662 308.209L203.488 311.764C202.321 312.758 201.607 313.84 201.346 315.011C201.075 316.171 201.115 317.298 201.467 318.393C201.797 319.485 202.307 320.436 202.995 321.244C203.683 322.052 204.506 322.677 205.463 323.119C206.41 323.572 207.428 323.721 208.517 323.568C209.595 323.424 210.7 322.87 211.834 321.905C212.776 321.102 213.494 320.229 213.988 319.286C214.461 318.341 214.684 317.387 214.656 316.423L207.662 308.209ZM210.276 285.946C211.286 285.086 212.384 284.432 213.57 283.984C214.756 283.535 216.239 283.424 218.019 283.65L217.638 286.646C216.512 286.483 215.506 286.507 214.621 286.718C213.748 286.92 212.89 287.379 212.049 288.096C210.871 289.099 210.257 290.174 210.207 291.32C210.147 292.455 210.543 293.521 211.393 294.52C211.976 295.204 212.706 295.686 213.582 295.966C214.45 296.234 215.35 296.28 216.284 296.104C217.219 295.928 218.067 295.515 218.83 294.865L228.188 286.895L230.08 289.117L227.067 291.683L234.865 300.838C234.901 301.563 234.827 302.419 234.643 303.408C234.471 304.388 234.072 305.443 233.449 306.574C232.815 307.695 231.848 308.809 230.546 309.917C228.796 311.408 227.078 312.29 225.394 312.563C223.721 312.826 222.172 312.655 220.747 312.049C219.323 311.423 218.118 310.532 217.134 309.376C215.653 307.637 214.894 305.825 214.857 303.94C214.831 302.046 215.517 300.203 216.915 298.412L216.829 298.311C215.607 298.945 214.489 299.269 213.474 299.281C212.46 299.273 211.547 299.054 210.735 298.623C209.924 298.171 209.223 297.597 208.63 296.902C207.78 295.903 207.259 294.769 207.068 293.499C206.868 292.218 207.029 290.919 207.553 289.602C208.067 288.273 208.975 287.055 210.276 285.946ZM224.492 293.876L220.318 297.43C219.151 298.424 218.437 299.507 218.176 300.678C217.906 301.837 217.94 302.969 218.28 304.073C218.622 305.157 219.137 306.102 219.825 306.91C220.513 307.718 221.331 308.348 222.277 308.8C223.235 309.243 224.253 309.392 225.331 309.249C226.42 309.095 227.531 308.536 228.664 307.571C229.607 306.768 230.319 305.9 230.802 304.967C231.286 304.012 231.514 303.053 231.487 302.089L224.492 293.876Z" fill="white"/>
<path d="M301.622 590.283C300.325 590.134 299.117 589.783 297.998 589.231C296.878 588.679 295.803 587.686 294.77 586.253L297.183 584.515C297.821 585.436 298.507 586.143 299.238 586.636C299.984 587.131 300.898 587.44 301.979 587.565C303.492 587.739 304.678 587.459 305.536 586.726C306.393 586.007 306.895 585.006 307.043 583.723C307.144 582.844 307.001 581.995 306.613 581.177C306.224 580.373 305.652 579.694 304.898 579.14C304.145 578.585 303.278 578.252 302.298 578.139L283.88 576.018L284.209 573.165L294.477 574.347L295.831 562.587C296.328 562.075 296.987 561.552 297.808 561.019C298.643 560.487 299.677 560.066 300.91 559.755C302.142 559.459 303.593 559.407 305.265 559.6C307.513 559.859 309.294 560.502 310.606 561.529C311.934 562.558 312.851 563.788 313.357 565.219C313.877 566.666 314.051 568.132 313.881 569.616C313.623 571.85 312.822 573.612 311.476 574.903C310.144 576.195 308.364 576.939 306.137 577.136L306.122 577.265C307.398 577.719 308.375 578.306 309.051 579.026C309.74 579.763 310.195 580.567 310.416 581.44C310.65 582.328 310.715 583.219 310.612 584.113C310.464 585.395 309.998 586.531 309.212 587.522C308.425 588.526 307.381 589.282 306.081 589.789C304.78 590.311 303.294 590.476 301.622 590.283ZM297.784 574.728L303.145 575.345C304.644 575.518 305.902 575.305 306.92 574.707C307.937 574.123 308.721 573.337 309.273 572.349C309.837 571.378 310.179 570.373 310.299 569.335C310.418 568.298 310.316 567.286 309.991 566.299C309.681 565.314 309.106 564.481 308.264 563.8C307.437 563.121 306.296 562.697 304.84 562.53C303.629 562.39 302.519 562.46 301.509 562.738C300.511 563.032 299.674 563.512 298.999 564.179L297.784 574.728ZM280.005 587.794C278.708 587.645 277.5 587.294 276.381 586.741C275.261 586.189 274.186 585.196 273.153 583.763L275.566 582.026C276.204 582.946 276.897 583.654 277.643 584.149C278.375 584.642 279.281 584.951 280.362 585.075C281.875 585.249 283.061 584.97 283.919 584.236C284.776 583.517 285.278 582.516 285.426 581.234C285.527 580.355 285.384 579.506 284.996 578.687C284.607 577.883 284.035 577.204 283.282 576.65C282.528 576.096 281.661 575.762 280.681 575.65L268.662 574.265L268.99 571.412L272.86 571.858L274.214 560.098C274.711 559.586 275.377 559.064 276.212 558.532C277.033 557.999 278.06 557.577 279.293 557.266C280.525 556.97 281.976 556.918 283.648 557.11C285.896 557.369 287.684 558.013 289.011 559.042C290.324 560.07 291.241 561.3 291.762 562.732C292.267 564.178 292.435 565.643 292.264 567.127C292.006 569.361 291.212 571.124 289.88 572.416C288.534 573.707 286.747 574.45 284.52 574.646L284.505 574.776C285.782 575.229 286.765 575.817 287.456 576.539C288.131 577.274 288.586 578.079 288.821 578.953C289.04 579.839 289.098 580.73 288.995 581.623C288.847 582.906 288.381 584.042 287.595 585.032C286.808 586.037 285.764 586.793 284.464 587.3C283.163 587.822 281.677 587.986 280.005 587.794ZM276.167 572.238L281.528 572.856C283.027 573.028 284.285 572.816 285.303 572.217C286.32 571.634 287.111 570.848 287.677 569.862C288.228 568.889 288.562 567.883 288.682 566.846C288.801 565.808 288.706 564.797 288.396 563.812C288.072 562.826 287.496 561.993 286.669 561.313C285.827 560.632 284.679 560.208 283.223 560.04C282.013 559.901 280.909 559.971 279.913 560.251C278.901 560.543 278.058 561.022 277.382 561.689L276.167 572.238Z" fill="white"/>
<path d="M179.194 418.907C179.407 417.619 179.817 416.429 180.424 415.339C181.031 414.248 182.075 413.223 183.557 412.262L185.174 414.757C184.223 415.35 183.483 415.999 182.955 416.706C182.424 417.427 182.069 418.324 181.892 419.397C181.643 420.9 181.864 422.098 182.554 422.992C183.23 423.883 184.205 424.434 185.479 424.645C186.352 424.789 187.207 424.688 188.043 424.341C188.866 423.992 189.572 423.455 190.163 422.729C190.753 422.003 191.129 421.154 191.29 420.18L194.317 401.89L197.15 402.359L195.463 412.556L207.142 414.488C207.629 415.01 208.118 415.694 208.611 416.54C209.101 417.4 209.47 418.454 209.72 419.701C209.955 420.946 209.935 422.398 209.66 424.058C209.291 426.291 208.561 428.037 207.47 429.298C206.377 430.573 205.103 431.428 203.649 431.864C202.178 432.311 200.706 432.413 199.231 432.169C197.013 431.802 195.293 430.915 194.07 429.507C192.845 428.113 192.189 426.299 192.103 424.064L191.974 424.043C191.458 425.296 190.824 426.242 190.071 426.882C189.301 427.534 188.476 427.949 187.593 428.126C186.694 428.316 185.801 428.337 184.914 428.19C183.64 427.98 182.528 427.457 181.578 426.624C180.614 425.788 179.91 424.708 179.467 423.385C179.01 422.06 178.919 420.567 179.194 418.907ZM194.92 415.841L194.039 421.165C193.792 422.653 193.943 423.92 194.49 424.967C195.023 426.011 195.77 426.833 196.729 427.432C197.672 428.044 198.658 428.435 199.689 428.606C200.719 428.776 201.735 428.724 202.736 428.448C203.735 428.187 204.596 427.653 205.317 426.846C206.037 426.054 206.516 424.935 206.755 423.489C206.954 422.287 206.94 421.174 206.712 420.152C206.467 419.141 206.029 418.282 205.396 417.574L194.92 415.841ZM182.746 397.439C182.959 396.151 183.369 394.961 183.976 393.871C184.583 392.78 185.627 391.755 187.11 390.794L188.726 393.289C187.775 393.882 187.034 394.539 186.503 395.26C185.974 395.966 185.621 396.856 185.444 397.929C185.195 399.432 185.416 400.63 186.106 401.524C186.782 402.415 187.757 402.966 189.031 403.177C189.904 403.321 190.759 403.22 191.595 402.873C192.418 402.524 193.124 401.987 193.715 401.261C194.305 400.535 194.681 399.686 194.842 398.713L196.817 386.776L199.651 387.245L199.015 391.088L210.694 393.02C211.181 393.542 211.669 394.233 212.159 395.093C212.652 395.94 213.022 396.986 213.272 398.233C213.507 399.478 213.487 400.93 213.213 402.59C212.843 404.823 212.112 406.577 211.019 407.851C209.928 409.112 208.654 409.967 207.198 410.417C205.729 410.851 204.258 410.945 202.784 410.701C200.565 410.334 198.844 409.454 197.618 408.06C196.396 406.652 195.741 404.831 195.655 402.597L195.526 402.575C195.01 403.828 194.375 404.781 193.62 405.436C192.852 406.073 192.026 406.488 191.142 406.68C190.245 406.855 189.353 406.869 188.466 406.722C187.192 406.512 186.08 405.989 185.13 405.156C184.166 404.32 183.462 403.24 183.019 401.917C182.562 400.592 182.471 399.099 182.746 397.439ZM198.472 394.373L197.591 399.697C197.344 401.185 197.495 402.452 198.042 403.499C198.575 404.543 199.32 405.372 200.278 405.986C201.223 406.583 202.21 406.967 203.241 407.138C204.271 407.308 205.286 407.263 206.285 407.002C207.286 406.727 208.147 406.193 208.866 405.4C209.588 404.593 210.068 403.467 210.307 402.021C210.506 400.819 210.49 399.714 210.26 398.705C210.018 397.68 209.581 396.814 208.948 396.106L198.472 394.373Z" fill="white"/>
<path d="M229.431 364.31L233.171 354.343L287.143 375.251L281.535 317.496L292.184 317.29L297.967 379.656L288.405 386.941L229.431 364.31Z" fill="white"/>
<path d="M358.024 524.193L350.581 531.804L309.628 490.902L291.464 546.013L281.636 541.906L301.501 482.506L313.188 479.697L358.024 524.193Z" fill="white"/>
<path d="M242.425 478.498L235.19 470.689L278.061 431.802L223.913 410.943L228.499 401.33L286.848 424.099L289.077 435.91L242.425 478.498Z" fill="white"/>
<path d="M148.85 320.741L150.434 315.834L177.023 324.731L173.003 296.911L178.152 296.57L182.36 326.617L177.898 330.358L148.85 320.741Z" fill="white"/>
<path d="M325.201 347.537L328.254 349.402L316.839 368.092L313.785 366.227L325.201 347.537ZM315.514 341.62L318.567 343.485L307.151 362.175L304.098 360.31L315.514 341.62ZM330.421 366.448L306.432 370.808L299.359 347.475L303.178 346.194L304.938 352.365C305.179 353.115 305.381 353.889 305.544 354.687C305.725 355.496 305.789 356.475 305.738 357.625L307.634 361.385L309.101 366.438L314.267 365.437L318.479 365.407C319.478 364.836 320.378 364.447 321.18 364.238C321.983 364.029 322.764 363.856 323.523 363.717L329.817 362.465L330.421 366.448Z" fill="white"/>
<path d="M344.483 315.969L347.536 317.834L327.598 350.476L324.545 348.611L344.483 315.969ZM334.795 310.052L337.849 311.917L317.911 344.559L314.858 342.694L334.795 310.052Z" fill="white"/>
<path d="M363.765 284.401L366.818 286.267L346.881 318.908L343.827 317.043L363.765 284.401ZM354.078 278.484L357.131 280.35L337.194 312.991L334.14 311.126L354.078 278.484Z" fill="white"/>
<path d="M383.046 252.834L386.1 254.699L366.162 287.34L363.108 285.475L383.046 252.834ZM373.359 246.917L376.413 248.782L356.475 281.423L353.421 279.558L373.359 246.917Z" fill="white"/>
<path d="M397.842 228.61L400.896 230.475L385.444 255.772L382.39 253.907L397.842 228.61ZM388.155 222.693L391.208 224.558L375.757 249.855L372.703 247.99L388.155 222.693Z" fill="white"/>
<path d="M318.559 542.301L315.088 543.17L309.765 521.927L313.235 521.057L318.559 542.301ZM329.57 539.541L326.099 540.411L320.775 519.168L324.246 518.298L329.57 539.541ZM301.414 532.764L315.123 512.602L336.72 523.917L334.957 527.539L329.322 524.467C328.618 524.113 327.925 523.715 327.241 523.271C326.538 522.833 325.794 522.192 325.011 521.35L321 520.065L316.368 517.569L313.46 521.955L310.529 524.979C310.236 526.091 309.882 527.007 309.469 527.725C309.055 528.443 308.631 529.122 308.198 529.761L304.677 535.127L301.414 532.764Z" fill="white"/>
<path d="M327.551 578.182L324.08 579.052L314.783 541.95L318.253 541.08L327.551 578.182ZM338.562 575.423L335.091 576.292L325.793 539.191L329.264 538.321L338.562 575.423Z" fill="white"/>
<path d="M336.543 614.063L333.072 614.933L323.775 577.832L327.246 576.962L336.543 614.063ZM347.554 611.304L344.083 612.174L334.786 575.072L338.256 574.203L347.554 611.304Z" fill="white"/>
<path d="M345.534 649.945L342.063 650.814L332.766 613.713L336.237 612.843L345.534 649.945ZM356.545 647.185L353.074 648.055L343.777 610.954L347.248 610.084L356.545 647.185Z" fill="white"/>
<path d="M352.434 677.478L348.963 678.348L341.757 649.594L345.228 648.724L352.434 677.478ZM363.444 674.719L359.974 675.588L352.768 646.835L356.239 645.965L363.444 674.719Z" fill="white"/>
<path d="M226.284 438.189L225.586 434.679L247.066 430.409L247.764 433.919L226.284 438.189ZM228.497 449.322L227.799 445.813L249.279 441.543L249.977 445.052L228.497 449.322ZM236.654 421.535L256.115 436.221L243.75 457.234L240.219 455.294L243.565 449.818C243.953 449.132 244.385 448.459 244.862 447.799C245.335 447.118 246.011 446.407 246.891 445.666L248.372 441.723L251.093 437.22L246.856 434.099L243.98 431.023C242.884 430.675 241.987 430.276 241.29 429.828C240.593 429.379 239.936 428.923 239.319 428.458L234.133 424.678L236.654 421.535Z" fill="white"/>
<path d="M190.003 445.401L189.306 441.892L226.82 434.434L227.518 437.944L190.003 445.401ZM192.216 456.534L191.519 453.025L229.034 445.568L229.731 449.077L192.216 456.534Z" fill="white"/>
<path d="M153.722 452.613L153.024 449.104L190.539 441.646L191.237 445.156L153.722 452.613ZM155.935 463.746L155.238 460.237L192.752 452.78L193.45 456.289L155.935 463.746Z" fill="white"/>
<path d="M117.441 459.825L116.743 456.316L154.258 448.859L154.956 452.368L117.441 459.825ZM119.654 470.959L118.956 467.449L156.471 459.992L157.169 463.501L119.654 470.959Z" fill="white"/>
<path d="M89.6009 465.359L88.9033 461.85L117.977 456.07L118.675 459.58L89.6009 465.359ZM91.8141 476.492L91.1165 472.983L120.19 467.204L120.888 470.713L91.8141 476.492Z" fill="white"/>
<path d="M353.021 495.589L351.643 497.858L337.757 489.425L339.135 487.156L353.021 495.589ZM357.392 488.392L356.014 490.661L342.128 482.228L343.506 479.959L357.392 488.392ZM339.002 499.497L335.723 481.711L353.018 476.419L353.976 479.25L349.401 480.567C348.845 480.748 348.272 480.899 347.68 481.021C347.08 481.157 346.354 481.206 345.501 481.171L342.715 482.584L338.969 483.682L339.722 487.512L339.752 490.636C340.177 491.376 340.468 492.044 340.625 492.638C340.781 493.233 340.911 493.812 341.015 494.375L341.956 499.042L339.002 499.497Z" fill="white"/>
<path d="M376.475 509.832L375.098 512.101L350.847 497.373L352.225 495.104L376.475 509.832ZM380.846 502.635L379.469 504.904L355.218 490.176L356.595 487.907L380.846 502.635Z" fill="white"/>
<path d="M394.473 520.763L393.095 523.031L374.3 511.617L375.678 509.348L394.473 520.763ZM398.843 513.566L397.466 515.834L378.671 504.42L380.049 502.151L398.843 513.566Z" fill="white"/>
<path d="M271.24 474.912L269.042 473.424L278.149 459.971L280.347 461.459L271.24 474.912ZM278.213 479.632L276.015 478.144L285.122 464.691L287.32 466.179L278.213 479.632ZM268.028 460.718L285.954 458.319L290.387 475.854L287.512 476.671L286.422 472.037C286.269 471.473 286.146 470.892 286.053 470.295C285.948 469.689 285.934 468.962 286.012 468.112L284.737 465.26L283.825 461.464L279.962 462.027L276.841 461.903C276.081 462.292 275.4 462.549 274.798 462.676C274.197 462.803 273.612 462.904 273.045 462.981L268.337 463.69L268.028 460.718Z" fill="white"/>
<path d="M255.857 497.635L253.659 496.147L269.565 472.652L271.763 474.139L255.857 497.635ZM262.83 502.355L260.632 500.867L276.538 477.372L278.735 478.86L262.83 502.355Z" fill="white"/>
<path d="M244.053 515.071L241.855 513.583L254.182 495.375L256.38 496.862L244.053 515.071ZM251.026 519.792L248.828 518.304L261.155 500.095L263.353 501.583L251.026 519.792Z" fill="white"/>
<path d="M261.825 337.282L264.133 335.972L272.153 350.1L269.845 351.41L261.825 337.282ZM254.502 341.439L256.81 340.129L264.831 354.257L262.523 355.567L254.502 341.439ZM275.972 340.696L270.173 357.828L252.491 354.026L253.033 351.087L257.67 352.165C258.243 352.278 258.818 352.425 259.395 352.607C259.985 352.78 260.643 353.091 261.37 353.537L264.492 353.66L268.298 354.525L269.506 350.813L271.001 348.07C270.99 347.217 271.061 346.492 271.214 345.897C271.367 345.301 271.536 344.732 271.719 344.189L273.17 339.655L275.972 340.696Z" fill="white"/>
<path d="M248.278 313.419L250.586 312.108L264.593 336.782L262.285 338.093L248.278 313.419ZM240.955 317.576L243.263 316.265L257.271 340.94L254.963 342.25L240.955 317.576Z" fill="white"/>
<path d="M237.882 295.108L240.19 293.797L251.046 312.92L248.738 314.23L237.882 295.108ZM230.56 299.265L232.868 297.954L243.724 317.077L241.415 318.387L230.56 299.265Z" fill="white"/>
<path d="M307.568 793.48L304.914 793.428L305.234 777.185L307.887 777.238L307.568 793.48ZM315.987 793.646L313.333 793.594L313.652 777.351L316.306 777.403L315.987 793.646ZM297.149 783.32L310.883 771.552L324.144 783.851L322.177 786.101L318.74 782.806C318.305 782.416 317.886 781.996 317.483 781.546C317.065 781.095 316.657 780.492 316.26 779.737L313.639 778.037L310.808 775.35L307.874 777.924L305.188 779.519C304.761 780.258 304.33 780.845 303.894 781.279C303.459 781.712 303.024 782.116 302.589 782.489L299.025 785.645L297.149 783.32Z" fill="white"/>
<path d="M307.029 820.915L304.375 820.863L304.933 792.495L307.587 792.548L307.029 820.915ZM315.447 821.081L312.794 821.028L313.352 792.661L316.005 792.713L315.447 821.081Z" fill="white"/>
<path d="M306.616 841.967L303.962 841.915L304.394 819.93L307.048 819.982L306.616 841.967ZM315.034 842.133L312.381 842.081L312.813 820.096L315.467 820.148L315.034 842.133Z" fill="white"/>
<path d="M212.159 340.287L212.791 338.876L221.426 342.742L220.795 344.153L212.159 340.287ZM210.155 344.763L210.787 343.352L219.422 347.218L218.791 348.629L210.155 344.763ZM219.976 337.012L223.161 347.052L213.551 351.364L212.792 349.798L215.34 348.705C215.648 348.56 215.969 348.431 216.302 348.318C216.639 348.196 217.055 348.114 217.55 348.073L219.057 347.055L221.142 346.148L220.43 343.99L220.186 342.187C219.886 341.79 219.67 341.425 219.536 341.093C219.403 340.761 219.286 340.435 219.185 340.118L218.303 337.489L219.976 337.012Z" fill="white"/>
<path d="M197.571 333.757L198.203 332.346L213.285 339.098L212.654 340.509L197.571 333.757ZM195.568 338.233L196.199 336.822L211.281 343.574L210.65 344.985L195.568 338.233Z" fill="white"/>
<path d="M186.379 328.745L187.011 327.334L198.699 332.568L198.068 333.978L186.379 328.745ZM184.375 333.221L185.007 331.81L196.695 337.043L196.064 338.454L184.375 333.221Z" fill="white"/>
<path d="M334.264 50.6108L336.932 50.9137L335.078 67.2414L332.41 66.9385L334.264 50.6108ZM325.801 49.6499L328.469 49.9528L326.615 66.2806L323.947 65.9777L325.801 49.6499ZM343.799 61.8259L328.857 72.3818L316.663 58.745L318.855 56.6646L322.006 60.3066C322.407 60.7404 322.789 61.2031 323.153 61.6947C323.531 62.188 323.885 62.8338 324.214 63.632L326.693 65.5907L329.291 68.5643L332.489 66.2486L335.344 64.8957C335.843 64.1915 336.333 63.6414 336.813 63.2456C337.292 62.8497 337.769 62.4845 338.242 62.15L342.128 59.3069L343.799 61.8259Z" fill="white"/>
<path d="M337.394 23.0316L340.062 23.3345L336.824 51.8506L334.156 51.5477L337.394 23.0316ZM328.931 22.0708L331.599 22.3736L328.361 50.8897L325.693 50.5868L328.931 22.0708Z" fill="white"/>
<path d="M339.797 1.86949L342.465 2.17236L339.956 24.2723L337.288 23.9695L339.797 1.86949ZM331.334 0.908659L334.002 1.21153L331.493 23.3115L328.825 23.0086L331.334 0.908659Z" fill="white"/>
<path d="M142.932 299.052L145.405 299.529L139.558 314.905L135.909 314.201L136.086 302.12L131.299 313.312L127.62 312.603L127.979 300.557L123.772 311.861L119.986 311.13L120.209 299.058L115.773 310.318L112.079 309.605L112.27 297.527L107.896 308.799L104.11 308.068L104.332 295.996L99.8351 307.244L96.2933 306.561L96.4463 290.087L99.0568 290.59L98.352 305.328L103.292 293.507L106.33 294.093L106.336 306.868L111.185 295.03L114.299 295.63L114.275 308.399L119.154 296.567L122.207 297.155L122.183 309.924L126.909 298.062L130.023 298.663L129.785 311.39L135.046 299.632L138.084 300.218L138.105 312.995L142.932 299.052Z" fill="white"/>
<path d="M84.8131 136.556L88.0097 139.517L65.3692 156.757L60.6533 152.388L71.9537 134.805L54.6943 146.869L49.9389 142.464L61.476 125.101L44.9664 137.859L40.0729 133.326L51.4325 115.798L34.6269 128.282L29.8518 123.859L41.1719 106.294L24.4453 118.851L19.5518 114.318L30.9113 96.7901L14.0268 109.201L9.44903 104.961L24.7295 80.9038L28.1036 84.0291L13.5996 105.031L31.6583 92.1841L35.5849 95.8211L23.9194 114.59L41.8597 101.633L45.885 105.361L34.18 124.094L52.1597 111.173L56.1061 114.829L44.4011 133.561L62.1835 120.458L66.2088 124.186L54.2276 142.663L72.7006 130.199L76.6273 133.836L64.9814 152.624L84.8131 136.556Z" fill="white"/>
<path d="M403.357 684.504L404.201 686.877L387.985 689.641L386.74 686.14L397.24 680.162L385.167 681.716L383.911 678.186L394.473 672.383L382.599 674.494L381.307 670.862L391.822 664.927L379.869 666.818L378.608 663.274L389.113 657.31L377.18 659.26L375.889 655.627L386.404 649.693L374.43 651.525L373.221 648.127L387.494 639.899L388.385 642.404L375.328 649.275L388.021 647.533L389.057 650.449L378.053 656.936L390.714 655.107L391.777 658.095L380.762 664.554L393.433 662.753L394.475 665.683L383.46 672.142L396.08 670.195L397.143 673.183L386.055 679.437L398.857 678.003L399.893 680.918L388.894 687.42L403.357 684.504Z" fill="white"/>
<path d="M80.0731 515.874L77.6613 516.6L75.7002 500.267L79.2584 499.196L84.7118 509.978L83.7545 497.843L87.3424 496.763L92.6172 507.599L91.0941 495.634L94.7863 494.523L100.195 505.318L98.8953 493.286L102.498 492.201L107.937 502.987L106.577 490.973L110.27 489.862L115.678 500.657L114.438 488.607L117.892 487.568L125.406 502.229L122.86 502.995L116.641 489.616L117.755 502.378L114.792 503.27L108.855 491.959L110.058 504.695L107.021 505.609L101.113 494.29L102.287 507.034L99.3092 507.931L93.4015 496.611L94.7238 509.311L91.6867 510.225L85.9874 498.842L86.7886 511.699L83.8259 512.591L77.8736 501.285L80.0731 515.874Z" fill="white"/>
<path d="M397.469 530.196L395.131 529.259L403.782 515.268L407.232 516.649L404.772 528.479L411.591 518.395L415.069 519.788L412.436 531.548L418.706 521.245L422.286 522.678L419.783 534.49L426.269 524.274L429.762 525.672L427.288 537.496L433.717 527.256L437.296 528.69L434.793 540.502L441.337 530.308L444.686 531.649L441.418 547.796L438.95 546.808L442.431 532.47L435.343 543.142L432.471 541.992L434.882 529.447L427.881 540.154L424.937 538.975L427.377 526.441L420.347 537.137L417.461 535.981L419.901 523.447L413.015 534.2L410.071 533.021L412.713 520.569L405.322 531.119L402.45 529.969L404.847 517.418L397.469 530.196Z" fill="white"/>
<path d="M584.342 583.525L580.409 582.298L592.726 558.376L598.527 560.188L596.03 579.791L605.858 562.476L611.708 564.303L608.92 583.815L617.825 566.212L623.846 568.092L621.276 587.673L630.545 570.183L636.42 572.017L633.898 591.613L643.071 574.094L649.091 575.973L646.521 595.554L655.888 578.095L661.519 579.854L658.257 606.602L654.106 605.306L657.948 581.481L647.756 599.79L642.925 598.282L645.252 577.517L635.206 595.872L630.254 594.326L632.629 573.577L622.535 591.916L617.68 590.4L620.055 569.651L610.204 588.066L605.252 586.52L607.967 565.877L597.265 584.027L592.435 582.518L594.737 561.747L584.342 583.525Z" fill="white"/>
<path d="M238.338 397.266L236 396.33L244.652 382.339L248.101 383.72L245.641 395.549L252.46 385.466L255.938 386.859L253.305 398.619L259.575 388.315L263.155 389.749L260.652 401.561L267.138 391.344L270.631 392.743L268.157 404.567L274.586 394.327L278.165 395.76L275.662 407.572L282.206 397.379L285.555 398.72L282.287 414.867L279.819 413.879L283.3 399.541L276.212 410.213L273.34 409.063L275.752 396.518L268.751 407.225L265.806 406.045L268.246 393.512L261.216 404.207L258.33 403.051L260.77 390.518L253.884 401.271L250.94 400.092L253.582 387.639L246.192 398.19L243.319 397.04L245.716 384.489L238.338 397.266Z" fill="white"/>
<path d="M234.484 517.6L235.535 515.311L249.082 524.641L247.533 528.018L235.839 524.978L245.574 532.286L244.011 535.691L232.396 532.482L242.377 539.252L240.769 542.757L229.095 539.674L238.979 546.657L237.41 550.076L225.723 547.022L235.633 553.948L234.025 557.452L222.351 554.37L232.209 561.409L230.705 564.687L214.738 560.627L215.847 558.211L229.996 562.395L219.686 554.79L220.977 551.978L233.387 555.004L223.039 547.484L224.362 544.601L236.76 547.657L226.424 540.108L227.721 537.282L240.119 540.337L229.718 532.93L231.041 530.047L243.348 533.3L233.174 525.398L234.465 522.586L246.882 525.599L234.484 517.6Z" fill="white"/>
<path d="M454.724 581.626L448.102 589.977L451.419 591.956L449.831 594.619L446.124 592.407L441.121 598.836L438.172 597.076L443.237 590.684L437.277 587.128L432.234 593.532L429.285 591.772L434.349 585.38L428.533 581.909L430.122 579.247L436.286 582.926L442.948 574.599L435.535 570.175L437.136 567.493L444.897 572.124L449.88 565.822L452.829 567.582L447.764 573.835L453.785 577.428L458.768 571.126L461.717 572.885L456.673 579.151L459.949 581.106L458.348 583.789L454.724 581.626ZM439.214 584.673L445.173 588.229L451.836 579.903L445.836 576.322L439.214 584.673Z" fill="white"/>
<path d="M430.164 566.971L423.542 575.322L430.955 579.746L429.367 582.408L421.564 577.752L416.562 584.181L413.613 582.421L418.677 576.029L412.718 572.473L407.674 578.877L404.725 577.118L409.789 570.725L403.973 567.255L405.562 564.592L411.726 568.271L418.389 559.944L410.976 555.521L412.577 552.838L420.338 557.469L425.321 551.167L428.269 552.927L423.205 559.18L429.226 562.773L434.208 556.471L437.157 558.231L432.113 564.496L437.97 567.991L436.369 570.674L430.164 566.971ZM414.655 570.018L420.614 573.574L427.277 565.248L421.276 561.667L414.655 570.018Z" fill="white"/>
<path d="M405.606 552.316L398.985 560.667L406.398 565.091L404.809 567.753L397.007 563.097L392.004 569.526L389.055 567.766L394.119 561.374L388.16 557.818L383.116 564.222L380.167 562.463L385.232 556.07L379.416 552.6L381.004 549.938L387.169 553.616L393.831 545.289L386.418 540.866L388.019 538.183L395.78 542.815L400.763 536.512L403.712 538.272L398.647 544.525L404.668 548.118L409.651 541.816L412.599 543.576L407.555 549.841L413.412 553.336L411.811 556.019L405.606 552.316ZM390.097 555.364L396.056 558.92L402.719 550.593L396.719 547.013L390.097 555.364Z" fill="white"/>
<path d="M381.049 537.662L374.427 546.013L381.84 550.436L380.251 553.099L372.449 548.443L367.446 554.872L364.497 553.112L369.562 546.72L363.602 543.163L358.559 549.568L355.61 547.808L360.674 541.416L357.438 539.485L359.027 536.823L362.611 538.961L369.273 530.635L365.956 528.655L367.557 525.973L371.222 528.16L376.205 521.858L379.154 523.618L374.089 529.871L380.11 533.464L385.093 527.162L388.042 528.921L382.998 535.187L388.854 538.682L387.254 541.364L381.049 537.662ZM365.539 540.709L371.498 544.265L378.161 535.939L372.161 532.358L365.539 540.709Z" fill="white"/>
<path d="M594.833 704.408L590.532 709.833L592.687 711.119L591.655 712.848L589.247 711.411L585.998 715.587L584.082 714.444L587.372 710.292L583.501 707.982L580.225 712.142L578.309 710.999L581.599 706.847L577.821 704.593L578.853 702.863L582.857 705.253L587.185 699.844L582.369 696.971L583.409 695.228L588.451 698.237L591.687 694.143L593.603 695.286L590.313 699.348L594.224 701.682L597.46 697.588L599.376 698.731L596.099 702.801L598.228 704.071L597.188 705.814L594.833 704.408ZM584.759 706.388L588.63 708.698L592.958 703.289L589.06 700.963L584.759 706.388Z" fill="white"/>
<path d="M578.88 694.889L574.579 700.314L579.394 703.187L578.362 704.917L573.294 701.892L570.045 706.068L568.129 704.925L571.419 700.773L567.548 698.463L564.272 702.623L562.356 701.48L565.646 697.328L561.868 695.074L562.9 693.344L566.904 695.734L571.232 690.325L566.416 687.452L567.456 685.709L572.498 688.718L575.734 684.624L577.65 685.767L574.36 689.829L578.271 692.163L581.507 688.069L583.423 689.212L580.146 693.282L583.951 695.552L582.911 697.295L578.88 694.889ZM568.806 696.869L572.677 699.179L577.005 693.77L573.107 691.444L568.806 696.869Z" fill="white"/>
<path d="M562.928 685.37L558.627 690.794L563.442 693.668L562.41 695.397L557.342 692.373L554.093 696.549L552.177 695.406L555.467 691.254L551.596 688.944L548.319 693.104L546.404 691.961L549.693 687.809L545.916 685.554L546.948 683.825L550.952 686.214L555.279 680.806L550.464 677.932L551.504 676.189L556.546 679.198L559.782 675.104L561.698 676.247L558.408 680.309L562.319 682.643L565.555 678.549L567.471 679.692L564.194 683.762L567.999 686.033L566.959 687.775L562.928 685.37ZM552.854 687.349L556.725 689.659L561.053 684.251L557.155 681.925L552.854 687.349Z" fill="white"/>
<path d="M546.977 675.851L542.675 681.276L547.491 684.149L546.459 685.879L541.391 682.854L538.141 687.03L536.226 685.887L539.515 681.735L535.644 679.425L532.368 683.585L530.452 682.442L533.742 678.29L531.64 677.036L532.672 675.306L535 676.695L539.328 671.287L537.173 670.001L538.213 668.258L540.594 669.679L543.831 665.586L545.746 666.729L542.456 670.791L546.367 673.124L549.604 669.031L551.519 670.174L548.243 674.244L552.047 676.514L551.007 678.256L546.977 675.851ZM536.902 677.831L540.773 680.141L545.101 674.732L541.204 672.406L536.902 677.831Z" fill="white"/>
<path d="M561.702 505.831L560.862 512.703L563.371 512.676L563.393 514.689L560.589 514.719L559.995 519.977L557.764 520.001L558.405 514.743L553.897 514.791L553.272 520.05L551.042 520.074L551.682 514.815L547.283 514.862L547.262 512.849L551.924 512.799L552.795 505.927L547.188 505.987L547.166 503.958L553.037 503.895L553.662 498.714L555.893 498.69L555.205 503.871L559.759 503.822L560.385 498.641L562.616 498.617L561.943 503.799L564.421 503.772L564.443 505.801L561.702 505.831ZM554.139 512.775L558.647 512.726L559.518 505.854L554.979 505.903L554.139 512.775Z" fill="white"/>
<path d="M543.124 506.031L542.284 512.903L547.892 512.842L547.913 514.856L542.012 514.92L541.418 520.178L539.187 520.202L539.828 514.943L535.32 514.992L534.695 520.25L532.465 520.274L533.105 515.015L528.706 515.063L528.684 513.049L533.347 512.999L534.218 506.127L528.611 506.187L528.589 504.158L534.459 504.095L535.085 498.914L537.316 498.89L536.628 504.071L541.182 504.022L541.808 498.842L544.038 498.818L543.366 503.999L547.796 503.951L547.818 505.98L543.124 506.031ZM535.562 512.975L540.069 512.927L540.94 506.054L536.402 506.103L535.562 512.975Z" fill="white"/>
<path d="M524.549 506.231L523.709 513.102L529.316 513.042L529.338 515.056L523.437 515.119L522.842 520.377L520.612 520.401L521.253 515.143L516.745 515.191L516.12 520.45L513.889 520.474L514.53 515.215L510.131 515.262L510.109 513.249L514.772 513.199L515.643 506.326L510.035 506.387L510.014 504.358L515.884 504.294L516.51 499.114L518.741 499.09L518.053 504.271L522.607 504.222L523.233 499.041L525.463 499.017L524.791 504.199L529.221 504.151L529.243 506.18L524.549 506.231ZM516.987 513.175L521.494 513.126L522.365 506.254L517.827 506.303L516.987 513.175Z" fill="white"/>
<path d="M505.975 506.431L505.134 513.303L510.742 513.242L510.763 515.256L504.862 515.319L504.268 520.577L502.037 520.601L502.678 515.343L498.17 515.391L497.545 520.65L495.315 520.674L495.955 515.415L493.508 515.442L493.486 513.428L496.197 513.399L497.068 506.527L494.559 506.554L494.537 504.524L497.309 504.495L497.935 499.314L500.166 499.29L499.478 504.471L504.032 504.422L504.658 499.241L506.888 499.217L506.216 504.399L510.646 504.351L510.668 506.38L505.975 506.431ZM498.412 513.375L502.919 513.326L503.791 506.454L499.252 506.503L498.412 513.375Z" fill="white"/>
<path d="M180.294 572.249L172.28 565.224L170.139 568.439L167.558 566.721L169.95 563.128L163.776 557.815L165.679 554.956L171.813 560.329L175.659 554.553L169.511 549.199L171.414 546.341L177.549 551.714L181.302 546.076L183.882 547.794L179.905 553.769L187.893 560.835L192.676 553.648L195.277 555.38L190.268 562.903L196.317 568.19L194.414 571.049L188.418 565.682L184.533 571.519L190.582 576.806L188.679 579.664L182.67 574.318L180.555 577.494L177.955 575.763L180.294 572.249ZM178.015 556.608L174.169 562.385L182.157 569.45L186.029 563.634L178.015 556.608Z" fill="white"/>
<path d="M196.142 548.442L188.127 541.417L183.343 548.603L180.763 546.885L185.798 539.322L179.623 534.008L181.526 531.15L187.661 536.523L191.507 530.746L185.359 525.393L187.262 522.534L193.396 527.907L197.149 522.27L199.73 523.988L195.752 529.963L203.74 537.028L208.524 529.842L211.125 531.573L206.116 539.097L212.165 544.384L210.262 547.242L204.266 541.876L200.381 547.712L206.43 552.999L204.527 555.858L198.518 550.511L194.738 556.188L192.138 554.457L196.142 548.442ZM193.863 532.801L190.017 538.578L198.005 545.643L201.877 539.827L193.863 532.801Z" fill="white"/>
<path d="M211.989 524.637L203.975 517.611L199.191 524.797L196.61 523.079L201.645 515.516L195.471 510.202L197.374 507.344L203.509 512.717L207.354 506.94L201.206 501.587L203.109 498.729L209.244 504.102L212.997 498.464L215.578 500.182L211.6 506.157L219.588 513.222L224.372 506.036L226.972 507.767L221.964 515.291L228.013 520.578L226.11 523.437L220.114 518.07L216.228 523.906L222.277 529.194L220.374 532.052L214.365 526.705L210.586 532.383L207.985 530.652L211.989 524.637ZM209.71 508.996L205.865 514.773L213.853 521.838L217.725 516.021L209.71 508.996Z" fill="white"/>
<path d="M227.837 500.831L219.823 493.806L215.039 500.992L212.458 499.274L217.493 491.711L211.319 486.397L213.222 483.538L219.356 488.912L223.202 483.135L217.054 477.782L218.957 474.923L225.092 480.296L227.18 477.16L229.76 478.878L227.448 482.352L235.436 489.417L237.576 486.201L240.177 487.932L237.811 491.485L243.86 496.773L241.957 499.631L235.961 494.265L232.076 500.101L238.125 505.388L236.222 508.247L230.213 502.9L226.433 508.577L223.833 506.846L227.837 500.831ZM225.558 485.19L221.712 490.967L229.7 498.032L233.572 492.216L225.558 485.19Z" fill="white"/>
<path d="M305.683 332.999L298.159 331.125L297.846 333.918L295.604 333.667L295.954 330.547L290.191 329.167L290.469 326.685L296.227 328.116L296.789 323.098L291.03 321.685L291.308 319.202L297.066 320.633L297.615 315.736L299.856 315.988L299.274 321.177L306.794 323.085L307.494 316.844L309.752 317.097L309.02 323.632L314.693 325.036L314.415 327.518L308.749 326.045L308.181 331.114L313.854 332.518L313.576 335.001L307.908 333.545L307.599 336.304L305.341 336.05L305.683 332.999ZM298.998 323.643L298.435 328.66L305.955 330.568L306.521 325.516L298.998 323.643Z" fill="white"/>
<path d="M308 312.322L300.476 310.449L299.777 316.69L297.535 316.439L298.272 309.87L292.508 308.49L292.786 306.008L298.544 307.439L299.107 302.422L293.347 301.008L293.625 298.525L299.383 299.956L299.932 295.06L302.173 295.311L301.591 300.501L309.111 302.408L309.811 296.167L312.07 296.42L311.337 302.955L317.011 304.359L316.732 306.842L311.067 305.368L310.498 310.437L316.172 311.842L315.893 314.324L310.226 312.868L309.673 317.799L307.414 317.546L308 312.322ZM301.315 302.966L300.753 307.983L308.273 309.891L308.839 304.839L301.315 302.966Z" fill="white"/>
<path d="M310.318 291.647L302.795 289.773L302.095 296.015L299.854 295.763L300.59 289.195L294.826 287.815L295.105 285.332L300.863 286.764L301.425 281.746L295.665 280.333L295.944 277.85L301.701 279.281L302.25 274.384L304.492 274.636L303.91 279.825L311.43 281.733L312.129 275.492L314.388 275.745L313.655 282.279L319.329 283.684L319.051 286.166L313.385 284.693L312.817 289.762L318.49 291.166L318.212 293.649L312.544 292.193L311.991 297.124L309.733 296.871L310.318 291.647ZM303.633 282.291L303.071 287.308L310.591 289.216L311.157 284.164L303.633 282.291Z" fill="white"/>
<path d="M312.636 270.971L305.112 269.098L304.413 275.339L302.171 275.088L302.908 268.519L297.144 267.139L297.423 264.657L303.18 266.088L303.743 261.071L297.983 259.657L298.261 257.174L304.019 258.605L304.324 255.881L306.566 256.132L306.228 259.149L313.747 261.057L314.061 258.264L316.319 258.518L315.973 261.604L321.647 263.008L321.368 265.491L315.703 264.017L315.134 269.086L320.808 270.49L320.53 272.973L314.862 271.517L314.309 276.448L312.051 276.195L312.636 270.971ZM305.951 261.615L305.389 266.632L312.909 268.54L313.475 263.488L305.951 261.615Z" fill="white"/>
<path d="M277.858 307.052L278.094 311.356L279.629 311.066L279.862 312.298L278.147 312.622L278.357 315.91L276.992 316.169L276.811 312.875L274.053 313.397L274.244 316.689L272.879 316.947L272.698 313.654L267.002 314.732L266.769 313.5L272.625 312.392L272.409 308.084L265.974 309.302L265.739 308.061L272.335 306.812L272.152 303.568L273.517 303.309L273.661 306.561L276.448 306.033L276.265 302.789L277.63 302.531L277.784 305.78L279.3 305.493L279.535 306.735L277.858 307.052ZM273.981 312.135L276.738 311.613L276.522 307.305L273.745 307.831L273.981 312.135ZM265.527 302.329L268.868 319.975L264.12 320.873L263.865 319.528L267.107 318.914L264.281 303.988L261.039 304.602L260.779 303.228L265.527 302.329Z" fill="white"/>
<path d="M261.7 295.809L258.359 278.163L267.031 276.521L267.291 277.895L260.126 279.251L262.951 294.168L270.115 292.812L270.372 294.167L261.7 295.809ZM269.883 275.981L273.224 293.627L271.803 293.896L268.462 276.25L269.883 275.981Z" fill="white"/>
<path d="M257.075 252.451L262.315 251.459L262.549 252.691L257.308 253.683C256.619 253.813 256.136 254.009 255.859 254.271C255.575 254.535 255.488 254.957 255.598 255.538L256.361 259.517C256.517 260.305 256.5 260.923 256.31 261.372C256.112 261.815 255.699 262.158 255.071 262.401C255.528 262.393 255.904 262.46 256.199 262.6C256.492 262.734 256.729 262.964 256.908 263.29C257.08 263.611 257.22 264.053 257.326 264.615L258.073 268.557C258.184 269.145 258.417 269.513 258.772 269.662C259.128 269.81 259.65 269.82 260.339 269.689L265.579 268.697L265.814 269.938L260.574 270.931C259.866 271.065 259.237 271.095 258.687 271.023C258.137 270.957 257.683 270.735 257.324 270.358C256.965 269.981 256.711 269.404 256.564 268.627L255.875 264.988C255.814 264.666 255.729 264.387 255.619 264.153C255.508 263.912 255.341 263.724 255.12 263.59C254.891 263.456 254.576 263.382 254.174 263.366C253.772 263.351 253.252 263.403 252.614 263.524L252.373 262.254C253.011 262.134 253.515 261.992 253.884 261.831C254.246 261.671 254.509 261.49 254.674 261.289C254.839 261.087 254.93 260.857 254.946 260.599C254.961 260.334 254.939 260.041 254.878 259.719L254.184 255.953C254.042 255.168 254.071 254.544 254.271 254.081C254.465 253.619 254.804 253.267 255.289 253.025C255.772 252.776 256.367 252.585 257.075 252.451ZM265.149 250.922L268.648 269.402L267.217 269.673L263.718 251.193L265.149 250.922Z" fill="white"/>
<path d="M249.974 232.886L251.585 232.581L252.188 236.442L255.547 234.481L256.314 235.887L252.851 237.662L255.766 240.251L254.672 241.42L251.902 238.666L250.332 242.242L248.886 241.554L250.652 238.078L246.78 237.692L246.98 236.103L250.824 236.701L249.974 232.886ZM259.026 245.023L263.963 226.821L262.574 226.436L257.629 244.699L259.026 245.023Z" fill="white"/>
<path d="M181.38 196.69L182.351 200.89L183.814 200.34L184.255 201.514L182.621 202.128L183.392 205.331L182.092 205.82L181.348 202.607L178.721 203.594L179.474 206.804L178.174 207.293L177.43 204.08L172.004 206.12L171.562 204.946L177.142 202.849L176.189 198.642L170.059 200.947L169.614 199.764L175.898 197.402L175.161 194.237L176.461 193.748L177.162 196.926L179.816 195.928L179.079 192.764L180.379 192.275L181.089 195.45L182.533 194.907L182.978 196.089L181.38 196.69ZM178.433 202.363L181.06 201.375L180.107 197.169L177.462 198.163L178.433 202.363ZM168.422 194.153L174.742 210.964L170.219 212.665L169.737 211.383L172.824 210.222L167.478 196.002L164.391 197.163L163.898 195.854L168.422 194.153Z" fill="white"/>
<path d="M163.532 188.387L157.212 171.576L165.473 168.47L165.965 169.779L159.14 172.346L164.482 186.556L171.308 183.99L171.793 185.281L163.532 188.387ZM168.19 167.449L174.511 184.259L173.156 184.768L166.836 167.958L168.19 167.449Z" fill="white"/>
<path d="M151.533 146.467L156.525 144.59L156.967 145.763L151.974 147.641C151.318 147.887 150.876 148.163 150.647 148.469C150.413 148.777 150.399 149.208 150.608 149.762L152.042 153.55C152.331 154.3 152.421 154.912 152.31 155.387C152.192 155.857 151.844 156.266 151.267 156.614C151.716 156.527 152.097 156.528 152.412 156.616C152.724 156.698 152.997 156.884 153.23 157.174C153.454 157.461 153.667 157.872 153.869 158.407L155.281 162.163C155.491 162.723 155.784 163.046 156.16 163.131C156.535 163.216 157.051 163.136 157.707 162.889L162.7 161.012L163.145 162.195L158.152 164.072C157.478 164.325 156.863 164.464 156.309 164.487C155.756 164.516 155.271 164.375 154.852 164.066C154.433 163.756 154.085 163.231 153.807 162.491L152.503 159.024C152.388 158.717 152.256 158.457 152.107 158.245C151.957 158.027 151.76 157.871 151.519 157.776C151.271 157.684 150.948 157.664 150.549 157.718C150.15 157.772 149.647 157.913 149.039 158.142L148.584 156.932C149.192 156.703 149.664 156.478 149.999 156.256C150.329 156.036 150.557 155.812 150.685 155.586C150.813 155.359 150.863 155.117 150.834 154.86C150.804 154.596 150.731 154.311 150.616 154.004L149.286 150.413C149.012 149.665 148.933 149.045 149.051 148.554C149.163 148.066 149.436 147.66 149.872 147.339C150.305 147.011 150.859 146.72 151.533 146.467ZM159.225 143.575L165.844 161.18L164.481 161.692L157.862 144.087L159.225 143.575Z" fill="white"/>
<path d="M141.179 128.411L142.714 127.834L143.971 131.535L146.944 129.026L147.94 130.279L144.834 132.622L148.15 134.673L147.273 136.012L144.071 133.774L143.138 137.567L141.595 137.137L142.739 133.41L138.858 133.694L138.782 132.094L142.671 132.023L141.179 128.411ZM152.18 138.815L153.919 120.035L152.486 119.894L150.749 138.734L152.18 138.815Z" fill="white"/>
<path d="M386.347 633.154L387.381 637.338L388.836 636.766L389.295 637.933L387.67 638.572L388.49 641.763L387.198 642.272L386.404 639.07L383.793 640.098L384.595 643.296L383.302 643.804L382.509 640.602L377.115 642.725L376.656 641.558L382.203 639.376L381.186 635.184L375.091 637.582L374.629 636.406L380.876 633.948L380.091 630.795L381.384 630.286L382.132 633.454L384.771 632.416L383.987 629.262L385.279 628.754L386.037 631.918L387.473 631.353L387.935 632.529L386.347 633.154ZM383.486 638.871L386.098 637.843L385.081 633.652L382.451 634.686L383.486 638.871ZM373.351 630.814L379.926 647.527L375.429 649.296L374.928 648.021L377.998 646.813L372.436 632.677L369.367 633.884L368.854 632.583L373.351 630.814Z" fill="white"/>
<path d="M368.376 625.122L361.801 608.41L370.013 605.179L370.525 606.48L363.74 609.15L369.298 623.277L376.083 620.608L376.588 621.891L368.376 625.122ZM372.715 604.116L379.29 620.828L377.944 621.358L371.369 604.646L372.715 604.116Z" fill="white"/>
<path d="M355.741 583.389L360.704 581.437L361.163 582.603L356.2 584.556C355.548 584.813 355.11 585.096 354.886 585.405C354.656 585.716 354.649 586.147 354.866 586.698L356.358 590.464C356.658 591.21 356.757 591.82 356.654 592.296C356.542 592.768 356.201 593.183 355.629 593.539C356.076 593.446 356.458 593.441 356.774 593.524C357.088 593.601 357.363 593.783 357.6 594.069C357.829 594.353 358.048 594.76 358.258 595.293L359.727 599.027C359.946 599.583 360.243 599.901 360.62 599.981C360.997 600.061 361.512 599.973 362.164 599.716L367.127 597.763L367.59 598.939L362.627 600.892C361.956 601.155 361.344 601.303 360.79 601.334C360.238 601.372 359.75 601.239 359.327 600.936C358.904 600.632 358.547 600.113 358.258 599.377L356.902 595.93C356.782 595.625 356.646 595.367 356.494 595.158C356.34 594.942 356.142 594.788 355.899 594.697C355.649 594.609 355.326 594.594 354.928 594.654C354.53 594.714 354.029 594.863 353.425 595.101L352.951 593.898C353.556 593.66 354.024 593.428 354.356 593.2C354.682 592.975 354.907 592.748 355.032 592.52C355.156 592.291 355.202 592.049 355.17 591.792C355.136 591.529 355.058 591.245 354.938 590.94L353.555 587.369C353.269 586.625 353.181 586.006 353.291 585.514C353.395 585.024 353.663 584.614 354.093 584.286C354.521 583.952 355.071 583.653 355.741 583.389ZM363.388 580.381L370.274 597.883L368.918 598.416L362.033 580.914L363.388 580.381Z" fill="white"/>
<path d="M345.114 565.493L346.64 564.893L347.953 568.574L350.887 566.02L351.903 567.258L348.832 569.648L352.179 571.648L351.322 573.001L348.087 570.811L347.211 574.618L345.663 574.211L346.75 570.467L342.874 570.81L342.773 569.212L346.661 569.082L345.114 565.493ZM356.272 575.728L357.726 556.924L356.29 556.805L354.839 575.67L356.272 575.728Z" fill="white"/>
<path d="M132.2 501.416L127.969 502.243L128.469 503.723L127.281 504.124L126.722 502.47L123.495 503.132L123.051 501.816L126.288 501.181L125.39 498.522L122.156 499.166L121.712 497.85L124.949 497.215L123.095 491.723L124.283 491.322L126.189 496.97L130.426 496.161L128.332 489.955L129.529 489.551L131.676 495.912L134.864 495.284L135.308 496.6L132.108 497.191L133.014 499.878L136.202 499.25L136.647 500.566L133.449 501.167L133.943 502.629L132.746 503.033L132.2 501.416ZM126.631 498.276L127.528 500.936L131.765 500.127L130.861 497.449L126.631 498.276ZM135.177 488.551L118.161 494.294L116.615 489.716L117.913 489.278L118.968 492.403L133.362 487.545L132.307 484.42L133.632 483.973L135.177 488.551Z" fill="white"/>
<path d="M141.107 483.862L158.123 478.119L160.945 486.481L159.62 486.928L157.288 480.019L142.904 484.874L145.236 491.783L143.929 492.224L141.107 483.862ZM161.874 489.232L144.857 494.975L144.395 493.604L161.411 487.861L161.874 489.232Z" fill="white"/>
<path d="M183.412 473.3L185.118 478.354L183.93 478.755L182.224 473.701C182 473.037 181.739 472.585 181.441 472.347C181.141 472.102 180.711 472.074 180.151 472.263L176.315 473.568C175.556 473.831 174.941 473.899 174.471 473.773C174.005 473.638 173.608 473.277 173.28 472.688C173.351 473.139 173.337 473.521 173.239 473.832C173.146 474.142 172.951 474.408 172.653 474.631C172.359 474.845 171.941 475.044 171.399 475.227L167.597 476.51C167.03 476.701 166.698 476.983 166.6 477.356C166.501 477.728 166.564 478.246 166.788 478.91L168.494 483.964L167.297 484.368L165.591 479.315C165.361 478.632 165.244 478.013 165.24 477.458C165.229 476.905 165.386 476.425 165.71 476.017C166.034 475.609 166.571 475.279 167.32 475.026L170.829 473.841C171.14 473.736 171.404 473.613 171.621 473.472C171.844 473.329 172.007 473.138 172.11 472.9C172.211 472.656 172.241 472.333 172.201 471.933C172.161 471.532 172.037 471.025 171.829 470.409L173.054 469.996C173.261 470.611 173.47 471.09 173.681 471.433C173.89 471.77 174.105 472.006 174.327 472.141C174.55 472.277 174.79 472.335 175.048 472.316C175.312 472.294 175.6 472.231 175.91 472.126L179.545 470.92C180.302 470.671 180.924 470.614 181.411 470.748C181.895 470.877 182.291 471.164 182.597 471.61C182.91 472.054 183.182 472.618 183.412 473.3ZM186.04 481.086L168.219 487.101L167.753 485.721L185.574 479.706L186.04 481.086Z" fill="white"/>
<path d="M201.81 463.568L202.335 465.122L198.594 466.252L200.999 469.308L199.713 470.262L197.477 467.077L195.315 470.321L194.006 469.399L196.352 466.276L192.593 465.213L193.075 463.686L196.762 464.957L196.61 461.068L198.211 461.047L198.149 464.936L201.81 463.568ZM191.038 474.208L209.747 476.587L209.937 475.159L191.167 472.78L191.038 474.208Z" fill="white"/>
<path d="M277.931 667.138L276.435 671.18L277.959 671.524L277.683 672.747L275.98 672.363L274.865 675.463L273.51 675.157L274.654 672.063L271.916 671.445L270.782 674.541L269.427 674.235L270.57 671.141L264.916 669.865L265.192 668.642L271.007 669.954L272.521 665.916L266.133 664.474L266.411 663.241L272.96 664.72L274.083 661.671L275.438 661.977L274.277 665.017L277.043 665.642L278.166 662.593L279.521 662.899L278.37 665.941L279.875 666.281L279.597 667.514L277.931 667.138ZM272.352 670.258L275.09 670.876L276.605 666.838L273.848 666.216L272.352 670.258ZM268.498 657.898L264.543 675.417L259.829 674.352L260.131 673.016L263.348 673.743L266.694 658.925L263.476 658.198L263.784 656.834L268.498 657.898Z" fill="white"/>
<path d="M267.581 650.394L271.536 632.875L280.145 634.819L279.837 636.183L272.724 634.577L269.381 649.386L276.493 650.992L276.19 652.338L267.581 650.394ZM282.977 635.459L279.022 652.977L277.61 652.658L281.566 635.14L282.977 635.459Z" fill="white"/>
<path d="M280.587 608.775L285.789 609.95L285.513 611.173L280.31 609.998C279.627 609.844 279.105 609.831 278.747 609.961C278.381 610.09 278.134 610.443 278.003 611.02L277.121 614.973C276.95 615.759 276.688 616.319 276.335 616.655C275.978 616.983 275.463 617.134 274.79 617.107C275.212 617.281 275.53 617.492 275.745 617.738C275.961 617.978 276.087 618.283 276.122 618.654C276.152 619.016 276.104 619.477 275.978 620.035L275.094 623.949C274.962 624.532 275.03 624.963 275.297 625.241C275.564 625.518 276.039 625.734 276.723 625.889L281.926 627.064L281.647 628.296L276.444 627.121C275.742 626.963 275.153 626.741 274.677 626.455C274.199 626.176 273.87 625.792 273.691 625.303C273.511 624.814 273.508 624.184 273.682 623.413L274.498 619.8C274.57 619.48 274.603 619.191 274.595 618.932C274.589 618.667 274.511 618.428 274.361 618.217C274.205 618.003 273.946 617.81 273.583 617.635C273.22 617.461 272.722 617.303 272.088 617.16L272.373 615.899C273.006 616.042 273.524 616.113 273.927 616.111C274.323 616.108 274.637 616.047 274.868 615.928C275.099 615.809 275.274 615.634 275.392 615.404C275.511 615.167 275.607 614.889 275.679 614.569L276.541 610.838C276.723 610.062 276.998 609.501 277.366 609.155C277.728 608.808 278.179 608.62 278.72 608.591C279.262 608.555 279.884 608.616 280.587 608.775ZM288.603 610.585L284.46 628.931L283.04 628.61L287.182 610.264L288.603 610.585Z" fill="white"/>
<path d="M281.856 588L283.455 588.361L282.473 592.144L286.335 591.681L286.479 593.276L282.596 593.527L284.24 597.062L282.771 597.699L281.326 594.071L278.462 596.726L277.409 595.52L280.413 593.034L277.014 591.139L277.83 589.761L281.118 591.838L281.856 588ZM285.332 602.737L297.103 588.002L295.983 587.096L284.18 601.884L285.332 602.737Z" fill="white"/>
<path d="M154.646 777.797L152.099 781.274L153.47 782.023L152.869 783.123L151.337 782.287L149.414 784.962L148.195 784.296L150.143 781.635L147.68 780.289L145.74 782.956L144.521 782.29L146.469 779.628L141.382 776.85L141.983 775.749L147.214 778.606L149.779 775.138L144.031 771.999L144.636 770.89L150.528 774.108L152.445 771.484L153.664 772.15L151.713 774.755L154.202 776.114L156.119 773.491L157.338 774.156L155.396 776.766L156.75 777.506L156.144 778.615L154.646 777.797ZM148.425 779.268L150.888 780.613L153.453 777.145L150.972 775.79L148.425 779.268ZM148.108 766.324L139.5 782.086L135.259 779.77L135.916 778.568L138.811 780.149L146.092 766.817L143.197 765.236L143.867 764.008L148.108 766.324Z" fill="white"/>
<path d="M149.286 758.856L157.894 743.094L165.639 747.324L164.969 748.552L158.569 745.057L151.293 758.381L157.692 761.876L157.031 763.086L149.286 758.856ZM168.187 748.716L159.579 764.478L158.309 763.784L166.917 748.022L168.187 748.716Z" fill="white"/>
<path d="M173.206 722.4L177.888 724.957L177.287 726.057L172.605 723.501C171.99 723.165 171.492 723.01 171.112 723.036C170.725 723.06 170.39 723.331 170.107 723.85L168.173 727.41C167.794 728.119 167.388 728.586 166.957 728.812C166.523 729.03 165.987 729.033 165.347 728.823C165.705 729.106 165.953 729.396 166.092 729.692C166.234 729.982 166.271 730.31 166.203 730.675C166.133 731.033 165.961 731.462 165.686 731.965L163.763 735.486C163.476 736.011 163.423 736.444 163.604 736.784C163.784 737.124 164.182 737.462 164.797 737.798L169.478 740.355L168.873 741.464L164.192 738.907C163.56 738.562 163.054 738.187 162.674 737.782C162.292 737.382 162.081 736.923 162.042 736.404C162.003 735.884 162.174 735.277 162.553 734.583L164.328 731.333C164.485 731.045 164.596 730.775 164.659 730.525C164.726 730.268 164.717 730.017 164.63 729.773C164.539 729.525 164.342 729.267 164.041 729C163.74 728.733 163.305 728.444 162.735 728.133L163.354 726.998C163.924 727.31 164.403 727.52 164.79 727.629C165.172 727.735 165.49 727.762 165.745 727.711C166 727.66 166.216 727.539 166.393 727.35C166.573 727.155 166.741 726.914 166.898 726.626L168.751 723.275C169.138 722.578 169.557 722.114 170.005 721.883C170.448 721.648 170.934 721.591 171.462 721.711C171.993 721.825 172.574 722.055 173.206 722.4ZM180.419 726.339L171.404 742.846L170.126 742.148L179.141 725.641L180.419 726.339Z" fill="white"/>
<path d="M180.124 702.77L181.564 703.556L179.581 706.924L183.422 707.538L183.123 709.111L179.32 708.287L179.932 712.138L178.344 712.348L177.95 708.462L174.467 710.231L173.786 708.782L177.356 707.215L174.607 704.461L175.77 703.359L178.362 706.258L180.124 702.77ZM179.425 717.895L194.787 706.953L193.957 705.775L178.552 716.758L179.425 717.895Z" fill="white"/>
<path d="M103.601 391.456L99.6375 389.762L99.2186 391.268L98.0106 390.932L98.4786 389.25L95.4371 387.983L95.8094 386.645L98.8431 387.94L99.5955 385.236L96.5592 383.95L96.9315 382.612L99.9652 383.907L101.519 378.322L102.727 378.658L101.129 384.401L105.088 386.113L106.844 379.803L108.061 380.142L106.261 386.61L109.251 387.882L108.879 389.22L105.899 387.911L105.139 390.642L108.129 391.915L107.757 393.253L104.775 391.953L104.361 393.439L103.144 393.101L103.601 391.456ZM100.76 385.73L100.007 388.434L103.966 390.146L104.723 387.423L100.76 385.73ZM113.295 382.489L95.9924 377.675L97.2876 373.02L98.6071 373.387L97.7229 376.565L112.358 380.637L113.242 377.459L114.59 377.834L113.295 382.489Z" fill="white"/>
<path d="M120.835 381.944L138.138 386.758L135.772 395.261L134.425 394.886L136.379 387.861L121.753 383.791L119.799 390.816L118.47 390.447L120.835 381.944ZM134.994 398.058L117.692 393.244L118.079 391.85L135.382 396.664L134.994 398.058Z" fill="white"/>
<path d="M161.762 396.986L160.332 402.125L159.124 401.789L160.554 396.65C160.742 395.975 160.78 395.455 160.668 395.09C160.558 394.719 160.217 394.454 159.648 394.295L155.742 393.219C154.966 393.009 154.419 392.72 154.101 392.352C153.791 391.978 153.666 391.456 153.726 390.786C153.531 391.198 153.305 391.506 153.049 391.708C152.798 391.912 152.487 392.023 152.116 392.039C151.752 392.052 151.294 391.981 150.743 391.828L146.877 390.752C146.301 390.592 145.868 390.638 145.577 390.891C145.287 391.144 145.047 391.608 144.86 392.283L143.43 397.422L142.213 397.083L143.642 391.945C143.835 391.251 144.086 390.673 144.395 390.212C144.697 389.748 145.097 389.439 145.594 389.284C146.091 389.128 146.721 389.157 147.483 389.369L151.051 390.362C151.367 390.449 151.654 390.496 151.913 390.501C152.178 390.508 152.42 390.442 152.639 390.303C152.86 390.157 153.066 389.908 153.258 389.554C153.45 389.2 153.633 388.71 153.807 388.085L155.052 388.431C154.878 389.057 154.782 389.571 154.763 389.973C154.746 390.369 154.792 390.685 154.9 390.922C155.007 391.159 155.173 391.342 155.398 391.471C155.628 391.602 155.901 391.711 156.217 391.799L159.901 392.844C160.668 393.064 161.214 393.366 161.541 393.751C161.87 394.129 162.035 394.589 162.038 395.131C162.047 395.674 161.955 396.292 161.762 396.986ZM159.559 404.903L141.44 399.862L141.83 398.458L159.95 403.5L159.559 404.903Z" fill="white"/>
<path d="M182.449 399.278L182.01 400.857L178.28 399.689L178.552 403.57L176.952 403.635L176.893 399.744L173.281 401.212L172.717 399.713L176.413 398.449L173.901 395.458L175.158 394.466L177.493 397.588L179.553 394.287L180.889 395.169L178.652 398.351L182.449 399.278ZM167.559 402.023L181.696 414.506L182.656 413.432L168.468 400.914L167.559 402.023Z" fill="white"/>
<path d="M194.579 372.251C199.087 371.102 203.206 370.466 206.935 370.341C210.686 370.18 214.205 370.491 217.493 371.274C220.81 372.049 224.085 373.263 227.32 374.916C230.576 376.533 233.977 378.54 237.524 380.939L240.52 376.139C235.537 372.424 230.63 369.425 225.797 367.14C220.964 364.855 215.869 363.462 210.513 362.962C205.149 362.433 199.194 363.002 192.647 364.671C186.129 366.332 180.642 368.678 176.185 371.71C171.721 374.712 167.915 378.373 164.765 382.693C161.615 387.012 158.727 391.998 156.101 397.652L161.029 400.432C162.974 396.665 164.989 393.292 167.074 390.315C169.123 387.316 171.418 384.682 173.959 382.414C176.529 380.138 179.481 378.163 182.815 376.487C186.178 374.805 190.099 373.393 194.579 372.251Z" fill="white"/>
<path d="M209.475 265.58C212.882 266.56 215.837 267.727 218.338 269.081C220.868 270.419 223.063 271.979 224.924 273.76C226.808 275.547 228.495 277.607 229.986 279.939C231.506 282.256 232.97 284.886 234.38 287.83L238.199 285.826C236.351 281.464 234.278 277.601 231.979 274.237C229.679 270.873 226.864 267.996 223.533 265.604C220.208 263.191 216.072 261.272 211.123 259.849C206.195 258.432 201.682 257.863 197.583 258.141C193.491 258.398 189.577 259.34 185.842 260.969C182.107 262.597 178.287 264.766 174.383 267.473L176.554 271.2C179.284 269.471 181.908 268.028 184.426 266.872C186.929 265.688 189.453 264.839 191.998 264.325C194.564 263.818 197.267 263.655 200.105 263.837C202.965 264.025 206.088 264.606 209.475 265.58Z" fill="white"/>
<path d="M336.582 224.142C339.436 222.037 342.161 220.405 344.759 219.247C347.361 218.057 349.936 217.267 352.482 216.876C355.047 216.471 357.708 216.389 360.466 216.627C363.229 216.834 366.207 217.276 369.4 217.952L370.138 213.702C365.554 212.51 361.227 211.8 357.159 211.573C353.091 211.347 349.093 211.825 345.168 213.009C341.228 214.175 337.186 216.287 333.042 219.344C328.917 222.387 325.715 225.619 323.438 229.038C321.148 232.44 319.511 236.118 318.526 240.071C317.542 244.025 316.933 248.375 316.702 253.121L320.98 253.67C321.272 250.451 321.727 247.492 322.344 244.791C322.931 242.085 323.795 239.567 324.939 237.236C326.1 234.891 327.618 232.649 329.491 230.509C331.383 228.356 333.747 226.234 336.582 224.142Z" fill="white"/>
<path d="M270.133 202.096C271.717 200.928 273.229 200.023 274.67 199.38C276.114 198.72 277.542 198.281 278.955 198.064C280.378 197.84 281.854 197.794 283.384 197.926C284.917 198.041 286.569 198.286 288.341 198.661L288.751 196.304C286.207 195.642 283.807 195.248 281.549 195.122C279.292 194.997 277.075 195.262 274.897 195.919C272.711 196.566 270.469 197.737 268.17 199.433C265.88 201.122 264.104 202.915 262.841 204.812C261.571 206.699 260.662 208.74 260.116 210.933C259.57 213.127 259.232 215.54 259.104 218.173L261.477 218.478C261.639 216.692 261.892 215.05 262.234 213.552C262.559 212.05 263.039 210.653 263.674 209.36C264.318 208.059 265.16 206.816 266.199 205.628C267.249 204.434 268.56 203.256 270.133 202.096Z" fill="white"/>
<path d="M423.104 492.409C427.45 490.75 431.183 488.897 434.303 486.849C437.461 484.819 440.158 482.537 442.394 480.002C444.657 477.457 446.634 474.577 448.325 471.363C450.054 468.165 451.677 464.564 453.193 460.56L458.409 462.756C456.477 468.663 454.195 473.943 451.562 478.596C448.93 483.248 445.569 487.322 441.479 490.818C437.401 494.342 432.206 497.308 425.894 499.718C419.61 502.116 413.773 503.361 408.384 503.452C403.006 503.571 397.785 502.772 392.721 501.058C387.658 499.343 382.424 496.932 377.02 493.826L379.445 488.713C383.206 490.671 386.796 492.266 390.216 493.498C393.619 494.768 397.012 495.598 400.396 495.987C403.808 496.366 407.359 496.279 411.049 495.727C414.767 495.164 418.785 494.058 423.104 492.409Z" fill="white"/>
<path d="M205.947 610.597C207.39 615.02 209.057 618.84 210.948 622.057C212.82 625.311 214.967 628.117 217.388 630.475C219.819 632.862 222.598 634.978 225.725 636.826C228.833 638.71 232.35 640.509 236.275 642.22L233.824 647.321C228.02 645.101 222.858 642.561 218.341 639.702C213.824 636.843 209.921 633.286 206.631 629.029C203.313 624.782 200.606 619.447 198.51 613.024C196.424 606.629 195.469 600.738 195.644 595.351C195.79 589.973 196.845 584.798 198.807 579.826C200.769 574.853 203.435 569.744 206.804 564.5L211.791 567.174C209.65 570.834 207.88 574.341 206.481 577.696C205.045 581.032 204.049 584.38 203.493 587.741C202.947 591.13 202.859 594.68 203.228 598.394C203.607 602.135 204.514 606.203 205.947 610.597Z" fill="white"/>
<path d="M481.176 596.696C483.649 595.752 485.773 594.698 487.548 593.533C489.345 592.378 490.879 591.08 492.151 589.638C493.439 588.19 494.564 586.551 495.526 584.722C496.509 582.903 497.433 580.854 498.295 578.576L501.262 579.826C500.163 583.186 498.865 586.19 497.367 588.837C495.869 591.484 493.957 593.802 491.631 595.791C489.31 597.796 486.355 599.483 482.764 600.854C479.189 602.219 475.868 602.927 472.802 602.979C469.742 603.046 466.772 602.592 463.891 601.617C461.01 600.641 458.033 599.27 454.958 597.502L456.338 594.593C458.477 595.708 460.52 596.615 462.466 597.316C464.402 598.038 466.332 598.51 468.257 598.732C470.198 598.947 472.218 598.898 474.318 598.584C476.433 598.263 478.719 597.634 481.176 596.696Z" fill="white"/>
<path d="M313.879 609.781C315.188 607.48 316.157 605.316 316.786 603.289C317.439 601.255 317.797 599.277 317.863 597.355C317.936 595.419 317.763 593.439 317.342 591.416C316.945 589.386 316.355 587.218 315.573 584.911L318.657 583.989C319.946 587.282 320.853 590.426 321.38 593.421C321.907 596.417 321.905 599.421 321.373 602.436C320.857 605.458 319.648 608.64 317.748 611.981C315.856 615.308 313.743 617.966 311.41 619.955C309.091 621.952 306.509 623.49 303.666 624.569C300.822 625.647 297.651 626.482 294.154 627.072L293.37 623.95C295.73 623.45 297.883 622.851 299.831 622.155C301.785 621.482 303.575 620.619 305.202 619.566C306.837 618.498 308.365 617.176 309.785 615.598C311.215 614.006 312.579 612.067 313.879 609.781Z" fill="white"/>
<path d="M159.116 430.188C161.35 431.609 163.464 432.683 165.458 433.412C167.457 434.164 169.414 434.62 171.331 434.779C173.261 434.948 175.247 434.873 177.289 434.553C179.335 434.256 181.53 433.773 183.873 433.106L184.642 436.232C181.289 437.356 178.104 438.108 175.087 438.486C172.069 438.865 169.068 438.715 166.083 438.035C163.09 437.37 159.972 436.007 156.728 433.944C153.499 431.89 150.948 429.649 149.077 427.22C147.196 424.806 145.787 422.152 144.85 419.258C143.913 416.365 143.236 413.157 142.818 409.635L145.976 409.006C146.359 411.387 146.851 413.568 147.45 415.547C148.026 417.532 148.8 419.362 149.771 421.039C150.757 422.725 152.003 424.316 153.508 425.813C155.028 427.319 156.897 428.777 159.116 430.188Z" fill="white"/>
<path d="M260.26 691.496C261.656 690.495 262.814 689.482 263.735 688.458C264.671 687.436 265.419 686.368 265.979 685.253C266.548 684.131 266.983 682.917 267.284 681.611C267.601 680.307 267.841 678.869 268.006 677.296L270.074 677.59C269.94 679.88 269.622 681.98 269.12 683.888C268.618 685.797 267.801 687.567 266.67 689.2C265.546 690.841 263.97 692.389 261.943 693.843C259.926 695.29 257.959 696.283 256.044 696.823C254.135 697.371 252.196 697.577 250.228 697.441C248.259 697.305 246.164 696.937 243.942 696.336L244.327 694.283C245.854 694.628 247.285 694.86 248.622 694.978C249.956 695.111 251.246 695.088 252.49 694.909C253.744 694.723 255.003 694.358 256.269 693.814C257.543 693.263 258.873 692.491 260.26 691.496Z" fill="white"/>
<path d="M80.1448 372.606C81.0759 374.049 82.0302 375.256 83.0078 376.227C83.9822 377.212 85.0124 378.012 86.0986 378.626C87.1907 379.249 88.3818 379.744 89.6719 380.109C90.9588 380.489 92.3832 380.801 93.9453 381.043L93.5503 383.094C91.2692 382.847 89.188 382.426 87.3066 381.83C85.4252 381.235 83.6971 380.332 82.1223 379.122C80.5383 377.918 79.0703 376.268 77.7181 374.172C76.3719 372.085 75.4767 370.072 75.0325 368.133C74.5792 366.199 74.4688 364.253 74.7016 362.293C74.9343 360.333 75.4055 358.259 76.115 356.07L78.1467 356.555C77.7266 358.063 77.4246 359.482 77.2408 360.811C77.0418 362.137 77.0012 363.426 77.1189 364.678C77.2426 365.939 77.5451 367.215 78.0263 368.505C78.5135 369.805 79.2197 371.172 80.1448 372.606Z" fill="white"/>
<path d="M407.81 662.453C410.243 663.494 412.503 664.214 414.588 664.611C416.683 665.03 418.688 665.164 420.605 665.013C422.537 664.868 424.485 664.473 426.448 663.828C428.42 663.204 430.508 662.374 432.713 661.337L433.976 664.298C430.849 665.949 427.827 667.205 424.91 668.065C421.993 668.926 419.007 669.262 415.952 669.073C412.89 668.9 409.593 668.057 406.059 666.545C402.541 665.039 399.662 663.239 397.423 661.144C395.177 659.064 393.359 656.672 391.967 653.968C390.575 651.264 389.389 648.207 388.409 644.799L391.423 643.668C392.186 645.957 393.023 648.029 393.934 649.886C394.822 651.752 395.881 653.434 397.111 654.931C398.356 656.436 399.842 657.806 401.569 659.04C403.312 660.281 405.392 661.418 407.81 662.453Z" fill="white"/>
<path d="M101.879 521.408C100.719 523.787 99.8889 526.008 99.3893 528.072C98.8671 530.143 98.6344 532.139 98.6913 534.062C98.7408 535.999 99.0394 537.964 99.5871 539.956C100.112 541.956 100.838 544.083 101.766 546.336L98.7459 547.451C97.2512 544.247 96.146 541.167 95.4304 538.211C94.7147 535.255 94.5265 532.256 94.8655 529.214C95.1895 526.165 96.1937 522.913 97.8783 519.458C99.5554 516.018 101.495 513.231 103.698 511.098C105.886 508.958 108.365 507.259 111.134 506.003C113.904 504.746 117.015 503.712 120.468 502.901L121.448 505.968C119.125 506.617 117.014 507.35 115.114 508.168C113.207 508.964 111.475 509.939 109.919 511.093C108.354 512.262 106.913 513.679 105.596 515.343C104.27 517.023 103.031 519.044 101.879 521.408Z" fill="white"/>
<path d="M157 654.187H163L162.14 661.727L169.04 658.567L170.9 664.267L163.44 665.767L168.56 671.387L163.74 674.867L160 668.307L156.26 674.867L151.44 671.387L156.56 665.767L149.1 664.267L150.96 658.567L157.86 661.727L157 654.187ZM180.264 667.507C180.411 668.667 180.711 669.607 181.164 670.327C181.631 671.033 182.224 671.553 182.944 671.887C183.664 672.207 184.471 672.367 185.364 672.367C186.338 672.367 187.278 672.207 188.184 671.887C189.091 671.567 189.964 671.14 190.804 670.607L193.344 674.047C192.344 674.9 191.131 675.6 189.704 676.147C188.291 676.693 186.678 676.967 184.864 676.967C182.438 676.967 180.404 676.487 178.764 675.527C177.124 674.553 175.891 673.22 175.064 671.527C174.238 669.833 173.824 667.887 173.824 665.687C173.824 663.593 174.224 661.693 175.024 659.987C175.824 658.267 176.991 656.9 178.524 655.887C180.071 654.86 181.958 654.347 184.184 654.347C186.211 654.347 187.964 654.78 189.444 655.647C190.938 656.513 192.091 657.76 192.904 659.387C193.731 661.013 194.144 662.967 194.144 665.247C194.144 665.607 194.131 665.993 194.104 666.407C194.091 666.82 194.064 667.187 194.024 667.507H180.264ZM184.184 658.587C183.051 658.587 182.138 658.993 181.444 659.807C180.751 660.62 180.331 661.92 180.184 663.707H187.984C187.971 662.16 187.671 660.92 187.084 659.987C186.498 659.053 185.531 658.587 184.184 658.587Z" fill="white"/>
<path d="M53 429.587H59L58.14 437.127L65.04 433.967L66.9 439.667L59.44 441.167L64.56 446.787L59.74 450.267L56 443.707L52.26 450.267L47.44 446.787L52.56 441.167L45.1 439.667L46.96 433.967L53.86 437.127L53 429.587Z" fill="white"/>
<path d="M433 213.587H439L438.14 221.127L445.04 217.967L446.9 223.667L439.44 225.167L444.56 230.787L439.74 234.267L436 227.707L432.26 234.267L427.44 230.787L432.56 225.167L425.1 223.667L426.96 217.967L433.86 221.127L433 213.587Z" fill="white"/>
<path d="M359 154.587H365L364.14 162.127L371.04 158.967L372.9 164.667L365.44 166.167L370.56 171.787L365.74 175.267L362 168.707L358.26 175.267L353.44 171.787L358.56 166.167L351.1 164.667L352.96 158.967L359.86 162.127L359 154.587Z" fill="white"/>
<path d="M143 255.587H149L148.14 263.127L155.04 259.967L156.9 265.667L149.44 267.167L154.56 272.787L149.74 276.267L146 269.707L142.26 276.267L137.44 272.787L142.56 267.167L135.1 265.667L136.96 259.967L143.86 263.127L143 255.587Z" fill="white"/>
<path d="M582.54 446.507C582.54 445.693 582.74 444.953 583.14 444.287C583.54 443.607 584.08 443.067 584.76 442.667C585.44 442.253 586.187 442.047 587 442.047C587.827 442.047 588.573 442.253 589.24 442.667C589.92 443.067 590.46 443.607 590.86 444.287C591.26 444.953 591.46 445.693 591.46 446.507C591.46 447.307 591.26 448.047 590.86 448.727C590.46 449.407 589.92 449.947 589.24 450.347C588.573 450.76 587.827 450.967 587 450.967C586.187 450.967 585.44 450.76 584.76 450.347C584.08 449.947 583.54 449.407 583.14 448.727C582.74 448.047 582.54 447.307 582.54 446.507Z" fill="white"/>
<path d="M131.54 354.507C131.54 353.693 131.74 352.953 132.14 352.287C132.54 351.607 133.08 351.067 133.76 350.667C134.44 350.253 135.187 350.047 136 350.047C136.827 350.047 137.573 350.253 138.24 350.667C138.92 351.067 139.46 351.607 139.86 352.287C140.26 352.953 140.46 353.693 140.46 354.507C140.46 355.307 140.26 356.047 139.86 356.727C139.46 357.407 138.92 357.947 138.24 358.347C137.573 358.76 136.827 358.967 136 358.967C135.187 358.967 134.44 358.76 133.76 358.347C133.08 357.947 132.54 357.407 132.14 356.727C131.74 356.047 131.54 355.307 131.54 354.507Z" fill="white"/>
<path d="M285.54 152.507C285.54 151.693 285.74 150.953 286.14 150.287C286.54 149.607 287.08 149.067 287.76 148.667C288.44 148.253 289.187 148.047 290 148.047C290.827 148.047 291.573 148.253 292.24 148.667C292.92 149.067 293.46 149.607 293.86 150.287C294.26 150.953 294.46 151.693 294.46 152.507C294.46 153.307 294.26 154.047 293.86 154.727C293.46 155.407 292.92 155.947 292.24 156.347C291.573 156.76 290.827 156.967 290 156.967C289.187 156.967 288.44 156.76 287.76 156.347C287.08 155.947 286.54 155.407 286.14 154.727C285.74 154.047 285.54 153.307 285.54 152.507Z" fill="white"/>
<path d="M59.54 271.507C59.54 270.693 59.74 269.953 60.14 269.287C60.54 268.607 61.08 268.067 61.76 267.667C62.44 267.253 63.1867 267.047 64 267.047C64.8267 267.047 65.5733 267.253 66.24 267.667C66.92 268.067 67.46 268.607 67.86 269.287C68.26 269.953 68.46 270.693 68.46 271.507C68.46 272.307 68.26 273.047 67.86 273.727C67.46 274.407 66.92 274.947 66.24 275.347C65.5733 275.76 64.8267 275.967 64 275.967C63.1867 275.967 62.44 275.76 61.76 275.347C61.08 274.947 60.54 274.407 60.14 273.727C59.74 273.047 59.54 272.307 59.54 271.507Z" fill="white"/>
<path d="M43.54 375.507C43.54 374.693 43.74 373.953 44.14 373.287C44.54 372.607 45.08 372.067 45.76 371.667C46.44 371.253 47.1867 371.047 48 371.047C48.8267 371.047 49.5733 371.253 50.24 371.667C50.92 372.067 51.46 372.607 51.86 373.287C52.26 373.953 52.46 374.693 52.46 375.507C52.46 376.307 52.26 377.047 51.86 377.727C51.46 378.407 50.92 378.947 50.24 379.347C49.5733 379.76 48.8267 379.967 48 379.967C47.1867 379.967 46.44 379.76 45.76 379.347C45.08 378.947 44.54 378.407 44.14 377.727C43.74 377.047 43.54 376.307 43.54 375.507Z" fill="white"/>
<path d="M302.54 674.507C302.54 673.693 302.74 672.953 303.14 672.287C303.54 671.607 304.08 671.067 304.76 670.667C305.44 670.253 306.187 670.047 307 670.047C307.827 670.047 308.573 670.253 309.24 670.667C309.92 671.067 310.46 671.607 310.86 672.287C311.26 672.953 311.46 673.693 311.46 674.507C311.46 675.307 311.26 676.047 310.86 676.727C310.46 677.407 309.92 677.947 309.24 678.347C308.573 678.76 307.827 678.967 307 678.967C306.187 678.967 305.44 678.76 304.76 678.347C304.08 677.947 303.54 677.407 303.14 676.727C302.74 676.047 302.54 675.307 302.54 674.507Z" fill="white"/>
<path d="M510.54 423.507C510.54 422.693 510.74 421.953 511.14 421.287C511.54 420.607 512.08 420.067 512.76 419.667C513.44 419.253 514.187 419.047 515 419.047C515.827 419.047 516.573 419.253 517.24 419.667C517.92 420.067 518.46 420.607 518.86 421.287C519.26 421.953 519.46 422.693 519.46 423.507C519.46 424.307 519.26 425.047 518.86 425.727C518.46 426.407 517.92 426.947 517.24 427.347C516.573 427.76 515.827 427.967 515 427.967C514.187 427.967 513.44 427.76 512.76 427.347C512.08 426.947 511.54 426.407 511.14 425.727C510.74 425.047 510.54 424.307 510.54 423.507Z" fill="white"/>
<path d="M120.54 688.507C120.54 687.693 120.74 686.953 121.14 686.287C121.54 685.607 122.08 685.067 122.76 684.667C123.44 684.253 124.187 684.047 125 684.047C125.827 684.047 126.573 684.253 127.24 684.667C127.92 685.067 128.46 685.607 128.86 686.287C129.26 686.953 129.46 687.693 129.46 688.507C129.46 689.307 129.26 690.047 128.86 690.727C128.46 691.407 127.92 691.947 127.24 692.347C126.573 692.76 125.827 692.967 125 692.967C124.187 692.967 123.44 692.76 122.76 692.347C122.08 691.947 121.54 691.407 121.14 690.727C120.74 690.047 120.54 689.307 120.54 688.507Z" fill="white"/>
<path d="M490.68 464.307H493.32L493.24 472.587L501.04 470.007L501.82 472.427L493.98 474.927L498.88 481.567L496.82 483.067L492 476.347L487.18 483.067L485.12 481.567L490.02 474.927L482.18 472.427L482.96 470.007L490.76 472.587L490.68 464.307Z" fill="white"/>
<path d="M110.68 347.307H113.32L113.24 355.587L121.04 353.007L121.82 355.427L113.98 357.927L118.88 364.567L116.82 366.067L112 359.347L107.18 366.067L105.12 364.567L110.02 357.927L102.18 355.427L102.96 353.007L110.76 355.587L110.68 347.307Z" fill="white"/>
<path d="M237.68 166.307H240.32L240.24 174.587L248.04 172.007L248.82 174.427L240.98 176.927L245.88 183.567L243.82 185.067L239 178.347L234.18 185.067L232.12 183.567L237.02 176.927L229.18 174.427L229.96 172.007L237.76 174.587L237.68 166.307Z" fill="white"/>
<path d="M10.68 234.307H13.32L13.24 242.587L21.04 240.007L21.82 242.427L13.98 244.927L18.88 251.567L16.82 253.067L12 246.347L7.18 253.067L5.12 251.567L10.02 244.927L2.18 242.427L2.96 240.007L10.76 242.587L10.68 234.307Z" fill="white"/>
<path d="M673.68 412.307H676.32L676.24 420.587L684.04 418.007L684.82 420.427L676.98 422.927L681.88 429.567L679.82 431.067L675 424.347L670.18 431.067L668.12 429.567L673.02 422.927L665.18 420.427L665.96 418.007L673.76 420.587L673.68 412.307Z" fill="white"/>
<path d="M513.68 628.307H516.32L516.24 636.587L524.04 634.007L524.82 636.427L516.98 638.927L521.88 645.567L519.82 647.067L515 640.347L510.18 647.067L508.12 645.567L513.02 638.927L505.18 636.427L505.96 634.007L513.76 636.587L513.68 628.307Z" fill="white"/>
<path d="M59.68 590.307H62.32L62.24 598.587L70.04 596.007L70.82 598.427L62.98 600.927L67.88 607.567L65.82 609.067L61 602.347L56.18 609.067L54.12 607.567L59.02 600.927L51.18 598.427L51.96 596.007L59.76 598.587L59.68 590.307Z" fill="white"/>
</svg>
