<svg width="511" height="470" viewBox="0 0 511 470" fill="none" xmlns="http://www.w3.org/2000/svg">
<path d="M225.462 184.163L241.164 219.599L207.718 239.184L203.615 232.574L211.289 228.266C212.243 227.677 213.269 227.126 214.364 226.615C215.43 226.095 216.747 225.671 218.315 225.346L162.572 207.368L164.699 200.773L225.094 220.251L225.14 220.266L231.678 216.539L228.549 209.695L228.503 209.681L168.108 190.203L170.235 183.608L225.978 201.585C224.865 200.395 224.029 199.278 223.468 198.232C222.908 197.187 222.412 196.146 221.982 195.11L218.271 187.131L225.462 184.163ZM248.952 191.739L264.654 227.174L231.208 246.759L227.15 240.164L255.167 224.115L241.806 194.721L248.952 191.739Z" fill="white"/>
<path d="M113.924 172.728L116.051 166.133L172.065 184.198L169.938 190.793L113.924 172.728ZM108.388 189.894L110.515 183.299L166.529 201.364L164.402 207.959L108.388 189.894Z" fill="white"/>
<path d="M59.7295 155.251L61.8564 148.656L117.87 166.721L115.743 173.316L59.7295 155.251ZM54.1935 172.417L56.3205 165.821L112.334 183.886L110.207 190.481L54.1935 172.417Z" fill="white"/>
<path d="M5.5361 137.773L7.66309 131.178L63.677 149.243L61.5501 155.838L5.5361 137.773ZM0.000122143 154.939L2.1271 148.344L58.1411 166.409L56.0141 173.004L0.000122143 154.939Z" fill="white"/>
<path d="M276.128 219.46L307.779 229.619L317.722 198.642L336.512 204.673L326.57 235.65L358.221 245.809L351.708 266.102L320.057 255.943L310.163 286.766L291.373 280.735L301.266 249.912L269.615 239.753L276.128 219.46Z" fill="white"/>
<path d="M288.129 304.563L272.491 310.443L256.945 264.369L224.845 300.591L212.443 288.582L253.352 245.597L267.563 248.535L288.129 304.563Z" fill="white"/>
<path d="M263.458 301.428L257.831 303.543L252.236 286.964L240.685 299.998L236.223 295.677L250.943 280.209L256.057 281.266L263.458 301.428Z" fill="white"/>
<path d="M330.504 176.601L320.917 162.918L282.072 192.169L276.029 144.149L259.013 147.057L268.507 205.633L281.896 211.232L330.504 176.601Z" fill="white"/>
<path d="M314.017 161.166L309.737 155.057L292.393 168.116L289.695 146.676L282.098 147.975L286.337 174.128L292.315 176.628L314.017 161.166Z" fill="white"/>
<path d="M225.867 257.812L220.167 260.983L219.701 260.146L225.401 256.974L225.867 257.812Z" fill="white"/>
<path d="M213.05 264.942L212.584 264.104L219.939 260.012L220.405 260.85L213.05 264.942Z" fill="white"/>
<path d="M205.935 268.901L205.469 268.063L212.823 263.971L213.289 264.809L205.935 268.901Z" fill="white"/>
<path d="M198.82 272.861L198.354 272.023L205.708 267.931L206.174 268.769L198.82 272.861Z" fill="white"/>
<path d="M191.704 276.82L191.238 275.982L198.593 271.89L199.059 272.728L191.704 276.82Z" fill="white"/>
<path d="M184.589 280.779L184.123 279.941L191.478 275.849L191.944 276.687L184.589 280.779Z" fill="white"/>
<path d="M177.473 284.738L177.007 283.9L184.361 279.808L184.828 280.646L177.473 284.738Z" fill="white"/>
<path d="M170.357 288.697L169.891 287.859L177.245 283.767L177.711 284.605L170.357 288.697Z" fill="white"/>
<path d="M163.242 292.656L162.775 291.818L170.13 287.726L170.596 288.564L163.242 292.656Z" fill="white"/>
<path d="M156.126 296.615L155.66 295.777L163.015 291.685L163.481 292.523L156.126 296.615Z" fill="white"/>
<path d="M149.011 300.575L148.545 299.737L155.899 295.645L156.366 296.482L149.011 300.575Z" fill="white"/>
<path d="M141.894 304.534L141.428 303.696L148.782 299.604L149.248 300.441L141.894 304.534Z" fill="white"/>
<path d="M134.78 308.493L134.313 307.655L141.668 303.563L142.134 304.4L134.78 308.493Z" fill="white"/>
<path d="M127.664 312.452L127.198 311.614L134.553 307.522L135.019 308.36L127.664 312.452Z" fill="white"/>
<path d="M120.548 316.411L120.082 315.573L127.437 311.481L127.903 312.319L120.548 316.411Z" fill="white"/>
<path d="M113.433 320.37L112.967 319.532L120.321 315.44L120.787 316.278L113.433 320.37Z" fill="white"/>
<path d="M106.317 324.329L105.851 323.491L113.205 319.399L113.671 320.237L106.317 324.329Z" fill="white"/>
<path d="M99.2005 328.288L98.7344 327.451L106.089 323.359L106.555 324.196L99.2005 328.288Z" fill="white"/>
<path d="M92.0862 332.248L91.6201 331.41L98.9747 327.318L99.4408 328.156L92.0862 332.248Z" fill="white"/>
<path d="M64.9798 347.329L64.5137 346.492L91.8585 331.277L92.3246 332.115L64.9798 347.329Z" fill="white"/>
<path d="M510.149 90.0825L462.221 116.75L461.755 115.912L509.683 89.2448L510.149 90.0825Z" fill="white"/>
<path d="M455.105 120.709L454.639 119.872L461.993 115.779L462.459 116.617L455.105 120.709Z" fill="white"/>
<path d="M447.99 124.668L447.523 123.831L454.878 119.738L455.344 120.576L447.99 124.668Z" fill="white"/>
<path d="M440.873 128.627L440.407 127.79L447.762 123.697L448.228 124.535L440.873 128.627Z" fill="white"/>
<path d="M433.758 132.586L433.292 131.749L440.647 127.656L441.113 128.494L433.758 132.586Z" fill="white"/>
<path d="M426.644 136.546L426.178 135.708L433.532 131.616L433.998 132.454L426.644 136.546Z" fill="white"/>
<path d="M419.527 140.505L419.061 139.667L426.415 135.575L426.881 136.413L419.527 140.505Z" fill="white"/>
<path d="M412.411 144.464L411.945 143.626L419.3 139.534L419.766 140.372L412.411 144.464Z" fill="white"/>
<path d="M405.296 148.423L404.83 147.585L412.185 143.493L412.651 144.331L405.296 148.423Z" fill="white"/>
<path d="M398.181 152.382L397.715 151.544L405.069 147.452L405.536 148.29L398.181 152.382Z" fill="white"/>
<path d="M391.065 156.342L390.599 155.504L397.953 151.412L398.419 152.25L391.065 156.342Z" fill="white"/>
<path d="M383.949 160.301L383.482 159.463L390.837 155.371L391.303 156.209L383.949 160.301Z" fill="white"/>
<path d="M376.833 164.26L376.367 163.422L383.722 159.33L384.188 160.167L376.833 164.26Z" fill="white"/>
<path d="M369.718 168.219L369.252 167.381L376.607 163.289L377.073 164.126L369.718 168.219Z" fill="white"/>
<path d="M362.603 172.178L362.137 171.34L369.491 167.248L369.957 168.086L362.603 172.178Z" fill="white"/>
<path d="M355.488 176.137L355.021 175.299L362.376 171.207L362.842 172.045L355.488 176.137Z" fill="white"/>
<path d="M348.37 180.096L347.904 179.258L355.259 175.166L355.725 176.004L348.37 180.096Z" fill="white"/>
<path d="M341.255 184.055L340.789 183.218L348.144 179.126L348.61 179.963L341.255 184.055Z" fill="white"/>
<path d="M334.14 188.014L333.674 187.177L341.028 183.085L341.495 183.922L334.14 188.014Z" fill="white"/>
<path d="M328.679 191.053L328.213 190.215L333.913 187.044L334.379 187.882L328.679 191.053Z" fill="white"/>
<path d="M254.969 189.352L252.03 183.529L252.886 183.097L255.825 188.92L254.969 189.352Z" fill="white"/>
<path d="M248.361 176.258L249.217 175.826L253.009 183.34L252.153 183.772L248.361 176.258Z" fill="white"/>
<path d="M244.692 168.989L245.548 168.557L249.34 176.071L248.484 176.503L244.692 168.989Z" fill="white"/>
<path d="M241.022 161.72L241.878 161.288L245.67 168.802L244.814 169.234L241.022 161.72Z" fill="white"/>
<path d="M237.354 154.451L238.21 154.019L242.002 161.533L241.146 161.965L237.354 154.451Z" fill="white"/>
<path d="M233.685 147.181L234.541 146.75L238.333 154.263L237.477 154.695L233.685 147.181Z" fill="white"/>
<path d="M230.016 139.911L230.872 139.479L234.664 146.993L233.808 147.425L230.016 139.911Z" fill="white"/>
<path d="M226.347 132.642L227.203 132.21L230.995 139.724L230.139 140.156L226.347 132.642Z" fill="white"/>
<path d="M222.677 125.373L223.533 124.941L227.325 132.455L226.47 132.886L222.677 125.373Z" fill="white"/>
<path d="M219.008 118.103L219.864 117.671L223.656 125.185L222.801 125.617L219.008 118.103Z" fill="white"/>
<path d="M215.34 110.835L216.196 110.403L219.988 117.916L219.133 118.348L215.34 110.835Z" fill="white"/>
<path d="M211.671 103.564L212.526 103.132L216.319 110.645L215.463 111.077L211.671 103.564Z" fill="white"/>
<path d="M208.003 96.2947L208.858 95.8628L212.651 103.376L211.795 103.808L208.003 96.2947Z" fill="white"/>
<path d="M204.333 89.0252L205.188 88.5933L208.981 96.1069L208.125 96.5388L204.333 89.0252Z" fill="white"/>
<path d="M200.664 81.7562L201.52 81.3242L205.312 88.8378L204.456 89.2698L200.664 81.7562Z" fill="white"/>
<path d="M196.996 74.4871L197.852 74.0552L201.644 81.5688L200.788 82.0007L196.996 74.4871Z" fill="white"/>
<path d="M193.326 67.2166L194.182 66.7847L197.974 74.2983L197.118 74.7302L193.326 67.2166Z" fill="white"/>
<path d="M189.657 59.9476L190.513 59.5156L194.305 67.0292L193.449 67.4612L189.657 59.9476Z" fill="white"/>
<path d="M185.988 52.6785L186.844 52.2466L190.636 59.7602L189.78 60.1921L185.988 52.6785Z" fill="white"/>
<path d="M166.27 13.6111L167.126 13.1792L186.967 52.4906L186.111 52.9226L166.27 13.6111Z" fill="white"/>
<path d="M384.587 469.252L366.451 433.319L367.307 432.887L385.443 468.82L384.587 469.252Z" fill="white"/>
<path d="M362.783 426.048L363.639 425.616L367.431 433.13L366.575 433.562L362.783 426.048Z" fill="white"/>
<path d="M359.113 418.779L359.969 418.347L363.761 425.861L362.905 426.293L359.113 418.779Z" fill="white"/>
<path d="M355.444 411.51L356.3 411.078L360.092 418.591L359.236 419.023L355.444 411.51Z" fill="white"/>
<path d="M351.775 404.241L352.631 403.809L356.423 411.322L355.567 411.754L351.775 404.241Z" fill="white"/>
<path d="M348.106 396.972L348.962 396.54L352.754 404.053L351.898 404.485L348.106 396.972Z" fill="white"/>
<path d="M344.438 389.701L345.294 389.269L349.086 396.783L348.23 397.215L344.438 389.701Z" fill="white"/>
<path d="M340.768 382.431L341.624 382L345.416 389.513L344.56 389.945L340.768 382.431Z" fill="white"/>
<path d="M337.099 375.162L337.955 374.73L341.747 382.244L340.891 382.676L337.099 375.162Z" fill="white"/>
<path d="M333.43 367.893L334.286 367.461L338.078 374.975L337.222 375.407L333.43 367.893Z" fill="white"/>
<path d="M329.761 360.624L330.617 360.192L334.409 367.706L333.554 368.138L329.761 360.624Z" fill="white"/>
<path d="M326.092 353.353L326.948 352.921L330.74 360.435L329.885 360.867L326.092 353.353Z" fill="white"/>
<path d="M322.423 346.084L323.279 345.652L327.071 353.166L326.216 353.598L322.423 346.084Z" fill="white"/>
<path d="M318.755 338.815L319.61 338.383L323.403 345.897L322.547 346.329L318.755 338.815Z" fill="white"/>
<path d="M315.086 331.546L315.941 331.114L319.734 338.628L318.878 339.06L315.086 331.546Z" fill="white"/>
<path d="M311.417 324.277L312.272 323.845L316.065 331.358L315.209 331.79L311.417 324.277Z" fill="white"/>
<path d="M307.748 317.007L308.604 316.575L312.396 324.088L311.54 324.52L307.748 317.007Z" fill="white"/>
<path d="M304.078 309.737L304.934 309.305L308.726 316.819L307.87 317.251L304.078 309.737Z" fill="white"/>
<path d="M300.41 302.468L301.266 302.036L305.058 309.55L304.202 309.982L300.41 302.468Z" fill="white"/>
<path d="M297.593 296.889L298.449 296.457L301.388 302.28L300.532 302.712L297.593 296.889Z" fill="white"/>
<path d="M249.926 299.95L247.684 307.569L246.765 307.299L249.006 299.68L249.926 299.95Z" fill="white"/>
<path d="M244.886 317.081L243.967 316.811L246.859 306.979L247.779 307.25L244.886 317.081Z" fill="white"/>
<path d="M242.088 326.593L241.168 326.323L244.06 316.492L244.98 316.762L242.088 326.593Z" fill="white"/>
<path d="M239.29 336.105L238.37 335.834L241.262 326.003L242.182 326.274L239.29 336.105Z" fill="white"/>
<path d="M236.492 345.616L235.572 345.346L238.464 335.515L239.384 335.785L236.492 345.616Z" fill="white"/>
<path d="M233.693 355.128L232.773 354.858L235.666 345.027L236.585 345.297L233.693 355.128Z" fill="white"/>
<path d="M230.895 364.64L229.976 364.37L232.868 354.538L233.787 354.809L230.895 364.64Z" fill="white"/>
<path d="M228.097 374.152L227.178 373.881L230.07 364.05L230.99 364.321L228.097 374.152Z" fill="white"/>
<path d="M225.299 383.664L224.379 383.393L227.271 373.562L228.191 373.832L225.299 383.664Z" fill="white"/>
<path d="M222.501 393.175L221.581 392.905L224.473 383.074L225.393 383.344L222.501 393.175Z" fill="white"/>
<path d="M220.353 400.475L219.434 400.205L221.675 392.585L222.595 392.856L220.353 400.475Z" fill="white"/>
<path d="M328.085 54.1895L325.844 61.8086L324.924 61.5381L327.165 53.9189L328.085 54.1895Z" fill="white"/>
<path d="M323.045 71.3204L322.125 71.0498L325.017 61.2186L325.937 61.4892L323.045 71.3204Z" fill="white"/>
<path d="M320.247 80.8321L319.327 80.5615L322.219 70.7303L323.139 71.0009L320.247 80.8321Z" fill="white"/>
<path d="M317.449 90.3438L316.529 90.0732L319.421 80.242L320.341 80.5126L317.449 90.3438Z" fill="white"/>
<path d="M314.65 99.8555L313.73 99.585L316.623 89.7538L317.542 90.0243L314.65 99.8555Z" fill="white"/>
<path d="M311.852 109.367L310.933 109.097L313.825 99.2655L314.744 99.536L311.852 109.367Z" fill="white"/>
<path d="M309.054 118.879L308.135 118.609L311.027 108.778L311.947 109.048L309.054 118.879Z" fill="white"/>
<path d="M306.256 128.391L305.336 128.121L308.228 118.289L309.148 118.56L306.256 128.391Z" fill="white"/>
<path d="M303.458 137.903L302.538 137.632L305.43 127.801L306.35 128.072L303.458 137.903Z" fill="white"/>
<path d="M300.66 147.414L299.74 147.144L302.632 137.312L303.552 137.583L300.66 147.414Z" fill="white"/>
<path d="M298.512 154.714L297.593 154.443L299.834 146.824L300.754 147.095L298.512 154.714Z" fill="white"/>
<path d="M312.862 20.3496L308.804 46.4102L307.856 46.2627L311.915 20.2021L312.862 20.3496Z" fill="white"/>
<path d="M307.277 56.2071L306.33 56.0596L307.907 45.9339L308.854 46.0814L307.277 56.2071Z" fill="white"/>
<path d="M305.752 66.0035L304.805 65.856L306.382 55.7302L307.329 55.8778L305.752 66.0035Z" fill="white"/>
<path d="M304.226 75.8004L303.278 75.6528L304.855 65.5271L305.803 65.6746L304.226 75.8004Z" fill="white"/>
<path d="M302.7 85.5967L301.753 85.4492L303.33 75.3235L304.277 75.471L302.7 85.5967Z" fill="white"/>
<path d="M301.175 95.3936L300.228 95.2461L301.805 85.1204L302.752 85.2679L301.175 95.3936Z" fill="white"/>
<path d="M299.648 105.19L298.701 105.043L300.278 94.9173L301.225 95.0648L299.648 105.19Z" fill="white"/>
<path d="M298.123 114.987L297.176 114.839L298.753 104.714L299.7 104.861L298.123 114.987Z" fill="white"/>
<path d="M296.597 124.784L295.649 124.636L297.226 114.511L298.174 114.658L296.597 124.784Z" fill="white"/>
<path d="M295.071 134.581L294.124 134.433L295.701 124.307L296.648 124.455L295.071 134.581Z" fill="white"/>
<path d="M293.9 142.099L292.953 141.951L294.175 134.104L295.123 134.251L293.9 142.099Z" fill="white"/>
<path d="M238.771 412.885L239.993 405.038L240.94 405.186L239.718 413.033L238.771 412.885Z" fill="white"/>
<path d="M241.52 395.241L242.467 395.389L240.89 405.514L239.943 405.367L241.52 395.241Z" fill="white"/>
<path d="M243.045 385.445L243.992 385.592L242.415 395.718L241.468 395.57L243.045 385.445Z" fill="white"/>
<path d="M244.571 375.648L245.519 375.795L243.942 385.921L242.994 385.774L244.571 375.648Z" fill="white"/>
<path d="M246.097 365.851L247.044 365.999L245.467 376.125L244.52 375.977L246.097 365.851Z" fill="white"/>
<path d="M247.622 356.055L248.569 356.202L246.992 366.328L246.045 366.18L247.622 356.055Z" fill="white"/>
<path d="M249.148 346.258L250.096 346.405L248.519 356.531L247.571 356.383L249.148 346.258Z" fill="white"/>
<path d="M250.674 336.461L251.621 336.609L250.044 346.735L249.097 346.587L250.674 336.461Z" fill="white"/>
<path d="M252.2 326.664L253.147 326.812L251.57 336.938L250.623 336.79L252.2 326.664Z" fill="white"/>
<path d="M253.726 316.868L254.673 317.015L253.096 327.141L252.149 326.993L253.726 316.868Z" fill="white"/>
<path d="M254.897 309.35L255.844 309.497L254.622 317.344L253.674 317.197L254.897 309.35Z" fill="white"/>
<path d="M356.309 55.1423L352.854 62.2939L351.991 61.877L355.445 54.7254L356.309 55.1423Z" fill="white"/>
<path d="M348.542 71.2221L347.679 70.8052L352.136 61.5773L352.999 61.9942L348.542 71.2221Z" fill="white"/>
<path d="M344.229 80.1498L343.366 79.7329L347.823 70.505L348.686 70.922L344.229 80.1498Z" fill="white"/>
<path d="M339.918 89.0781L339.055 88.6611L343.512 79.4333L344.375 79.8502L339.918 89.0781Z" fill="white"/>
<path d="M335.606 98.0063L334.743 97.5894L339.2 88.3615L340.063 88.7784L335.606 98.0063Z" fill="white"/>
<path d="M331.294 106.934L330.431 106.517L334.887 97.2892L335.751 97.7061L331.294 106.934Z" fill="white"/>
<path d="M326.981 115.862L326.118 115.445L330.575 106.217L331.438 106.634L326.981 115.862Z" fill="white"/>
<path d="M322.67 124.79L321.807 124.373L326.263 115.145L327.127 115.562L322.67 124.79Z" fill="white"/>
<path d="M318.357 133.718L317.494 133.301L321.951 124.073L322.814 124.49L318.357 133.718Z" fill="white"/>
<path d="M314.046 142.646L313.183 142.229L317.639 133.001L318.503 133.418L314.046 142.646Z" fill="white"/>
<path d="M310.736 149.498L309.873 149.081L313.327 141.929L314.19 142.346L310.736 149.498Z" fill="white"/>
<path d="M192.037 399.676L195.491 392.524L196.354 392.941L192.9 400.093L192.037 399.676Z" fill="white"/>
<path d="M199.803 383.596L200.666 384.013L196.209 393.241L195.346 392.824L199.803 383.596Z" fill="white"/>
<path d="M204.115 374.668L204.979 375.085L200.522 384.313L199.658 383.896L204.115 374.668Z" fill="white"/>
<path d="M208.428 365.74L209.291 366.157L204.834 375.385L203.971 374.968L208.428 365.74Z" fill="white"/>
<path d="M212.738 356.812L213.602 357.229L209.145 366.457L208.281 366.04L212.738 356.812Z" fill="white"/>
<path d="M217.051 347.884L217.914 348.301L213.457 357.529L212.594 357.112L217.051 347.884Z" fill="white"/>
<path d="M221.363 338.956L222.227 339.373L217.77 348.601L216.906 348.184L221.363 338.956Z" fill="white"/>
<path d="M225.675 330.028L226.538 330.445L222.081 339.673L221.218 339.256L225.675 330.028Z" fill="white"/>
<path d="M229.987 321.1L230.851 321.517L226.394 330.745L225.531 330.328L229.987 321.1Z" fill="white"/>
<path d="M234.3 312.172L235.163 312.589L230.706 321.817L229.843 321.4L234.3 312.172Z" fill="white"/>
<path d="M237.608 305.32L238.472 305.737L235.018 312.888L234.154 312.471L237.608 305.32Z" fill="white"/>
<path d="M173.56 91.7125L178.112 98.2206L177.326 98.77L172.774 92.262L173.56 91.7125Z" fill="white"/>
<path d="M183.794 106.345L183.009 106.895L177.135 98.4971L177.921 97.9476L183.794 106.345Z" fill="white"/>
<path d="M189.477 114.47L188.691 115.019L182.818 106.622L183.603 106.072L189.477 114.47Z" fill="white"/>
<path d="M195.161 122.595L194.375 123.144L188.501 114.747L189.287 114.197L195.161 122.595Z" fill="white"/>
<path d="M200.843 130.719L200.058 131.269L194.184 122.871L194.97 122.322L200.843 130.719Z" fill="white"/>
<path d="M206.525 138.844L205.739 139.393L199.866 130.996L200.651 130.446L206.525 138.844Z" fill="white"/>
<path d="M212.208 146.968L211.423 147.518L205.549 139.12L206.335 138.571L212.208 146.968Z" fill="white"/>
<path d="M217.891 155.093L217.105 155.643L211.232 147.245L212.017 146.696L217.891 155.093Z" fill="white"/>
<path d="M223.574 163.218L222.788 163.767L216.914 155.37L217.7 154.82L223.574 163.218Z" fill="white"/>
<path d="M229.257 171.342L228.472 171.892L222.598 163.494L223.384 162.945L229.257 171.342Z" fill="white"/>
<path d="M233.618 177.577L232.832 178.126L228.28 171.618L229.066 171.069L233.618 177.577Z" fill="white"/>
<path d="M109.167 263.387L117.043 262.362L116.919 261.411L109.043 262.436L109.167 263.387Z" fill="white"/>
<path d="M126.875 261.082L126.751 260.132L116.589 261.454L116.713 262.405L126.875 261.082Z" fill="white"/>
<path d="M136.706 259.804L136.582 258.853L126.42 260.175L126.544 261.126L136.706 259.804Z" fill="white"/>
<path d="M146.538 258.524L146.414 257.574L136.252 258.896L136.376 259.847L146.538 258.524Z" fill="white"/>
<path d="M156.37 257.245L156.246 256.294L146.084 257.616L146.208 258.567L156.37 257.245Z" fill="white"/>
<path d="M166.202 255.965L166.078 255.015L155.916 256.337L156.04 257.288L166.202 255.965Z" fill="white"/>
<path d="M176.034 254.686L175.91 253.736L165.748 255.058L165.872 256.009L176.034 254.686Z" fill="white"/>
<path d="M185.866 253.407L185.742 252.457L175.58 253.779L175.704 254.729L185.866 253.407Z" fill="white"/>
<path d="M195.697 252.128L195.573 251.177L185.411 252.5L185.535 253.45L195.697 252.128Z" fill="white"/>
<path d="M205.529 250.849L205.405 249.898L195.243 251.22L195.367 252.171L205.529 250.849Z" fill="white"/>
<path d="M213.075 249.867L212.951 248.916L205.076 249.941L205.199 250.891L213.075 249.867Z" fill="white"/>
<path d="M337.2 197.313L345.076 196.289L344.952 195.338L337.077 196.363L337.2 197.313Z" fill="white"/>
<path d="M354.908 195.01L354.784 194.059L344.622 195.381L344.746 196.332L354.908 195.01Z" fill="white"/>
<path d="M364.739 193.73L364.615 192.78L354.453 194.102L354.577 195.053L364.739 193.73Z" fill="white"/>
<path d="M374.571 192.451L374.447 191.5L364.285 192.823L364.409 193.773L374.571 192.451Z" fill="white"/>
<path d="M384.403 191.172L384.279 190.221L374.117 191.543L374.241 192.494L384.403 191.172Z" fill="white"/>
<path d="M394.235 189.893L394.111 188.942L383.949 190.264L384.073 191.215L394.235 189.893Z" fill="white"/>
<path d="M404.067 188.613L403.943 187.663L393.781 188.985L393.905 189.936L404.067 188.613Z" fill="white"/>
<path d="M413.899 187.334L413.775 186.383L403.613 187.706L403.737 188.656L413.899 187.334Z" fill="white"/>
<path d="M423.73 186.055L423.606 185.104L413.444 186.426L413.568 187.377L423.73 186.055Z" fill="white"/>
<path d="M433.562 184.775L433.438 183.825L423.276 185.147L423.4 186.098L433.562 184.775Z" fill="white"/>
<path d="M441.108 183.793L440.984 182.843L433.109 183.868L433.232 184.818L441.108 183.793Z" fill="white"/>
<path d="M310.466 293.234L315.018 299.742L314.232 300.292L309.68 293.783L310.466 293.234Z" fill="white"/>
<path d="M320.701 307.867L319.915 308.416L314.041 300.019L314.827 299.469L320.701 307.867Z" fill="white"/>
<path d="M326.383 315.991L325.598 316.541L319.724 308.143L320.51 307.594L326.383 315.991Z" fill="white"/>
<path d="M332.067 324.116L331.281 324.665L325.408 316.268L326.193 315.718L332.067 324.116Z" fill="white"/>
<path d="M337.749 332.24L336.964 332.79L331.09 324.392L331.876 323.843L337.749 332.24Z" fill="white"/>
<path d="M343.431 340.365L342.646 340.915L336.772 332.517L337.557 331.968L343.431 340.365Z" fill="white"/>
<path d="M349.115 348.49L348.329 349.039L342.455 340.642L343.241 340.092L349.115 348.49Z" fill="white"/>
<path d="M354.797 356.614L354.012 357.164L348.138 348.766L348.924 348.217L354.797 356.614Z" fill="white"/>
<path d="M360.48 364.739L359.694 365.288L353.821 356.891L354.606 356.341L360.48 364.739Z" fill="white"/>
<path d="M366.163 372.864L365.378 373.413L359.504 365.016L360.29 364.466L366.163 372.864Z" fill="white"/>
<path d="M370.524 379.098L369.738 379.647L365.186 373.139L365.972 372.59L370.524 379.098Z" fill="white"/>
<path d="M214.454 298.662L209.536 304.898L208.783 304.305L213.701 298.069L214.454 298.662Z" fill="white"/>
<path d="M203.397 312.683L202.645 312.09L208.99 304.043L209.743 304.637L203.397 312.683Z" fill="white"/>
<path d="M198.685 318.658L197.933 318.064L202.851 311.828L203.603 312.422L198.685 318.658Z" fill="white"/>
<path d="M185.541 335.325L184.789 334.732L188.586 329.917L189.339 330.51L185.541 335.325ZM180.823 341.308L180.07 340.715L183.868 335.9L184.62 336.493L180.823 341.308Z" fill="white"/>
<path d="M167.123 358.681L166.371 358.087L170.168 353.272L170.921 353.866L167.123 358.681ZM162.405 364.664L161.652 364.07L165.45 359.255L166.202 359.849L162.405 364.664Z" fill="white"/>
<path d="M148.705 382.036L147.952 381.443L151.749 376.628L152.502 377.221L148.705 382.036ZM143.986 388.019L143.233 387.426L147.031 382.611L147.783 383.204L143.986 388.019Z" fill="white"/>
<path d="M130.286 405.392L129.533 404.798L133.33 399.983L134.083 400.577L130.286 405.392ZM125.567 411.375L124.814 410.781L128.612 405.966L129.364 406.56L125.567 411.375Z" fill="white"/>
<path d="M265.032 141.659L263.749 133.821L262.803 133.976L264.086 141.814L265.032 141.659Z" fill="white"/>
<path d="M262.147 124.037L261.201 124.191L262.857 134.305L263.803 134.15L262.147 124.037Z" fill="white"/>
<path d="M260.918 116.528L259.972 116.683L261.255 124.52L262.201 124.365L260.918 116.528Z" fill="white"/>
<path d="M257.489 95.5801L256.543 95.735L257.533 101.787L258.479 101.632L257.489 95.5801ZM256.258 88.0604L255.312 88.2153L256.302 94.2669L257.248 94.112L256.258 88.0604Z" fill="white"/>
<path d="M252.683 66.2266L251.737 66.3814L252.728 72.433L253.674 72.2781L252.683 66.2266ZM251.452 58.7069L250.506 58.8618L251.497 64.9134L252.443 64.7585L251.452 58.7069Z" fill="white"/>
<path d="M247.877 36.873L246.931 37.0279L247.922 43.0795L248.868 42.9246L247.877 36.873ZM246.646 29.3534L245.7 29.5083L246.691 35.5599L247.637 35.405L246.646 29.3534Z" fill="white"/>
<path d="M243.072 7.51952L242.126 7.67441L243.116 13.726L244.062 13.5711L243.072 7.51952ZM241.841 -9.68903e-05L240.895 0.154785L241.885 6.20636L242.831 6.05148L241.841 -9.68903e-05Z" fill="white"/>
<path d="M359.637 258.7L367.265 260.911L367.532 259.99L359.904 257.78L359.637 258.7Z" fill="white"/>
<path d="M376.788 263.669L377.055 262.749L367.212 259.897L366.945 260.818L376.788 263.669Z" fill="white"/>
<path d="M384.097 265.787L384.363 264.866L376.735 262.656L376.468 263.577L384.097 265.787Z" fill="white"/>
<path d="M404.485 271.694L404.752 270.773L398.862 269.067L398.595 269.988L404.485 271.694ZM411.804 273.814L412.07 272.894L406.18 271.187L405.914 272.108L411.804 273.814Z" fill="white"/>
<path d="M433.054 279.971L433.321 279.05L427.431 277.344L427.164 278.264L433.054 279.971ZM440.373 282.091L440.64 281.17L434.75 279.464L434.483 280.385L440.373 282.091Z" fill="white"/>
</svg>
