<svg width="403" height="429" viewBox="0 0 403 429" fill="none" xmlns="http://www.w3.org/2000/svg">
<path d="M198.399 267.777L208.16 277.147L192.794 290.695L211.993 298.154L206.223 310.165L188.445 299.61L187.392 320.169L174.221 318.276L178.513 298.265L158.695 303.373L156.264 290.291L176.763 288.396L165.487 271.066L177.252 264.809L185.492 283.686L198.399 267.777ZM149.01 242.309L158.771 251.678L143.405 265.226L162.604 272.685L156.834 284.697L139.057 274.141L138.003 294.7L124.832 292.807L129.124 272.796L109.306 277.905L106.875 264.822L127.374 262.927L116.098 245.597L127.863 239.34L136.103 258.217L149.01 242.309ZM225.87 316.081L235.632 325.45L220.265 338.998L239.464 346.458L233.695 358.469L215.917 347.913L214.864 368.473L201.692 366.579L205.984 346.569L186.167 351.677L183.735 338.595L204.234 336.7L192.959 319.37L204.723 313.113L212.963 331.99L225.87 316.081Z" fill="white"/>
<path d="M102.838 367.337L112.6 376.707L125.507 360.798L133.747 379.675L145.511 373.418L134.236 356.088L154.735 354.193L152.303 341.11L132.486 346.219L136.778 326.208L123.606 324.315L122.553 344.874L104.775 334.319L99.006 346.33L118.205 353.789L102.838 367.337ZM75.367 319.034L85.1283 328.403L98.0353 312.494L106.276 331.371L118.04 325.114L106.765 307.784L127.264 305.889L124.832 292.807L105.014 297.915L109.306 277.905L96.1351 276.011L95.0818 296.571L77.3041 286.015L71.5346 298.026L90.7336 305.486L75.367 319.034ZM152.227 392.806L161.989 402.175L174.896 386.267L183.136 405.144L194.9 398.887L183.625 381.557L204.124 379.662L201.692 366.579L181.875 371.687L186.167 351.677L172.995 349.784L171.942 370.343L154.164 359.787L148.395 371.798L167.594 379.258L152.227 392.806Z" fill="white"/>
<path d="M388.167 83.1768L387.516 82.5486L391.789 78.1204L392.44 78.7486L388.167 83.1768Z" fill="white"/>
<path d="M377.914 93.8018L377.263 93.1736L381.536 88.7454L382.187 89.3736L377.914 93.8018Z" fill="white"/>
<path d="M367.147 104.958L366.496 104.33L371.282 99.3703L371.933 99.9985L367.147 104.958Z" fill="white"/>
<path d="M362.533 109.739L361.882 109.111L366.668 104.151L367.319 104.78L362.533 109.739Z" fill="white"/>
<path d="M352.28 120.364L351.629 119.736L355.902 115.308L356.553 115.936L352.28 120.364Z" fill="white"/>
<path d="M342.026 130.989L341.375 130.361L345.648 125.933L346.299 126.561L342.026 130.989Z" fill="white"/>
<path d="M331.259 142.145L330.608 141.517L335.395 136.558L336.045 137.186L331.259 142.145Z" fill="white"/>
<path d="M326.646 146.927L325.995 146.298L330.781 141.339L331.432 141.967L326.646 146.927Z" fill="white"/>
<path d="M316.392 157.551L315.741 156.923L320.015 152.495L320.665 153.123L316.392 157.551Z" fill="white"/>
<path d="M306.139 168.176L305.488 167.548L309.762 163.12L310.413 163.748L306.139 168.176Z" fill="white"/>
<path d="M295.373 179.333L294.722 178.705L299.508 173.745L300.159 174.373L295.373 179.333Z" fill="white"/>
<path d="M290.246 184.645L289.595 184.017L294.894 178.526L295.545 179.154L290.246 184.645Z" fill="white"/>
<path d="M285.631 189.427L284.98 188.798L289.767 183.839L290.418 184.467L285.631 189.427Z" fill="white"/>
<path d="M275.378 200.052L274.728 199.423L279.001 194.995L279.652 195.623L275.378 200.052Z" fill="white"/>
<path d="M265.125 210.676L264.474 210.048L268.747 205.62L269.398 206.248L265.125 210.676Z" fill="white"/>
<path d="M254.359 221.833L253.708 221.205L258.494 216.245L259.145 216.873L254.359 221.833Z" fill="white"/>
<path d="M249.745 226.614L249.094 225.985L253.88 221.026L254.531 221.654L249.745 226.614Z" fill="white"/>
<path d="M239.491 237.239L238.84 236.61L243.113 232.182L243.764 232.81L239.491 237.239Z" fill="white"/>
<path d="M228.725 248.395L228.074 247.767L232.86 242.807L233.511 243.435L228.725 248.395Z" fill="white"/>
<path d="M224.111 253.176L223.46 252.548L228.246 247.588L228.897 248.217L224.111 253.176Z" fill="white"/>
<path d="M213.857 263.801L213.206 263.173L217.479 258.745L218.13 259.373L213.857 263.801Z" fill="white"/>
<path d="M203.091 274.957L202.44 274.329L207.227 269.37L207.877 269.998L203.091 274.957Z" fill="white"/>
<path d="M197.964 280.27L197.313 279.642L202.612 274.151L203.263 274.779L197.964 280.27Z" fill="white"/>
<path d="M193.35 285.051L192.699 284.423L197.485 279.463L198.136 280.092L193.35 285.051Z" fill="white"/>
<path d="M183.097 295.676L182.446 295.048L186.72 290.62L187.371 291.248L183.097 295.676Z" fill="white"/>
<path d="M172.844 306.301L172.193 305.673L176.467 301.245L177.118 301.873L172.844 306.301Z" fill="white"/>
<path d="M162.078 317.457L161.427 316.829L166.213 311.87L166.864 312.498L162.078 317.457Z" fill="white"/>
<path d="M157.463 322.238L156.812 321.61L161.599 316.65L162.25 317.279L157.463 322.238Z" fill="white"/>
<path d="M147.21 332.863L146.559 332.235L150.832 327.807L151.483 328.435L147.21 332.863Z" fill="white"/>
<path d="M136.957 343.488L136.306 342.86L140.579 338.432L141.23 339.06L136.957 343.488Z" fill="white"/>
<path d="M126.19 354.644L125.539 354.016L130.325 349.057L130.976 349.685L126.19 354.644Z" fill="white"/>
<path d="M121.063 359.957L120.412 359.329L125.711 353.838L126.362 354.466L121.063 359.957Z" fill="white"/>
<path d="M116.45 364.738L115.799 364.11L120.585 359.15L121.236 359.779L116.45 364.738Z" fill="white"/>
<path d="M106.197 375.363L105.546 374.735L109.819 370.307L110.47 370.935L106.197 375.363Z" fill="white"/>
<path d="M95.9429 385.988L95.292 385.36L99.5653 380.932L100.216 381.56L95.9429 385.988Z" fill="white"/>
<path d="M85.1763 397.144L84.5254 396.516L89.3115 391.557L89.9625 392.185L85.1763 397.144Z" fill="white"/>
<path d="M80.5621 401.926L79.9111 401.297L84.6973 396.338L85.3482 396.966L80.5621 401.926Z" fill="white"/>
<path d="M394.448 70.6508L399.47 70.8443L399.842 75.8556L398.842 75.9518L398.67 73.3479C398.657 73.1015 398.65 72.9072 398.651 72.7651C398.651 72.6229 398.67 72.4644 398.708 72.2897L395.631 75.478L394.976 74.8455L398.052 71.6572C397.879 71.7009 397.721 71.7255 397.579 71.7309C397.437 71.7364 397.243 71.7369 396.996 71.7326L394.388 71.6528L394.448 70.6508Z" fill="white"/>
<path d="M391.654 79.5995L390.999 78.967L395.148 74.6673L395.804 75.2997L391.654 79.5995Z" fill="white"/>
<path d="M85.3328 395.528L81.1835 399.828L81.8389 400.46L85.9882 396.161L85.3328 395.528Z" fill="white"/>
<path d="M80.9234 406.151L80.597 401.748L82.0114 400.282L81.3561 399.65L79.9416 401.115L75.5299 400.946L75.4694 401.948L79.6539 402.069L79.9242 406.247L80.9234 406.151Z" fill="white"/>
<path d="M101.955 110.495L107.378 105.291L98.8419 97.7654L109.506 93.6217L106.302 86.9499L96.4266 92.8134L95.8415 81.3933L88.5253 82.445L90.9093 93.5601L79.9012 90.7226L78.5506 97.9896L89.9371 99.0421L83.6739 108.669L90.2088 112.144L94.786 101.658L101.955 110.495ZM74.5214 124.642L79.9435 119.438L71.4078 111.913L82.0722 107.769L78.8675 101.097L68.9925 106.961L68.4074 95.5405L61.0912 96.5922L63.4752 107.707L52.4671 104.87L51.1165 112.137L62.503 113.189L56.2398 122.816L62.7747 126.291L67.3519 115.806L74.5214 124.642ZM117.215 83.6639L122.637 78.4596L114.101 70.934L124.766 66.7904L121.561 60.1186L111.686 65.9821L111.101 54.5619L103.785 55.6136L106.169 66.7287L95.1608 63.8913L93.8101 71.1582L105.197 72.2108L98.9335 81.8372L105.468 85.3127L110.046 74.827L117.215 83.6639Z" fill="white"/>
<path d="M48.8744 55.1925L54.2965 49.9882L61.466 58.8251L66.0432 48.3394L72.5781 51.8149L66.3148 61.4413L77.7014 62.4939L76.3508 69.7608L65.3427 66.9234L67.7267 78.0385L60.4105 79.0902L59.8254 67.6701L49.9504 73.5336L46.7456 66.8617L57.4101 62.7181L48.8744 55.1925ZM33.6149 82.0238L39.037 76.8196L46.2064 85.6565L50.7836 75.1708L57.3185 78.6462L51.0553 88.2727L62.4419 89.3252L61.0912 96.5922L50.0832 93.7547L52.4671 104.87L45.1509 105.922L44.5658 94.5014L34.6909 100.365L31.4861 93.6931L42.1505 89.5494L33.6149 82.0238ZM76.3085 41.0453L81.7306 35.841L88.9001 44.6779L93.4773 34.1922L100.012 37.6677L93.749 47.2941L105.136 48.3467L103.785 55.6136L92.7768 52.7762L95.1608 63.8913L87.8446 64.943L87.2595 53.5229L77.3845 59.3863L74.1798 52.7145L84.8442 48.5709L76.3085 41.0453Z" fill="white"/>
<path d="M313.167 323.523L312.516 324.151L316.789 328.579L317.44 327.951L313.167 323.523Z" fill="white"/>
<path d="M302.914 312.898L302.263 313.526L306.536 317.954L307.187 317.326L302.914 312.898Z" fill="white"/>
<path d="M292.147 301.741L291.496 302.37L296.282 307.329L296.933 306.701L292.147 301.741Z" fill="white"/>
<path d="M287.533 296.96L286.882 297.588L291.668 302.548L292.319 301.92L287.533 296.96Z" fill="white"/>
<path d="M277.28 286.335L276.629 286.963L280.902 291.392L281.553 290.763L277.28 286.335Z" fill="white"/>
<path d="M267.026 275.71L266.375 276.338L270.648 280.767L271.299 280.138L267.026 275.71Z" fill="white"/>
<path d="M256.259 264.554L255.608 265.182L260.395 270.142L261.045 269.513L256.259 264.554Z" fill="white"/>
<path d="M251.646 259.773L250.995 260.401L255.781 265.36L256.432 264.732L251.646 259.773Z" fill="white"/>
<path d="M241.392 249.148L240.741 249.776L245.015 254.205L245.665 253.576L241.392 249.148Z" fill="white"/>
<path d="M231.139 238.523L230.488 239.151L234.762 243.58L235.413 242.951L231.139 238.523Z" fill="white"/>
<path d="M220.373 227.367L219.722 227.995L224.508 232.955L225.159 232.326L220.373 227.367Z" fill="white"/>
<path d="M215.246 222.054L214.595 222.683L219.894 228.174L220.545 227.545L215.246 222.054Z" fill="white"/>
<path d="M210.631 217.273L209.98 217.901L214.767 222.861L215.418 222.233L210.631 217.273Z" fill="white"/>
<path d="M200.378 206.648L199.728 207.276L204.001 211.705L204.652 211.076L200.378 206.648Z" fill="white"/>
<path d="M190.125 196.023L189.474 196.651L193.747 201.08L194.398 200.451L190.125 196.023Z" fill="white"/>
<path d="M179.359 184.867L178.708 185.495L183.494 190.455L184.145 189.826L179.359 184.867Z" fill="white"/>
<path d="M174.745 180.086L174.094 180.714L178.88 185.673L179.531 185.045L174.745 180.086Z" fill="white"/>
<path d="M164.491 169.461L163.84 170.089L168.113 174.517L168.764 173.889L164.491 169.461Z" fill="white"/>
<path d="M153.725 158.305L153.074 158.933L157.86 163.892L158.511 163.264L153.725 158.305Z" fill="white"/>
<path d="M149.111 153.523L148.46 154.152L153.246 159.111L153.897 158.483L149.111 153.523Z" fill="white"/>
<path d="M138.857 142.899L138.206 143.527L142.479 147.955L143.13 147.327L138.857 142.899Z" fill="white"/>
<path d="M128.091 131.742L127.44 132.37L132.227 137.33L132.877 136.702L128.091 131.742Z" fill="white"/>
<path d="M122.964 126.43L122.313 127.058L127.612 132.549L128.263 131.921L122.964 126.43Z" fill="white"/>
<path d="M118.35 121.649L117.699 122.277L122.485 127.236L123.136 126.608L118.35 121.649Z" fill="white"/>
<path d="M108.097 111.024L107.446 111.652L111.72 116.08L112.371 115.452L108.097 111.024Z" fill="white"/>
<path d="M97.8433 100.399L97.1924 101.027L101.466 105.455L102.117 104.827L97.8433 100.399Z" fill="white"/>
<path d="M87.0777 89.2424L86.4268 89.8706L91.2129 94.8301L91.8638 94.202L87.0777 89.2424Z" fill="white"/>
<path d="M82.4634 84.4614L81.8125 85.0896L86.5986 90.0491L87.2496 89.4209L82.4634 84.4614Z" fill="white"/>
<path d="M72.2095 73.8364L71.5586 74.4646L75.8319 78.8927L76.4829 78.2646L72.2095 73.8364Z" fill="white"/>
<path d="M61.9566 63.2114L61.3057 63.8396L65.579 68.2677L66.2299 67.6396L61.9566 63.2114Z" fill="white"/>
<path d="M51.19 52.0552L50.5391 52.6833L55.3252 57.6429L55.9761 57.0147L51.19 52.0552Z" fill="white"/>
<path d="M46.063 46.7427L45.4121 47.3708L50.711 52.8617L51.362 52.2336L46.063 46.7427Z" fill="white"/>
<path d="M41.4498 41.9614L40.7988 42.5896L45.585 47.5491L46.2359 46.9209L41.4498 41.9614Z" fill="white"/>
<path d="M31.1959 31.3367L30.5449 31.9648L34.8183 36.393L35.4692 35.7648L31.1959 31.3367Z" fill="white"/>
<path d="M20.942 20.7117L20.291 21.3398L24.5643 25.768L25.2153 25.1398L20.942 20.7117Z" fill="white"/>
<path d="M10.1763 9.55541L9.52539 10.1836L14.3115 15.1431L14.9625 14.5149L10.1763 9.55541Z" fill="white"/>
<path d="M5.56207 4.77416L4.91113 5.40234L9.69726 10.3619L10.3482 9.73369L5.56207 4.77416Z" fill="white"/>
<path d="M319.448 336.049L324.47 335.855L324.842 330.844L323.842 330.748L323.67 333.352C323.657 333.598 323.65 333.792 323.651 333.934C323.651 334.077 323.67 334.235 323.708 334.41L320.631 331.221L319.976 331.854L323.052 335.042C322.879 334.999 322.721 334.974 322.579 334.969C322.437 334.963 322.243 334.963 321.996 334.967L319.388 335.047L319.448 336.049Z" fill="white"/>
<path d="M316.654 327.1L315.999 327.732L320.148 332.032L320.804 331.4L316.654 327.1Z" fill="white"/>
<path d="M10.3328 11.1717L6.18349 6.87195L6.83887 6.2395L10.9882 10.5393L10.3328 11.1717Z" fill="white"/>
<path d="M5.92344 0.549097L5.59698 4.95198L7.01143 6.41771L6.35606 7.05016L4.94161 5.58442L0.529895 5.75395L0.469398 4.75188L4.65394 4.63054L4.92417 0.452967L5.92344 0.549097Z" fill="white"/>
<path d="M78.0273 248.92L81.1242 245.903L85.2856 250.956L87.8742 244.905L91.6479 246.877L88.0858 252.441L94.6401 252.998L93.8938 257.184L87.5497 255.598L88.9679 261.982L84.764 262.618L84.3792 256.051L78.7236 259.466L76.852 255.641L82.969 253.213L78.0273 248.92ZM69.3629 264.418L72.4598 261.402L76.6212 266.455L79.2098 260.404L82.9835 262.375L79.4214 267.939L85.9756 268.497L85.2294 272.682L78.8853 271.097L80.3035 277.48L76.0995 278.116L75.7148 271.55L70.0592 274.964L68.1876 271.14L74.3046 268.711L69.3629 264.418ZM93.7483 240.666L96.8453 237.65L101.007 242.703L103.595 236.652L107.369 238.623L103.807 244.187L110.361 244.745L109.615 248.93L103.271 247.345L104.689 253.728L100.485 254.364L100.1 247.798L94.4447 251.212L92.573 247.388L98.69 244.959L93.7483 240.666Z" fill="white"/>
<path d="M123.543 37.6097L121.754 35.8671L119.35 38.7862L117.855 35.2905L115.675 36.4295L117.733 39.6437L113.946 39.9657L114.377 42.3839L118.042 41.4678L117.223 45.1556L119.652 45.5229L119.874 41.7294L123.141 43.7019L124.222 41.4927L120.689 40.0897L123.543 37.6097ZM128.549 46.5631L126.76 44.8205L124.356 47.7396L122.86 44.244L120.68 45.3829L122.738 48.5971L118.952 48.9191L119.383 51.3373L123.048 50.4212L122.228 54.109L124.657 54.4764L124.879 50.6828L128.147 52.6553L129.228 50.4461L125.694 49.0431L128.549 46.5631ZM114.461 32.8416L112.672 31.099L110.268 34.0181L108.773 30.5224L106.593 31.6614L108.651 34.8756L104.864 35.1976L105.295 37.6158L108.96 36.6997L108.141 40.3875L110.57 40.7548L110.792 36.9613L114.059 38.9338L115.14 36.7246L111.607 35.3216L114.461 32.8416Z" fill="white"/>
<path d="M237.437 393.533L234.45 396.741L229.987 391.83L227.664 398.085L223.746 396.275L227.078 390.465L220.413 390.224L220.962 385.949L227.464 387.241L225.713 380.847L229.939 379.995L230.653 386.626L236.211 382.888L238.295 386.669L232.221 389.43L237.437 393.533ZM245.445 377.41L242.458 380.618L237.995 375.707L235.672 381.962L231.754 380.152L235.086 374.342L228.421 374.102L228.97 369.826L235.472 371.118L233.721 364.724L237.947 363.872L238.661 370.503L244.219 366.766L246.303 370.546L240.229 373.308L245.445 377.41ZM221.926 402.668L218.939 405.876L214.475 400.964L212.153 407.22L208.234 405.41L211.566 399.6L204.901 399.359L205.45 395.084L211.953 396.376L210.201 389.982L214.427 389.13L215.141 395.761L220.699 392.023L222.783 395.803L216.709 398.565L221.926 402.668Z" fill="white"/>
<path d="M31.4524 121.153L33.178 123.006L35.7567 120.169L37.0983 123.782L39.3622 122.737L37.4372 119.38L41.2874 119.241L40.9703 116.771L37.2138 117.518L38.2257 113.824L35.7845 113.332L35.3719 117.162L32.1609 115.003L30.9568 117.187L34.4659 118.782L31.4524 121.153ZM26.8262 111.839L28.5518 113.692L31.1305 110.855L32.4721 114.468L34.736 113.423L32.811 110.066L36.6612 109.927L36.3441 107.457L32.5876 108.204L33.5995 104.51L31.1583 104.018L30.7457 107.848L27.5347 105.689L26.3306 107.873L29.8397 109.468L26.8262 111.839ZM40.4136 126.43L42.1392 128.283L44.7179 125.446L46.0595 129.06L48.3234 128.014L46.3984 124.657L50.2486 124.518L49.9315 122.048L46.175 122.795L47.1869 119.101L44.7457 118.609L44.3331 122.44L41.1221 120.281L39.918 122.464L43.4271 124.06L40.4136 126.43Z" fill="white"/>
</svg>
