<svg width="1203" height="367" viewBox="0 0 1203 367" fill="none" xmlns="http://www.w3.org/2000/svg">
<path d="M1202.26 183.51C1202.26 208.57 1185.59 232.542 1155.21 254.428C1124.85 276.305 1080.88 296.027 1026.51 312.599C917.76 345.74 767.497 366.246 601.5 366.246C435.503 366.246 285.241 345.74 176.494 312.599C122.118 296.027 78.1495 276.305 47.7866 254.428C17.4119 232.542 0.744629 208.57 0.744629 183.51C0.744629 158.449 17.4119 134.477 47.7866 112.591C78.1495 90.7143 122.118 70.992 176.494 54.4204C285.241 21.2792 435.503 0.77356 601.5 0.77356C767.497 0.77356 917.76 21.2792 1026.51 54.4204C1080.88 70.992 1124.85 90.7143 1155.21 112.591C1185.59 134.477 1202.26 158.449 1202.26 183.51Z" stroke="white"/>
</svg>
