<svg width="663" height="554" viewBox="0 0 663 554" fill="none" xmlns="http://www.w3.org/2000/svg">
<g clip-path="url(#clip0_259_465)">
<path d="M558.191 200.576C567.337 216.23 576.056 226.36 584.347 230.965C592.899 235.418 603.069 236.65 614.858 234.662L636.977 330.93C611.076 342.913 587.206 349.685 565.367 351.245C543.636 352.393 522.913 347.177 503.197 335.598C498.408 363.944 486.362 390.055 467.06 413.932C447.606 437.547 424.962 456.901 399.129 471.995C356.334 496.998 315.062 504.838 275.313 495.514C235.672 485.777 204.648 461.732 182.239 423.378C155.868 378.241 153.131 333.119 174.029 288.012C195.188 242.752 237.864 201.37 302.056 163.865L358.028 131.163L348.882 115.508C324.034 72.9804 284.212 67.7246 229.414 99.7408C216.105 107.516 200.157 119.459 181.568 135.569C162.827 151.419 145.076 168.964 128.317 188.205L51.7255 122.713C72.6576 96.8346 96.0816 72.8248 121.997 50.6838C148.174 28.3903 172.744 10.5354 195.707 -2.88094C257.551 -39.0135 310.609 -53.0397 354.882 -44.9594C399.264 -37.2925 435.326 -9.71636 463.07 37.7689L558.191 200.576ZM390.116 358.62C403.425 350.844 415.098 338.774 425.138 322.409C435.025 305.784 439.484 287.955 438.515 268.922L399.186 201.608L368.656 219.446C334.211 239.57 312.025 259.707 302.096 279.857C292.015 299.746 292.92 319.865 304.81 340.216C314.109 356.132 326.253 365.835 341.244 369.326C356.342 372.403 372.633 368.835 390.116 358.62Z" fill="white"/>
</g>
<defs>
<clipPath id="clip0_259_465">
<rect width="663" height="554" fill="white"/>
</clipPath>
</defs>
</svg>
