<svg width="139" height="14" viewBox="0 0 139 14" fill="none" xmlns="http://www.w3.org/2000/svg">
<path d="M138.552 8.02396H130.528V5.95996H138.552V8.02396Z" fill="white"/>
<path d="M120.935 8.02396V5.95996H130.855V8.02396H120.935Z" fill="white"/>
<path d="M111.341 8.02396V5.95996H121.261V8.02396H111.341Z" fill="white"/>
<path d="M101.747 8.02396V5.95996H111.667V8.02396H101.747Z" fill="white"/>
<path d="M92.1533 8.02396V5.95996H102.073V8.02396H92.1533Z" fill="white"/>
<path d="M82.5596 8.02396V5.95996H92.4796V8.02396H82.5596Z" fill="white"/>
<path d="M72.9658 8.02396V5.95996H82.8858V8.02396H72.9658Z" fill="white"/>
<path d="M63.3721 8.02396V5.95996H73.2921V8.02396H63.3721Z" fill="white"/>
<path d="M53.7783 8.02396V5.95996H63.6983V8.02396H53.7783Z" fill="white"/>
<path d="M44.1846 8.02396V5.95996H54.1046V8.02396H44.1846Z" fill="white"/>
<path d="M34.5908 8.02396V5.95996H44.5108V8.02396H34.5908Z" fill="white"/>
<path d="M24.9971 8.02396V5.95996H34.9171V8.02396H24.9971Z" fill="white"/>
<path d="M15.4033 8.02396V5.95996H25.3233V8.02396H15.4033Z" fill="white"/>
<path d="M5.80957 8.02396V5.95996H15.7296V8.02396H5.80957Z" fill="white"/>
<path d="M1.176 8.02392V5.95992H6.136V8.02392H1.176ZM2.352 0.36792V13.6799H0V0.36792H2.352Z" fill="white"/>
</svg>
