<svg width="1474" height="1037" viewBox="0 0 1474 1037" fill="none" xmlns="http://www.w3.org/2000/svg">
<path d="M769.584 531.772L770.923 533.016L764.08 540.224L773.619 543.102L772.957 544.807L762.674 541.656L762.141 539.662L769.584 531.772ZM776.806 537.729L776.354 536.036L785.651 533.551L786.104 535.243L776.806 537.729ZM790.709 534.012L790.256 532.32L799.554 529.834L800.006 531.527L790.709 534.012ZM825.194 516.906L826.533 518.15L819.69 525.358L829.229 528.236L828.567 529.941L818.284 526.789L817.751 524.795L825.194 516.906ZM840.548 516.577L840.998 518.258L831.979 520.669L831.529 518.988L840.548 516.577ZM841.723 520.971L842.175 522.663L833.156 525.074L832.704 523.382L841.723 520.971ZM854.451 512.86L854.9 514.541L845.881 516.952L845.432 515.272L854.451 512.86ZM855.625 517.254L856.078 518.947L847.059 521.358L846.606 519.665L855.625 517.254ZM868.353 509.144L868.803 510.825L859.783 513.236L859.334 511.555L868.353 509.144ZM869.528 513.538L869.98 515.23L860.961 517.641L860.509 515.949L869.528 513.538ZM882.256 505.427L882.705 507.108L873.686 509.519L873.236 507.838L882.256 505.427ZM883.43 509.821L883.883 511.514L874.863 513.925L874.411 512.232L883.43 509.821ZM894.706 498.323L896.045 499.567L889.202 506.775L898.741 509.653L898.079 511.358L887.796 508.207L887.263 506.213L894.706 498.323ZM908.608 494.606L909.947 495.851L903.104 503.058L912.643 505.937L911.981 507.641L901.699 504.49L901.165 502.496L908.608 494.606ZM937.865 490.561L938.315 492.242L929.295 494.653L928.846 492.972L937.865 490.561ZM939.04 494.955L939.492 496.647L930.473 499.058L930.021 497.366L939.04 494.955ZM950.316 483.457L951.654 484.701L944.812 491.909L954.351 494.787L953.688 496.492L943.406 493.34L942.873 491.346L950.316 483.457ZM965.67 483.128L966.12 484.809L957.1 487.22L956.651 485.539L965.67 483.128ZM966.845 487.522L967.297 489.214L958.278 491.625L957.826 489.933L966.845 487.522ZM986.996 466.049L994.434 493.872L992.695 494.337L985.257 466.514L986.996 466.049ZM1000.9 462.332L1008.34 490.155L1006.6 490.62L999.16 462.797L1000.9 462.332ZM1013.15 474.547L1012.69 472.855L1021.99 470.369L1022.44 472.062L1013.15 474.547ZM1027.05 470.831L1026.6 469.138L1035.89 466.653L1036.35 468.345L1027.05 470.831ZM1056.51 447.466L1063.95 475.289L1062.21 475.754L1054.77 447.931L1056.51 447.466ZM1068.76 459.681L1068.3 457.988L1077.6 455.503L1078.05 457.195L1068.76 459.681ZM1082.66 455.964L1082.21 454.272L1091.5 451.786L1091.96 453.479L1082.66 455.964ZM1113.3 457.2L1111.54 456.926L1115.99 433.812L1117.75 434.162L1113.3 457.2ZM1127.21 453.484L1125.44 453.21L1129.9 430.095L1131.65 430.445L1127.21 453.484ZM1146.4 434.813L1146.85 436.494L1137.83 438.905L1137.38 437.224L1146.4 434.813ZM1147.58 439.206L1148.03 440.899L1139.01 443.31L1138.56 441.617L1147.58 439.206ZM1160.3 431.096L1160.75 432.777L1151.73 435.188L1151.28 433.507L1160.3 431.096ZM1161.48 435.49L1161.93 437.182L1152.91 439.593L1152.46 437.901L1161.48 435.49ZM1164.78 426.124L1175.17 429.247L1175.7 431.241L1168.37 439.1L1166.93 437.945L1173.77 430.702L1164.23 427.847L1164.78 426.124ZM1202.01 419.946L1202.46 421.627L1193.44 424.039L1192.99 422.358L1202.01 419.946ZM1203.19 424.34L1203.64 426.033L1194.62 428.444L1194.17 426.751L1203.19 424.34ZM1206.49 414.974L1216.87 418.098L1217.41 420.092L1210.08 427.95L1208.64 426.795L1215.47 419.552L1205.94 416.697L1206.49 414.974ZM1243.72 408.797L1244.17 410.478L1235.15 412.889L1234.7 411.208L1243.72 408.797ZM1244.89 413.19L1245.35 414.883L1236.33 417.294L1235.87 415.602L1244.89 413.19ZM1257.62 405.08L1258.07 406.761L1249.05 409.172L1248.6 407.491L1257.62 405.08ZM1258.8 409.474L1259.25 411.166L1250.23 413.578L1249.78 411.885L1258.8 409.474ZM1262.1 400.108L1272.48 403.231L1273.02 405.225L1265.69 413.084L1264.25 411.929L1271.08 404.686L1261.55 401.831L1262.1 400.108ZM1276 396.391L1286.38 399.515L1286.92 401.509L1279.59 409.368L1278.15 408.212L1284.99 400.97L1275.45 398.115L1276 396.391ZM1303.8 388.958L1314.19 392.082L1314.72 394.076L1307.4 401.934L1305.96 400.779L1312.79 393.536L1303.26 390.682L1303.8 388.958ZM1319 392.783L1318.55 391.09L1327.85 388.605L1328.3 390.297L1319 392.783ZM1331.61 381.525L1341.99 384.649L1342.53 386.642L1335.2 394.501L1333.76 393.346L1340.59 386.103L1331.06 383.248L1331.61 381.525ZM1345.51 377.809L1355.9 380.932L1356.43 382.926L1349.1 390.785L1347.66 389.629L1354.5 382.387L1344.96 379.532L1345.51 377.809ZM1373.31 370.375L1383.7 373.499L1384.23 375.493L1376.91 383.352L1375.47 382.196L1382.3 374.954L1372.77 372.099L1373.31 370.375ZM1388.51 374.2L1388.06 372.508L1397.36 370.022L1397.81 371.715L1388.51 374.2ZM1402.42 370.484L1401.96 368.791L1411.26 366.306L1411.71 367.998L1402.42 370.484ZM1416.32 366.767L1415.87 365.074L1425.16 362.589L1425.61 364.282L1416.32 366.767ZM1430.22 363.05L1429.77 361.358L1439.06 358.872L1439.52 360.565L1430.22 363.05ZM1444.12 359.334L1443.67 357.641L1452.97 355.156L1453.42 356.848L1444.12 359.334ZM1456.73 348.076L1467.12 351.199L1467.65 353.193L1460.32 361.052L1458.88 359.897L1465.72 352.654L1456.18 349.799L1456.73 348.076Z" fill="white"/>
<path d="M755.997 487.019L753.238 487.756L749.265 479.216L749.945 488.636L747.256 489.355L741.766 477.743L743.76 477.21L748.255 487.796L747.677 477.828L749.984 477.211L754.353 486.166L752.965 474.749L754.866 474.241L755.997 487.019ZM769.899 483.302L767.14 484.04L763.168 475.5L763.848 484.92L761.158 485.639L755.669 474.026L757.663 473.493L762.157 484.08L761.579 474.111L763.886 473.494L768.255 482.45L766.868 471.033L768.769 470.524L769.899 483.302ZM783.802 479.585L781.042 480.323L777.07 471.783L777.75 481.203L775.061 481.922L769.571 470.31L771.565 469.777L776.06 480.363L775.482 470.394L777.789 469.778L782.158 478.733L780.77 467.316L782.671 466.808L783.802 479.585ZM803.666 476.834L801.903 476.56L806.357 453.445L808.115 453.795L803.666 476.834ZM813.434 456.907L823.821 460.031L824.354 462.025L817.027 469.883L815.588 468.728L822.421 461.485L812.888 458.631L813.434 456.907ZM842.534 457.015L842.082 455.323L851.379 452.837L851.832 454.53L842.534 457.015ZM856.437 453.299L855.984 451.606L865.282 449.121L865.734 450.813L856.437 453.299ZM869.043 442.041L879.43 445.164L879.964 447.158L872.637 455.017L871.197 453.862L878.031 446.619L868.498 443.764L869.043 442.041ZM904.824 432.476L906.163 433.72L899.32 440.928L908.859 443.806L908.197 445.511L897.914 442.359L897.381 440.366L904.824 432.476ZM914.885 447.101L913.123 446.827L917.576 423.713L919.334 424.063L914.885 447.101ZM924.653 427.175L935.04 430.298L935.573 432.292L928.246 440.151L926.807 438.995L933.64 431.753L924.108 428.898L924.653 427.175ZM960.434 417.609L961.773 418.854L954.93 426.062L964.469 428.94L963.807 430.645L953.524 427.493L952.991 425.499L960.434 417.609ZM970.783 412.495L973.446 423.248L971.696 423.716L968.603 413.078L970.783 412.495ZM973.236 425.9C973.684 425.781 974.096 425.832 974.47 426.055C974.852 426.276 975.1 426.599 975.213 427.024C975.329 427.457 975.277 427.868 975.059 428.258C974.846 428.638 974.515 428.887 974.067 429.007C973.626 429.125 973.219 429.072 972.844 428.85C972.468 428.619 972.222 428.287 972.106 427.854C971.993 427.429 972.042 427.027 972.256 426.647C972.469 426.267 972.796 426.018 973.236 425.9ZM981.558 419.85L981.106 418.157L990.403 415.672L990.856 417.364L981.558 419.85ZM995.461 416.133L995.008 414.441L1004.31 411.955L1004.76 413.648L995.461 416.133ZM1029.95 399.027L1031.28 400.271L1024.44 407.479L1033.98 410.357L1033.32 412.062L1023.04 408.91L1022.5 406.916L1029.95 399.027ZM1040.01 413.652L1038.24 413.378L1042.7 390.264L1044.46 390.614L1040.01 413.652ZM1066.99 386.503C1067.94 386.249 1068.8 386.201 1069.57 386.359C1070.35 386.515 1070.99 386.819 1071.5 387.271C1072.01 387.715 1072.35 388.242 1072.51 388.853C1072.71 389.595 1072.73 390.239 1072.58 390.784C1072.43 391.322 1072.18 391.81 1071.85 392.246C1071.53 392.672 1071.2 393.096 1070.86 393.516C1070.53 393.929 1070.27 394.379 1070.09 394.865C1069.92 395.349 1069.93 395.912 1070.1 396.553L1070.31 397.353L1068.35 397.877L1068.11 396.961C1067.91 396.211 1067.88 395.553 1068.01 394.986C1068.16 394.417 1068.39 393.904 1068.71 393.447C1069.02 392.989 1069.35 392.559 1069.68 392.156C1070.01 391.745 1070.27 391.328 1070.45 390.906C1070.64 390.484 1070.66 390.018 1070.52 389.508C1070.35 388.851 1069.95 388.415 1069.33 388.2C1068.71 387.977 1068.01 387.97 1067.22 388.179C1066.68 388.326 1066.15 388.612 1065.64 389.037C1065.13 389.455 1064.72 390.025 1064.4 390.748L1062.73 390.1C1063.2 389.122 1063.79 388.343 1064.51 387.763C1065.23 387.173 1066.05 386.753 1066.99 386.503ZM1070.03 400.024C1070.48 399.904 1070.89 399.955 1071.28 400.175C1071.66 400.396 1071.91 400.719 1072.02 401.144C1072.14 401.577 1072.08 401.988 1071.87 402.378C1071.64 402.76 1071.31 403.011 1070.86 403.131C1070.43 403.246 1070.03 403.193 1069.65 402.97C1069.27 402.739 1069.03 402.408 1068.91 401.975C1068.8 401.55 1068.85 401.147 1069.06 400.767C1069.28 400.387 1069.6 400.14 1070.03 400.024ZM1082.71 397.765C1082.61 397.386 1082.61 397.023 1082.7 396.674C1082.8 396.317 1082.97 396.01 1083.23 395.751C1083.49 395.483 1083.81 395.297 1084.2 395.194C1084.59 395.089 1084.97 395.087 1085.32 395.19C1085.68 395.285 1085.99 395.464 1086.25 395.725C1086.51 395.979 1086.69 396.296 1086.79 396.674C1086.89 397.053 1086.89 397.425 1086.8 397.789C1086.71 398.146 1086.53 398.458 1086.27 398.726C1086.01 398.987 1085.68 399.169 1085.29 399.275C1084.9 399.378 1084.53 399.382 1084.17 399.287C1083.82 399.182 1083.51 398.999 1083.25 398.737C1082.99 398.468 1082.81 398.144 1082.71 397.765ZM1109.81 375.33L1112.47 386.083L1110.72 386.55L1107.63 375.912L1109.81 375.33ZM1112.26 388.735C1112.71 388.615 1113.12 388.666 1113.49 388.889C1113.88 389.11 1114.12 389.433 1114.24 389.858C1114.35 390.291 1114.3 390.702 1114.08 391.092C1113.87 391.472 1113.54 391.722 1113.09 391.842C1112.65 391.959 1112.24 391.907 1111.87 391.684C1111.49 391.453 1111.25 391.122 1111.13 390.689C1111.02 390.264 1111.07 389.861 1111.28 389.481C1111.49 389.101 1111.82 388.853 1112.26 388.735ZM1128.72 376.399L1129.16 378.08L1120.15 380.491L1119.7 378.81L1128.72 376.399ZM1129.89 380.792L1130.34 382.485L1121.32 384.896L1120.87 383.203L1129.89 380.792ZM1142.62 372.682L1143.07 374.363L1134.05 376.774L1133.6 375.093L1142.62 372.682ZM1143.79 377.076L1144.24 378.768L1135.23 381.179L1134.77 379.487L1143.79 377.076ZM1170.42 365.249L1170.87 366.93L1161.85 369.341L1161.4 367.66L1170.42 365.249ZM1171.6 369.643L1172.05 371.335L1163.03 373.746L1162.58 372.054L1171.6 369.643ZM1184.32 361.532L1184.77 363.213L1175.75 365.624L1175.31 363.943L1184.32 361.532ZM1185.5 365.926L1185.95 367.619L1176.93 370.03L1176.48 368.337L1185.5 365.926ZM1198.23 357.816L1198.68 359.497L1189.66 361.908L1189.21 360.227L1198.23 357.816ZM1199.4 362.209L1199.85 363.902L1190.84 366.313L1190.38 364.621L1199.4 362.209ZM1219.69 348.687L1221.66 348.16L1222.77 352.895L1226.75 350.153L1227.83 351.826L1223.7 354.347L1227.56 357.291L1226.31 358.843L1222.62 355.681L1221 360.262L1219.14 359.541L1221.01 355.066L1216.17 354.944L1216.27 352.954L1221.1 353.342L1219.69 348.687ZM1233.59 344.97L1235.56 344.443L1236.67 349.179L1240.66 346.436L1241.74 348.11L1237.6 350.631L1241.46 353.575L1240.21 355.126L1236.52 351.964L1234.9 356.546L1233.04 355.825L1234.91 351.35L1230.07 351.227L1230.18 349.238L1235 349.625L1233.59 344.97Z" fill="white"/>
<path d="M776.447 585.477L783.885 613.3L782.146 613.764L774.708 585.942L776.447 585.477ZM790.349 581.76L797.787 609.583L796.048 610.048L788.61 582.225L790.349 581.76ZM810.731 587.689L811.18 589.37L802.161 591.782L801.712 590.101L810.731 587.689ZM811.905 592.083L812.358 593.776L803.339 596.187L802.886 594.494L811.905 592.083ZM832.057 570.61L839.495 598.433L837.756 598.898L830.318 571.075L832.057 570.61ZM852.438 576.54L852.887 578.221L843.868 580.632L843.419 578.951L852.438 576.54ZM853.613 580.934L854.065 582.626L845.046 585.037L844.593 583.345L853.613 580.934ZM873.764 559.461L881.202 587.284L879.463 587.749L872.025 559.926L873.764 559.461ZM887.666 555.744L895.104 583.567L893.365 584.032L885.927 556.209L887.666 555.744ZM899.915 567.959L899.463 566.267L908.76 563.781L909.213 565.474L899.915 567.959ZM929.374 544.595L936.812 572.417L935.073 572.882L927.635 545.059L929.374 544.595ZM957.178 537.161L964.616 564.984L962.877 565.449L955.44 537.626L957.178 537.161ZM969.427 549.376L968.975 547.684L978.272 545.198L978.725 546.891L969.427 549.376ZM998.923 552.869L998.468 551.165L1010.06 548.066L1010.52 549.77L998.923 552.869ZM1012.79 522.295L1020.23 550.118L1018.49 550.583L1011.05 522.76L1012.79 522.295ZM1026.73 545.436L1026.27 543.732L1037.87 540.633L1038.32 542.337L1026.73 545.436ZM1048.65 515.775L1050 514.595L1065.4 532.404L1064 533.521L1048.65 515.775ZM1069.58 532.029L1067.82 531.755L1072.27 508.641L1074.03 508.991L1069.58 532.029ZM1097.39 524.596L1095.63 524.322L1100.08 501.208L1101.84 501.558L1097.39 524.596ZM1104.26 500.909L1105.61 499.729L1121.01 517.537L1119.61 518.654L1104.26 500.909Z" fill="white"/>
<path d="M792.236 656.807C792.816 656.652 793.338 656.637 793.802 656.761C794.273 656.883 794.709 657.057 795.108 657.281C795.508 657.506 795.885 657.694 796.241 657.848C796.597 658.001 796.952 658.03 797.308 657.935C797.787 657.807 798.165 657.503 798.443 657.023C798.72 656.543 798.932 655.986 799.076 655.351L800.66 655.698C800.553 656.198 800.399 656.72 800.196 657.263C799.991 657.798 799.695 658.283 799.306 658.718C798.915 659.145 798.376 659.451 797.688 659.635C797.147 659.779 796.644 659.79 796.18 659.665C795.724 659.539 795.293 659.364 794.885 659.142C794.486 658.917 794.097 658.732 793.718 658.585C793.347 658.435 792.979 658.409 792.616 658.506C792.114 658.641 791.732 658.946 791.47 659.422C791.206 659.89 790.997 660.442 790.845 661.079L789.271 660.767C789.381 660.249 789.533 659.72 789.728 659.179C789.923 658.638 790.216 658.154 790.607 657.727C791.005 657.297 791.549 656.991 792.236 656.807ZM806.094 645.674C807.292 645.354 808.349 645.266 809.265 645.41C810.187 645.545 810.991 645.856 811.676 646.343C812.369 646.829 812.965 647.448 813.465 648.2C813.969 648.943 814.4 649.764 814.756 650.662C815.11 651.553 815.414 652.474 815.668 653.424C816.189 655.372 816.529 657.016 816.689 658.356C816.854 659.687 816.778 660.734 816.46 661.498C816.145 662.269 815.52 662.78 814.584 663.03C814.105 663.158 813.661 663.153 813.251 663.014C812.841 662.875 812.477 662.658 812.158 662.362C811.841 662.074 811.582 661.758 811.383 661.414C811.181 661.063 811.047 660.746 810.98 660.466L810.887 660.491C810.843 660.884 810.736 661.289 810.566 661.707C810.402 662.115 810.142 662.487 809.784 662.823C809.429 663.166 808.942 663.421 808.324 663.586C807.481 663.811 806.74 663.765 806.1 663.448C805.468 663.128 804.929 662.597 804.482 661.855C804.036 661.114 803.676 660.233 803.403 659.212C802.864 657.195 802.865 655.589 803.406 654.392C803.946 653.188 804.926 652.396 806.348 652.016C806.889 651.871 807.423 651.791 807.948 651.774C808.474 651.758 809.108 651.837 809.85 652.011L811.682 658.863C811.905 659.697 812.149 660.315 812.413 660.717C812.676 661.11 812.952 661.355 813.243 661.451C813.534 661.547 813.83 661.555 814.131 661.475C814.495 661.377 814.728 661.12 814.832 660.703C814.936 660.286 814.943 659.742 814.855 659.07C814.766 658.398 814.615 657.631 814.401 656.769C814.185 655.899 813.945 654.97 813.681 653.981C813.385 652.875 813.048 651.86 812.668 650.935C812.286 650.002 811.824 649.219 811.282 648.585C810.74 647.952 810.086 647.518 809.319 647.284C808.553 647.05 807.636 647.075 806.57 647.361C805.82 647.561 805.038 647.919 804.224 648.435C803.415 648.941 802.633 649.763 801.877 650.901L800.417 649.9C801.211 648.719 802.097 647.79 803.076 647.115C804.06 646.429 805.066 645.949 806.094 645.674ZM806.825 653.428C805.767 653.711 805.146 654.287 804.964 655.156C804.783 656.024 804.892 657.208 805.293 658.707C805.495 659.465 805.728 660.119 805.991 660.669C806.26 661.21 806.574 661.611 806.934 661.871C807.291 662.123 807.701 662.187 808.165 662.063C808.706 661.919 809.098 661.681 809.341 661.351C809.592 661.019 809.756 660.673 809.834 660.313C809.917 659.943 809.975 659.634 810.008 659.385L808.402 653.379C808.13 653.32 807.866 653.295 807.612 653.305C807.366 653.313 807.104 653.354 806.825 653.428ZM837.568 650.526C838.109 650.382 838.607 650.447 839.062 650.723C839.522 650.989 839.819 651.374 839.954 651.876C840.03 652.162 840.072 652.457 840.079 652.762C840.093 653.064 840.061 653.425 839.983 653.843L839.258 658.658L837.495 659.129L837.378 654.229C836.773 654.01 836.38 653.564 836.201 652.892C836.062 652.374 836.122 651.886 836.381 651.428C836.647 650.967 837.043 650.667 837.568 650.526ZM835.427 642.516C835.968 642.371 836.464 642.433 836.917 642.701C837.377 642.967 837.677 643.359 837.815 643.877C837.952 644.387 837.889 644.88 837.627 645.356C837.37 645.822 836.972 646.127 836.431 646.272C835.905 646.412 835.411 646.345 834.949 646.072C834.492 645.788 834.196 645.391 834.059 644.881C833.964 644.525 833.961 644.187 834.048 643.865C834.136 643.544 834.302 643.263 834.544 643.025C834.785 642.778 835.079 642.609 835.427 642.516ZM851.471 646.81C852.012 646.665 852.509 646.731 852.964 647.007C853.424 647.273 853.722 647.657 853.856 648.159C853.933 648.445 853.974 648.741 853.981 649.045C853.996 649.348 853.964 649.708 853.885 650.127L853.16 654.941L851.398 655.412L851.28 650.512C850.675 650.293 850.283 649.847 850.103 649.175C849.965 648.657 850.025 648.169 850.283 647.711C850.549 647.251 850.945 646.95 851.471 646.81ZM849.329 638.799C849.87 638.654 850.367 638.716 850.819 638.984C851.28 639.25 851.579 639.642 851.718 640.16C851.854 640.67 851.791 641.163 851.529 641.639C851.273 642.105 850.874 642.41 850.333 642.555C849.808 642.696 849.314 642.629 848.851 642.355C848.394 642.071 848.098 641.674 847.962 641.164C847.867 640.809 847.863 640.47 847.951 640.149C848.039 639.827 848.204 639.547 848.447 639.308C848.687 639.062 848.981 638.892 849.329 638.799ZM877.795 641.971C877.694 641.592 877.692 641.228 877.789 640.879C877.884 640.523 878.059 640.215 878.313 639.957C878.572 639.689 878.895 639.503 879.282 639.4C879.676 639.294 880.052 639.293 880.411 639.396C880.768 639.491 881.076 639.669 881.337 639.931C881.595 640.185 881.775 640.501 881.876 640.88C881.977 641.259 881.981 641.63 881.888 641.995C881.793 642.351 881.616 642.664 881.356 642.932C881.095 643.192 880.767 643.375 880.373 643.48C879.986 643.584 879.615 643.588 879.258 643.493C878.907 643.388 878.601 643.205 878.341 642.943C878.078 642.674 877.896 642.35 877.795 641.971ZM887.864 634.323L887.412 632.63L896.709 630.145L897.162 631.837L887.864 634.323ZM922.88 620.503L923.569 625.821L925.447 625.319L925.85 626.826L923.752 627.387L924.315 631.447L922.646 631.894L922.117 627.824L918.744 628.726L919.284 632.792L917.615 633.239L917.086 629.169L915.254 629.659L914.851 628.152L916.88 627.609L916.214 622.285L914.336 622.787L913.93 621.268L916.005 620.713L915.48 616.705L917.15 616.259L917.628 620.28L921.037 619.368L920.512 615.36L922.181 614.914L922.671 618.931L924.526 618.436L924.932 619.954L922.88 620.503ZM918.538 627.166L921.911 626.264L921.246 620.94L917.849 621.848L918.538 627.166ZM933.611 627.224C933.476 626.721 933.537 626.237 933.794 625.771C934.058 625.303 934.453 624.999 934.978 624.858C935.519 624.713 936.017 624.779 936.472 625.055C936.934 625.329 937.232 625.717 937.367 626.219C937.507 626.745 937.445 627.242 937.181 627.71C936.923 628.168 936.523 628.47 935.982 628.614C935.457 628.755 934.964 628.692 934.503 628.426C934.049 628.15 933.751 627.749 933.611 627.224ZM931.376 618.865C931.281 618.51 931.277 618.171 931.365 617.849C931.453 617.528 931.619 617.248 931.861 617.009C932.102 616.762 932.396 616.593 932.744 616.5C933.285 616.355 933.781 616.417 934.234 616.685C934.694 616.951 934.994 617.343 935.132 617.861C935.269 618.371 935.206 618.864 934.944 619.34C934.687 619.806 934.289 620.111 933.748 620.256C933.222 620.396 932.728 620.33 932.266 620.056C931.809 619.772 931.512 619.375 931.376 618.865ZM964.587 609.353L965.276 614.672L967.154 614.17L967.557 615.677L965.459 616.238L966.023 620.298L964.353 620.744L963.824 616.675L960.451 617.576L960.991 621.643L959.322 622.089L958.793 618.02L956.961 618.509L956.559 617.002L958.587 616.46L957.922 611.135L956.043 611.637L955.638 610.119L957.713 609.564L957.188 605.555L958.857 605.109L959.336 609.13L962.744 608.219L962.219 604.21L963.888 603.764L964.379 607.782L966.233 607.286L966.639 608.805L964.587 609.353ZM960.245 616.017L963.619 615.115L962.953 609.79L959.556 610.698L960.245 616.017ZM973.294 600.976C974.245 600.722 975.105 600.674 975.877 600.833C976.655 600.989 977.3 601.293 977.81 601.744C978.317 602.188 978.653 602.715 978.816 603.326C979.015 604.068 979.038 604.712 978.885 605.258C978.731 605.796 978.489 606.283 978.158 606.719C977.833 607.145 977.503 607.569 977.169 607.99C976.832 608.403 976.575 608.852 976.399 609.338C976.23 609.822 976.232 610.385 976.403 611.026L976.617 611.826L974.658 612.35L974.413 611.434C974.212 610.684 974.181 610.026 974.32 609.459C974.466 608.89 974.697 608.377 975.014 607.92C975.33 607.463 975.654 607.032 975.985 606.629C976.314 606.218 976.571 605.802 976.757 605.379C976.942 604.957 976.966 604.491 976.83 603.981C976.654 603.324 976.256 602.888 975.636 602.673C975.013 602.45 974.311 602.443 973.531 602.652C972.982 602.799 972.454 603.085 971.947 603.51C971.437 603.928 971.023 604.498 970.703 605.222L969.039 604.573C969.506 603.596 970.097 602.816 970.811 602.236C971.531 601.646 972.359 601.226 973.294 600.976ZM976.337 614.497C976.785 614.377 977.201 614.428 977.583 614.649C977.965 614.869 978.212 615.192 978.326 615.617C978.442 616.05 978.39 616.462 978.171 616.851C977.951 617.233 977.616 617.484 977.168 617.604C976.735 617.72 976.331 617.666 975.957 617.443C975.581 617.213 975.335 616.881 975.219 616.448C975.105 616.023 975.155 615.62 975.368 615.241C975.581 614.861 975.904 614.613 976.337 614.497ZM1006.29 598.203L1006.98 603.522L1008.86 603.02L1009.26 604.527L1007.17 605.088L1007.73 609.148L1006.06 609.594L1005.53 605.525L1002.16 606.427L1002.7 610.493L1001.03 610.939L1000.5 606.87L998.669 607.36L998.266 605.852L1000.29 605.31L999.629 599.985L997.751 600.488L997.345 598.969L999.42 598.414L998.895 594.406L1000.56 593.959L1001.04 597.98L1004.45 597.069L1003.93 593.061L1005.6 592.614L1006.09 596.632L1007.94 596.136L1008.35 597.655L1006.29 598.203ZM1001.95 604.867L1005.33 603.965L1004.66 598.64L1001.26 599.548L1001.95 604.867ZM1014.68 611.8L1014.22 610.096L1025.81 606.997L1026.27 608.701L1014.68 611.8ZM1029.05 594.753C1029.38 595.958 1029.77 597.013 1030.23 597.915C1030.7 598.81 1031.24 599.601 1031.86 600.287C1032.48 600.966 1033.2 601.578 1034 602.124C1034.82 602.675 1035.74 603.208 1036.77 603.721L1036.03 605.06C1034.5 604.367 1033.15 603.603 1031.97 602.768C1030.79 601.932 1029.79 600.917 1028.95 599.723C1028.13 598.528 1027.48 597.053 1027.01 595.298C1026.54 593.536 1026.36 591.931 1026.48 590.484C1026.61 589.034 1026.97 587.653 1027.57 586.341C1028.18 585.027 1028.98 583.693 1029.96 582.338L1031.26 583.132C1030.63 584.097 1030.09 585.023 1029.66 585.909C1029.23 586.785 1028.92 587.672 1028.72 588.57C1028.52 589.46 1028.44 590.412 1028.49 591.426C1028.54 592.431 1028.73 593.539 1029.05 594.753ZM1061.9 583.337L1062.59 588.656L1064.47 588.154L1064.87 589.661L1062.78 590.222L1063.34 594.282L1061.67 594.728L1061.14 590.659L1057.77 591.56L1058.31 595.627L1056.64 596.073L1056.11 592.004L1054.28 592.493L1053.88 590.986L1055.9 590.444L1055.24 585.119L1053.36 585.621L1052.95 584.103L1055.03 583.548L1054.5 579.539L1056.17 579.093L1056.65 583.114L1060.06 582.203L1059.54 578.194L1061.21 577.748L1061.7 581.766L1063.55 581.27L1063.96 582.789L1061.9 583.337ZM1057.56 590.001L1060.94 589.099L1060.27 583.774L1056.87 584.682L1057.56 590.001ZM1070.29 596.934L1069.83 595.229L1081.42 592.13L1081.88 593.834L1070.29 596.934ZM1103.61 572.188L1104.3 577.506L1106.18 577.004L1106.58 578.511L1104.48 579.072L1105.05 583.132L1103.38 583.578L1102.85 579.509L1099.48 580.411L1100.02 584.477L1098.35 584.923L1097.82 580.854L1095.99 581.344L1095.58 579.837L1097.61 579.294L1096.95 573.97L1095.07 574.472L1094.66 572.953L1096.74 572.398L1096.21 568.39L1097.88 567.944L1098.36 571.964L1101.77 571.053L1101.24 567.045L1102.91 566.598L1103.4 570.616L1105.26 570.12L1105.66 571.639L1103.61 572.188ZM1099.27 578.851L1102.64 577.949L1101.98 572.624L1098.58 573.533L1099.27 578.851ZM1112.47 572.453C1112.79 573.659 1113.18 574.713 1113.65 575.616C1114.11 576.511 1114.65 577.301 1115.28 577.988C1115.9 578.667 1116.61 579.279 1117.42 579.825C1118.24 580.376 1119.16 580.908 1120.18 581.421L1119.45 582.761C1117.92 582.068 1116.56 581.304 1115.38 580.469C1114.2 579.632 1113.2 578.617 1112.37 577.424C1111.54 576.228 1110.9 574.753 1110.43 572.999C1109.96 571.237 1109.78 569.632 1109.9 568.184C1110.02 566.735 1110.39 565.354 1110.99 564.042C1111.6 562.728 1112.39 561.394 1113.37 560.039L1114.68 560.833C1114.04 561.798 1113.51 562.723 1113.07 563.609C1112.64 564.486 1112.33 565.373 1112.13 566.271C1111.93 567.161 1111.85 568.113 1111.9 569.127C1111.95 570.131 1112.14 571.24 1112.47 572.453ZM1145.32 561.038L1146.01 566.356L1147.89 565.854L1148.29 567.361L1146.19 567.922L1146.75 571.982L1145.08 572.429L1144.56 568.359L1141.18 569.261L1141.72 573.327L1140.05 573.774L1139.52 569.704L1137.69 570.194L1137.29 568.687L1139.32 568.145L1138.65 562.82L1136.77 563.322L1136.37 561.803L1138.44 561.248L1137.92 557.24L1139.59 556.794L1140.07 560.815L1143.48 559.903L1142.95 555.895L1144.62 555.449L1145.11 559.466L1146.96 558.971L1147.37 560.489L1145.32 561.038ZM1140.98 567.701L1144.35 566.8L1143.68 561.475L1140.29 562.383L1140.98 567.701ZM1160.14 557.423L1160.59 559.104L1151.57 561.515L1151.12 559.834L1160.14 557.423ZM1161.32 561.816L1161.77 563.509L1152.75 565.92L1152.3 564.228L1161.32 561.816ZM1187.03 549.888L1187.72 555.207L1189.59 554.705L1190 556.212L1187.9 556.773L1188.46 560.833L1186.79 561.279L1186.26 557.21L1182.89 558.111L1183.43 562.178L1181.76 562.624L1181.23 558.555L1179.4 559.044L1179 557.537L1181.03 556.995L1180.36 551.67L1178.48 552.172L1178.08 550.654L1180.15 550.099L1179.63 546.09L1181.3 545.644L1181.77 549.665L1185.18 548.754L1184.66 544.745L1186.33 544.299L1186.82 548.317L1188.67 547.821L1189.08 549.34L1187.03 549.888ZM1182.68 556.552L1186.06 555.65L1185.39 550.325L1181.99 551.233L1182.68 556.552ZM1196.84 541.488L1199.51 552.24L1197.76 552.708L1194.66 542.07L1196.84 541.488ZM1199.3 554.893C1199.75 554.773 1200.16 554.824 1200.53 555.047C1200.91 555.268 1201.16 555.591 1201.27 556.016C1201.39 556.449 1201.34 556.86 1201.12 557.25C1200.91 557.63 1200.58 557.88 1200.13 558C1199.69 558.117 1199.28 558.065 1198.91 557.842C1198.53 557.611 1198.28 557.28 1198.17 556.847C1198.05 556.422 1198.1 556.019 1198.32 555.639C1198.53 555.259 1198.86 555.01 1199.3 554.893ZM1225.52 530.667L1231.29 552.253L1225.48 553.805L1225.04 552.159L1229.01 551.099L1224.13 532.84L1220.16 533.9L1219.71 532.219L1225.52 530.667ZM1242.64 535.022L1243.32 540.34L1245.2 539.838L1245.61 541.345L1243.51 541.906L1244.07 545.967L1242.4 546.413L1241.87 542.343L1238.5 543.245L1239.04 547.312L1237.37 547.758L1236.84 543.688L1235.01 544.178L1234.61 542.671L1236.64 542.129L1235.97 536.804L1234.09 537.306L1233.69 535.787L1235.76 535.233L1235.24 531.224L1236.91 530.778L1237.38 534.799L1240.79 533.888L1240.27 529.879L1241.94 529.433L1242.43 533.451L1244.28 532.955L1244.69 534.473L1242.64 535.022ZM1238.29 541.685L1241.67 540.784L1241 535.459L1237.6 536.367L1238.29 541.685ZM1270.44 527.589L1271.13 532.907L1273.01 532.405L1273.41 533.912L1271.31 534.473L1271.88 538.533L1270.21 538.98L1269.68 534.91L1266.3 535.812L1266.84 539.878L1265.18 540.325L1264.65 536.255L1262.81 536.745L1262.41 535.238L1264.44 534.696L1263.77 529.371L1261.9 529.873L1261.49 528.354L1263.57 527.799L1263.04 523.791L1264.71 523.345L1265.19 527.366L1268.6 526.454L1268.07 522.446L1269.74 522L1270.23 526.017L1272.09 525.522L1272.49 527.04L1270.44 527.589ZM1266.1 534.252L1269.47 533.35L1268.81 528.026L1265.41 528.934L1266.1 534.252ZM1281.52 538.824L1275.75 517.238L1281.56 515.686L1282.01 517.367L1278.04 518.427L1282.92 536.674L1286.89 535.614L1287.33 537.272L1281.52 538.824ZM1312.15 516.439L1312.84 521.758L1314.71 521.256L1315.12 522.763L1313.02 523.324L1313.58 527.384L1311.91 527.83L1311.38 523.761L1308.01 524.662L1308.55 528.729L1306.88 529.175L1306.35 525.106L1304.52 525.595L1304.12 524.088L1306.15 523.546L1305.48 518.221L1303.6 518.723L1303.2 517.205L1305.27 516.65L1304.75 512.641L1306.42 512.195L1306.9 516.216L1310.3 515.305L1309.78 511.296L1311.45 510.85L1311.94 514.868L1313.79 514.372L1314.2 515.891L1312.15 516.439ZM1307.81 523.103L1311.18 522.201L1310.51 516.876L1307.12 517.784L1307.81 523.103ZM1323.54 503.967L1323.94 505.497C1323.38 505.648 1322.88 505.843 1322.45 506.083C1322.02 506.313 1321.72 506.598 1321.53 506.936C1321.36 507.273 1321.35 507.672 1321.52 508.133L1323.28 512.756C1323.52 513.387 1323.62 513.934 1323.59 514.398C1323.56 514.863 1323.4 515.261 1323.12 515.594C1322.84 515.924 1322.45 516.211 1321.94 516.454C1322.51 516.402 1323 516.446 1323.41 516.585C1323.81 516.716 1324.14 516.975 1324.4 517.363C1324.65 517.743 1324.83 518.287 1324.94 518.993L1325.73 523.876C1325.82 524.366 1326.02 524.713 1326.34 524.917C1326.66 525.121 1327.07 525.216 1327.56 525.2C1328.05 525.184 1328.58 525.101 1329.15 524.95L1329.55 526.48C1328.91 526.654 1328.27 526.762 1327.64 526.805C1327.02 526.856 1326.44 526.807 1325.91 526.659C1325.38 526.51 1324.94 526.231 1324.58 525.822C1324.23 525.42 1323.99 524.853 1323.88 524.122L1323.17 519.592C1323.09 519.043 1322.92 518.608 1322.66 518.288C1322.4 517.966 1321.99 517.782 1321.42 517.738C1320.85 517.683 1320.04 517.794 1319.01 518.071L1318.59 516.517C1319.63 516.24 1320.38 515.94 1320.85 515.616C1321.33 515.29 1321.59 514.925 1321.65 514.52C1321.71 514.114 1321.65 513.656 1321.44 513.147L1319.8 508.842C1319.53 508.152 1319.45 507.544 1319.56 507.018C1319.66 506.485 1319.9 506.023 1320.28 505.632C1320.66 505.24 1321.14 504.91 1321.7 504.643C1322.28 504.366 1322.89 504.141 1323.54 503.967ZM1348.3 495.745L1355.74 523.568L1354 524.033L1346.56 496.21L1348.3 495.745ZM1358.22 494.695C1358.87 494.522 1359.5 494.413 1360.13 494.37C1360.75 494.319 1361.33 494.368 1361.86 494.517C1362.39 494.665 1362.83 494.944 1363.19 495.354C1363.55 495.754 1363.79 496.32 1363.89 497.054L1364.61 501.607C1364.69 502.149 1364.87 502.575 1365.17 502.887C1365.46 503.197 1365.9 503.374 1366.47 503.419C1367.05 503.464 1367.81 503.359 1368.76 503.105L1369.18 504.659C1368.24 504.911 1367.52 505.205 1367.04 505.54C1366.57 505.866 1366.28 506.238 1366.17 506.655C1366.08 507.07 1366.13 507.535 1366.33 508.052L1367.98 512.334C1368.24 513.024 1368.32 513.632 1368.22 514.158C1368.11 514.691 1367.86 515.154 1367.48 515.546C1367.11 515.937 1366.63 516.267 1366.06 516.536C1365.49 516.811 1364.89 517.035 1364.24 517.209L1363.83 515.679C1364.39 515.528 1364.89 515.337 1365.31 515.107C1365.75 514.875 1366.06 514.59 1366.24 514.251C1366.42 513.912 1366.43 513.509 1366.25 513.043L1364.5 508.42C1364.24 507.75 1364.13 507.188 1364.17 506.731C1364.2 506.267 1364.38 505.872 1364.7 505.546C1365.02 505.219 1365.49 504.929 1366.09 504.677C1365.46 504.737 1364.92 504.696 1364.47 504.552C1364.02 504.406 1363.67 504.141 1363.4 503.757C1363.13 503.373 1362.94 502.848 1362.83 502.183L1362.04 497.299C1361.96 496.816 1361.76 496.473 1361.43 496.27C1361.11 496.068 1360.7 495.974 1360.22 495.987C1359.73 495.993 1359.2 496.073 1358.63 496.226L1358.22 494.695ZM1379.15 489.101L1379.55 490.631C1378.99 490.782 1378.49 490.977 1378.06 491.217C1377.63 491.447 1377.33 491.732 1377.14 492.07C1376.97 492.407 1376.96 492.806 1377.13 493.267L1378.89 497.89C1379.13 498.52 1379.23 499.068 1379.2 499.532C1379.17 499.996 1379.01 500.395 1378.73 500.727C1378.45 501.058 1378.06 501.345 1377.55 501.588C1378.12 501.536 1378.61 501.579 1379.02 501.718C1379.42 501.849 1379.75 502.109 1380.01 502.497C1380.26 502.877 1380.44 503.42 1380.55 504.127L1381.34 509.01C1381.43 509.499 1381.63 509.846 1381.95 510.051C1382.27 510.255 1382.68 510.35 1383.17 510.334C1383.66 510.318 1384.19 510.235 1384.75 510.084L1385.16 511.614C1384.51 511.788 1383.88 511.896 1383.25 511.939C1382.63 511.99 1382.05 511.941 1381.52 511.793C1380.99 511.644 1380.55 511.365 1380.19 510.956C1379.84 510.554 1379.6 509.987 1379.49 509.255L1378.78 504.726C1378.7 504.176 1378.53 503.741 1378.27 503.422C1378.01 503.1 1377.6 502.916 1377.03 502.871C1376.46 502.816 1375.65 502.928 1374.62 503.204L1374.2 501.651C1375.24 501.374 1375.99 501.074 1376.46 500.75C1376.93 500.424 1377.2 500.059 1377.26 499.654C1377.32 499.247 1377.26 498.789 1377.05 498.28L1375.41 493.976C1375.14 493.286 1375.06 492.678 1375.17 492.152C1375.27 491.618 1375.51 491.157 1375.89 490.766C1376.27 490.374 1376.75 490.044 1377.31 489.777C1377.89 489.5 1378.5 489.274 1379.15 489.101ZM1390 484.595L1397.44 512.418L1395.7 512.883L1388.27 485.06L1390 484.595Z" fill="white"/>
<g filter="url(#filter0_f_599_2196)">
<ellipse cx="1034.45" cy="518.815" rx="391.478" ry="235.896" transform="rotate(71.0807 1034.45 518.815)" fill="black" fill-opacity="0.65"/>
</g>
<path d="M645.585 347.442C652.917 345.462 661.734 349.769 671.476 359.655C681.185 369.508 691.669 384.763 702.293 404.288C723.537 443.331 745.287 499.346 762.496 563.078C779.706 626.81 789.109 686.159 790.405 730.589C791.053 752.807 789.673 771.266 786.243 784.667C782.802 798.113 777.351 806.273 770.02 808.253C762.688 810.232 753.871 805.926 744.13 796.04C734.42 786.186 723.936 770.931 713.312 751.406C692.068 712.363 670.318 656.348 653.109 592.616C635.899 528.885 626.497 469.535 625.2 425.106C624.552 402.887 625.932 384.428 629.362 371.027C632.803 357.581 638.254 349.421 645.585 347.442Z" stroke="white"/>
<path d="M16.0714 741.618L15.6127 739.903L32.0746 735.502L32.5333 737.218L16.0714 741.618ZM11.5086 734.354L13.2746 735.199L9.52394 742.45L16.3924 746.861L15.2834 748.475L7.08943 743.1L11.5086 734.354ZM18.5455 732.473L20.3231 733.315L17.9807 737.841C17.7547 738.266 17.5738 738.596 17.4379 738.831C17.2942 739.068 17.1032 739.314 16.8648 739.568L17.3234 741.284C17.6569 741.385 17.9451 741.503 18.1879 741.637C18.4229 741.772 18.7444 741.968 19.1521 742.223L23.4408 744.977L22.3202 746.593L14.1263 741.219L18.5455 732.473ZM32.0606 737.344L31.6019 735.628L45.9771 731.785L46.4357 733.501L32.0606 737.344ZM45.963 733.628L45.5043 731.912L59.8795 728.069L60.3382 729.785L45.963 733.628ZM59.8654 729.911L59.4067 728.195L73.7819 724.352L74.2406 726.068L59.8654 729.911ZM73.7678 726.194L73.3091 724.479L87.6843 720.636L88.143 722.351L73.7678 726.194ZM87.6702 722.478L87.2116 720.762L101.587 716.919L102.045 718.635L87.6702 722.478ZM101.573 718.761L101.114 717.046L106.296 715.66L106.755 717.376L101.573 718.761ZM108.835 708.336L110.601 709.181L106.85 716.431L113.718 720.843L112.609 722.456L104.415 717.082L108.835 708.336ZM134.247 710.027L133.788 708.311L143.294 705.769L143.753 707.485L134.247 710.027ZM136.639 700.903L138.405 701.748L136.075 706.271C135.849 706.696 135.664 707.027 135.52 707.264C135.377 707.501 135.186 707.747 134.947 708.001L135.406 709.717C135.739 709.818 136.027 709.936 136.27 710.069C136.513 710.203 136.838 710.398 137.246 710.653L141.523 713.41L140.414 715.023L132.22 709.649L136.639 700.903ZM143.28 707.612L142.821 705.896L157.196 702.053L157.655 703.769L143.28 707.612ZM157.182 703.895L156.724 702.179L161.906 700.794L162.364 702.51L157.182 703.895ZM164.444 693.47L166.21 694.314L162.46 701.565L169.328 705.977L168.219 707.59L160.025 702.216L164.444 693.47ZM212.673 686.688L196.767 690.94L196.315 689.248L212.22 684.996L212.673 686.688ZM213.851 691.093L197.945 695.346L197.493 693.653L213.398 689.401L213.851 691.093ZM198.268 684.428L200.046 685.269L199.007 687.236C198.883 687.485 198.74 687.742 198.58 688.009C198.425 688.265 198.199 688.537 197.903 688.823L197.162 690.835L196.284 692.523L197.887 693.548L199.533 694.921C199.933 695.021 200.264 695.144 200.526 695.289C200.796 695.432 201.048 695.584 201.282 695.745L203.164 696.932L202.043 698.548L193.849 693.174L198.268 684.428ZM192.24 686.039L194.006 686.884L190.255 694.134L197.124 698.546L196.015 700.159L187.821 694.785L192.24 686.039ZM212.2 686.815L211.748 685.122L226.123 681.279L226.575 682.972L212.2 686.815ZM213.378 691.22L212.925 689.527L227.3 685.684L227.753 687.377L213.378 691.22ZM226.102 683.098L225.65 681.405L236.907 678.396L237.359 680.089L226.102 683.098ZM227.28 687.503L226.828 685.811L238.084 682.801L238.537 684.494L227.28 687.503ZM268.283 671.822L260.167 673.991L259.715 672.299L267.83 670.129L268.283 671.822ZM269.46 676.227L261.345 678.397L260.893 676.704L269.008 674.535L269.46 676.227ZM261.761 667.454L263.527 668.299L262.5 670.263C262.376 670.511 262.233 670.769 262.073 671.035C261.918 671.292 261.692 671.563 261.396 671.849L260.654 673.861L259.777 675.549L261.38 676.574L263.026 677.947C263.426 678.048 263.756 678.17 264.019 678.315C264.289 678.458 264.541 678.611 264.774 678.772L266.645 679.961L265.536 681.574L257.342 676.2L261.761 667.454ZM267.81 671.948L267.357 670.256L281.732 666.413L282.185 668.105L267.81 671.948ZM268.987 676.354L268.535 674.661L282.91 670.818L283.363 672.511L268.987 676.354ZM281.712 668.232L281.26 666.539L292.516 663.53L292.969 665.223L281.712 668.232ZM282.89 672.637L282.437 670.945L293.694 667.935L294.147 669.628L282.89 672.637ZM337.795 653.239L321.889 657.491L321.437 655.799L337.342 651.547L337.795 653.239ZM338.972 657.644L323.067 661.896L322.614 660.204L338.52 655.952L338.972 657.644ZM323.39 650.979L325.168 651.82L324.129 653.787C324.004 654.036 323.862 654.293 323.702 654.56C323.547 654.816 323.321 655.088 323.025 655.374L322.283 657.386L321.405 659.074L323.009 660.099L324.655 661.472C325.055 661.572 325.385 661.695 325.648 661.84C325.918 661.983 326.17 662.135 326.403 662.296L328.285 663.483L327.165 665.099L318.971 659.725L323.39 650.979ZM317.362 652.59L319.128 653.435L315.377 660.685L322.246 665.097L321.137 666.71L312.943 661.336L317.362 652.59ZM337.322 653.366L336.869 651.673L351.245 647.83L351.697 649.523L337.322 653.366ZM338.5 657.771L338.047 656.078L352.422 652.235L352.875 653.928L338.5 657.771ZM351.224 649.649L350.772 647.956L365.147 644.113L365.599 645.806L351.224 649.649ZM352.402 654.054L351.949 652.362L366.325 648.519L366.777 650.211L352.402 654.054ZM365.118 645.935L364.665 644.242L375.818 641.261L376.27 642.953L365.118 645.935ZM366.295 650.34L365.843 648.648L374.41 646.357L374.862 648.05L366.295 650.34ZM373.343 655.189L371.581 654.827L377.524 633.936L379.232 634.286L373.343 655.189ZM381.724 652.948L379.963 652.586L385.905 631.695L387.614 632.046L381.724 652.948ZM410.544 636.163L410.086 634.448L421.342 631.438L421.801 633.154L410.544 636.163ZM421.328 633.28L420.87 631.565L435.245 627.722L435.703 629.437L421.328 633.28ZM442.418 627.642L435.231 629.564L434.772 627.848L441.96 625.927L442.418 627.642ZM438.775 617.499L440.514 617.034L445.628 636.163L443.889 636.627L438.775 617.499ZM466.154 621.297L465.695 619.581L476.952 616.572L477.411 618.288L466.154 621.297ZM476.938 618.414L476.479 616.698L490.854 612.856L491.313 614.571L476.938 618.414ZM490.373 612.984L501.351 610.049L501.81 611.765L490.831 614.7L490.373 612.984ZM498.085 601.644L499.836 601.176L504.95 620.304L503.199 620.772L498.085 601.644ZM504.543 599.917L506.293 599.449L511.407 618.578L509.656 619.046L504.543 599.917ZM535.074 600.5L534.622 598.807L545.878 595.798L546.331 597.491L535.074 600.5ZM536.252 604.905L535.799 603.213L547.056 600.204L547.509 601.896L536.252 604.905ZM545.406 595.925L559.781 592.082L560.233 593.774L545.858 597.617L545.406 595.925ZM546.583 600.33L560.959 596.487L561.411 598.18L547.036 602.022L546.583 600.33ZM552.993 589.598L554.771 590.44L553.743 592.404C553.611 592.654 553.469 592.912 553.316 593.176C553.161 593.433 552.932 593.706 552.628 593.994L551.898 596.003L551.009 597.694L552.623 598.715L554.258 600.092C554.665 600.19 555 600.312 555.263 600.457C555.525 600.602 555.777 600.754 556.018 600.913L557.889 602.102L556.768 603.719L548.574 598.344L552.993 589.598ZM559.761 593.901L559.308 592.208L570.565 589.199L571.017 590.891L559.761 593.901ZM560.938 598.306L560.486 596.613L571.742 593.604L572.195 595.297L560.938 598.306ZM615.843 578.908L599.938 583.16L599.485 581.467L615.391 577.215L615.843 578.908ZM617.021 583.313L601.115 587.565L600.663 585.873L616.568 581.621L617.021 583.313ZM601.439 576.647L603.216 577.489L602.177 579.456C602.053 579.704 601.911 579.962 601.75 580.228C601.595 580.485 601.369 580.757 601.073 581.043L600.332 583.055L599.454 584.743L601.057 585.767L602.703 587.141C603.103 587.241 603.434 587.364 603.696 587.509C603.966 587.652 604.218 587.804 604.452 587.965L606.334 589.151L605.213 590.768L597.019 585.393L601.439 576.647ZM595.41 578.259L597.176 579.104L593.426 586.354L600.294 590.766L599.185 592.379L590.991 587.005L595.41 578.259ZM615.37 579.034L614.918 577.342L629.293 573.499L629.745 575.191L615.37 579.034ZM616.548 583.44L616.095 581.747L630.471 577.904L630.923 579.597L616.548 583.44ZM629.273 575.318L628.82 573.625L643.195 569.782L643.648 571.475L629.273 575.318ZM630.45 579.723L629.998 578.031L644.373 574.188L644.826 575.88L630.45 579.723ZM643.175 571.601L642.723 569.909L657.098 566.066L657.55 567.758L643.175 571.601ZM644.353 576.007L643.9 574.314L658.275 570.471L658.728 572.164L644.353 576.007ZM657.077 567.885L656.625 566.192L671 562.349L671.453 564.042L657.077 567.885ZM658.255 572.29L657.803 570.597L672.178 566.754L672.63 568.447L658.255 572.29ZM670.518 562.478L684.847 558.647L685.3 560.34L670.971 564.171L670.518 562.478ZM671.696 566.883L686.025 563.053L686.477 564.745L672.149 568.576L671.696 566.883ZM692.736 552.241L694.502 553.085L690.752 560.336L697.62 564.748L696.511 566.361L688.317 560.987L692.736 552.241ZM683.143 560.916L686.719 553.849L688.497 554.691L685.613 560.256L683.143 560.916ZM683.869 563.629L686.338 562.969L691.615 566.353L690.494 567.969L683.869 563.629ZM718.148 553.931L717.689 552.215L727.196 549.674L727.654 551.39L718.148 553.931ZM720.541 544.808L722.307 545.652L719.976 550.176C719.75 550.6 719.565 550.931 719.422 551.168C719.278 551.406 719.087 551.651 718.849 551.905L719.307 553.621C719.641 553.722 719.929 553.84 720.172 553.974C720.415 554.108 720.74 554.302 721.148 554.558L725.425 557.315L724.316 558.928L716.122 553.554L720.541 544.808ZM727.182 551.516L726.723 549.8L741.098 545.957L741.557 547.673L727.182 551.516ZM752.341 544.79L741.084 547.8L740.625 546.084L751.882 543.075L752.341 544.79Z" fill="white"/>
<path d="M223.001 615.134L224.972 614.607L226.076 619.342L230.063 616.599L231.144 618.273L227.011 620.794L230.866 623.738L229.617 625.29L225.927 622.127L224.307 626.709L222.45 625.988L224.322 621.513L219.482 621.391L219.583 619.401L224.407 619.788L223.001 615.134ZM235.753 611.725L237.724 611.198L238.829 615.933L242.816 613.19L243.896 614.864L239.763 617.385L243.618 620.329L242.369 621.881L238.679 618.718L237.059 623.3L235.202 622.579L237.074 618.104L232.234 617.982L232.336 615.992L237.159 616.379L235.753 611.725ZM297.689 596.173L298.138 597.854L261.296 607.703L260.847 606.022L297.689 596.173ZM300.041 604.972L300.493 606.665L263.651 616.514L263.199 614.821L300.041 604.972ZM298.866 600.579L299.316 602.26L262.474 612.109L262.024 610.428L298.866 600.579ZM348.09 598.288L346.329 597.927L352.271 577.036L353.98 577.386L348.09 598.288ZM367.201 577.591L367.65 579.272L330.808 589.121L330.359 587.44L367.201 577.591ZM369.553 586.39L370.006 588.082L333.163 597.931L332.711 596.239L369.553 586.39ZM368.379 581.996L368.828 583.677L331.986 593.526L331.536 591.845L368.379 581.996ZM405.838 577.584C406.286 577.464 406.697 577.516 407.072 577.738C407.454 577.959 407.701 578.282 407.815 578.707C407.931 579.14 407.879 579.551 407.66 579.941C407.447 580.321 407.117 580.571 406.668 580.691C406.236 580.806 405.828 580.754 405.446 580.533C405.07 580.302 404.824 579.971 404.708 579.538C404.594 579.113 404.644 578.71 404.857 578.33C405.078 577.948 405.405 577.7 405.838 577.584ZM393.532 566.539C394.483 566.285 395.347 566.236 396.126 566.392C396.897 566.551 397.537 566.856 398.047 567.307C398.555 567.751 398.891 568.278 399.054 568.889C399.252 569.631 399.275 570.275 399.123 570.821C398.969 571.359 398.727 571.846 398.396 572.282C398.071 572.708 397.741 573.132 397.407 573.553C397.07 573.966 396.817 574.414 396.648 574.898C396.472 575.384 396.469 575.948 396.641 576.589L396.855 577.389L394.896 577.913L394.651 576.997C394.45 576.247 394.423 575.588 394.569 575.019C394.707 574.452 394.935 573.94 395.251 573.483C395.568 573.025 395.892 572.595 396.223 572.192C396.552 571.781 396.809 571.365 396.995 570.942C397.18 570.52 397.204 570.054 397.068 569.544C396.892 568.887 396.494 568.451 395.874 568.236C395.251 568.013 394.549 568.006 393.769 568.215C393.22 568.362 392.692 568.648 392.185 569.073C391.675 569.491 391.26 570.061 390.94 570.785L389.276 570.136C389.744 569.158 390.339 568.378 391.061 567.796C391.773 567.208 392.597 566.789 393.532 566.539ZM396.575 580.06C397.023 579.94 397.438 579.991 397.82 580.212C398.202 580.432 398.45 580.755 398.564 581.18C398.68 581.613 398.628 582.025 398.409 582.414C398.188 582.796 397.854 583.047 397.406 583.167C396.973 583.283 396.569 583.229 396.195 583.006C395.819 582.776 395.573 582.444 395.457 582.011C395.343 581.586 395.393 581.183 395.606 580.804C395.819 580.424 396.142 580.176 396.575 580.06ZM435.847 557.848L437.186 559.093L430.343 566.3L443.403 570.224L442.741 571.929L428.937 567.732L428.404 565.738L435.847 557.848ZM443.37 574.283L441.605 573.997L446.289 549.703L448.047 550.053L443.37 574.283ZM473.263 547.262L475.029 548.106L472.698 552.63C472.552 552.917 472.428 553.153 472.328 553.337C472.227 553.514 472.122 553.678 472.013 553.831C471.903 553.977 471.756 554.153 471.571 554.36L478.561 552.491L479.02 554.207L472.018 556.078C472.353 556.187 472.676 556.325 472.985 556.491C473.285 556.651 473.58 556.824 473.87 557.012L478.147 559.769L477.038 561.382L468.844 556.008L473.263 547.262ZM486.092 552.316L485.633 550.6L520.852 541.185L521.311 542.901L486.092 552.316ZM480.938 543.446L483.601 554.199L481.851 554.667L478.759 544.029L480.938 543.446ZM483.391 556.851C483.84 556.731 484.255 556.782 484.637 557.003C485.011 557.226 485.255 557.55 485.369 557.975C485.484 558.408 485.437 558.818 485.226 559.205C485.005 559.587 484.67 559.838 484.222 559.958C483.781 560.076 483.374 560.023 483 559.801C482.623 559.57 482.377 559.238 482.262 558.805C482.148 558.38 482.198 557.978 482.411 557.598C482.624 557.218 482.951 556.969 483.391 556.851ZM560.531 522.206L574.972 526.556L575.506 528.55L568.179 536.408L566.739 535.253L573.573 528.01L559.986 523.929L560.531 522.206ZM549.376 527.498L550.714 528.743L543.872 535.95L556.932 539.875L556.27 541.579L542.466 537.382L541.933 535.388L549.376 527.498ZM556.899 543.933L555.134 543.647L559.818 519.353L561.576 519.703L556.899 543.933ZM596.587 522.777L596.129 521.061L607.385 518.052L607.844 519.768L596.587 522.777ZM607.371 519.894L606.912 518.178L621.288 514.336L621.746 516.051L607.371 519.894ZM630.78 513.636L621.274 516.178L620.815 514.462L630.321 511.921L630.78 513.636ZM624.153 506.924L632.347 512.298L627.928 521.044L626.162 520.2L628.493 515.676C628.719 515.251 628.904 514.92 629.047 514.683C629.191 514.446 629.382 514.2 629.62 513.946L629.162 512.231C628.828 512.129 628.54 512.012 628.297 511.878C628.055 511.744 627.729 511.549 627.321 511.294L623.044 508.537L624.153 506.924ZM660.167 495.57L674.608 499.92L675.141 501.914L667.814 509.773L666.375 508.617L673.208 501.375L659.621 497.293L660.167 495.57ZM656.763 516.106L655 515.832L659.454 492.717L661.212 493.067L656.763 516.106ZM727.019 481.685L728.897 481.183L730.051 493.955L727.28 494.695L723.308 486.156L723.779 495.631L720.985 496.378L717.152 487.801L718.064 497.159L715.189 497.928L711.251 489.379L711.989 498.783L709.184 499.533L705.223 490.99L706.007 500.382L703.132 501.151L699.195 492.602L699.886 502.019L697.197 502.738L691.719 491.122L693.701 490.592L698.207 501.176L697.629 491.207L699.936 490.59L704.271 499.555L703.623 489.604L705.988 488.972L710.299 497.943L709.674 487.987L711.993 487.367L716.304 496.338L715.563 486.412L717.928 485.78L722.077 494.794L721.742 484.76L724.049 484.144L728.395 493.105L727.019 481.685Z" fill="white"/>
<path d="M502.12 664.542L514.132 678.435L512.022 678.999L501.307 666.659L498.168 682.702L496.07 683.263L499.546 665.23L502.12 664.542ZM548.095 669.355L545.521 670.043L533.51 656.15L535.608 655.589L546.334 667.926L549.461 651.886L551.571 651.322L548.095 669.355ZM576.897 666.165L576.442 664.46L589.426 660.989L589.881 662.694L576.897 666.165ZM589.408 662.82L588.953 661.116L603.328 657.273L603.784 658.977L589.408 662.82ZM590.105 640.151L591.844 639.686L597.237 659.858L595.498 660.323L590.105 640.151ZM603.311 659.103L602.855 657.399L615.839 653.928L616.295 655.632L603.311 659.103ZM631.398 640.229L630.94 638.513L642.196 635.504L642.655 637.22L631.398 640.229ZM649.37 635.425L642.182 637.346L641.724 635.63L648.911 633.709L649.37 635.425ZM645.727 625.282L647.466 624.817L652.579 643.945L650.84 644.41L645.727 625.282ZM673.106 629.079L672.647 627.364L683.904 624.354L684.362 626.07L673.106 629.079ZM683.422 624.483L694.4 621.548L694.859 623.264L683.881 626.199L683.422 624.483ZM691.135 613.143L692.885 612.675L697.999 631.803L696.248 632.271L691.135 613.143ZM697.592 611.416L699.342 610.948L704.456 630.077L702.705 630.545L697.592 611.416ZM728.123 611.999L727.671 610.306L738.928 607.297L739.38 608.99L728.123 611.999ZM729.301 616.404L728.849 614.712L740.105 611.702L740.558 613.395L729.301 616.404ZM749.877 606.184L738.898 609.118L738.446 607.426L749.424 604.491L749.877 606.184ZM751.054 610.589L740.076 613.524L739.623 611.831L750.602 608.896L751.054 610.589ZM746.744 598.276L748.495 597.808L753.608 616.937L751.858 617.405L746.744 598.276ZM753.202 596.55L754.952 596.082L760.066 615.21L758.315 615.678L753.202 596.55Z" fill="white"/>
<path d="M157.961 815.512L164.372 813.799L164.775 815.306L158.364 817.019C157.521 817.245 156.94 817.533 156.62 817.883C156.292 818.236 156.223 818.768 156.413 819.479L157.726 824.345C157.992 825.309 158.028 826.078 157.833 826.651C157.629 827.219 157.148 827.683 156.392 828.043C156.958 827.991 157.43 828.038 157.809 828.186C158.185 828.325 158.5 828.589 158.753 828.977C158.996 829.359 159.209 829.894 159.393 830.582L160.682 835.404C160.875 836.123 161.198 836.558 161.653 836.71C162.107 836.862 162.756 836.825 163.598 836.6L170.009 834.886L170.415 836.405L164.004 838.119C163.139 838.35 162.361 838.446 161.671 838.407C160.984 838.375 160.4 838.142 159.919 837.708C159.439 837.273 159.072 836.58 158.817 835.63L157.627 831.178C157.522 830.784 157.39 830.446 157.232 830.166C157.073 829.877 156.849 829.66 156.561 829.513C156.266 829.368 155.868 829.305 155.368 829.323C154.867 829.34 154.227 829.454 153.446 829.662L153.031 828.109C153.811 827.9 154.423 827.679 154.865 827.445C155.3 827.212 155.611 826.964 155.796 826.699C155.982 826.434 156.074 826.14 156.07 825.818C156.065 825.488 156.01 825.126 155.904 824.732L154.697 820.124C154.449 819.163 154.427 818.386 154.633 817.793C154.831 817.202 155.219 816.734 155.798 816.389C156.374 816.036 157.095 815.744 157.961 815.512ZM167.838 812.872L173.881 835.478L172.131 835.946L166.087 813.34L167.838 812.872ZM205.859 802.708C206.724 802.476 207.495 802.37 208.17 802.388C208.844 802.398 209.414 802.61 209.881 803.024C210.355 803.435 210.724 804.119 210.988 805.075L212.242 809.672C212.347 810.066 212.48 810.407 212.64 810.695C212.798 810.976 213.023 811.185 213.316 811.322C213.61 811.459 214.003 811.519 214.495 811.504C214.996 811.486 215.636 811.373 216.417 811.164L216.832 812.717C216.051 812.926 215.44 813.147 214.997 813.382C214.555 813.616 214.242 813.869 214.058 814.142C213.882 814.413 213.796 814.713 213.802 815.043C213.805 815.365 213.859 815.723 213.965 816.117L215.155 820.569C215.409 821.519 215.436 822.303 215.237 822.919C215.037 823.536 214.647 824.029 214.067 824.4C213.489 824.778 212.768 825.083 211.902 825.314L205.491 827.028L205.085 825.509L211.496 823.795C212.338 823.57 212.919 823.278 213.237 822.92C213.555 822.562 213.618 822.023 213.426 821.304L212.137 816.482C211.953 815.794 211.871 815.224 211.891 814.771C211.916 814.309 212.058 813.923 212.315 813.614C212.569 813.298 212.955 813.021 213.471 812.784C212.636 812.85 211.988 812.687 211.528 812.297C211.073 811.897 210.72 811.213 210.47 810.245L209.18 805.373C208.989 804.661 208.664 804.235 208.204 804.093C207.751 803.949 207.104 803.99 206.262 804.215L199.851 805.929L199.448 804.422L205.859 802.708ZM195.982 805.348L197.732 804.88L203.775 827.486L202.025 827.954L195.982 805.348ZM244.946 801.736L245.635 807.055L255.106 804.523L255.509 806.03L245.817 808.621L246.381 812.681L244.712 813.127L244.183 809.058L240.809 809.959L241.35 814.026L239.68 814.472L239.151 810.403L237.32 810.892L236.917 809.385L238.945 808.843L238.28 803.518L236.402 804.02L235.996 802.502L238.071 801.947L237.546 797.938L239.215 797.492L239.694 801.513L243.102 800.602L242.577 796.593L244.246 796.147L244.737 800.165L253.327 797.868L253.733 799.387L244.946 801.736ZM240.603 808.4L243.977 807.498L243.311 802.173L239.914 803.081L240.603 808.4ZM254.951 789.633L255.361 791.164C254.796 791.314 254.298 791.51 253.865 791.75C253.438 791.98 253.133 792.264 252.95 792.603C252.775 792.94 252.77 793.338 252.935 793.8L254.693 798.422C254.936 799.053 255.041 799.601 255.007 800.065C254.974 800.529 254.816 800.928 254.532 801.26C254.256 801.591 253.865 801.877 253.358 802.12C253.924 802.069 254.412 802.112 254.822 802.251C255.229 802.382 255.56 802.642 255.812 803.03C256.063 803.41 256.246 803.953 256.36 804.659L257.144 809.543C257.233 810.032 257.438 810.379 257.757 810.584C258.077 810.788 258.483 810.882 258.976 810.866C259.468 810.851 259.997 810.767 260.561 810.617L260.97 812.147C260.321 812.32 259.683 812.429 259.057 812.472C258.433 812.523 257.857 812.474 257.329 812.325C256.8 812.177 256.357 811.898 255.999 811.488C255.643 811.086 255.409 810.52 255.296 809.788L254.582 805.259C254.502 804.709 254.332 804.274 254.072 803.954C253.82 803.632 253.407 803.449 252.832 803.404C252.262 803.349 251.46 803.46 250.424 803.737L250.009 802.184C251.045 801.907 251.797 801.606 252.265 801.282C252.741 800.956 253.007 800.591 253.065 800.187C253.13 799.78 253.062 799.322 252.859 798.813L251.212 794.509C250.944 793.818 250.865 793.21 250.972 792.685C251.078 792.151 251.319 791.689 251.695 791.299C252.079 790.906 252.554 790.577 253.12 790.309C253.692 790.032 254.302 789.807 254.951 789.633ZM286.653 790.586L287.342 795.905L294.958 793.869L295.361 795.376L287.524 797.471L288.088 801.531L286.419 801.977L285.89 797.908L282.516 798.81L283.057 802.876L281.387 803.322L280.859 799.253L279.027 799.743L278.624 798.235L280.653 797.693L279.987 792.368L278.109 792.871L277.703 791.352L279.778 790.797L279.253 786.789L280.922 786.342L281.401 790.363L284.809 789.452L284.284 785.444L285.954 784.997L286.444 789.015L293.179 787.214L293.585 788.733L286.653 790.586ZM282.311 797.25L285.684 796.348L285.018 791.023L281.622 791.931L282.311 797.25ZM296.351 802.191L290.58 780.605L296.388 779.053L296.838 780.734L292.873 781.794L297.751 800.041L301.716 798.981L302.159 800.639L296.351 802.191ZM339.489 776.462L340.178 781.78L342.056 781.278L342.459 782.785L340.361 783.346L340.925 787.406L339.255 787.852L338.726 783.783L335.353 784.685L335.893 788.751L334.224 789.198L333.695 785.128L326.728 786.991L326.325 785.484L333.489 783.568L332.823 778.244L324.952 780.348L324.546 778.829L332.615 776.672L332.09 772.664L333.759 772.218L334.238 776.238L337.646 775.327L337.121 771.319L338.79 770.873L339.28 774.89L341.135 774.394L341.541 775.913L339.489 776.462ZM335.147 783.125L338.521 782.223L337.855 776.899L334.458 777.807L335.147 783.125ZM323.755 771.737L329.526 793.323L323.718 794.875L323.278 793.229L327.243 792.169L322.361 773.911L318.397 774.97L317.947 773.289L323.755 771.737ZM380.326 771.022L378.204 771.59L376.788 760.715L378.909 760.147L380.326 771.022ZM381.276 776.619L378.69 777.31L378.334 774.213L380.92 773.522L381.276 776.619ZM370.995 768.039L371.684 773.358L373.562 772.856L373.965 774.363L371.866 774.924L372.43 778.984L370.761 779.43L370.232 775.361L366.858 776.262L367.399 780.329L365.729 780.775L365.201 776.706L363.369 777.195L362.966 775.688L364.995 775.146L364.329 769.821L362.451 770.323L362.045 768.805L364.12 768.25L363.595 764.241L365.264 763.795L365.743 767.816L369.151 766.905L368.626 762.896L370.296 762.45L370.786 766.468L372.641 765.972L373.047 767.491L370.995 768.039ZM366.652 774.703L370.026 773.801L369.36 768.476L365.964 769.384L366.652 774.703ZM410.592 759.217L411.007 762.398L412.885 761.896L413.285 763.391L411.187 763.952L411.819 768.454L410.149 768.9L409.541 764.393L406.179 765.291L406.788 769.799L405.118 770.245L404.521 765.734L402.678 766.227L402.278 764.732L404.318 764.186L403.914 761.003L402.036 761.505L401.63 759.986L403.705 759.431L402.984 753.712L404.653 753.265L405.34 758.994L408.737 758.086L408.015 752.367L409.684 751.92L410.371 757.649L412.226 757.153L412.632 758.672L410.592 759.217ZM405.976 763.743L409.35 762.841L408.946 759.658L405.56 760.563L405.976 763.743ZM424.997 754L425.4 755.507L414.7 758.368L414.297 756.861L424.997 754ZM425.518 758.271L425.917 759.766L415.229 762.623L414.829 761.128L425.518 758.271ZM453.482 745.988L454.171 751.306L461.787 749.27L462.19 750.777L454.354 752.872L454.917 756.932L453.248 757.379L452.719 753.309L449.345 754.211L449.886 758.277L448.217 758.724L447.688 754.654L445.856 755.144L445.453 753.637L447.482 753.094L446.816 747.77L444.938 748.272L444.532 746.753L446.607 746.198L446.082 742.19L447.751 741.744L448.23 745.764L451.638 744.853L451.113 740.845L452.783 740.399L453.273 744.416L460.009 742.616L460.415 744.134L453.482 745.988ZM449.14 752.651L452.513 751.749L451.847 746.425L448.451 747.333L449.14 752.651ZM460.956 746.623C461.278 747.829 461.671 748.883 462.136 749.785C462.599 750.68 463.142 751.471 463.764 752.158C464.385 752.836 465.099 753.449 465.907 753.994C466.725 754.546 467.646 755.078 468.669 755.591L467.934 756.93C466.408 756.237 465.052 755.473 463.869 754.639C462.693 753.802 461.688 752.787 460.856 751.593C460.031 750.398 459.384 748.923 458.915 747.169C458.444 745.406 458.268 743.802 458.386 742.354C458.512 740.904 458.875 739.523 459.477 738.212C460.086 736.898 460.881 735.563 461.86 734.208L463.165 735.002C462.529 735.967 461.994 736.893 461.56 737.779C461.132 738.655 460.818 739.542 460.619 740.44C460.418 741.33 460.342 742.282 460.389 743.297C460.442 744.301 460.631 745.41 460.956 746.623ZM496.969 748.374L513.327 744.001L513.782 745.705L495.547 750.58L494.426 742.159L491.053 743.061L491.593 747.128L489.924 747.574L489.395 743.505L487.563 743.994L487.16 742.487L489.189 741.945L488.523 736.62L486.645 737.122L486.239 735.603L488.314 735.049L487.789 731.04L489.459 730.594L489.937 734.615L493.346 733.704L492.821 729.695L494.49 729.249L494.98 733.267L496.835 732.771L497.241 734.289L495.189 734.838L495.878 740.157L497.756 739.654L498.159 741.162L496.061 741.723L496.969 748.374ZM490.847 741.502L494.22 740.6L493.555 735.275L490.158 736.183L490.847 741.502ZM538.668 737.226L565.424 730.073L566.598 731.585L537.245 739.432L536.124 731.012L532.751 731.914L533.291 735.98L531.622 736.427L531.093 732.357L529.261 732.847L528.858 731.34L530.887 730.798L530.221 725.473L528.343 725.975L527.937 724.456L530.013 723.901L529.488 719.893L531.157 719.447L531.636 723.468L535.044 722.556L534.519 718.548L536.188 718.102L536.679 722.119L538.533 721.624L538.939 723.142L536.887 723.691L537.576 729.009L539.454 728.507L539.857 730.014L537.759 730.575L538.668 737.226ZM532.545 730.354L535.919 729.452L535.253 724.128L531.856 725.036L532.545 730.354ZM558.273 720.607C558.585 721.898 559.028 723.047 559.603 724.052C560.186 725.056 560.875 725.944 561.67 726.717C562.464 727.49 563.334 728.173 564.279 728.765C565.224 729.357 566.212 729.892 567.242 730.37L566.633 731.576C565.489 731.137 564.383 730.625 563.316 730.041C562.249 729.456 561.256 728.761 560.336 727.955C559.423 727.14 558.611 726.181 557.903 725.078C557.2 723.966 556.643 722.658 556.232 721.153C555.746 719.395 555.561 717.792 555.68 716.344C555.805 714.895 556.173 713.513 556.782 712.199C557.399 710.883 558.198 709.547 559.177 708.192L560.482 708.986C559.846 709.951 559.319 710.875 558.9 711.757C558.487 712.629 558.185 713.513 557.994 714.409C557.809 715.295 557.736 716.246 557.776 717.262C557.821 718.268 557.987 719.383 558.273 720.607ZM592.506 708.822L593.195 714.141L595.073 713.639L595.476 715.146L593.378 715.707L593.941 719.767L592.272 720.213L591.743 716.144L588.37 717.045L588.91 721.112L587.241 721.558L586.712 717.489L584.88 717.978L584.477 716.471L586.506 715.929L585.84 710.604L583.962 711.106L583.556 709.588L585.631 709.033L585.106 705.024L586.776 704.578L587.254 708.599L590.663 707.688L590.138 703.679L591.807 703.233L592.297 707.251L595.207 706.473L596.842 707.663L592.506 708.822ZM588.164 715.486L591.537 714.584L590.872 709.259L587.475 710.167L588.164 715.486ZM599.831 700.815C600.781 700.561 601.642 700.513 602.413 700.671C603.192 700.827 603.836 701.131 604.346 701.583C604.854 702.027 605.19 702.554 605.353 703.164C605.518 703.783 605.556 704.327 605.467 704.798C605.375 705.262 605.21 705.683 604.972 706.061C604.734 706.439 604.47 706.8 604.18 707.142C603.889 707.477 603.622 707.826 603.379 708.188C603.143 708.542 602.97 708.935 602.863 709.37C602.763 709.802 602.789 710.301 602.94 710.865L603.154 711.665L601.194 712.189L600.949 711.273C600.749 710.523 600.719 709.869 600.859 709.309C601.007 708.748 601.241 708.243 601.56 707.793C601.878 707.344 602.203 706.917 602.534 706.514C602.863 706.103 603.119 705.683 603.303 705.253C603.486 704.823 603.507 704.345 603.367 703.82C603.191 703.163 602.793 702.727 602.172 702.512C601.55 702.289 600.848 702.282 600.067 702.491C599.797 702.563 599.471 702.708 599.091 702.926C598.716 703.133 598.349 703.434 597.99 703.828C597.632 704.222 597.343 704.734 597.122 705.365C596.901 705.995 596.808 706.761 596.842 707.663L595.207 706.473C595.239 705.603 595.406 704.846 595.706 704.203C596.011 703.55 596.396 702.992 596.86 702.528C597.324 702.065 597.818 701.697 598.341 701.424C598.871 701.142 599.367 700.939 599.831 700.815ZM602.874 714.336C603.322 714.216 603.737 714.266 604.119 714.487C604.501 714.708 604.749 715.031 604.863 715.456C604.978 715.889 604.927 716.3 604.708 716.69C604.487 717.072 604.153 717.323 603.704 717.443C603.272 717.558 602.868 717.505 602.494 717.282C602.117 717.051 601.871 716.719 601.756 716.287C601.642 715.861 601.692 715.459 601.905 715.079C602.118 714.699 602.441 714.451 602.874 714.336ZM642.381 693.191L645.418 692.379L645.877 696.231L642.84 697.043L642.381 693.191ZM643.214 700.024L646.251 699.212L646.71 703.064L643.672 703.876L643.214 700.024ZM635.141 697.425L635.83 702.743L637.708 702.241L638.111 703.748L636.012 704.309L636.576 708.369L634.907 708.815L634.378 704.746L631.004 705.648L631.545 709.714L629.875 710.16L629.346 706.091L627.515 706.581L627.112 705.074L629.141 704.531L628.475 699.207L626.597 699.709L626.191 698.19L628.266 697.635L627.741 693.627L629.41 693.181L629.889 697.201L633.297 696.29L632.772 692.282L634.442 691.835L634.932 695.853L636.787 695.357L637.193 696.876L635.141 697.425ZM630.798 704.088L634.172 703.186L633.506 697.862L630.11 698.77L630.798 704.088ZM678.077 690.406L677.624 688.713L689.495 685.54L689.948 687.232L678.077 690.406ZM672.525 693.939C671.984 694.084 671.473 694.092 670.991 693.964C670.5 693.831 670.074 693.584 669.713 693.225C669.35 692.859 669.097 692.409 668.955 691.875C668.81 691.334 668.806 690.822 668.941 690.339C669.075 689.848 669.322 689.425 669.683 689.072C670.037 688.721 670.484 688.473 671.025 688.328C671.566 688.184 672.082 688.178 672.573 688.312C673.062 688.438 673.487 688.68 673.848 689.039C674.202 689.4 674.45 689.851 674.595 690.392C674.738 690.926 674.746 691.437 674.62 691.926C674.486 692.417 674.239 692.839 673.878 693.193C673.517 693.546 673.066 693.795 672.525 693.939ZM716.658 682.849C717.199 682.705 717.701 682.769 718.163 683.043C718.616 683.311 718.909 683.697 719.043 684.199C719.12 684.485 719.165 684.779 719.18 685.082C719.187 685.386 719.151 685.748 719.072 686.166L718.347 690.981L716.585 691.452L716.468 686.552C715.863 686.333 715.47 685.887 715.29 685.215C715.152 684.697 715.216 684.208 715.482 683.747C715.74 683.289 716.132 682.99 716.658 682.849ZM714.516 674.839C715.057 674.694 715.558 674.755 716.018 675.021C716.471 675.289 716.766 675.682 716.905 676.2C717.041 676.71 716.982 677.202 716.728 677.676C716.464 678.144 716.061 678.45 715.52 678.595C714.995 678.735 714.505 678.667 714.05 678.392C713.586 678.11 713.285 677.714 713.149 677.204C713.054 676.848 713.05 676.51 713.138 676.188C713.226 675.867 713.391 675.587 713.634 675.348C713.874 675.101 714.169 674.932 714.516 674.839ZM725.932 680.37C726.473 680.225 726.971 680.291 727.426 680.567C727.886 680.833 728.183 681.217 728.318 681.72C728.394 682.006 728.436 682.301 728.443 682.605C728.457 682.908 728.425 683.268 728.347 683.687L727.622 688.502L725.859 688.973L725.742 684.073C725.137 683.854 724.744 683.408 724.565 682.735C724.426 682.218 724.486 681.73 724.745 681.271C725.011 680.811 725.407 680.51 725.932 680.37ZM723.791 672.359C724.332 672.215 724.828 672.276 725.281 672.545C725.741 672.811 726.041 673.203 726.179 673.721C726.316 674.231 726.253 674.724 725.991 675.199C725.734 675.665 725.336 675.971 724.795 676.115C724.269 676.256 723.775 676.189 723.313 675.915C722.856 675.632 722.56 675.235 722.423 674.725C722.328 674.369 722.325 674.031 722.412 673.709C722.5 673.387 722.666 673.107 722.908 672.868C723.149 672.622 723.443 672.452 723.791 672.359ZM766.289 656.315C767.487 655.995 768.544 655.907 769.46 656.051C770.382 656.186 771.186 656.497 771.871 656.984C772.564 657.47 773.16 658.089 773.659 658.841C774.164 659.584 774.595 660.405 774.951 661.303C775.305 662.194 775.609 663.115 775.863 664.066C776.384 666.013 776.724 667.657 776.883 668.997C777.049 670.328 776.973 671.375 776.655 672.139C776.34 672.911 775.714 673.421 774.779 673.671C774.3 673.799 773.856 673.794 773.446 673.655C773.036 673.516 772.672 673.299 772.352 673.003C772.035 672.716 771.777 672.4 771.577 672.055C771.376 671.704 771.241 671.388 771.175 671.107L771.082 671.132C771.038 671.525 770.931 671.93 770.761 672.348C770.597 672.756 770.336 673.128 769.979 673.464C769.623 673.808 769.137 674.062 768.518 674.227C767.676 674.452 766.935 674.406 766.295 674.089C765.663 673.769 765.124 673.238 764.677 672.496C764.23 671.755 763.871 670.874 763.598 669.854C763.059 667.836 763.06 666.23 763.601 665.033C764.14 663.829 765.121 663.037 766.543 662.657C767.084 662.512 767.617 662.432 768.143 662.415C768.669 662.399 769.303 662.478 770.045 662.652L771.876 669.504C772.099 670.338 772.343 670.956 772.608 671.358C772.87 671.751 773.147 671.996 773.438 672.092C773.729 672.188 774.025 672.196 774.326 672.116C774.689 672.018 774.923 671.761 775.027 671.344C775.13 670.928 775.138 670.383 775.05 669.711C774.961 669.039 774.81 668.272 774.596 667.41C774.38 666.541 774.14 665.611 773.875 664.622C773.58 663.517 773.242 662.501 772.862 661.576C772.48 660.643 772.018 659.86 771.476 659.226C770.934 658.593 770.28 658.159 769.514 657.925C768.747 657.691 767.831 657.717 766.764 658.002C766.563 658.055 766.247 658.157 765.815 658.305C765.38 658.446 764.907 658.643 764.395 658.896C763.889 659.139 763.41 659.441 762.96 659.801C762.51 660.162 762.169 660.588 761.936 661.081C761.651 661.687 761.441 662.344 761.307 663.05C761.181 663.755 761.089 664.405 761.033 664.999C760.977 665.594 760.914 666.041 760.845 666.341C760.731 666.844 760.577 667.365 760.382 667.906C760.177 668.441 759.88 668.926 759.491 669.361C759.101 669.789 758.561 670.094 757.873 670.278C757.332 670.423 756.834 670.432 756.378 670.306C755.914 670.181 755.482 670.007 755.083 669.782C754.675 669.56 754.286 669.374 753.915 669.225C753.536 669.078 753.165 669.053 752.802 669.15C752.299 669.284 751.917 669.589 751.655 670.065C751.391 670.533 751.183 671.086 751.03 671.723L749.456 671.411C749.566 670.893 749.719 670.363 749.914 669.823C750.109 669.282 750.405 668.797 750.804 668.367C751.195 667.94 751.734 667.634 752.422 667.45C753.002 667.295 753.527 667.279 753.999 667.401C754.463 667.526 754.894 667.7 755.294 667.925C755.693 668.149 756.071 668.338 756.427 668.491C756.782 668.645 757.138 668.674 757.494 668.579C757.973 668.451 758.351 668.147 758.628 667.667C758.898 667.189 759.109 666.631 759.262 665.994C759.321 665.78 759.376 665.459 759.427 665.031C759.476 664.596 759.539 664.103 759.615 663.552C759.684 663.004 759.79 662.441 759.934 661.865C760.068 661.282 760.246 660.738 760.467 660.232C760.741 659.587 761.141 659.037 761.665 658.582C762.195 658.118 762.762 657.73 763.367 657.419C763.971 657.109 764.54 656.866 765.072 656.69C765.605 656.515 766.01 656.39 766.289 656.315ZM770.202 670.026L768.597 664.021C768.324 663.961 768.061 663.936 767.807 663.946C767.561 663.954 767.298 663.995 767.02 664.069C765.961 664.353 765.341 664.928 765.159 665.797C764.977 666.665 765.087 667.849 765.487 669.348C765.69 670.106 765.923 670.76 766.186 671.311C766.455 671.851 766.769 672.252 767.128 672.512C767.485 672.764 767.896 672.828 768.36 672.704C768.901 672.56 769.293 672.323 769.536 671.993C769.786 671.661 769.951 671.314 770.028 670.954C770.111 670.584 770.17 670.275 770.202 670.026Z" fill="white"/>
<defs>
<filter id="filter0_f_599_2196" x="637.777" y="0.694733" width="793.341" height="1036.24" filterUnits="userSpaceOnUse" color-interpolation-filters="sRGB">
<feFlood flood-opacity="0" result="BackgroundImageFix"/>
<feBlend mode="normal" in="SourceGraphic" in2="BackgroundImageFix" result="shape"/>
<feGaussianBlur stdDeviation="69.95" result="effect1_foregroundBlur_599_2196"/>
</filter>
</defs>
</svg>
