<svg width="1271" height="629" viewBox="0 0 1271 629" fill="none" xmlns="http://www.w3.org/2000/svg">
<g clip-path="url(#clip0_593_2184)">
<path d="M689.273 32.3778C696.381 35.0492 701.028 43.6924 703.168 57.4056C705.301 71.0732 704.911 89.5793 702.142 111.634C696.605 155.737 681.573 213.916 658.351 275.711C635.129 337.506 608.125 391.187 583.247 428.02C570.806 446.44 558.912 460.624 548.305 469.504C537.663 478.414 528.475 481.858 521.366 479.187C514.257 476.515 509.611 467.872 507.471 454.159C505.338 440.491 505.728 421.985 508.497 399.93C514.034 355.828 529.066 297.648 552.288 235.853C575.51 174.058 602.514 120.378 627.392 83.5442C639.833 65.1239 651.727 50.9407 662.334 42.0605C672.975 33.1506 682.164 29.7065 689.273 32.3778Z" stroke="white"/>
<path d="M17.5078 146.048L14.975 150.776L16.7947 151.46L16.246 152.92L14.2128 152.156L12.31 155.786L10.6924 155.179L12.6289 151.561L9.36013 150.332L7.43487 153.954L5.81731 153.347L7.7538 149.729L5.97899 149.062L6.52775 147.601L8.49353 148.34L11.0488 143.621L9.22901 142.937L9.782 141.466L11.7927 142.221L13.6969 138.655L15.3144 139.263L13.3653 142.812L16.6678 144.054L18.572 140.487L20.1896 141.095L18.2517 144.649L20.049 145.324L19.496 146.796L17.5078 146.048ZM10.0999 148.944L13.3687 150.172L15.9239 145.453L12.6326 144.216L10.0999 148.944ZM44.4495 156.173L41.9167 160.9L43.7365 161.584L43.1877 163.044L41.1545 162.28L39.2517 165.911L37.6342 165.303L39.5707 161.685L36.3018 160.457L34.3766 164.079L32.759 163.471L34.6955 159.853L32.9207 159.186L33.4695 157.726L35.4352 158.464L37.9905 153.746L36.1707 153.062L36.7237 151.59L38.7344 152.346L40.6386 148.78L42.2561 149.388L40.3071 152.937L43.6096 154.178L45.5137 150.612L47.1313 151.22L45.1934 154.773L46.9907 155.449L46.4377 156.92L44.4495 156.173ZM37.0416 159.068L40.3104 160.296L42.8656 155.578L39.5743 154.341L37.0416 159.068ZM57.9203 161.235L55.3876 165.962L57.2073 166.646L56.6585 168.106L54.6254 167.342L52.7226 170.973L51.105 170.365L53.0415 166.747L49.7727 165.519L47.8474 169.141L46.2299 168.533L48.1664 164.915L46.3916 164.248L46.9403 162.788L48.9061 163.527L51.4613 158.808L49.6416 158.124L50.1946 156.653L52.2053 157.408L54.1094 153.842L55.727 154.45L53.7779 157.999L57.0804 159.24L58.9846 155.674L60.6021 156.282L58.6643 159.835L60.4616 160.511L59.9086 161.982L57.9203 161.235ZM50.5124 164.13L53.7812 165.359L56.3365 160.64L53.0452 159.403L50.5124 164.13ZM84.862 171.36L82.3293 176.087L84.149 176.771L83.6003 178.231L81.5671 177.467L79.6643 181.098L78.0467 180.49L79.9832 176.872L76.7144 175.643L74.7892 179.266L73.1716 178.658L75.1081 175.04L73.3333 174.373L73.882 172.912L75.8478 173.651L78.4031 168.932L76.5833 168.249L77.1363 166.777L79.147 167.533L81.0512 163.966L82.6687 164.574L80.7196 168.124L84.0221 169.365L85.9263 165.799L87.5439 166.406L85.606 169.96L87.4033 170.635L86.8503 172.107L84.862 171.36ZM77.4541 174.255L80.723 175.483L83.2782 170.764L79.9869 169.528L77.4541 174.255ZM98.3329 176.422L95.8001 181.149L97.6199 181.833L97.0711 183.293L95.0379 182.529L93.1351 186.16L91.5176 185.552L93.4541 181.934L90.1853 180.705L88.26 184.328L86.6425 183.72L88.579 180.102L86.8041 179.435L87.3529 177.975L89.3187 178.713L91.8739 173.995L90.0542 173.311L90.6071 171.839L92.6179 172.595L94.522 169.029L96.1396 169.637L94.1905 173.186L97.493 174.427L99.3972 170.861L101.015 171.469L99.0769 175.022L100.874 175.697L100.321 177.169L98.3329 176.422ZM90.925 179.317L94.1938 180.545L96.749 175.827L93.4578 174.59L90.925 179.317ZM111.804 181.484L109.271 186.211L111.091 186.895L110.542 188.355L108.509 187.591L106.606 191.222L104.988 190.614L106.925 186.996L103.656 185.768L101.731 189.39L100.113 188.782L102.05 185.164L100.275 184.497L100.824 183.037L102.79 183.776L105.345 179.057L103.525 178.373L104.078 176.901L106.089 177.657L107.993 174.091L109.61 174.699L107.661 178.248L110.964 179.489L112.868 175.923L114.486 176.531L112.548 180.084L114.345 180.76L113.792 182.231L111.804 181.484ZM104.396 184.379L107.665 185.608L110.22 180.889L106.929 179.652L104.396 184.379ZM138.745 191.608L136.213 196.336L138.032 197.019L137.484 198.48L135.451 197.716L133.548 201.346L131.93 200.739L133.867 197.121L130.598 195.892L128.673 199.514L127.055 198.907L128.992 195.289L127.217 194.622L127.765 193.161L129.731 193.9L132.286 189.181L130.467 188.497L131.02 187.026L133.03 187.781L134.935 184.215L136.552 184.823L134.603 188.372L137.906 189.614L139.81 186.047L141.427 186.655L139.489 190.209L141.287 190.884L140.734 192.356L138.745 191.608ZM131.338 194.504L134.606 195.732L137.162 191.013L133.87 189.776L131.338 194.504ZM152.216 196.671L149.684 201.398L151.503 202.082L150.955 203.542L148.921 202.778L147.019 206.409L145.401 205.801L147.338 202.183L144.069 200.954L142.143 204.577L140.526 203.969L142.462 200.351L140.688 199.684L141.236 198.223L143.202 198.962L145.757 194.243L143.938 193.56L144.491 192.088L146.501 192.844L148.405 189.278L150.023 189.885L148.074 193.435L151.376 194.676L153.281 191.11L154.898 191.717L152.96 195.271L154.758 195.946L154.205 197.418L152.216 196.671ZM144.808 199.566L148.077 200.794L150.632 196.075L147.341 194.839L144.808 199.566ZM165.687 201.733L163.154 206.46L164.974 207.144L164.425 208.604L162.392 207.84L160.489 211.471L158.872 210.863L160.808 207.245L157.54 206.017L155.614 209.639L153.997 209.031L155.933 205.413L154.158 204.746L154.707 203.286L156.673 204.024L159.228 199.306L157.408 198.622L157.961 197.15L159.972 197.906L161.876 194.34L163.494 194.948L161.545 198.497L164.847 199.738L166.751 196.172L168.369 196.78L166.431 200.333L168.228 201.009L167.675 202.48L165.687 201.733ZM158.279 204.628L161.548 205.856L164.103 201.138L160.812 199.901L158.279 204.628ZM179.158 206.795L176.625 211.522L178.445 212.206L177.896 213.666L175.863 212.902L173.96 216.533L172.343 215.925L174.279 212.307L171.01 211.079L169.085 214.701L167.468 214.093L169.404 210.475L167.629 209.808L168.178 208.348L170.144 209.087L172.699 204.368L170.879 203.684L171.432 202.213L173.443 202.968L175.347 199.402L176.965 200.01L175.016 203.559L178.318 204.8L180.222 201.234L181.84 201.842L179.902 205.395L181.699 206.071L181.146 207.542L179.158 206.795ZM171.75 209.69L175.019 210.919L177.574 206.2L174.283 204.963L171.75 209.69ZM192.629 211.857L190.096 216.585L191.916 217.268L191.367 218.729L189.334 217.965L187.431 221.595L185.814 220.987L187.75 217.369L184.481 216.141L182.556 219.763L180.938 219.155L182.875 215.537L181.1 214.87L181.649 213.41L183.615 214.149L186.17 209.43L184.35 208.746L184.903 207.275L186.914 208.03L188.818 204.464L190.436 205.072L188.486 208.621L191.789 209.862L193.693 206.296L195.311 206.904L193.373 210.458L195.17 211.133L194.617 212.605L192.629 211.857ZM185.221 214.752L188.49 215.981L191.045 211.262L187.754 210.025L185.221 214.752ZM206.1 216.92L203.567 221.647L205.387 222.331L204.838 223.791L202.805 223.027L200.902 226.658L199.284 226.05L201.221 222.432L197.952 221.203L196.027 224.826L194.409 224.218L196.346 220.6L194.571 219.933L195.12 218.472L197.086 219.211L199.641 214.492L197.821 213.808L198.374 212.337L200.385 213.093L202.289 209.526L203.906 210.134L201.957 213.684L205.26 214.925L207.164 211.359L208.782 211.966L206.844 215.52L208.641 216.195L208.088 217.667L206.1 216.92ZM198.692 219.815L201.961 221.043L204.516 216.324L201.225 215.088L198.692 219.815ZM233.041 227.044L230.509 231.771L232.328 232.455L231.78 233.915L229.747 233.151L227.844 236.782L226.226 236.174L228.163 232.556L224.894 231.328L222.969 234.95L221.351 234.342L223.288 230.724L221.513 230.057L222.061 228.597L224.027 229.336L226.582 224.617L224.763 223.933L225.316 222.461L227.326 223.217L229.231 219.651L230.848 220.259L228.899 223.808L232.202 225.049L234.106 221.483L235.723 222.091L233.785 225.644L235.583 226.32L235.03 227.791L233.041 227.044ZM225.634 229.939L228.902 231.168L231.458 226.449L228.166 225.212L225.634 229.939ZM246.512 232.106L243.98 236.833L245.799 237.517L245.251 238.978L243.217 238.213L241.315 241.844L239.697 241.236L241.634 237.618L238.365 236.39L236.439 240.012L234.822 239.404L236.758 235.786L234.984 235.119L235.532 233.659L237.498 234.398L240.053 229.679L238.234 228.995L238.787 227.524L240.797 228.279L242.701 224.713L244.319 225.321L242.37 228.87L245.672 230.111L247.577 226.545L249.194 227.153L247.256 230.706L249.054 231.382L248.501 232.853L246.512 232.106ZM239.104 235.001L242.373 236.23L244.928 231.511L241.637 230.274L239.104 235.001ZM259.983 237.168L257.45 241.896L259.27 242.579L258.721 244.04L256.688 243.276L254.785 246.906L253.168 246.299L255.104 242.681L251.836 241.452L249.91 245.074L248.293 244.467L250.229 240.848L248.454 240.182L249.003 238.721L250.969 239.46L253.524 234.741L251.704 234.057L252.257 232.586L254.268 233.341L256.172 229.775L257.79 230.383L255.841 233.932L259.143 235.173L261.047 231.607L262.665 232.215L260.727 235.769L262.524 236.444L261.971 237.916L259.983 237.168ZM252.575 240.064L255.844 241.292L258.399 236.573L255.108 235.336L252.575 240.064ZM273.454 242.231L270.921 246.958L272.741 247.642L272.192 249.102L270.159 248.338L268.256 251.969L266.639 251.361L268.575 247.743L265.306 246.514L263.381 250.137L261.764 249.529L263.7 245.911L261.925 245.244L262.474 243.783L264.44 244.522L266.995 239.803L265.175 239.12L265.728 237.648L267.739 238.404L269.643 234.838L271.261 235.445L269.312 238.995L272.614 240.236L274.518 236.67L276.136 237.277L274.198 240.831L275.995 241.506L275.442 242.978L273.454 242.231ZM266.046 245.126L269.315 246.354L271.87 241.635L268.579 240.399L266.046 245.126ZM286.925 247.293L284.392 252.02L286.212 252.704L285.663 254.164L283.63 253.4L281.727 257.031L280.11 256.423L282.046 252.805L278.777 251.577L276.852 255.199L275.234 254.591L277.171 250.973L275.396 250.306L275.945 248.846L277.911 249.584L280.466 244.866L278.646 244.182L279.199 242.71L281.21 243.466L283.114 239.9L284.732 240.508L282.783 244.057L286.085 245.298L287.989 241.732L289.607 242.34L287.669 245.893L289.466 246.569L288.913 248.04L286.925 247.293ZM279.517 250.188L282.786 251.416L285.341 246.698L282.05 245.461L279.517 250.188ZM300.396 252.355L297.863 257.082L299.683 257.766L299.134 259.226L297.101 258.462L295.198 262.093L293.58 261.485L295.517 257.867L292.248 256.639L290.323 260.261L288.705 259.653L290.642 256.035L288.867 255.368L289.416 253.908L291.382 254.647L293.937 249.928L292.117 249.244L292.67 247.772L294.681 248.528L296.585 244.962L298.202 245.57L296.253 249.119L299.556 250.36L301.46 246.794L303.078 247.402L301.14 250.955L302.937 251.631L302.384 253.102L300.396 252.355ZM292.988 255.25L296.257 256.479L298.812 251.76L295.521 250.523L292.988 255.25ZM313.867 257.417L311.334 262.144L313.154 262.828L312.605 264.289L310.572 263.525L308.669 267.155L307.051 266.547L308.988 262.929L305.719 261.701L303.794 265.323L302.176 264.715L304.113 261.097L302.338 260.43L302.887 258.97L304.852 259.709L307.408 254.99L305.588 254.306L306.141 252.835L308.152 253.59L310.056 250.024L311.673 250.632L309.724 254.181L313.027 255.422L314.931 251.856L316.548 252.464L314.611 256.018L316.408 256.693L315.855 258.164L313.867 257.417ZM306.459 260.312L309.728 261.541L312.283 256.822L308.992 255.585L306.459 260.312ZM327.337 262.48L324.805 267.207L326.624 267.891L326.076 269.351L324.043 268.587L322.14 272.218L320.522 271.61L322.459 267.992L319.19 266.763L317.265 270.385L315.647 269.778L317.584 266.16L315.809 265.493L316.357 264.032L318.323 264.771L320.879 260.052L319.059 259.368L319.612 257.897L321.622 258.653L323.527 255.086L325.144 255.694L323.195 259.244L326.498 260.485L328.402 256.918L330.019 257.526L328.081 261.08L329.879 261.755L329.326 263.227L327.337 262.48ZM319.93 265.375L323.198 266.603L325.754 261.884L322.462 260.648L319.93 265.375ZM340.808 267.542L338.276 272.269L340.095 272.953L339.547 274.413L337.513 273.649L335.611 277.28L333.993 276.672L335.93 273.054L332.661 271.825L330.735 275.448L329.118 274.84L331.054 271.222L329.28 270.555L329.828 269.095L331.794 269.833L334.349 265.115L332.53 264.431L333.083 262.959L335.093 263.715L336.997 260.149L338.615 260.757L336.666 264.306L339.968 265.547L341.873 261.981L343.49 262.589L341.552 266.142L343.35 266.817L342.797 268.289L340.808 267.542ZM333.4 270.437L336.669 271.665L339.224 266.947L335.933 265.71L333.4 270.437ZM354.279 272.604L351.746 277.331L353.566 278.015L353.017 279.475L350.984 278.711L349.081 282.342L347.464 281.734L349.4 278.116L346.132 276.888L344.206 280.51L342.589 279.902L344.525 276.284L342.75 275.617L343.299 274.157L345.265 274.895L347.82 270.177L346 269.493L346.553 268.021L348.564 268.777L350.468 265.211L352.086 265.819L350.137 269.368L353.439 270.609L355.343 267.043L356.961 267.651L355.023 271.204L356.82 271.88L356.267 273.351L354.279 272.604ZM346.871 275.499L350.14 276.728L352.695 272.009L349.404 270.772L346.871 275.499ZM367.75 277.666L365.217 282.393L367.037 283.077L366.488 284.538L364.455 283.773L362.552 287.404L360.935 286.796L362.871 283.178L359.602 281.95L357.677 285.572L356.06 284.964L357.996 281.346L356.221 280.679L356.77 279.219L358.736 279.958L361.291 275.239L359.471 274.555L360.024 273.084L362.035 273.839L363.939 270.273L365.557 270.881L363.608 274.43L366.91 275.671L368.814 272.105L370.432 272.713L368.494 276.266L370.291 276.942L369.738 278.413L367.75 277.666ZM360.342 280.561L363.611 281.79L366.166 277.071L362.875 275.834L360.342 280.561ZM394.692 287.791L392.159 292.518L393.979 293.202L393.43 294.662L391.397 293.898L389.494 297.529L387.876 296.921L389.813 293.303L386.544 292.074L384.619 295.697L383.001 295.089L384.938 291.471L383.163 290.804L383.712 289.343L385.678 290.082L388.233 285.363L386.413 284.68L386.966 283.208L388.977 283.964L390.881 280.398L392.498 281.005L390.549 284.555L393.852 285.796L395.756 282.23L397.374 282.837L395.436 286.391L397.233 287.066L396.68 288.538L394.692 287.791ZM387.284 290.686L390.553 291.914L393.108 287.195L389.817 285.959L387.284 290.686ZM408.163 292.853L405.63 297.58L407.45 298.264L406.901 299.724L404.868 298.96L402.965 302.591L401.347 301.983L403.284 298.365L400.015 297.137L398.09 300.759L396.472 300.151L398.409 296.533L396.634 295.866L397.183 294.406L399.148 295.144L401.704 290.426L399.884 289.742L400.437 288.27L402.448 289.026L404.352 285.46L405.969 286.068L404.02 289.617L407.323 290.858L409.227 287.292L410.844 287.9L408.907 291.453L410.704 292.128L410.151 293.6L408.163 292.853ZM400.755 295.748L404.024 296.976L406.579 292.258L403.288 291.021L400.755 295.748ZM421.634 297.915L419.101 302.642L420.92 303.326L420.372 304.786L418.339 304.022L416.436 307.653L414.818 307.045L416.755 303.427L413.486 302.199L411.561 305.821L409.943 305.213L411.88 301.595L410.105 300.928L410.653 299.468L412.619 300.207L415.175 295.488L413.355 294.804L413.908 293.332L415.918 294.088L417.823 290.522L419.44 291.13L417.491 294.679L420.794 295.92L422.698 292.354L424.315 292.962L422.377 296.515L424.175 297.191L423.622 298.662L421.634 297.915ZM414.226 300.81L417.494 302.039L420.05 297.32L416.758 296.083L414.226 300.81ZM435.104 302.977L432.572 307.704L434.391 308.388L433.843 309.849L431.809 309.085L429.907 312.715L428.289 312.107L430.226 308.489L426.957 307.261L425.031 310.883L423.414 310.275L425.35 306.657L423.576 305.99L424.124 304.53L426.09 305.269L428.645 300.55L426.826 299.866L427.379 298.395L429.389 299.15L431.293 295.584L432.911 296.192L430.962 299.741L434.264 300.982L436.169 297.416L437.786 298.024L435.848 301.578L437.646 302.253L437.093 303.724L435.104 302.977ZM427.696 305.872L430.965 307.101L433.521 302.382L430.229 301.145L427.696 305.872ZM448.575 308.04L446.042 312.767L447.862 313.451L447.313 314.911L445.28 314.147L443.377 317.777L441.76 317.17L443.696 313.552L440.428 312.323L438.502 315.945L436.885 315.338L438.821 311.72L437.046 311.053L437.595 309.592L439.561 310.331L442.116 305.612L440.296 304.928L440.849 303.457L442.86 304.213L444.764 300.646L446.382 301.254L444.433 304.803L447.735 306.045L449.639 302.478L451.257 303.086L449.319 306.64L451.116 307.315L450.563 308.787L448.575 308.04ZM441.167 310.935L444.436 312.163L446.991 307.444L443.7 306.207L441.167 310.935ZM462.046 313.102L459.513 317.829L461.333 318.513L460.784 319.973L458.751 319.209L456.848 322.84L455.231 322.232L457.167 318.614L453.898 317.385L451.973 321.008L450.356 320.4L452.292 316.782L450.517 316.115L451.066 314.655L453.032 315.393L455.587 310.675L453.767 309.991L454.32 308.519L456.331 309.275L458.235 305.709L459.853 306.317L457.904 309.866L461.206 311.107L463.11 307.541L464.728 308.149L462.79 311.702L464.587 312.377L464.034 313.849L462.046 313.102ZM454.638 315.997L457.907 317.225L460.462 312.507L457.171 311.27L454.638 315.997ZM475.517 318.164L472.984 322.891L474.804 323.575L474.255 325.035L472.222 324.271L470.319 327.902L468.702 327.294L470.638 323.676L467.369 322.448L465.444 326.07L463.826 325.462L465.763 321.844L463.988 321.177L464.537 319.717L466.503 320.455L469.058 315.737L467.238 315.053L467.791 313.581L469.802 314.337L471.706 310.771L473.324 311.379L471.375 314.928L474.677 316.169L476.581 312.603L478.199 313.211L476.261 316.764L478.058 317.44L477.505 318.911L475.517 318.164ZM468.109 321.059L471.378 322.287L473.933 317.569L470.642 316.332L468.109 321.059ZM488.988 323.226L486.455 327.953L488.275 328.637L487.726 330.097L485.693 329.333L483.79 332.964L482.172 332.356L484.109 328.738L480.84 327.51L478.915 331.132L477.297 330.524L479.234 326.906L477.459 326.239L478.008 324.779L479.974 325.518L482.529 320.799L480.709 320.115L481.262 318.644L483.273 319.399L485.177 315.833L486.794 316.441L484.845 319.99L488.148 321.231L490.052 317.665L491.67 318.273L489.732 321.826L491.529 322.502L490.976 323.973L488.988 323.226ZM481.58 326.121L484.849 327.35L487.404 322.631L484.113 321.394L481.58 326.121ZM502.459 328.288L499.926 333.016L501.746 333.699L501.197 335.16L499.164 334.396L497.261 338.026L495.643 337.418L497.58 333.8L494.311 332.572L492.386 336.194L490.768 335.586L492.705 331.968L490.93 331.301L491.479 329.841L493.444 330.58L496 325.861L494.18 325.177L494.733 323.706L496.744 324.461L498.648 320.895L500.265 321.503L498.316 325.052L501.619 326.293L503.523 322.727L505.14 323.335L503.203 326.889L505 327.564L504.447 329.036L502.459 328.288ZM495.051 331.184L498.32 332.412L500.875 327.693L497.584 326.456L495.051 331.184ZM515.93 333.351L513.397 338.078L515.216 338.762L514.668 340.222L512.635 339.458L510.732 343.089L509.114 342.481L511.051 338.863L507.782 337.634L505.857 341.257L504.239 340.649L506.176 337.031L504.401 336.364L504.95 334.903L506.915 335.642L509.471 330.923L507.651 330.24L508.204 328.768L510.214 329.524L512.119 325.958L513.736 326.565L511.787 330.115L515.09 331.356L516.994 327.79L518.611 328.397L516.673 331.951L518.471 332.626L517.918 334.098L515.93 333.351ZM508.522 336.246L511.79 337.474L514.346 332.755L511.054 331.519L508.522 336.246ZM529.4 338.413L526.868 343.14L528.687 343.824L528.139 345.284L526.105 344.52L524.203 348.151L522.585 347.543L524.522 343.925L521.253 342.697L519.327 346.319L517.71 345.711L519.646 342.093L517.872 341.426L518.42 339.966L520.386 340.704L522.941 335.986L521.122 335.302L521.675 333.83L523.685 334.586L525.589 331.02L527.207 331.628L525.258 335.177L528.56 336.418L530.465 332.852L532.082 333.46L530.144 337.013L531.942 337.688L531.389 339.16L529.4 338.413ZM521.992 341.308L525.261 342.536L527.817 337.818L524.525 336.581L521.992 341.308ZM542.871 343.475L540.338 348.202L542.158 348.886L541.609 350.346L539.576 349.582L537.673 353.213L536.056 352.605L537.992 348.987L534.724 347.759L532.798 351.381L531.181 350.773L533.117 347.155L531.342 346.488L531.891 345.028L533.857 345.767L536.412 341.048L534.592 340.364L535.145 338.892L537.156 339.648L539.06 336.082L540.678 336.69L538.729 340.239L542.031 341.48L543.935 337.914L545.553 338.522L543.615 342.075L545.412 342.751L544.859 344.222L542.871 343.475ZM535.463 346.37L538.732 347.599L541.287 342.88L537.996 341.643L535.463 346.37ZM556.342 348.537L553.809 353.264L555.629 353.948L555.08 355.409L553.047 354.645L551.144 358.275L549.527 357.667L551.463 354.049L548.194 352.821L546.269 356.443L544.652 355.835L546.588 352.217L544.813 351.55L545.362 350.09L547.328 350.829L549.883 346.11L548.063 345.426L548.616 343.955L550.627 344.71L552.531 341.144L554.149 341.752L552.2 345.301L555.502 346.542L557.406 342.976L559.024 343.584L557.086 347.138L558.883 347.813L558.33 349.284L556.342 348.537ZM548.934 351.432L552.203 352.661L554.758 347.942L551.467 346.705L548.934 351.432ZM569.813 353.599L567.28 358.327L569.1 359.011L568.551 360.471L566.518 359.707L564.615 363.337L562.998 362.73L564.934 359.112L561.665 357.883L559.74 361.505L558.122 360.898L560.059 357.28L558.284 356.613L558.833 355.152L560.799 355.891L563.354 351.172L561.534 350.488L562.087 349.017L564.098 349.772L566.002 346.206L567.62 346.814L565.671 350.363L568.973 351.605L570.877 348.038L572.495 348.646L570.557 352.2L572.354 352.875L571.801 354.347L569.813 353.599ZM562.405 356.495L565.674 357.723L568.229 353.004L564.938 351.767L562.405 356.495ZM583.284 358.662L580.751 363.389L582.571 364.073L582.022 365.533L579.989 364.769L578.086 368.4L576.468 367.792L578.405 364.174L575.136 362.945L573.211 366.568L571.593 365.96L573.53 362.342L571.755 361.675L572.304 360.214L574.27 360.953L576.825 356.234L575.005 355.551L575.558 354.079L577.569 354.835L579.473 351.269L581.09 351.876L579.141 355.426L582.444 356.667L584.348 353.101L585.966 353.709L584.028 357.262L585.825 357.937L585.272 359.409L583.284 358.662ZM575.876 361.557L579.145 362.785L581.7 358.067L578.409 356.83L575.876 361.557ZM596.755 363.724L594.222 368.451L596.042 369.135L595.493 370.595L593.46 369.831L591.557 373.462L589.939 372.854L591.876 369.236L588.607 368.008L586.682 371.63L585.064 371.022L587.001 367.404L585.226 366.737L585.775 365.277L587.74 366.015L590.296 361.297L588.476 360.613L589.029 359.141L591.04 359.897L592.944 356.331L594.561 356.939L592.612 360.488L595.915 361.729L597.819 358.163L599.436 358.771L597.499 362.324L599.296 363L598.743 364.471L596.755 363.724ZM589.347 366.619L592.616 367.847L595.171 363.129L591.88 361.892L589.347 366.619ZM610.226 368.786L607.693 373.513L609.513 374.197L608.964 375.657L606.931 374.893L605.028 378.524L603.41 377.916L605.347 374.298L602.078 373.07L600.153 376.692L598.535 376.084L600.472 372.466L598.697 371.799L599.246 370.339L601.211 371.078L603.767 366.359L601.947 365.675L602.5 364.204L604.51 364.959L606.415 361.393L608.032 362.001L606.083 365.55L609.386 366.791L611.29 363.225L612.907 363.833L610.969 367.386L612.767 368.062L612.214 369.533L610.226 368.786ZM602.818 371.681L606.086 372.91L608.642 368.191L605.35 366.954L602.818 371.681Z" fill="white"/>
<path d="M126.983 125.924C126.466 125.73 126.046 125.439 125.721 125.053C125.399 124.658 125.196 124.21 125.111 123.708C125.029 123.199 125.085 122.686 125.279 122.169C125.476 121.645 125.771 121.225 126.162 120.911C126.557 120.589 127.003 120.39 127.502 120.312C128.002 120.235 128.51 120.293 129.026 120.487C129.55 120.684 129.973 120.98 130.295 121.375C130.62 121.761 130.821 122.204 130.898 122.704C130.983 123.206 130.927 123.719 130.73 124.243C130.536 124.76 130.242 125.179 129.847 125.501C129.46 125.825 129.017 126.026 128.518 126.104C128.019 126.181 127.507 126.121 126.983 125.924ZM143.167 130.57L143.783 128.93L152.792 132.315L152.175 133.955L143.167 130.57ZM156.637 135.632L157.254 133.992L166.263 137.378L165.646 139.018L156.637 135.632ZM183.579 145.757L184.195 144.117L193.204 147.502L192.588 149.142L183.579 145.757ZM197.05 150.819L197.666 149.179L206.675 152.564L206.059 154.204L197.05 150.819ZM210.521 155.881L211.137 154.241L220.146 157.627L219.53 159.267L210.521 155.881ZM237.463 166.006L238.079 164.365L247.088 167.751L246.471 169.391L237.463 166.006ZM250.933 171.068L251.55 169.428L260.559 172.813L259.942 174.453L250.933 171.068ZM264.404 176.13L265.021 174.49L274.029 177.875L273.413 179.515L264.404 176.13ZM277.875 181.192L278.491 179.552L287.5 182.938L286.884 184.578L277.875 181.192ZM304.817 191.317L305.433 189.677L314.442 193.062L313.826 194.702L304.817 191.317ZM318.288 196.379L318.904 194.739L327.913 198.124L327.297 199.764L318.288 196.379ZM331.759 201.441L332.375 199.801L341.384 203.186L340.767 204.827L331.759 201.441ZM345.229 206.503L345.846 204.863L354.855 208.249L354.238 209.889L345.229 206.503ZM358.7 211.565L359.317 209.925L368.325 213.311L367.709 214.951L358.7 211.565ZM385.642 221.69L386.258 220.05L395.267 223.435L394.651 225.075L385.642 221.69ZM399.113 226.752L399.729 225.112L408.738 228.498L408.122 230.138L399.113 226.752ZM412.584 231.814L413.2 230.174L422.209 233.56L421.593 235.2L412.584 231.814ZM426.055 236.877L426.671 235.237L435.68 238.622L435.063 240.262L426.055 236.877ZM439.525 241.939L440.142 240.299L449.151 243.684L448.534 245.324L439.525 241.939ZM452.996 247.001L453.613 245.361L462.621 248.746L462.005 250.386L452.996 247.001ZM466.467 252.063L467.083 250.423L476.092 253.809L475.476 255.449L466.467 252.063ZM479.938 257.125L480.554 255.485L489.563 258.871L488.947 260.511L479.938 257.125ZM493.409 262.188L494.025 260.548L503.034 263.933L502.418 265.573L493.409 262.188ZM520.351 272.312L520.967 270.672L529.976 274.058L529.359 275.698L520.351 272.312ZM533.821 277.374L534.438 275.734L543.447 279.12L542.83 280.76L533.821 277.374ZM547.292 282.437L547.909 280.797L556.917 284.182L556.301 285.822L547.292 282.437ZM560.763 287.499L561.379 285.859L570.388 289.244L569.772 290.884L560.763 287.499ZM574.234 292.561L574.85 290.921L583.859 294.306L583.243 295.946L574.234 292.561ZM587.705 297.623L588.321 295.983L597.33 299.369L596.714 301.009L587.705 297.623ZM601.176 302.685L601.792 301.045L610.801 304.431L610.185 306.071L601.176 302.685ZM614.647 307.748L615.263 306.108L624.272 309.493L623.655 311.133L614.647 307.748ZM628.117 312.81L628.734 311.17L637.743 314.555L637.126 316.195L628.117 312.81Z" fill="white"/>
<path d="M82.1788 36.1064L81.5667 37.7352L72.8274 34.451L73.4395 32.8223L82.1788 36.1064ZM80.5789 40.3637L79.9626 42.0037L71.2233 38.7196L71.8397 37.0796L80.5789 40.3637ZM109.121 46.2308L108.508 47.8596L99.7691 44.5755L100.381 42.9467L109.121 46.2308ZM107.521 50.4882L106.904 52.1282L98.1651 48.844L98.7814 47.204L107.521 50.4882ZM122.591 51.2931L121.979 52.9218L113.24 49.6377L113.852 48.0089L122.591 51.2931ZM120.992 55.5504L120.375 57.1904L111.636 53.9063L112.252 52.2662L120.992 55.5504ZM149.533 61.4175L148.921 63.0463L140.182 59.7621L140.794 58.1334L149.533 61.4175ZM147.933 65.6748L147.317 67.3148L138.578 64.0307L139.194 62.3907L147.933 65.6748ZM163.004 66.4797L162.392 68.1085L153.653 64.8244L154.265 63.1956L163.004 66.4797ZM161.404 70.737L160.788 72.3771L152.048 69.0929L152.665 67.4529L161.404 70.737ZM176.475 71.5419L175.863 73.1707L167.123 69.8866L167.736 68.2578L176.475 71.5419ZM174.875 75.7993L174.259 77.4393L165.519 74.1551L166.136 72.5151L174.875 75.7993ZM189.946 76.6042L189.334 78.2329L180.594 74.9488L181.206 73.32L189.946 76.6042ZM188.346 80.8615L187.73 82.5015L178.99 79.2174L179.607 77.5773L188.346 80.8615ZM216.887 86.7286L216.275 88.3574L207.536 85.0732L208.148 83.4444L216.887 86.7286ZM215.288 90.9859L214.671 92.6259L205.932 89.3418L206.548 87.7018L215.288 90.9859ZM230.358 91.7908L229.746 93.4196L221.007 90.1355L221.619 88.5067L230.358 91.7908ZM228.758 96.0481L228.142 97.6882L219.403 94.404L220.019 92.764L228.758 96.0481ZM243.829 96.853L243.217 98.4818L234.478 95.1977L235.09 93.5689L243.829 96.853ZM242.229 101.11L241.613 102.75L232.874 99.4662L233.49 97.8262L242.229 101.11ZM257.3 101.915L256.688 103.544L247.949 100.26L248.561 98.6311L257.3 101.915ZM255.7 106.173L255.084 107.813L246.345 104.528L246.961 102.888L255.7 106.173ZM270.771 106.977L270.159 108.606L261.419 105.322L262.032 103.693L270.771 106.977ZM269.171 111.235L268.555 112.875L259.815 109.591L260.432 107.951L269.171 111.235ZM284.242 112.04L283.63 113.668L274.89 110.384L275.502 108.756L284.242 112.04ZM282.642 116.297L282.026 117.937L273.286 114.653L273.903 113.013L282.642 116.297ZM297.713 117.102L297.1 118.731L288.361 115.447L288.973 113.818L297.713 117.102ZM296.113 121.359L295.496 122.999L286.757 119.715L287.373 118.075L296.113 121.359ZM324.654 127.226L324.042 128.855L315.303 125.571L315.915 123.942L324.654 127.226ZM323.054 131.484L322.438 133.124L313.699 129.84L314.315 128.2L323.054 131.484ZM338.125 132.289L337.513 133.917L328.774 130.633L329.386 129.004L338.125 132.289ZM336.525 136.546L335.909 138.186L327.17 134.902L327.786 133.262L336.525 136.546ZM351.596 137.351L350.984 138.98L342.245 135.695L342.857 134.067L351.596 137.351ZM349.996 141.608L349.38 143.248L340.641 139.964L341.257 138.324L349.996 141.608ZM365.067 142.413L364.455 144.042L355.715 140.758L356.328 139.129L365.067 142.413ZM363.467 146.67L362.851 148.31L354.111 145.026L354.728 143.386L363.467 146.67ZM378.538 147.475L377.926 149.104L369.186 145.82L369.798 144.191L378.538 147.475ZM376.938 151.733L376.322 153.373L367.582 150.088L368.199 148.448L376.938 151.733ZM392.009 152.537L391.396 154.166L382.657 150.882L383.269 149.253L392.009 152.537ZM390.409 156.795L389.792 158.435L381.053 155.151L381.669 153.511L390.409 156.795ZM405.479 157.6L404.867 159.228L396.128 155.944L396.74 154.316L405.479 157.6ZM403.88 161.857L403.263 163.497L394.524 160.213L395.14 158.573L403.88 161.857ZM418.95 162.662L418.338 164.291L409.599 161.007L410.211 159.378L418.95 162.662ZM417.35 166.919L416.734 168.559L407.995 165.275L408.611 163.635L417.35 166.919ZM432.421 167.724L431.809 169.353L423.07 166.069L423.682 164.44L432.421 167.724ZM430.821 171.981L430.205 173.621L421.466 170.337L422.082 168.697L430.821 171.981ZM445.892 172.786L445.28 174.415L436.541 171.131L437.153 169.502L445.892 172.786ZM444.292 177.044L443.676 178.684L434.937 175.4L435.553 173.759L444.292 177.044ZM459.363 177.849L458.751 179.477L450.011 176.193L450.624 174.564L459.363 177.849ZM457.763 182.106L457.147 183.746L448.407 180.462L449.024 178.822L457.763 182.106ZM472.834 182.911L472.222 184.54L463.482 181.255L464.094 179.627L472.834 182.911ZM471.234 187.168L470.618 188.808L461.878 185.524L462.495 183.884L471.234 187.168ZM499.775 193.035L499.163 194.664L490.424 191.38L491.036 189.751L499.775 193.035ZM498.176 197.293L497.559 198.933L488.82 195.648L489.436 194.008L498.176 197.293ZM513.246 198.097L512.634 199.726L503.895 196.442L504.507 194.813L513.246 198.097ZM511.646 202.355L511.03 203.995L502.291 200.711L502.907 199.071L511.646 202.355ZM526.717 203.16L526.105 204.788L517.366 201.504L517.978 199.875L526.717 203.16ZM525.117 207.417L524.501 209.057L515.762 205.773L516.378 204.133L525.117 207.417ZM540.188 208.222L539.576 209.851L530.837 206.567L531.449 204.938L540.188 208.222ZM538.588 212.479L537.972 214.119L529.233 210.835L529.849 209.195L538.588 212.479ZM553.659 213.284L553.047 214.913L544.307 211.629L544.92 210L553.659 213.284ZM552.059 217.541L551.443 219.181L542.703 215.897L543.32 214.257L552.059 217.541ZM567.13 218.346L566.518 219.975L557.778 216.691L558.39 215.062L567.13 218.346ZM565.53 222.604L564.914 224.244L556.174 220.959L556.791 219.319L565.53 222.604ZM580.601 223.409L579.988 225.037L571.249 221.753L571.861 220.124L580.601 223.409ZM579.001 227.666L578.384 229.306L569.645 226.022L570.261 224.382L579.001 227.666ZM594.071 228.471L593.459 230.1L584.72 226.815L585.332 225.187L594.071 228.471ZM592.472 232.728L591.855 234.368L583.116 231.084L583.732 229.444L592.472 232.728ZM607.542 233.533L606.93 235.162L598.191 231.878L598.803 230.249L607.542 233.533ZM605.942 237.79L605.326 239.43L596.587 236.146L597.203 234.506L605.942 237.79ZM621.013 238.595L620.401 240.224L611.662 236.94L612.274 235.311L621.013 238.595ZM619.413 242.852L618.797 244.493L610.058 241.208L610.674 239.568L619.413 242.852ZM634.484 243.657L633.872 245.286L625.133 242.002L625.745 240.373L634.484 243.657ZM632.884 247.915L632.268 249.555L623.529 246.271L624.145 244.631L632.884 247.915ZM647.955 248.72L647.343 250.348L638.603 247.064L639.216 245.435L647.955 248.72ZM646.355 252.977L645.739 254.617L636.999 251.333L637.616 249.693L646.355 252.977ZM661.426 253.782L660.814 255.411L652.074 252.126L652.686 250.498L661.426 253.782ZM659.826 258.039L659.21 259.679L650.47 256.395L651.087 254.755L659.826 258.039Z" fill="white"/>
<path d="M212.33 5.97389L202.199 32.9332L200.514 32.3L210.645 5.3407L212.33 5.97389ZM215.19 23.0344L215.806 21.3944L224.815 24.7798L224.199 26.4198L215.19 23.0344ZM239.272 16.0983L229.141 43.0576L227.456 42.4244L237.587 15.4651L239.272 16.0983ZM242.132 33.1588L242.748 31.5188L251.757 34.9042L251.14 36.5443L242.132 33.1588ZM255.602 38.221L256.219 36.581L265.228 39.9665L264.611 41.6065L255.602 38.221ZM279.684 31.285L269.553 58.2443L267.868 57.6111L277.999 30.6518L279.684 31.285ZM282.544 48.3455L283.16 46.7054L292.169 50.0909L291.553 51.7309L282.544 48.3455ZM296.015 53.4077L296.631 51.7677L305.64 55.1531L305.024 56.7931L296.015 53.4077ZM309.486 58.4699L310.102 56.8299L319.111 60.2153L318.495 61.8554L309.486 58.4699ZM333.568 51.5339L323.437 78.4931L321.752 77.8599L331.883 50.9007L333.568 51.5339ZM336.428 68.5943L337.044 66.9543L346.053 70.3398L345.436 71.9798L336.428 68.5943ZM349.898 73.6566L350.515 72.0165L359.524 75.402L358.907 77.042L349.898 73.6566ZM363.369 78.7188L363.986 77.0788L372.994 80.4642L372.378 82.1042L363.369 78.7188ZM376.84 83.781L377.456 82.141L386.465 85.5264L385.849 87.1665L376.84 83.781ZM400.922 76.845L390.791 103.804L389.106 103.171L399.237 76.2118L400.922 76.845ZM403.782 93.9054L404.398 92.2654L413.407 95.6509L412.791 97.2909L403.782 93.9054ZM417.253 98.9677L417.869 97.3276L426.878 100.713L426.262 102.353L417.253 98.9677ZM430.724 104.03L431.34 102.39L440.349 105.775L439.732 107.415L430.724 104.03ZM444.194 109.092L444.811 107.452L453.82 110.838L453.203 112.478L444.194 109.092ZM457.665 114.154L458.282 112.514L467.291 115.9L466.674 117.54L457.665 114.154ZM481.747 107.218L471.616 134.178L469.931 133.544L480.062 106.585L481.747 107.218ZM484.607 124.279L485.223 122.639L494.232 126.024L493.616 127.664L484.607 124.279ZM498.078 129.341L498.694 127.701L507.703 131.086L507.087 132.726L498.078 129.341ZM511.549 134.403L512.165 132.763L521.174 136.149L520.558 137.789L511.549 134.403ZM525.02 139.465L525.636 137.825L534.645 141.211L534.028 142.851L525.02 139.465ZM538.49 144.528L539.107 142.888L548.116 146.273L547.499 147.913L538.49 144.528ZM551.961 149.59L552.578 147.95L561.587 151.335L560.97 152.975L551.961 149.59ZM576.043 142.654L565.912 169.613L564.227 168.98L574.358 142.021L576.043 142.654ZM578.903 159.714L579.519 158.074L588.528 161.46L587.912 163.1L578.903 159.714ZM592.374 164.777L592.99 163.136L601.999 166.522L601.383 168.162L592.374 164.777ZM605.845 169.839L606.461 168.199L615.47 171.584L614.854 173.224L605.845 169.839ZM619.316 174.901L619.932 173.261L628.941 176.646L628.324 178.286L619.316 174.901ZM632.786 179.963L633.403 178.323L642.412 181.709L641.795 183.349L632.786 179.963ZM646.257 185.025L646.874 183.385L655.883 186.771L655.266 188.411L646.257 185.025ZM659.728 190.088L660.344 188.448L669.353 191.833L668.737 193.473L659.728 190.088ZM683.81 183.152L673.679 210.111L671.994 209.478L682.125 182.518L683.81 183.152Z" fill="white"/>
<path d="M632.515 377.162L629.982 381.889L634.048 383.417L633.499 384.877L629.22 383.269L627.317 386.9L625.699 386.292L627.636 382.674L624.367 381.445L622.442 385.068L620.824 384.46L622.761 380.842L620.986 380.175L621.535 378.715L623.5 379.453L626.056 374.735L624.236 374.051L624.789 372.579L626.8 373.335L628.704 369.769L630.321 370.377L628.372 373.926L631.675 375.167L633.579 371.601L635.196 372.209L633.259 375.762L636.471 376.969L635.918 378.441L632.515 377.162ZM625.107 380.057L628.376 381.285L630.931 376.567L627.639 375.33L625.107 380.057ZM645.985 382.224L643.453 386.951L647.519 388.479L646.97 389.94L642.69 388.331L640.788 391.962L639.17 391.354L641.107 387.736L637.838 386.508L635.913 390.13L634.295 389.522L636.231 385.904L633.041 384.705L633.59 383.245L636.971 384.515L639.526 379.797L635.46 378.269L636.013 376.797L640.27 378.397L642.175 374.831L643.792 375.439L641.843 378.988L645.146 380.229L647.05 376.663L648.667 377.271L646.729 380.824L649.942 382.032L649.389 383.503L645.985 382.224ZM638.578 385.119L641.846 386.348L644.402 381.629L641.11 380.392L638.578 385.119ZM659.456 387.286L656.924 392.013L660.99 393.541L660.441 395.002L656.161 393.393L654.259 397.024L652.641 396.416L654.577 392.798L651.309 391.57L649.383 395.192L647.766 394.584L649.702 390.966L646.512 389.767L647.061 388.307L650.442 389.578L652.997 384.859L648.931 383.331L649.484 381.859L653.741 383.459L655.645 379.893L657.263 380.501L655.314 384.05L658.616 385.291L660.521 381.725L662.138 382.333L660.2 385.886L663.413 387.094L662.86 388.565L659.456 387.286ZM652.048 390.181L655.317 391.41L657.872 386.691L654.581 385.454L652.048 390.181ZM672.927 392.348L670.394 397.076L674.461 398.604L673.912 400.064L669.632 398.456L667.729 402.086L666.112 401.479L668.048 397.86L664.78 396.632L662.854 400.254L661.237 399.647L663.173 396.028L659.983 394.83L660.532 393.369L663.913 394.64L666.468 389.921L662.402 388.393L662.955 386.922L667.212 388.521L669.116 384.955L670.734 385.563L668.785 389.112L672.087 390.353L673.991 386.787L675.609 387.395L673.671 390.949L676.884 392.156L676.331 393.627L672.927 392.348ZM665.519 395.244L668.788 396.472L671.343 391.753L668.052 390.516L665.519 395.244ZM686.398 397.411L683.865 402.138L687.932 403.666L687.383 405.126L683.103 403.518L681.2 407.149L679.583 406.541L681.519 402.923L678.25 401.694L676.325 405.317L674.708 404.709L676.644 401.091L673.454 399.892L674.003 398.432L677.384 399.702L679.939 394.983L675.873 393.455L676.426 391.984L680.683 393.584L682.587 390.018L684.205 390.625L682.256 394.175L685.558 395.416L687.462 391.85L689.08 392.457L687.142 396.011L690.355 397.218L689.802 398.69L686.398 397.411ZM678.99 400.306L682.259 401.534L684.814 396.815L681.523 395.579L678.99 400.306ZM699.869 402.473L697.336 407.2L701.402 408.728L700.854 410.188L696.574 408.58L694.671 412.211L693.054 411.603L694.99 407.985L691.721 406.757L689.796 410.379L688.178 409.771L690.115 406.153L686.925 404.954L687.474 403.494L690.855 404.764L693.41 400.046L689.344 398.518L689.897 397.046L694.154 398.646L696.058 395.08L697.676 395.688L695.726 399.237L699.029 400.478L700.933 396.912L702.551 397.52L700.613 401.073L703.825 402.28L703.272 403.752L699.869 402.473ZM692.461 405.368L695.73 406.596L698.285 401.878L694.994 400.641L692.461 405.368ZM713.34 407.535L710.807 412.262L714.873 413.79L714.325 415.251L710.045 413.642L708.142 417.273L706.524 416.665L708.461 413.047L705.192 411.819L703.267 415.441L701.649 414.833L703.586 411.215L700.396 410.016L700.944 408.556L704.326 409.827L706.881 405.108L702.814 403.58L703.367 402.108L707.625 403.708L709.529 400.142L711.146 400.75L709.197 404.299L712.5 405.54L714.404 401.974L716.022 402.582L714.084 406.135L717.296 407.343L716.743 408.814L713.34 407.535ZM705.932 410.43L709.201 411.659L711.756 406.94L708.465 405.703L705.932 410.43ZM726.811 412.597L724.278 417.324L728.344 418.853L727.795 420.313L723.516 418.705L721.613 422.335L719.995 421.727L721.932 418.109L718.663 416.881L716.738 420.503L715.12 419.895L717.057 416.277L713.866 415.079L714.415 413.618L717.796 414.889L720.352 410.17L716.285 408.642L716.838 407.17L721.096 408.77L723 405.204L724.617 405.812L722.668 409.361L725.971 410.602L727.875 407.036L729.492 407.644L727.555 411.198L730.767 412.405L730.214 413.876L726.811 412.597ZM719.403 415.492L722.672 416.721L725.227 412.002L721.935 410.765L719.403 415.492ZM740.281 417.66L737.749 422.387L741.815 423.915L741.266 425.375L736.986 423.767L735.084 427.397L733.466 426.79L735.403 423.172L732.134 421.943L730.209 425.565L728.591 424.958L730.528 421.34L727.337 420.141L727.886 418.68L731.267 419.951L733.822 415.232L729.756 413.704L730.309 412.233L734.566 413.833L736.471 410.266L738.088 410.874L736.139 414.424L739.442 415.665L741.346 412.098L742.963 412.706L741.025 416.26L744.238 417.467L743.685 418.939L740.281 417.66ZM732.874 420.555L736.142 421.783L738.698 417.064L735.406 415.827L732.874 420.555ZM753.752 422.722L751.22 427.449L755.286 428.977L754.737 430.437L750.457 428.829L748.555 432.46L746.937 431.852L748.873 428.234L745.605 427.005L743.679 430.628L742.062 430.02L743.998 426.402L740.808 425.203L741.357 423.743L744.738 425.013L747.293 420.295L743.227 418.766L743.78 417.295L748.037 418.895L749.941 415.329L751.559 415.937L749.61 419.486L752.912 420.727L754.817 417.161L756.434 417.769L754.496 421.322L757.709 422.529L757.156 424.001L753.752 422.722ZM746.344 425.617L749.613 426.845L752.168 422.127L748.877 420.89L746.344 425.617ZM767.223 427.784L764.69 432.511L768.757 434.039L768.208 435.5L763.928 433.891L762.025 437.522L760.408 436.914L762.344 433.296L759.076 432.068L757.15 435.69L755.533 435.082L757.469 431.464L754.279 430.265L754.828 428.805L758.209 430.075L760.764 425.357L756.698 423.829L757.251 422.357L761.508 423.957L763.412 420.391L765.03 420.999L763.081 424.548L766.383 425.789L768.287 422.223L769.905 422.831L767.967 426.384L771.18 427.591L770.627 429.063L767.223 427.784ZM759.815 430.679L763.084 431.908L765.639 427.189L762.348 425.952L759.815 430.679ZM780.694 432.846L778.161 437.573L782.228 439.101L781.679 440.562L777.399 438.953L775.496 442.584L773.879 441.976L775.815 438.358L772.546 437.13L770.621 440.752L769.004 440.144L770.94 436.526L767.75 435.327L768.299 433.867L771.68 435.138L774.235 430.419L770.169 428.891L770.722 427.419L774.979 429.019L776.883 425.453L778.501 426.061L776.552 429.61L779.854 430.851L781.758 427.285L783.376 427.893L781.438 431.446L784.651 432.654L784.098 434.125L780.694 432.846ZM773.286 435.741L776.555 436.97L779.11 432.251L775.819 431.014L773.286 435.741ZM794.165 437.908L791.632 442.636L795.698 444.164L795.15 445.624L790.87 444.016L788.967 447.646L787.35 447.039L789.286 443.42L786.017 442.192L784.092 445.814L782.474 445.206L784.411 441.588L781.221 440.39L781.77 438.929L785.151 440.2L787.706 435.481L783.64 433.953L784.193 432.482L788.45 434.081L790.354 430.515L791.972 431.123L790.022 434.672L793.325 435.913L795.229 432.347L796.847 432.955L794.909 436.509L798.121 437.716L797.568 439.187L794.165 437.908ZM786.757 440.804L790.026 442.032L792.581 437.313L789.29 436.076L786.757 440.804ZM807.636 442.971L805.103 447.698L809.169 449.226L808.621 450.686L804.341 449.078L802.438 452.709L800.82 452.101L802.757 448.483L799.488 447.254L797.563 450.877L795.945 450.269L797.882 446.651L794.692 445.452L795.24 443.992L798.622 445.262L801.177 440.543L797.11 439.015L797.663 437.544L801.921 439.144L803.825 435.578L805.442 436.185L803.493 439.735L806.796 440.976L808.7 437.41L810.318 438.017L808.38 441.571L811.592 442.778L811.039 444.25L807.636 442.971ZM800.228 445.866L803.497 447.094L806.052 442.375L802.761 441.139L800.228 445.866ZM821.107 448.033L818.574 452.76L822.64 454.288L822.091 455.748L817.812 454.14L815.909 457.771L814.291 457.163L816.228 453.545L812.959 452.317L811.034 455.939L809.416 455.331L811.353 451.713L808.162 450.514L808.711 449.054L812.092 450.324L814.648 445.606L810.581 444.078L811.134 442.606L815.392 444.206L817.296 440.64L818.913 441.248L816.964 444.797L820.267 446.038L822.171 442.472L823.788 443.08L821.851 446.633L825.063 447.84L824.51 449.312L821.107 448.033ZM813.699 450.928L816.968 452.156L819.523 447.438L816.231 446.201L813.699 450.928ZM834.577 453.095L832.045 457.822L836.111 459.35L835.562 460.811L831.283 459.202L829.38 462.833L827.762 462.225L829.699 458.607L826.43 457.379L824.505 461.001L822.887 460.393L824.824 456.775L821.633 455.576L822.182 454.116L825.563 455.387L828.118 450.668L824.052 449.14L824.605 447.668L828.862 449.268L830.767 445.702L832.384 446.31L830.435 449.859L833.738 451.1L835.642 447.534L837.259 448.142L835.321 451.695L838.534 452.903L837.981 454.374L834.577 453.095ZM827.17 455.99L830.438 457.219L832.994 452.5L829.702 451.263L827.17 455.99ZM848.048 458.157L845.516 462.884L849.582 464.413L849.033 465.873L844.753 464.265L842.851 467.895L841.233 467.287L843.17 463.669L839.901 462.441L837.975 466.063L836.358 465.455L838.294 461.837L835.104 460.638L835.653 459.178L839.034 460.449L841.589 455.73L837.523 454.202L838.076 452.73L842.333 454.33L844.237 450.764L845.855 451.372L843.906 454.921L847.208 456.162L849.113 452.596L850.73 453.204L848.792 456.758L852.005 457.965L851.452 459.436L848.048 458.157ZM840.64 461.052L843.909 462.281L846.464 457.562L843.173 456.325L840.64 461.052ZM861.519 463.22L858.986 467.947L863.053 469.475L862.504 470.935L858.224 469.327L856.321 472.957L854.704 472.35L856.64 468.732L853.372 467.503L851.446 471.125L849.829 470.518L851.765 466.9L848.575 465.701L849.124 464.24L852.505 465.511L855.06 460.792L850.994 459.264L851.547 457.793L855.804 459.393L857.708 455.826L859.326 456.434L857.377 459.983L860.679 461.225L862.583 457.658L864.201 458.266L862.263 461.82L865.476 463.027L864.923 464.499L861.519 463.22ZM854.111 466.115L857.38 467.343L859.935 462.624L856.644 461.387L854.111 466.115ZM874.99 468.282L872.457 473.009L874.277 473.693L873.728 475.153L871.695 474.389L869.792 478.02L868.175 477.412L870.111 473.794L866.842 472.565L864.917 476.188L863.3 475.58L865.236 471.962L862.046 470.763L862.595 469.303L865.976 470.573L868.531 465.854L864.465 464.326L865.018 462.855L869.275 464.455L871.179 460.889L872.797 461.496L870.848 465.046L874.15 466.287L876.054 462.721L877.672 463.329L875.734 466.882L877.531 467.557L876.978 469.029L874.99 468.282ZM867.582 471.177L870.851 472.405L873.406 467.687L870.115 466.45L867.582 471.177ZM901.932 478.406L899.399 483.133L903.465 484.661L902.917 486.122L898.637 484.513L896.734 488.144L895.116 487.536L897.053 483.918L893.784 482.69L891.859 486.312L890.241 485.704L892.178 482.086L890.403 481.419L890.952 479.959L892.918 480.698L895.473 475.979L893.653 475.295L894.206 473.824L896.217 474.579L898.121 471.013L899.738 471.621L897.789 475.17L901.092 476.411L902.996 472.845L904.614 473.453L902.676 477.006L905.888 478.214L905.335 479.685L901.932 478.406ZM894.524 481.301L897.793 482.53L900.348 477.811L897.057 476.574L894.524 481.301ZM915.403 483.468L912.87 488.196L916.936 489.724L916.387 491.184L912.108 489.576L910.205 493.206L908.587 492.598L910.524 488.98L907.255 487.752L905.33 491.374L903.712 490.766L905.649 487.148L902.458 485.95L903.007 484.489L906.388 485.76L908.944 481.041L904.877 479.513L905.43 478.042L909.688 479.641L911.592 476.075L913.209 476.683L911.26 480.232L914.563 481.473L916.467 477.907L918.084 478.515L916.147 482.069L919.359 483.276L918.806 484.747L915.403 483.468ZM907.995 486.364L911.264 487.592L913.819 482.873L910.527 481.636L907.995 486.364ZM928.873 488.531L926.341 493.258L930.407 494.786L929.858 496.246L925.579 494.638L923.676 498.269L922.058 497.661L923.995 494.043L920.726 492.814L918.801 496.437L917.183 495.829L919.12 492.211L915.929 491.012L916.478 489.552L919.859 490.822L922.414 486.103L918.348 484.575L918.901 483.104L923.158 484.704L925.063 481.138L926.68 481.745L924.731 485.295L928.034 486.536L929.938 482.97L931.555 483.577L929.617 487.131L932.83 488.338L932.277 489.81L928.873 488.531ZM921.466 491.426L924.734 492.654L927.29 487.935L923.998 486.699L921.466 491.426ZM942.344 493.593L939.812 498.32L943.878 499.848L943.329 501.308L939.049 499.7L937.147 503.331L935.529 502.723L937.466 499.105L934.197 497.876L932.271 501.499L930.654 500.891L932.59 497.273L929.4 496.074L929.949 494.614L933.33 495.884L935.885 491.166L931.819 489.637L932.372 488.166L936.629 489.766L938.533 486.2L940.151 486.808L938.202 490.357L941.504 491.598L943.409 488.032L945.026 488.64L943.088 492.193L946.301 493.4L945.748 494.872L942.344 493.593ZM934.936 496.488L938.205 497.716L940.76 492.998L937.469 491.761L934.936 496.488ZM955.815 498.655L953.282 503.382L957.349 504.91L956.8 506.371L952.52 504.762L950.617 508.393L949 507.785L950.936 504.167L947.668 502.939L945.742 506.561L944.125 505.953L946.061 502.335L942.871 501.136L943.42 499.676L946.801 500.947L949.356 496.228L945.29 494.7L945.843 493.228L950.1 494.828L952.004 491.262L953.622 491.87L951.673 495.419L954.975 496.66L956.879 493.094L958.497 493.702L956.559 497.255L959.772 498.463L959.219 499.934L955.815 498.655ZM948.407 501.55L951.676 502.779L954.231 498.06L950.94 496.823L948.407 501.55ZM969.286 503.717L966.753 508.444L970.82 509.973L970.271 511.433L965.991 509.825L964.088 513.455L962.471 512.847L964.407 509.229L961.138 508.001L959.213 511.623L957.596 511.015L959.532 507.397L956.342 506.198L956.891 504.738L960.272 506.009L962.827 501.29L958.761 499.762L959.314 498.29L963.571 499.89L965.475 496.324L967.093 496.932L965.144 500.481L968.446 501.722L970.35 498.156L971.968 498.764L970.03 502.317L973.243 503.525L972.69 504.996L969.286 503.717ZM961.878 506.612L965.147 507.841L967.702 503.122L964.411 501.885L961.878 506.612ZM982.757 508.779L980.224 513.507L984.29 515.035L983.742 516.495L979.462 514.887L977.559 518.517L975.942 517.91L977.878 514.292L974.609 513.063L972.684 516.685L971.066 516.078L973.003 512.46L969.813 511.261L970.362 509.8L973.743 511.071L976.298 506.352L972.232 504.824L972.785 503.353L977.042 504.952L978.946 501.386L980.564 501.994L978.614 505.543L981.917 506.785L983.821 503.218L985.439 503.826L983.501 507.38L986.714 508.587L986.161 510.059L982.757 508.779ZM975.349 511.675L978.618 512.903L981.173 508.184L977.882 506.947L975.349 511.675ZM996.228 513.842L993.695 518.569L997.761 520.097L997.213 521.557L992.933 519.949L991.03 523.58L989.412 522.972L991.349 519.354L988.08 518.125L986.155 521.748L984.537 521.14L986.474 517.522L983.284 516.323L983.832 514.863L987.214 516.133L989.769 511.414L985.702 509.886L986.255 508.415L990.513 510.015L992.417 506.449L994.034 507.056L992.085 510.606L995.388 511.847L997.292 508.281L998.91 508.888L996.972 512.442L1000.18 513.649L999.631 515.121L996.228 513.842ZM988.82 516.737L992.089 517.965L994.644 513.246L991.353 512.01L988.82 516.737ZM1009.7 518.904L1007.17 523.631L1011.23 525.159L1010.68 526.619L1006.4 525.011L1004.5 528.642L1002.88 528.034L1004.82 524.416L1001.55 523.188L999.626 526.81L998.008 526.202L999.945 522.584L996.754 521.385L997.303 519.925L1000.68 521.195L1003.24 516.477L999.173 514.949L999.726 513.477L1003.98 515.077L1005.89 511.511L1007.51 512.119L1005.56 515.668L1008.86 516.909L1010.76 513.343L1012.38 513.951L1010.44 517.504L1013.66 518.711L1013.1 520.183L1009.7 518.904ZM1002.29 521.799L1005.56 523.027L1008.11 518.309L1004.82 517.072L1002.29 521.799ZM1023.17 523.966L1020.64 528.693L1024.7 530.221L1024.15 531.682L1019.87 530.073L1017.97 533.704L1016.35 533.096L1018.29 529.478L1015.02 528.25L1013.1 531.872L1011.48 531.264L1013.42 527.646L1010.23 526.447L1010.77 524.987L1014.16 526.258L1016.71 521.539L1012.64 520.011L1013.2 518.539L1017.45 520.139L1019.36 516.573L1020.98 517.181L1019.03 520.73L1022.33 521.971L1024.23 518.405L1025.85 519.013L1023.91 522.566L1027.13 523.774L1026.57 525.245L1023.17 523.966ZM1015.76 526.861L1019.03 528.09L1021.59 523.371L1018.29 522.134L1015.76 526.861ZM1036.64 529.028L1034.11 533.756L1035.93 534.439L1035.38 535.9L1033.35 535.136L1031.44 538.766L1029.83 538.158L1031.76 534.54L1028.49 533.312L1026.57 536.934L1024.95 536.326L1026.89 532.708L1023.7 531.51L1024.24 530.049L1027.63 531.32L1030.18 526.601L1026.11 525.073L1026.67 523.602L1030.93 525.201L1032.83 521.635L1034.45 522.243L1032.5 525.792L1035.8 527.033L1037.7 523.467L1039.32 524.075L1037.38 527.629L1039.18 528.304L1038.63 529.776L1036.64 529.028ZM1029.23 531.924L1032.5 533.152L1035.06 528.433L1031.77 527.196L1029.23 531.924ZM1063.58 539.153L1061.05 543.88L1065.12 545.408L1064.57 546.868L1060.29 545.26L1058.38 548.891L1056.77 548.283L1058.7 544.665L1055.43 543.436L1053.51 547.059L1051.89 546.451L1053.83 542.833L1052.05 542.166L1052.6 540.706L1054.57 541.444L1057.12 536.726L1055.3 536.042L1055.86 534.57L1057.87 535.326L1059.77 531.76L1061.39 532.368L1059.44 535.917L1062.74 537.158L1064.65 533.592L1066.26 534.2L1064.33 537.753L1067.54 538.96L1066.99 540.432L1063.58 539.153ZM1056.17 542.048L1059.44 543.276L1062 538.558L1058.71 537.321L1056.17 542.048ZM1077.05 544.215L1074.52 548.942L1078.59 550.47L1078.04 551.931L1073.76 550.322L1071.86 553.953L1070.24 553.345L1072.17 549.727L1068.91 548.499L1066.98 552.121L1065.36 551.513L1067.3 547.895L1064.11 546.696L1064.66 545.236L1068.04 546.507L1070.59 541.788L1066.53 540.26L1067.08 538.788L1071.34 540.388L1073.24 536.822L1074.86 537.43L1072.91 540.979L1076.21 542.22L1078.12 538.654L1079.73 539.262L1077.8 542.815L1081.01 544.023L1080.46 545.494L1077.05 544.215ZM1069.65 547.11L1072.91 548.339L1075.47 543.62L1072.18 542.383L1069.65 547.11ZM1090.52 549.277L1087.99 554.004L1092.06 555.533L1091.51 556.993L1087.23 555.385L1085.33 559.015L1083.71 558.407L1085.64 554.789L1082.38 553.561L1080.45 557.183L1078.83 556.575L1080.77 552.957L1077.58 551.758L1078.13 550.298L1081.51 551.569L1084.06 546.85L1080 545.322L1080.55 543.85L1084.81 545.45L1086.71 541.884L1088.33 542.492L1086.38 546.041L1089.68 547.282L1091.59 543.716L1093.21 544.324L1091.27 547.877L1094.48 549.085L1093.93 550.556L1090.52 549.277ZM1083.12 552.172L1086.38 553.401L1088.94 548.682L1085.65 547.445L1083.12 552.172ZM1103.99 554.339L1101.46 559.067L1105.53 560.595L1104.98 562.055L1100.7 560.447L1098.8 564.077L1097.18 563.47L1099.12 559.852L1095.85 558.623L1093.92 562.245L1092.3 561.638L1094.24 558.019L1091.05 556.821L1091.6 555.36L1094.98 556.631L1097.54 551.912L1093.47 550.384L1094.02 548.913L1098.28 550.512L1100.18 546.946L1101.8 547.554L1099.85 551.103L1103.15 552.344L1105.06 548.778L1106.68 549.386L1104.74 552.94L1107.95 554.147L1107.4 555.618L1103.99 554.339ZM1096.59 557.235L1099.86 558.463L1102.41 553.744L1099.12 552.507L1096.59 557.235ZM1117.47 559.402L1114.93 564.129L1119 565.657L1118.45 567.117L1114.17 565.509L1112.27 569.14L1110.65 568.532L1112.59 564.914L1109.32 563.685L1107.39 567.308L1105.78 566.7L1107.71 563.082L1104.52 561.883L1105.07 560.423L1108.45 561.693L1111.01 556.974L1106.94 555.446L1107.49 553.975L1111.75 555.575L1113.65 552.009L1115.27 552.616L1113.32 556.166L1116.63 557.407L1118.53 553.841L1120.15 554.448L1118.21 558.002L1121.42 559.209L1120.87 560.681L1117.47 559.402ZM1110.06 562.297L1113.33 563.525L1115.88 558.806L1112.59 557.57L1110.06 562.297ZM1130.94 564.464L1128.4 569.191L1130.22 569.875L1129.67 571.335L1127.64 570.571L1125.74 574.202L1124.12 573.594L1126.06 569.976L1122.79 568.748L1120.86 572.37L1119.25 571.762L1121.18 568.144L1117.99 566.945L1118.54 565.485L1121.92 566.755L1124.48 562.037L1120.41 560.509L1120.96 559.037L1125.22 560.637L1127.13 557.071L1128.74 557.679L1126.79 561.228L1130.1 562.469L1132 558.903L1133.62 559.511L1131.68 563.064L1133.48 563.74L1132.92 565.211L1130.94 564.464ZM1123.53 567.359L1126.8 568.587L1129.35 563.869L1126.06 562.632L1123.53 567.359ZM1157.88 574.588L1155.35 579.316L1159.41 580.844L1158.86 582.304L1154.58 580.696L1152.68 584.326L1151.06 583.718L1153 580.1L1149.73 578.872L1147.81 582.494L1146.19 581.886L1148.12 578.268L1146.35 577.601L1146.9 576.141L1148.86 576.88L1151.42 572.161L1149.6 571.477L1150.15 570.006L1152.16 570.761L1154.07 567.195L1155.68 567.803L1153.74 571.352L1157.04 572.593L1158.94 569.027L1160.56 569.635L1158.62 573.189L1161.83 574.396L1161.28 575.867L1157.88 574.588ZM1150.47 577.483L1153.74 578.712L1156.29 573.993L1153 572.756L1150.47 577.483ZM1171.35 579.651L1168.82 584.378L1172.88 585.906L1172.33 587.366L1168.05 585.758L1166.15 589.389L1164.53 588.781L1166.47 585.163L1163.2 583.934L1161.28 587.556L1159.66 586.949L1161.59 583.331L1158.4 582.132L1158.95 580.671L1162.33 581.942L1164.89 577.223L1160.82 575.695L1161.38 574.224L1165.63 575.824L1167.54 572.257L1169.16 572.865L1167.21 576.415L1170.51 577.656L1172.41 574.089L1174.03 574.697L1172.09 578.251L1175.31 579.458L1174.75 580.93L1171.35 579.651ZM1163.94 582.546L1167.21 583.774L1169.77 579.055L1166.47 577.819L1163.94 582.546ZM1184.82 584.713L1182.29 589.44L1184.11 590.124L1183.56 591.584L1181.52 590.82L1179.62 594.451L1178 593.843L1179.94 590.225L1176.67 588.996L1174.75 592.619L1173.13 592.011L1175.07 588.393L1171.88 587.194L1172.42 585.734L1175.81 587.004L1178.36 582.286L1174.29 580.757L1174.85 579.286L1179.1 580.886L1181.01 577.32L1182.63 577.928L1180.68 581.477L1183.98 582.718L1185.88 579.152L1187.5 579.76L1185.56 583.313L1187.36 583.988L1186.81 585.46L1184.82 584.713ZM1177.41 587.608L1180.68 588.836L1183.24 584.118L1179.94 582.881L1177.41 587.608ZM1211.76 594.837L1209.23 599.564L1213.3 601.092L1212.75 602.553L1208.47 600.944L1206.56 604.575L1204.95 603.967L1206.88 600.349L1203.61 599.121L1201.69 602.743L1200.07 602.135L1202.01 598.517L1200.23 597.85L1200.78 596.39L1202.75 597.129L1205.3 592.41L1203.48 591.726L1204.04 590.255L1206.05 591.01L1207.95 587.444L1209.57 588.052L1207.62 591.601L1210.92 592.842L1212.83 589.276L1214.44 589.884L1212.51 593.437L1215.72 594.645L1215.17 596.116L1211.76 594.837ZM1204.35 597.732L1207.62 598.961L1210.18 594.242L1206.89 593.005L1204.35 597.732ZM1225.23 599.899L1222.7 604.627L1224.52 605.31L1223.97 606.771L1221.94 606.007L1220.03 609.637L1218.42 609.03L1220.35 605.411L1217.08 604.183L1215.16 607.805L1213.54 607.198L1215.48 603.579L1212.29 602.381L1212.84 600.92L1216.22 602.191L1218.77 597.472L1214.71 595.944L1215.26 594.473L1219.52 596.072L1221.42 592.506L1223.04 593.114L1221.09 596.663L1224.39 597.904L1226.3 594.338L1227.91 594.946L1225.98 598.5L1227.77 599.175L1227.22 600.647L1225.23 599.899ZM1217.82 602.795L1221.09 604.023L1223.65 599.304L1220.36 598.067L1217.82 602.795ZM1252.17 610.024L1249.64 614.751L1251.46 615.435L1250.91 616.895L1248.88 616.131L1246.98 619.762L1245.36 619.154L1247.3 615.536L1244.03 614.308L1242.1 617.93L1240.48 617.322L1242.42 613.704L1240.65 613.037L1241.19 611.577L1243.16 612.315L1245.72 607.597L1243.9 606.913L1244.45 605.441L1246.46 606.197L1248.36 602.631L1249.98 603.239L1248.03 606.788L1251.33 608.029L1253.24 604.463L1254.86 605.071L1252.92 608.624L1254.72 609.3L1254.16 610.771L1252.17 610.024ZM1244.77 612.919L1248.03 614.147L1250.59 609.429L1247.3 608.192L1244.77 612.919Z" fill="white"/>
<path d="M1157.79 513.293C1158.31 513.487 1158.82 513.545 1159.32 513.468C1159.82 513.383 1160.27 513.18 1160.66 512.858C1161.06 512.529 1161.35 512.106 1161.55 511.589C1161.74 511.065 1161.8 510.555 1161.71 510.061C1161.63 509.559 1161.42 509.115 1161.1 508.728C1160.77 508.341 1160.35 508.05 1159.84 507.856C1159.31 507.659 1158.8 507.603 1158.3 507.688C1157.8 507.765 1157.35 507.966 1156.97 508.291C1156.57 508.613 1156.28 509.036 1156.08 509.56C1155.89 510.077 1155.83 510.586 1155.92 511.088C1155.99 511.587 1156.19 512.03 1156.52 512.417C1156.84 512.804 1157.27 513.096 1157.79 513.293ZM1130.34 501.541L1130.96 499.901L1122.41 496.689L1121.79 498.329L1130.34 501.541ZM1140.84 505.488L1141.46 503.848L1132.91 500.636L1132.3 502.276L1140.84 505.488ZM1100.42 490.296L1101.03 488.656L1091.36 485.022L1090.75 486.662L1100.42 490.296ZM1089.02 486.012L1089.63 484.372L1079.95 480.733L1079.33 482.373L1089.02 486.012ZM1077.6 481.723L1078.22 480.083L1068.55 476.449L1067.93 478.089L1077.6 481.723ZM1047.69 470.495L1048.32 468.833L1037.41 464.734L1036.79 466.397L1047.69 470.495ZM1037.24 466.569L1037.87 464.906L1023.94 459.672L1023.31 461.334L1037.24 466.569ZM1023.77 461.506L1024.4 459.844L1010.47 454.61L1009.84 456.272L1023.77 461.506ZM999.395 452.345L1010.3 456.444L1010.93 454.782L1000.02 450.683L999.395 452.345ZM980.338 445.184L980.963 443.522L970.056 439.423L969.431 441.085L980.338 445.184ZM969.889 441.258L970.514 439.595L956.585 434.361L955.96 436.023L969.889 441.258ZM956.418 436.195L957.043 434.533L943.114 429.299L942.489 430.961L956.418 436.195ZM942.948 431.133L943.572 429.471L929.643 424.236L929.019 425.899L942.948 431.133ZM918.569 421.972L929.477 426.071L930.101 424.408L919.194 420.31L918.569 421.972ZM899.513 414.811L900.138 413.149L889.231 409.05L888.606 410.712L899.513 414.811ZM889.064 410.884L889.689 409.222L875.76 403.987L875.135 405.65L889.064 410.884ZM875.593 405.822L876.218 404.16L862.289 398.925L861.664 400.588L875.593 405.822ZM862.122 400.76L862.747 399.097L848.818 393.863L848.193 395.525L862.122 400.76ZM848.652 395.698L849.276 394.035L835.347 388.801L834.723 390.463L848.652 395.698ZM835.181 390.635L835.805 388.973L821.876 383.739L821.252 385.401L835.181 390.635ZM821.71 385.573L822.335 383.911L808.406 378.676L807.781 380.339L821.71 385.573ZM808.239 380.511L808.864 378.848L794.935 373.614L794.31 375.277L808.239 380.511ZM783.861 371.35L794.768 375.449L795.393 373.786L784.486 369.687L783.861 371.35ZM764.805 364.189L765.429 362.526L754.522 358.427L753.897 360.09L764.805 364.189ZM754.356 360.262L754.98 358.6L741.051 353.365L740.427 355.028L754.356 360.262ZM740.885 355.2L741.509 353.537L727.58 348.303L726.956 349.966L740.885 355.2ZM727.414 350.138L728.039 348.475L714.11 343.241L713.485 344.903L727.414 350.138ZM713.943 345.075L714.568 343.413L700.639 338.179L700.014 339.841L713.943 345.075ZM700.472 340.013L701.097 338.351L687.168 333.116L686.543 334.779L700.472 340.013ZM687.001 334.951L687.626 333.289L673.697 328.054L673.072 329.717L687.001 334.951ZM673.53 329.889L674.155 328.226L660.226 322.992L659.601 324.654L673.53 329.889ZM649.152 320.728L660.06 324.827L660.684 323.164L649.777 319.065L649.152 320.728Z" fill="white"/>
<path d="M1254.4 476.617L1253.79 478.246L1262.53 481.53L1263.14 479.901L1254.4 476.617ZM1252.8 480.874L1252.19 482.514L1260.93 485.799L1261.54 484.159L1252.8 480.874ZM1213.99 461.43L1213.38 463.059L1235.6 471.409L1236.21 469.78L1213.99 461.43ZM1212.39 465.688L1211.78 467.328L1233.99 475.677L1234.61 474.037L1212.39 465.688ZM1194.77 456.014L1195.38 454.374L1184.48 450.275L1183.86 451.915L1194.77 456.014ZM1193.16 460.282L1193.78 458.642L1182.87 454.543L1182.26 456.183L1193.16 460.282ZM1184.32 452.087L1184.93 450.447L1171.01 445.212L1170.39 446.853L1184.32 452.087ZM1182.71 456.355L1183.33 454.715L1169.4 449.481L1168.78 451.121L1182.71 456.355ZM1170.85 447.025L1171.46 445.385L1157.53 440.15L1156.92 441.79L1170.85 447.025ZM1169.24 451.293L1169.86 449.653L1155.93 444.419L1155.31 446.059L1169.24 451.293ZM1157.38 441.962L1157.99 440.322L1147.09 436.224L1146.47 437.864L1157.38 441.962ZM1155.77 446.231L1156.39 444.591L1145.48 440.492L1144.86 442.132L1155.77 446.231ZM1127.41 430.702L1128.03 429.062L1117.12 424.964L1116.51 426.604L1127.41 430.702ZM1125.81 434.971L1126.43 433.331L1115.52 429.232L1114.9 430.872L1125.81 434.971ZM1116.96 426.776L1117.58 425.136L1103.65 419.901L1103.03 421.541L1116.96 426.776ZM1115.36 431.044L1115.98 429.404L1102.05 424.17L1101.43 425.81L1115.36 431.044ZM1103.49 421.714L1104.11 420.074L1090.18 414.839L1089.56 416.479L1103.49 421.714ZM1101.89 425.982L1102.51 424.342L1088.58 419.108L1087.96 420.748L1101.89 425.982ZM1090.02 416.651L1090.64 415.011L1076.71 409.777L1076.09 411.417L1090.02 416.651ZM1088.42 420.92L1089.03 419.28L1075.11 414.046L1074.49 415.686L1088.42 420.92ZM1076.55 411.589L1077.17 409.949L1063.24 404.715L1062.62 406.355L1076.55 411.589ZM1074.95 415.858L1075.56 414.218L1061.63 408.983L1061.02 410.623L1074.95 415.858ZM1063.08 406.527L1063.7 404.887L1049.77 399.653L1049.15 401.293L1063.08 406.527ZM1061.48 410.795L1062.09 409.155L1048.16 403.921L1047.55 405.561L1061.48 410.795ZM1049.61 401.465L1050.23 399.825L1039.32 395.726L1038.7 397.366L1049.61 401.465ZM1048.01 405.733L1048.62 404.093L1037.71 399.994L1037.1 401.634L1048.01 405.733ZM1019.65 390.205L1020.26 388.565L1009.36 384.466L1008.74 386.106L1019.65 390.205ZM1018.04 394.473L1018.66 392.833L1007.75 388.734L1007.13 390.374L1018.04 394.473ZM1009.2 386.278L1009.81 384.638L995.884 379.404L995.268 381.044L1009.2 386.278ZM1007.59 390.547L1008.21 388.907L994.28 383.672L993.664 385.312L1007.59 390.547ZM995.726 381.216L996.342 379.576L982.413 374.341L981.797 375.981L995.726 381.216ZM994.122 385.484L994.738 383.844L980.809 378.61L980.193 380.25L994.122 385.484ZM982.255 376.154L982.871 374.514L968.942 369.279L968.326 370.919L982.255 376.154ZM980.651 380.422L981.267 378.782L967.338 373.548L966.722 375.188L980.651 380.422ZM968.784 371.091L969.401 369.451L955.472 364.217L954.855 365.857L968.784 371.091ZM967.18 375.36L967.796 373.72L953.868 368.486L953.251 370.126L967.18 375.36ZM955.313 366.029L955.93 364.389L942.001 359.155L941.384 360.795L955.313 366.029ZM953.709 370.298L954.326 368.658L940.397 363.423L939.78 365.063L953.709 370.298ZM941.843 360.967L942.459 359.327L928.53 354.093L927.914 355.733L941.843 360.967ZM940.238 365.235L940.855 363.595L926.926 358.361L926.31 360.001L940.238 365.235ZM928.372 355.905L928.988 354.265L915.059 349.03L914.443 350.67L928.372 355.905ZM926.768 360.173L927.384 358.533L913.455 353.299L912.839 354.939L926.768 360.173ZM914.901 350.842L915.517 349.202L901.588 343.968L900.972 345.608L914.901 350.842ZM913.297 355.111L913.913 353.471L899.984 348.237L899.368 349.877L913.297 355.111ZM901.43 345.78L902.046 344.14L888.117 338.906L887.501 340.546L901.43 345.78ZM899.826 350.049L900.442 348.409L886.513 343.174L885.897 344.814L899.826 350.049ZM887.959 340.718L888.575 339.078L874.646 333.844L874.03 335.484L887.959 340.718ZM886.355 344.987L886.971 343.347L873.042 338.112L872.426 339.752L886.355 344.987ZM874.488 335.656L875.105 334.016L864.197 329.917L863.581 331.557L874.488 335.656ZM872.884 339.924L873.5 338.284L862.593 334.186L861.977 335.826L872.884 339.924ZM844.525 324.396L845.141 322.756L834.234 318.657L833.618 320.297L844.525 324.396ZM842.921 328.664L843.537 327.024L832.63 322.926L832.013 324.566L842.921 328.664ZM834.076 320.469L834.692 318.829L820.763 313.595L820.147 315.235L834.076 320.469ZM832.472 324.738L833.088 323.098L819.159 317.863L818.543 319.503L832.472 324.738ZM820.605 315.407L821.221 313.767L807.292 308.533L806.676 310.173L820.605 315.407ZM819.001 319.676L819.617 318.035L805.688 312.801L805.072 314.441L819.001 319.676ZM807.134 310.345L807.75 308.705L793.821 303.47L793.205 305.11L807.134 310.345ZM805.53 314.613L806.146 312.973L792.217 307.739L791.601 309.379L805.53 314.613ZM793.663 305.283L794.279 303.642L780.35 298.408L779.734 300.048L793.663 305.283ZM792.059 309.551L792.675 307.911L778.746 302.677L778.13 304.317L792.059 309.551ZM780.192 300.22L780.809 298.58L766.88 293.346L766.263 294.986L780.192 300.22ZM778.588 304.489L779.204 302.849L765.276 297.614L764.659 299.254L778.588 304.489ZM766.721 295.158L767.338 293.518L753.409 288.284L752.792 289.924L766.721 295.158ZM765.117 299.427L765.734 297.787L751.805 292.552L751.188 294.192L765.117 299.427ZM753.251 290.096L753.867 288.456L739.938 283.221L739.322 284.861L753.251 290.096ZM751.646 294.364L752.263 292.724L738.334 287.49L737.717 289.13L751.646 294.364ZM739.78 285.034L740.396 283.394L726.467 278.159L725.851 279.799L739.78 285.034ZM738.176 289.302L738.792 287.662L724.863 282.428L724.247 284.068L738.176 289.302ZM726.309 279.971L726.925 278.331L712.996 273.097L712.38 274.737L726.309 279.971ZM724.705 284.24L725.321 282.6L711.392 277.366L710.776 279.006L724.705 284.24ZM712.838 274.909L713.454 273.269L699.525 268.035L698.909 269.675L712.838 274.909ZM711.234 279.178L711.85 277.538L697.921 272.303L697.305 273.943L711.234 279.178ZM699.367 269.847L699.983 268.207L686.054 262.973L685.438 264.613L699.367 269.847ZM697.763 274.116L698.379 272.476L684.45 267.241L683.834 268.881L697.763 274.116ZM685.896 264.785L686.513 263.145L675.605 259.046L674.989 260.686L685.896 264.785ZM684.292 269.053L684.908 267.413L674.001 263.314L673.385 264.954L684.292 269.053Z" fill="white"/>
<path d="M1169.08 381.507L1169.7 379.845L1162.74 377.227L1162.11 378.89L1169.08 381.507ZM1172.01 371.137L1165.05 389.671L1166.73 390.305L1173.7 371.77L1172.01 371.137ZM1162.57 379.062L1163.2 377.4L1149.27 372.165L1148.64 373.828L1162.57 379.062ZM1149.72 372.337L1135.8 367.103L1135.17 368.765L1149.1 374L1149.72 372.337ZM1145.07 361.012L1138.11 379.547L1139.79 380.18L1146.76 361.646L1145.07 361.012ZM1135.63 368.938L1136.25 367.275L1122.33 362.041L1121.7 363.703L1135.63 368.938ZM1122.16 363.875L1122.78 362.213L1108.85 356.979L1108.23 358.641L1122.16 363.875ZM1109.31 357.151L1095.38 351.916L1094.76 353.579L1108.69 358.813L1109.31 357.151ZM1104.66 345.826L1097.69 364.36L1099.38 364.994L1106.34 346.459L1104.66 345.826ZM1095.22 353.751L1095.84 352.088L1081.91 346.854L1081.29 348.517L1095.22 353.751ZM1081.75 348.689L1082.37 347.026L1068.44 341.792L1067.82 343.454L1081.75 348.689ZM1068.28 343.627L1068.9 341.964L1054.97 336.73L1054.35 338.392L1068.28 343.627ZM1055.43 336.902L1041.5 331.667L1040.88 333.33L1054.8 338.564L1055.43 336.902ZM1050.78 325.577L1043.81 344.111L1045.5 344.745L1052.46 326.21L1050.78 325.577ZM1041.33 333.502L1041.96 331.84L1028.03 326.605L1027.4 328.268L1041.33 333.502ZM1027.86 328.44L1028.49 326.777L1014.56 321.543L1013.93 323.205L1027.86 328.44ZM1014.39 323.378L1015.02 321.715L1001.09 316.481L1000.46 318.143L1014.39 323.378ZM1000.92 318.315L1001.55 316.653L987.617 311.419L986.992 313.081L1000.92 318.315ZM988.075 311.591L974.146 306.356L973.521 308.019L987.45 313.253L988.075 311.591ZM983.421 300.266L976.456 318.8L978.141 319.434L985.106 300.899L983.421 300.266ZM973.979 308.191L974.604 306.528L960.675 301.294L960.05 302.957L973.979 308.191ZM960.508 303.129L961.133 301.466L947.204 296.232L946.579 297.894L960.508 303.129ZM947.037 298.067L947.662 296.404L933.733 291.17L933.108 292.832L947.037 298.067ZM933.567 293.004L934.191 291.342L920.262 286.107L919.638 287.77L933.567 293.004ZM920.096 287.942L920.72 286.28L906.791 281.045L906.167 282.708L920.096 287.942ZM907.25 281.217L893.321 275.983L892.696 277.646L906.625 282.88L907.25 281.217ZM902.596 269.893L895.631 288.427L897.316 289.06L904.281 270.526L902.596 269.893ZM893.154 277.818L893.779 276.155L879.85 270.921L879.225 272.583L893.154 277.818ZM879.683 272.755L880.308 271.093L866.379 265.859L865.754 267.521L879.683 272.755ZM866.212 267.693L866.837 266.031L852.908 260.796L852.283 262.459L866.212 267.693ZM852.741 262.631L853.366 260.969L839.437 255.734L838.812 257.397L852.741 262.631ZM839.271 257.569L839.895 255.906L825.966 250.672L825.342 252.334L839.271 257.569ZM825.8 252.507L826.424 250.844L812.495 245.61L811.871 247.272L825.8 252.507ZM812.954 245.782L799.025 240.547L798.4 242.21L812.329 247.444L812.954 245.782ZM808.3 234.457L801.335 252.991L803.02 253.625L809.985 235.09L808.3 234.457ZM798.858 242.382L799.483 240.72L785.554 235.485L784.929 237.148L798.858 242.382ZM785.387 237.32L786.012 235.657L772.083 230.423L771.458 232.086L785.387 237.32ZM771.916 232.258L772.541 230.595L758.612 225.361L757.987 227.023L771.916 232.258ZM758.445 227.195L759.07 225.533L745.141 220.299L744.516 221.961L758.445 227.195ZM744.974 222.133L745.599 220.471L731.67 215.236L731.046 216.899L744.974 222.133ZM731.504 217.071L732.128 215.409L718.199 210.174L717.575 211.837L731.504 217.071ZM718.033 212.009L718.658 210.346L704.729 205.112L704.104 206.774L718.033 212.009ZM697.597 204.329L704.562 206.947L705.187 205.284L698.222 202.667L697.597 204.329ZM702.218 194.592L700.533 193.959L693.568 212.494L695.253 213.127L702.218 194.592Z" fill="white"/>
<g filter="url(#filter0_f_593_2184)">
<ellipse cx="272.751" cy="156.572" rx="432.87" ry="308.974" transform="rotate(107.036 272.751 156.572)" fill="black" fill-opacity="0.65"/>
</g>
</g>
<defs>
<filter id="filter0_f_593_2184" x="-231.619" y="-449.978" width="1008.74" height="1213.1" filterUnits="userSpaceOnUse" color-interpolation-filters="sRGB">
<feFlood flood-opacity="0" result="BackgroundImageFix"/>
<feBlend mode="normal" in="SourceGraphic" in2="BackgroundImageFix" result="shape"/>
<feGaussianBlur stdDeviation="91.4" result="effect1_foregroundBlur_593_2184"/>
</filter>
<clipPath id="clip0_593_2184">
<rect width="1269.33" height="627.36" fill="white" transform="translate(0.89502 0.87793)"/>
</clipPath>
</defs>
</svg>
