<svg width="1320" height="598" viewBox="0 0 1320 598" fill="none" xmlns="http://www.w3.org/2000/svg">
<g clip-path="url(#clip0_606_2207)">
<path d="M769.281 52.1758C776.696 53.8155 782.518 61.7151 786.575 74.9881C790.619 88.2169 792.848 106.592 793.225 128.817C793.978 173.259 787.321 232.979 773.068 297.437C758.814 361.894 739.669 418.852 720.248 458.833C710.535 478.827 700.766 494.549 691.521 504.839C682.246 515.164 673.636 519.873 666.221 518.233C658.806 516.593 652.985 508.694 648.928 495.421C644.884 482.192 642.654 463.816 642.278 441.591C641.525 397.149 648.181 337.429 662.435 272.972C676.688 208.515 695.833 151.556 715.255 111.576C724.967 91.5818 734.737 75.8597 743.982 65.5693C753.257 55.2446 761.866 50.5362 769.281 52.1758Z" stroke="white"/>
<path d="M57.5859 50.826L58.1964 52.5489L48.7942 55.7694L55.9166 62.737L54.5403 63.9415L46.8852 56.3875L47.3359 54.3733L57.5859 50.826ZM69.9886 47.3424L69.1998 50.8672C70.114 51.1784 70.8947 51.5908 71.5422 52.1046C72.1896 52.6184 72.7047 53.1558 73.0874 53.7169L71.6034 54.6883C71.245 54.1654 70.8361 53.7214 70.3767 53.3563C69.9191 52.9834 69.4054 52.6963 68.8356 52.495L67.6406 57.8349C68.3715 58.269 69.0311 58.765 69.6195 59.3229C70.2156 59.8826 70.6537 60.5258 70.9338 61.2525C71.2139 61.9792 71.2465 62.8227 71.0316 63.783C70.8656 64.5246 70.5414 65.1858 70.059 65.7664C69.5783 66.3393 68.9515 66.777 68.1788 67.0795C67.4157 67.376 66.5235 67.4797 65.5023 67.3906L64.7397 70.7983L63.1588 70.4445L63.9057 67.1071C62.8128 66.7887 61.9063 66.3153 61.1862 65.6869C60.4738 65.0602 59.9129 64.4346 59.5034 63.8101L60.9653 62.7723C61.3453 63.382 61.8023 63.9229 62.3361 64.3948C62.8795 64.8607 63.5267 65.2105 64.2778 65.4442L65.7296 58.9566C64.4647 58.1981 63.537 57.3798 62.9465 56.5016C62.3656 55.6174 62.1965 54.6327 62.4394 53.5476C62.5809 52.9152 62.8715 52.349 63.3113 51.849C63.7607 51.3429 64.3461 50.9616 65.0676 50.7049C65.7968 50.45 66.6473 50.3862 67.6189 50.5135L68.4077 46.9886L69.9886 47.3424ZM67.1873 59.8608L65.8823 65.6926C67.5387 65.7271 68.5469 64.9403 68.9068 63.3321C69.0535 62.6763 69.0036 62.0749 68.7571 61.5278C68.5185 60.9826 67.9952 60.4269 67.1873 59.8608ZM67.2442 52.188C66.5796 52.1541 65.9976 52.2821 65.4982 52.572C65.0084 52.8559 64.6901 53.3257 64.5434 53.9815C64.4211 54.528 64.4655 55.0257 64.6765 55.4746C64.8954 55.9253 65.3949 56.4224 66.175 56.9659L67.2442 52.188ZM99.7158 60.2537L100.326 61.9766L90.9241 65.1971L98.0465 72.1646L96.6702 73.3692L89.0151 65.8152L89.4658 63.801L99.7158 60.2537ZM112.119 56.7701L111.33 60.2949C112.244 60.606 113.025 61.0185 113.672 61.5323C114.32 62.0461 114.835 62.5835 115.217 63.1446L113.733 64.116C113.375 63.5931 112.966 63.1491 112.507 62.784C112.049 62.4111 111.535 62.1239 110.966 61.9227L109.771 67.2626C110.501 67.6967 111.161 68.1927 111.749 68.7506C112.346 69.3103 112.784 69.9535 113.064 70.6802C113.344 71.4069 113.376 72.2504 113.161 73.2106C112.996 73.9523 112.671 74.6135 112.189 75.1941C111.708 75.767 111.081 76.2047 110.309 76.5072C109.546 76.8037 108.653 76.9074 107.632 76.8183L106.87 80.226L105.289 79.8722L106.036 76.5348C104.943 76.2164 104.036 75.743 103.316 75.1146C102.604 74.4879 102.043 73.8623 101.633 73.2378L103.095 72.2C103.475 72.8097 103.932 73.3506 104.466 73.8225C105.009 74.2884 105.657 74.6382 106.408 74.8719L107.859 68.3843C106.595 67.6258 105.667 66.8075 105.076 65.9293C104.495 65.0451 104.326 64.0604 104.569 62.9753C104.711 62.3429 105.001 61.7767 105.441 61.2767C105.891 60.7706 106.476 60.3893 107.197 60.1326C107.927 59.8777 108.777 59.8139 109.749 59.9411L110.538 56.4163L112.119 56.7701ZM109.317 69.2885L108.012 75.1203C109.669 75.1548 110.677 74.368 111.037 72.7598C111.183 72.104 111.134 71.5026 110.887 70.9555C110.648 70.4103 110.125 69.8546 109.317 69.2885ZM109.374 61.6157C108.71 61.5818 108.128 61.7098 107.628 61.9997C107.138 62.2836 106.82 62.7534 106.673 63.4092C106.551 63.9557 106.595 64.4534 106.806 64.9023C107.025 65.353 107.525 65.8501 108.305 66.3936L109.374 61.6157ZM119.746 64.7359L127.506 72.3135L127.056 74.3277L116.923 77.9012L116.182 76.2106L125.592 72.955L118.464 66.0109L119.746 64.7359ZM154.248 66.1978L153.46 69.7226C154.374 70.0337 155.155 70.4462 155.802 70.96C156.449 71.4738 156.964 72.0112 157.347 72.5723L155.863 73.5437C155.505 73.0208 155.096 72.5768 154.637 72.2117C154.179 71.8388 153.665 71.5516 153.095 71.3504L151.9 76.6903C152.631 77.1244 153.291 77.6204 153.879 78.1783C154.475 78.738 154.914 79.3812 155.194 80.1079C155.474 80.8346 155.506 81.6781 155.291 82.6383C155.125 83.38 154.801 84.0412 154.319 84.6218C153.838 85.1947 153.211 85.6324 152.439 85.9349C151.675 86.2314 150.783 86.3351 149.762 86.246L149 89.6537L147.419 89.2999L148.166 85.9624C147.073 85.6441 146.166 85.1707 145.446 84.5423C144.734 83.9156 144.173 83.29 143.763 82.6655L145.225 81.6277C145.605 82.2374 146.062 82.7783 146.596 83.2502C147.139 83.7161 147.787 84.0659 148.538 84.2996L149.989 77.812C148.724 77.0535 147.797 76.2352 147.206 75.357C146.625 74.4728 146.456 73.4881 146.699 72.403C146.841 71.7706 147.131 71.2044 147.571 70.7044C148.021 70.1983 148.606 69.8169 149.327 69.5603C150.057 69.3054 150.907 69.2416 151.879 69.3688L152.668 65.844L154.248 66.1978ZM151.447 78.7162L150.142 84.5479C151.799 84.5825 152.807 83.7957 153.167 82.1874C153.313 81.5317 153.263 80.9303 153.017 80.3832C152.778 79.8379 152.255 79.2823 151.447 78.7162ZM151.504 71.0434C150.839 71.0095 150.257 71.1375 149.758 71.4274C149.268 71.7113 148.95 72.1811 148.803 72.8369C148.681 73.3834 148.725 73.8811 148.936 74.33C149.155 74.7807 149.655 75.2778 150.435 75.8213L151.504 71.0434ZM161.876 74.1636L169.636 81.7412L169.185 83.7554L159.052 87.3289L158.312 85.6383L167.722 82.3827L160.594 75.4386L161.876 74.1636ZM198.019 82.2517L198.629 83.9746L189.227 87.1951L196.35 94.1626L194.973 95.3671L187.318 87.8131L187.769 85.7989L198.019 82.2517ZM208.658 85.8252L207.612 90.4977L212.215 91.5275L211.845 93.1787L207.243 92.1488L206.205 96.7861L204.367 96.3747L205.404 91.7374L200.861 90.7207L201.23 89.0695L205.774 90.0862L206.819 85.4138L208.658 85.8252ZM240.149 91.6794L240.759 93.4023L231.357 96.6228L238.48 103.59L237.103 104.795L229.448 97.2408L229.899 95.2266L240.149 91.6794ZM250.788 95.2529L249.742 99.9254L254.344 100.955L253.975 102.606L249.373 101.577L248.335 106.214L246.497 105.802L247.534 101.165L242.991 100.148L243.36 98.4972L247.904 99.5139L248.949 94.8415L250.788 95.2529ZM260.179 96.1616L267.939 103.739L267.489 105.753L257.356 109.327L256.615 107.636L266.025 104.381L258.897 97.4365L260.179 96.1616ZM296.322 104.25L296.933 105.973L287.53 109.193L294.653 116.161L293.276 117.365L285.621 109.811L286.072 107.797L296.322 104.25ZM305.249 106.628L307.239 107.074L306.026 111.783L310.83 111.197L311.013 113.181L306.182 113.502L308.236 117.897L306.41 118.693L304.604 114.182L301.047 117.493L299.734 115.994L303.465 112.894L299.232 110.545L300.243 108.828L304.34 111.405L305.249 106.628ZM338.452 113.677L339.062 115.4L329.66 118.621L336.783 125.588L335.406 126.793L327.751 119.239L328.202 117.225L338.452 113.677ZM347.379 116.056L349.369 116.502L348.156 121.21L352.96 120.625L353.143 122.609L348.312 122.93L350.366 127.324L348.54 128.121L346.734 123.61L343.177 126.921L341.864 125.422L345.595 122.322L341.362 119.973L342.373 118.256L346.47 120.833L347.379 116.056ZM358.482 118.16L366.242 125.737L365.792 127.751L355.659 131.325L354.918 129.634L364.328 126.379L357.201 119.434L358.482 118.16ZM394.625 126.248L395.236 127.97L385.833 131.191L392.956 138.159L391.58 139.363L383.924 131.809L384.375 129.795L394.625 126.248ZM400.612 127.587L408.372 135.165L407.922 137.179L397.789 140.752L397.048 139.062L406.458 135.806L399.33 128.862L400.612 127.587ZM436.755 135.675L437.366 137.398L427.963 140.619L435.086 147.586L433.71 148.791L426.054 141.237L426.505 139.223L436.755 135.675ZM449.24 130.944L442.951 159.048L441.195 158.655L447.484 130.55L449.24 130.944ZM456.785 140.157L464.546 147.735L464.095 149.749L453.962 153.323L453.221 151.632L462.631 148.377L455.504 141.432L456.785 140.157ZM491.877 151.404L490.025 156.437L491.922 156.862L491.582 158.384L489.462 157.91L488.082 161.77L486.396 161.392L487.811 157.54L484.403 156.778L483 160.632L481.313 160.255L482.729 156.403L480.879 155.989L481.219 154.467L483.268 154.925L485.144 149.897L483.247 149.473L483.59 147.939L485.686 148.408L487.077 144.612L488.763 144.989L487.326 148.775L490.768 149.545L492.159 145.749L493.845 146.127L492.42 149.915L494.293 150.334L493.95 151.868L491.877 151.404ZM484.943 155.3L488.351 156.063L490.226 151.035L486.795 150.267L484.943 155.3ZM506.69 155.063L506.31 156.761L497.2 154.723L497.58 153.025L506.69 155.063ZM505.697 159.502L505.314 161.211L496.204 159.173L496.586 157.463L505.697 159.502ZM531.654 158.104L530.608 162.777L535.211 163.807L534.841 165.458L530.239 164.428L529.201 169.065L527.363 168.654L528.4 164.016L523.857 163L524.226 161.348L528.77 162.365L529.815 157.693L531.654 158.104ZM545.697 161.247L544.652 165.919L549.254 166.949L548.884 168.6L544.282 167.57L543.244 172.208L541.406 171.796L542.444 167.159L537.9 166.142L538.27 164.491L542.813 165.508L543.859 160.835L545.697 161.247ZM559.741 164.389L558.695 169.062L563.297 170.092L562.928 171.743L558.325 170.713L557.288 175.35L555.449 174.939L556.487 170.302L551.943 169.285L552.313 167.634L556.856 168.65L557.902 163.978L559.741 164.389ZM586.115 169.48L588.106 169.925L586.892 174.634L591.696 174.049L591.879 176.033L587.048 176.353L589.102 180.748L587.276 181.544L585.47 177.033L581.913 180.344L580.6 178.846L584.331 175.745L580.098 173.396L581.11 171.68L585.206 174.256L586.115 169.48ZM600.158 172.622L602.149 173.068L600.935 177.776L605.739 177.191L605.922 179.175L601.092 179.496L603.145 183.891L601.319 184.687L599.513 180.176L595.956 183.487L594.644 181.988L598.375 178.888L594.142 176.539L595.153 174.822L599.249 177.399L600.158 172.622ZM614.201 175.765L616.192 176.21L614.979 180.919L619.782 180.334L619.965 182.318L615.135 182.639L617.189 187.033L615.363 187.83L613.556 183.318L609.999 186.629L608.687 185.131L612.418 182.031L608.185 179.681L609.196 177.965L613.292 180.542L614.201 175.765ZM638.71 193.755C638.823 193.248 639.101 192.847 639.544 192.552C639.995 192.26 640.486 192.173 641.017 192.292C641.563 192.414 641.974 192.703 642.249 193.158C642.532 193.614 642.617 194.097 642.504 194.604C642.385 195.135 642.1 195.547 641.649 195.839C641.208 196.126 640.714 196.208 640.168 196.086C639.637 195.967 639.229 195.683 638.944 195.234C638.669 194.779 638.591 194.286 638.71 193.755ZM640.599 185.312C640.679 184.953 640.833 184.651 641.06 184.407C641.287 184.162 641.563 183.99 641.888 183.891C642.216 183.784 642.555 183.77 642.906 183.848C643.453 183.971 643.864 184.255 644.141 184.703C644.426 185.152 644.51 185.638 644.393 186.161C644.278 186.676 643.994 187.084 643.541 187.384C643.098 187.679 642.604 187.765 642.057 187.643C641.526 187.524 641.119 187.236 640.836 186.779C640.563 186.316 640.484 185.827 640.599 185.312ZM653.391 184.153L661.152 191.731L660.701 193.745L650.568 197.319L649.827 195.628L659.238 192.372L652.11 185.428L653.391 184.153ZM666.796 200.04C666.91 199.533 667.188 199.132 667.631 198.837C668.082 198.545 668.573 198.458 669.103 198.577C669.65 198.699 670.061 198.988 670.336 199.443C670.619 199.9 670.704 200.382 670.59 200.889C670.471 201.42 670.187 201.832 669.736 202.124C669.295 202.411 668.801 202.493 668.254 202.371C667.723 202.252 667.316 201.968 667.031 201.519C666.756 201.064 666.677 200.571 666.796 200.04ZM668.686 191.597C668.766 191.238 668.919 190.936 669.146 190.692C669.373 190.447 669.649 190.276 669.975 190.176C670.302 190.069 670.641 190.055 670.993 190.133C671.539 190.256 671.951 190.541 672.228 190.988C672.513 191.437 672.597 191.923 672.48 192.446C672.364 192.961 672.08 193.369 671.628 193.67C671.185 193.964 670.69 194.05 670.144 193.928C669.613 193.809 669.206 193.521 668.923 193.064C668.649 192.601 668.57 192.112 668.686 191.597Z" fill="white"/>
<path d="M31.2851 232.467L31.8956 234.19L22.4934 237.41L29.6158 244.378L28.2395 245.582L20.5844 238.028L21.0351 236.014L31.2851 232.467ZM43.7704 227.735L37.4812 255.84L35.7246 255.447L42.0138 227.342L43.7704 227.735ZM57.8137 230.877L51.5245 258.982L49.7679 258.589L56.0571 230.484L57.8137 230.877ZM71.857 234.02L65.5678 262.125L63.8112 261.732L70.1004 233.627L71.857 234.02ZM101.502 248.179L102.112 249.902L92.7099 253.123L99.8323 260.09L98.456 261.295L90.8009 253.741L91.2516 251.727L101.502 248.179ZM113.987 243.448L107.698 271.553L105.941 271.16L112.23 243.055L113.987 243.448ZM128.03 246.59L121.741 274.695L119.984 274.302L126.274 246.197L128.03 246.59ZM157.675 260.75L158.285 262.473L148.883 265.693L156.006 272.661L154.629 273.865L146.974 266.311L147.425 264.297L157.675 260.75ZM170.16 256.018L163.871 284.123L162.114 283.73L168.404 255.625L170.16 256.018ZM199.805 270.177L200.415 271.9L191.013 275.121L198.135 282.088L196.759 283.293L189.104 275.739L189.555 273.725L199.805 270.177ZM205.791 271.517L213.552 279.095L213.101 281.109L202.968 284.682L202.228 282.992L211.638 279.736L204.51 272.792L205.791 271.517ZM240.377 271.731L234.087 299.836L232.331 299.443L238.62 271.338L240.377 271.731ZM247.921 280.945L255.682 288.522L255.231 290.537L245.098 294.11L244.357 292.419L253.768 289.164L246.64 282.22L247.921 280.945ZM282.507 281.159L276.217 309.263L274.461 308.87L280.75 280.765L282.507 281.159ZM296.55 284.301L290.261 312.406L288.504 312.013L294.793 283.908L296.55 284.301ZM304.094 293.515L311.855 301.093L311.404 303.107L301.271 306.68L300.531 304.99L309.941 301.734L302.813 294.79L304.094 293.515ZM338.68 293.729L332.391 321.834L330.634 321.441L336.923 293.336L338.68 293.729ZM352.723 296.871L346.434 324.976L344.677 324.583L350.967 296.478L352.723 296.871ZM366.766 300.014L360.477 328.119L358.721 327.726L365.01 299.621L366.766 300.014ZM374.311 309.228L382.072 316.805L381.621 318.82L371.488 322.393L370.747 320.703L380.157 317.447L373.03 310.503L374.311 309.228ZM396.411 314.173L397.022 315.896L387.619 319.117L394.742 326.084L393.365 327.289L385.71 319.735L386.161 317.721L396.411 314.173ZM400.054 322.797L400.437 321.087L409.829 323.189L409.446 324.899L400.054 322.797ZM414.098 325.94L414.48 324.23L423.872 326.332L423.489 328.041L414.098 325.94ZM442.109 341.849L446.988 320.044L452.855 321.357L452.475 323.055L448.47 322.159L444.346 340.591L448.35 341.487L447.976 343.161L442.109 341.849ZM465.07 322.012L458.78 350.117L457.024 349.724L463.313 321.619L465.07 322.012ZM493.156 328.297L486.867 356.402L485.11 356.009L491.4 327.904L493.156 328.297ZM502.435 331.96C503.091 332.106 503.706 332.306 504.281 332.557C504.858 332.801 505.346 333.111 505.745 333.487C506.145 333.864 506.408 334.316 506.536 334.845C506.673 335.367 506.618 335.978 506.372 336.677L504.902 341.046C504.721 341.563 504.687 342.026 504.8 342.437C504.921 342.849 505.226 343.209 505.715 343.515C506.204 343.821 506.928 344.081 507.888 344.296L507.537 345.866C506.585 345.652 505.817 345.583 505.235 345.658C504.662 345.726 504.233 345.921 503.948 346.243C503.671 346.566 503.503 347.004 503.445 347.557L502.918 352.111C502.835 352.847 502.624 353.423 502.285 353.839C501.945 354.263 501.513 354.56 500.992 354.73C500.478 354.902 499.904 354.974 499.27 354.947C498.643 354.93 498.002 354.848 497.346 354.701L497.692 353.155C498.262 353.283 498.789 353.344 499.274 353.337C499.767 353.333 500.173 353.223 500.492 353.007C500.81 352.792 501.001 352.437 501.062 351.942L501.645 347.031C501.73 346.32 501.894 345.771 502.136 345.382C502.381 344.986 502.72 344.718 503.153 344.577C503.594 344.438 504.14 344.396 504.792 344.452C504.206 344.214 503.745 343.927 503.411 343.589C503.084 343.254 502.891 342.854 502.831 342.39C502.771 341.926 502.845 341.372 503.054 340.731L504.621 336.039C504.774 335.574 504.753 335.175 504.556 334.844C504.36 334.514 504.043 334.242 503.607 334.03C503.173 333.809 502.667 333.635 502.089 333.505L502.435 331.96ZM529.577 348.732C530.162 348.863 530.632 349.091 530.985 349.416C531.347 349.742 531.652 350.098 531.903 350.482C532.153 350.866 532.4 351.208 532.644 351.508C532.888 351.809 533.19 352 533.549 352.08C534.033 352.188 534.509 352.094 534.978 351.797C535.446 351.5 535.891 351.104 536.313 350.608L537.556 351.648C537.23 352.043 536.852 352.434 536.421 352.821C535.992 353.2 535.504 353.493 534.958 353.699C534.413 353.896 533.794 353.918 533.099 353.762C532.553 353.64 532.103 353.416 531.749 353.091C531.403 352.768 531.101 352.413 530.843 352.028C530.593 351.644 530.334 351.299 530.067 350.993C529.807 350.689 529.493 350.496 529.126 350.414C528.619 350.3 528.139 350.394 527.686 350.694C527.236 350.987 526.795 351.38 526.365 351.874L525.114 350.869C525.451 350.46 525.832 350.062 526.255 349.673C526.678 349.284 527.162 348.99 527.706 348.793C528.258 348.596 528.882 348.576 529.577 348.732ZM540.487 354.223L540.87 352.513L550.262 354.615L549.879 356.324L540.487 354.223ZM571.707 358.159C572.292 358.29 572.762 358.518 573.115 358.843C573.476 359.17 573.782 359.525 574.032 359.909C574.283 360.293 574.53 360.636 574.774 360.936C575.018 361.237 575.32 361.427 575.679 361.508C576.163 361.616 576.639 361.522 577.107 361.225C577.576 360.928 578.021 360.531 578.443 360.036L579.686 361.076C579.36 361.471 578.982 361.861 578.551 362.249C578.121 362.628 577.634 362.921 577.088 363.126C576.543 363.324 575.924 363.345 575.229 363.19C574.682 363.068 574.232 362.844 573.879 362.519C573.533 362.196 573.231 361.841 572.973 361.455C572.723 361.072 572.464 360.727 572.196 360.421C571.937 360.117 571.623 359.924 571.256 359.842C570.749 359.728 570.269 359.821 569.816 360.122C569.366 360.414 568.925 360.808 568.495 361.302L567.244 360.296C567.581 359.888 567.962 359.49 568.385 359.101C568.808 358.712 569.292 358.418 569.836 358.22C570.388 358.024 571.012 358.004 571.707 358.159ZM585.75 361.302C586.335 361.433 586.805 361.661 587.158 361.986C587.52 362.313 587.826 362.668 588.076 363.052C588.326 363.436 588.573 363.778 588.817 364.079C589.062 364.379 589.363 364.57 589.722 364.65C590.207 364.758 590.683 364.664 591.151 364.367C591.619 364.07 592.064 363.674 592.487 363.178L593.729 364.219C593.403 364.613 593.025 365.004 592.594 365.391C592.165 365.771 591.677 366.063 591.131 366.269C590.587 366.467 589.967 366.488 589.272 366.332C588.726 366.21 588.276 365.986 587.922 365.661C587.576 365.338 587.275 364.984 587.017 364.598C586.766 364.214 586.507 363.869 586.24 363.563C585.98 363.259 585.666 363.066 585.3 362.984C584.792 362.871 584.312 362.964 583.86 363.264C583.409 363.557 582.968 363.95 582.538 364.444L581.287 363.439C581.625 363.031 582.005 362.632 582.428 362.243C582.851 361.854 583.335 361.561 583.879 361.363C584.432 361.167 585.055 361.146 585.75 361.302ZM622.446 361.976L623.527 363.078L608.81 376.804L607.764 375.709L622.446 361.976ZM618.475 372.191C618.014 372.088 617.582 372.188 617.178 372.491C616.776 372.786 616.483 373.344 616.3 374.164C616.13 374.921 616.154 375.545 616.372 376.037C616.59 376.528 616.937 376.827 617.414 376.934C617.882 377.039 618.311 376.934 618.701 376.619C619.099 376.307 619.392 375.733 619.579 374.897C619.767 374.054 619.746 373.418 619.514 372.989C619.29 372.562 618.943 372.296 618.475 372.191ZM614.164 361.782C613.703 361.679 613.27 361.783 612.864 362.094C612.459 362.405 612.167 362.959 611.989 363.755C611.817 364.52 611.841 365.148 612.059 365.64C612.278 366.123 612.626 366.418 613.103 366.525C613.571 366.63 614 366.525 614.39 366.211C614.788 365.898 615.081 365.324 615.268 364.489C615.456 363.646 615.435 363.009 615.203 362.58C614.979 362.153 614.632 361.887 614.164 361.782ZM614.478 360.377C615.212 360.541 615.794 360.852 616.225 361.309C616.656 361.766 616.94 362.309 617.078 362.939C617.223 363.57 617.221 364.221 617.071 364.892C616.924 365.548 616.65 366.134 616.247 366.651C615.852 367.169 615.361 367.551 614.773 367.797C614.187 368.034 613.527 368.071 612.793 367.907C612.067 367.744 611.486 367.43 611.049 366.963C610.614 366.489 610.325 365.932 610.181 365.293C610.037 364.654 610.038 364.007 610.185 363.351C610.337 362.672 610.613 362.082 611.012 361.581C611.413 361.072 611.909 360.704 612.501 360.476C613.093 360.247 613.752 360.215 614.478 360.377ZM618.792 370.774C619.526 370.938 620.107 371.253 620.536 371.718C620.967 372.175 621.251 372.718 621.389 373.347C621.535 373.978 621.532 374.629 621.382 375.301C621.233 375.964 620.958 376.555 620.555 377.071C620.163 377.582 619.672 377.96 619.084 378.205C618.498 378.443 617.838 378.48 617.104 378.316C616.378 378.153 615.797 377.839 615.36 377.372C614.926 376.897 614.635 376.345 614.489 375.714C614.346 375.075 614.348 374.424 614.496 373.76C614.648 373.081 614.925 372.487 615.325 371.978C615.726 371.469 616.223 371.101 616.815 370.873C617.407 370.644 618.066 370.612 618.792 370.774ZM636.489 365.118L637.57 366.221L622.854 379.946L621.808 378.851L636.489 365.118ZM632.518 375.334C632.058 375.23 631.625 375.33 631.221 375.634C630.819 375.929 630.526 376.486 630.343 377.306C630.174 378.063 630.198 378.688 630.416 379.179C630.634 379.671 630.981 379.97 631.457 380.076C631.925 380.181 632.355 380.076 632.745 379.762C633.143 379.449 633.435 378.875 633.622 378.04C633.811 377.197 633.789 376.561 633.557 376.132C633.333 375.704 632.987 375.438 632.518 375.334ZM628.207 364.925C627.747 364.822 627.313 364.926 626.908 365.237C626.502 365.548 626.21 366.101 626.032 366.897C625.861 367.663 625.884 368.291 626.102 368.782C626.322 369.266 626.67 369.561 627.146 369.668C627.614 369.772 628.044 369.668 628.434 369.353C628.832 369.041 629.124 368.467 629.311 367.631C629.5 366.788 629.478 366.152 629.246 365.723C629.022 365.296 628.676 365.03 628.207 364.925ZM628.522 363.52C629.256 363.684 629.838 363.995 630.268 364.452C630.699 364.909 630.983 365.452 631.121 366.081C631.267 366.712 631.264 367.363 631.114 368.035C630.967 368.691 630.693 369.277 630.29 369.793C629.896 370.312 629.404 370.694 628.817 370.939C628.23 371.177 627.571 371.214 626.837 371.049C626.111 370.887 625.529 370.572 625.093 370.106C624.658 369.631 624.368 369.075 624.224 368.436C624.08 367.797 624.082 367.15 624.229 366.494C624.381 365.815 624.656 365.225 625.055 364.724C625.456 364.215 625.952 363.846 626.544 363.618C627.137 363.39 627.796 363.357 628.522 363.52ZM632.835 373.917C633.569 374.081 634.151 374.395 634.579 374.86C635.01 375.317 635.294 375.86 635.432 376.49C635.578 377.121 635.576 377.772 635.425 378.443C635.277 379.107 635.001 379.697 634.599 380.214C634.206 380.724 633.715 381.102 633.128 381.348C632.542 381.586 631.882 381.622 631.148 381.458C630.422 381.296 629.84 380.981 629.404 380.514C628.969 380.04 628.679 379.487 628.533 378.856C628.389 378.217 628.391 377.566 628.54 376.903C628.692 376.223 628.968 375.629 629.369 375.121C629.77 374.612 630.266 374.243 630.858 374.015C631.45 373.787 632.109 373.754 632.835 373.917Z" fill="white"/>
<path d="M324.767 248.519C324.88 248.012 325.159 247.611 325.602 247.317C326.052 247.024 326.543 246.937 327.074 247.056C327.62 247.178 328.031 247.467 328.307 247.922C328.59 248.379 328.674 248.861 328.561 249.368C328.442 249.899 328.157 250.311 327.707 250.604C327.265 250.89 326.771 250.972 326.225 250.85C325.694 250.731 325.286 250.447 325.001 249.998C324.726 249.543 324.648 249.05 324.767 248.519ZM326.656 240.076C326.736 239.717 326.89 239.415 327.117 239.171C327.344 238.926 327.62 238.755 327.945 238.655C328.273 238.548 328.612 238.534 328.963 238.613C329.51 238.735 329.922 239.02 330.199 239.467C330.483 239.916 330.567 240.402 330.45 240.925C330.335 241.44 330.051 241.848 329.599 242.149C329.156 242.443 328.661 242.529 328.114 242.407C327.583 242.288 327.176 242 326.893 241.543C326.62 241.08 326.541 240.591 326.656 240.076ZM339.448 238.918L347.209 246.495L346.758 248.509L336.625 252.083L335.885 250.392L345.295 247.137L338.167 240.193L339.448 238.918ZM366.897 257.947C367.01 257.439 367.288 257.039 367.731 256.744C368.182 256.452 368.673 256.365 369.204 256.483C369.75 256.606 370.161 256.894 370.437 257.35C370.72 257.806 370.804 258.289 370.691 258.796C370.572 259.327 370.287 259.739 369.836 260.031C369.395 260.318 368.901 260.4 368.355 260.278C367.824 260.159 367.416 259.875 367.131 259.426C366.856 258.971 366.778 258.478 366.897 257.947ZM368.786 249.504C368.866 249.145 369.02 248.843 369.247 248.599C369.474 248.354 369.75 248.182 370.075 248.083C370.403 247.976 370.742 247.962 371.093 248.04C371.64 248.163 372.052 248.447 372.329 248.895C372.613 249.344 372.697 249.83 372.58 250.353C372.465 250.868 372.181 251.276 371.728 251.576C371.285 251.871 370.791 251.957 370.244 251.834C369.713 251.716 369.306 251.428 369.023 250.971C368.75 250.508 368.671 250.019 368.786 249.504ZM389.635 250.148L390.246 251.871L380.843 255.092L387.966 262.059L386.59 263.264L378.934 255.71L379.385 253.695L389.635 250.148ZM409.665 254.63L417.426 262.208L416.975 264.222L406.842 267.796L406.101 266.105L415.511 262.85L408.384 255.905L409.665 254.63ZM423.07 270.517C423.183 270.01 423.462 269.609 423.905 269.314C424.355 269.022 424.846 268.935 425.377 269.054C425.924 269.176 426.334 269.465 426.61 269.92C426.893 270.377 426.978 270.859 426.864 271.366C426.745 271.897 426.46 272.309 426.01 272.601C425.568 272.888 425.075 272.97 424.528 272.848C423.997 272.729 423.589 272.445 423.305 271.996C423.029 271.541 422.951 271.048 423.07 270.517ZM424.959 262.074C425.04 261.715 425.193 261.413 425.42 261.169C425.647 260.924 425.923 260.753 426.249 260.653C426.576 260.546 426.915 260.532 427.267 260.611C427.813 260.733 428.225 261.018 428.502 261.465C428.787 261.914 428.87 262.4 428.753 262.923C428.638 263.438 428.354 263.846 427.902 264.147C427.459 264.441 426.964 264.527 426.417 264.405C425.887 264.286 425.48 263.998 425.197 263.541C424.923 263.078 424.844 262.589 424.959 262.074ZM459.852 265.861L460.462 267.584L451.06 270.804L458.182 277.772L456.806 278.977L449.151 271.423L449.602 269.408L459.852 265.861ZM465.2 279.945C465.313 279.437 465.592 279.037 466.035 278.742C466.485 278.45 466.976 278.363 467.507 278.481C468.054 278.604 468.464 278.892 468.74 279.347C469.023 279.804 469.107 280.286 468.994 280.794C468.875 281.325 468.59 281.737 468.14 282.029C467.698 282.316 467.204 282.398 466.658 282.276C466.127 282.157 465.719 281.873 465.434 281.424C465.159 280.969 465.081 280.476 465.2 279.945ZM467.089 271.502C467.17 271.143 467.323 270.841 467.55 270.596C467.777 270.352 468.053 270.18 468.379 270.081C468.706 269.974 469.045 269.96 469.396 270.038C469.943 270.161 470.355 270.445 470.632 270.893C470.916 271.342 471 271.828 470.883 272.351C470.768 272.866 470.484 273.274 470.032 273.574C469.589 273.869 469.094 273.955 468.547 273.832C468.017 273.714 467.61 273.426 467.326 272.969C467.053 272.506 466.974 272.017 467.089 271.502ZM493.286 286.23C493.4 285.723 493.678 285.322 494.121 285.027C494.572 284.735 495.063 284.648 495.594 284.767C496.14 284.889 496.551 285.178 496.826 285.633C497.109 286.089 497.194 286.572 497.081 287.079C496.962 287.61 496.677 288.022 496.226 288.314C495.785 288.601 495.291 288.683 494.745 288.561C494.214 288.442 493.806 288.158 493.521 287.709C493.246 287.254 493.168 286.761 493.286 286.23ZM495.176 277.787C495.256 277.428 495.41 277.126 495.637 276.882C495.863 276.637 496.14 276.465 496.465 276.366C496.792 276.259 497.132 276.245 497.483 276.323C498.03 276.446 498.441 276.73 498.718 277.178C499.003 277.627 499.087 278.113 498.97 278.636C498.855 279.151 498.571 279.559 498.118 279.859C497.675 280.154 497.18 280.24 496.634 280.118C496.103 279.999 495.696 279.711 495.413 279.254C495.14 278.791 495.06 278.302 495.176 277.787ZM507.33 289.373C507.443 288.865 507.721 288.464 508.164 288.17C508.615 287.877 509.106 287.79 509.637 287.909C510.183 288.031 510.594 288.32 510.87 288.775C511.153 289.232 511.237 289.714 511.124 290.222C511.005 290.752 510.72 291.164 510.269 291.457C509.828 291.743 509.334 291.826 508.788 291.703C508.257 291.584 507.849 291.301 507.564 290.852C507.289 290.396 507.211 289.903 507.33 289.373ZM509.219 280.929C509.299 280.57 509.453 280.269 509.68 280.024C509.907 279.78 510.183 279.608 510.508 279.509C510.836 279.402 511.175 279.387 511.526 279.466C512.073 279.588 512.485 279.873 512.762 280.32C513.046 280.769 513.13 281.255 513.013 281.778C512.898 282.294 512.614 282.702 512.161 283.002C511.719 283.296 511.224 283.382 510.677 283.26C510.146 283.141 509.739 282.853 509.456 282.397C509.183 281.934 509.104 281.445 509.219 280.929ZM522.011 279.771L529.772 287.349L529.321 289.363L519.188 292.936L518.448 291.246L527.858 287.99L520.73 281.046L522.011 279.771ZM558.155 287.859L558.765 289.582L549.363 292.802L556.485 299.77L555.109 300.974L547.454 293.42L547.905 291.406L558.155 287.859ZM563.503 301.943C563.616 301.435 563.895 301.034 564.338 300.74C564.788 300.447 565.279 300.361 565.81 300.479C566.357 300.602 566.768 300.89 567.043 301.345C567.326 301.802 567.411 302.284 567.297 302.792C567.178 303.323 566.893 303.734 566.443 304.027C566.001 304.314 565.508 304.396 564.961 304.274C564.43 304.155 564.022 303.871 563.738 303.422C563.462 302.967 563.384 302.474 563.503 301.943ZM565.392 293.5C565.473 293.141 565.626 292.839 565.853 292.594C566.08 292.35 566.356 292.178 566.682 292.079C567.009 291.972 567.348 291.958 567.7 292.036C568.246 292.158 568.658 292.443 568.935 292.891C569.22 293.34 569.303 293.826 569.186 294.349C569.071 294.864 568.787 295.272 568.335 295.572C567.892 295.867 567.397 295.953 566.851 295.83C566.32 295.712 565.913 295.424 565.63 294.967C565.356 294.504 565.277 294.015 565.392 293.5ZM577.546 305.085C577.66 304.578 577.938 304.177 578.381 303.883C578.832 303.59 579.323 303.503 579.853 303.622C580.4 303.744 580.811 304.033 581.086 304.488C581.369 304.945 581.454 305.427 581.34 305.934C581.222 306.465 580.937 306.877 580.486 307.17C580.045 307.456 579.551 307.538 579.004 307.416C578.474 307.297 578.066 307.013 577.781 306.564C577.506 306.109 577.427 305.616 577.546 305.085ZM579.436 296.642C579.516 296.283 579.67 295.981 579.896 295.737C580.123 295.493 580.399 295.321 580.725 295.221C581.052 295.114 581.392 295.1 581.743 295.179C582.289 295.301 582.701 295.586 582.978 296.033C583.263 296.482 583.347 296.968 583.23 297.491C583.114 298.007 582.831 298.414 582.378 298.715C581.935 299.009 581.44 299.095 580.894 298.973C580.363 298.854 579.956 298.566 579.673 298.109C579.399 297.647 579.32 297.157 579.436 296.642ZM606.271 298.626L614.032 306.204L613.581 308.218L603.448 311.792L602.707 310.101L612.117 306.845L604.99 299.901L606.271 298.626ZM619.676 314.513C619.79 314.006 620.068 313.605 620.511 313.31C620.962 313.018 621.453 312.931 621.983 313.05C622.53 313.172 622.941 313.461 623.216 313.916C623.499 314.373 623.584 314.855 623.47 315.362C623.351 315.893 623.067 316.305 622.616 316.597C622.175 316.884 621.681 316.966 621.134 316.844C620.603 316.725 620.196 316.441 619.911 315.992C619.636 315.537 619.557 315.044 619.676 314.513ZM621.565 306.07C621.646 305.711 621.799 305.409 622.026 305.165C622.253 304.92 622.529 304.748 622.855 304.649C623.182 304.542 623.521 304.528 623.873 304.606C624.419 304.729 624.831 305.014 625.108 305.461C625.393 305.91 625.477 306.396 625.36 306.919C625.244 307.434 624.96 307.842 624.508 308.142C624.065 308.437 623.57 308.523 623.024 308.401C622.493 308.282 622.086 307.994 621.803 307.537C621.529 307.074 621.45 306.585 621.565 306.07ZM633.719 317.656C633.833 317.148 634.111 316.747 634.554 316.453C635.005 316.16 635.496 316.073 636.027 316.192C636.573 316.314 636.984 316.603 637.259 317.058C637.542 317.515 637.627 317.997 637.514 318.505C637.395 319.036 637.11 319.447 636.659 319.74C636.218 320.027 635.724 320.109 635.178 319.986C634.647 319.868 634.239 319.584 633.954 319.135C633.679 318.68 633.601 318.187 633.719 317.656ZM635.609 309.212C635.689 308.853 635.843 308.552 636.07 308.307C636.296 308.063 636.573 307.891 636.898 307.792C637.225 307.685 637.565 307.67 637.916 307.749C638.463 307.871 638.874 308.156 639.151 308.603C639.436 309.052 639.52 309.538 639.403 310.062C639.288 310.577 639.004 310.985 638.551 311.285C638.108 311.579 637.614 311.665 637.067 311.543C636.536 311.424 636.129 311.137 635.846 310.68C635.573 310.217 635.493 309.728 635.609 309.212Z" fill="white"/>
<path d="M135.996 130.882L136.607 132.605L127.204 135.825L134.327 142.793L132.95 143.997L125.295 136.443L125.746 134.429L135.996 130.882ZM141.983 132.221L149.743 139.799L149.292 141.813L139.16 145.387L138.419 143.696L147.829 140.44L140.701 133.496L141.983 132.221ZM178.126 140.309L178.736 142.032L169.334 145.253L176.457 152.22L175.08 153.425L167.425 145.871L167.876 143.857L178.126 140.309ZM184.902 146.585C185.487 146.716 185.957 146.944 186.31 147.269C186.672 147.595 186.978 147.951 187.228 148.335C187.478 148.719 187.725 149.061 187.969 149.361C188.214 149.662 188.515 149.853 188.874 149.933C189.359 150.041 189.835 149.947 190.303 149.65C190.771 149.353 191.216 148.957 191.639 148.461L192.881 149.501C192.555 149.896 192.177 150.287 191.746 150.674C191.317 151.053 190.829 151.346 190.283 151.552C189.739 151.749 189.119 151.771 188.424 151.615C187.878 151.493 187.428 151.269 187.074 150.944C186.728 150.621 186.427 150.266 186.169 149.881C185.918 149.497 185.659 149.152 185.392 148.846C185.132 148.542 184.818 148.349 184.452 148.267C183.944 148.153 183.464 148.247 183.012 148.547C182.561 148.84 182.12 149.233 181.69 149.727L180.439 148.722C180.777 148.313 181.157 147.915 181.58 147.526C182.003 147.137 182.487 146.843 183.031 146.646C183.584 146.449 184.207 146.429 184.902 146.585ZM198.945 149.727C199.531 149.858 200 150.086 200.354 150.411C200.715 150.738 201.021 151.093 201.271 151.477C201.521 151.861 201.768 152.203 202.013 152.504C202.257 152.805 202.559 152.995 202.918 153.075C203.402 153.184 203.878 153.089 204.346 152.792C204.814 152.496 205.259 152.099 205.682 151.604L206.925 152.644C206.599 153.038 206.22 153.429 205.789 153.816C205.36 154.196 204.872 154.488 204.326 154.694C203.782 154.892 203.162 154.913 202.468 154.758C201.921 154.635 201.471 154.412 201.118 154.087C200.772 153.763 200.47 153.409 200.212 153.023C199.962 152.639 199.703 152.294 199.435 151.989C199.175 151.685 198.862 151.491 198.495 151.409C197.987 151.296 197.507 151.389 197.055 151.69C196.604 151.982 196.164 152.376 195.733 152.87L194.483 151.864C194.82 151.456 195.2 151.057 195.623 150.668C196.047 150.279 196.53 149.986 197.075 149.788C197.627 149.592 198.25 149.572 198.945 149.727ZM227.032 156.012C227.617 156.143 228.087 156.371 228.44 156.696C228.802 157.023 229.107 157.378 229.358 157.762C229.608 158.146 229.855 158.489 230.099 158.789C230.344 159.09 230.645 159.28 231.004 159.361C231.488 159.469 231.965 159.375 232.433 159.078C232.901 158.781 233.346 158.384 233.769 157.889L235.011 158.929C234.685 159.323 234.307 159.714 233.876 160.102C233.447 160.481 232.959 160.774 232.413 160.979C231.869 161.177 231.249 161.198 230.554 161.043C230.008 160.921 229.558 160.697 229.204 160.372C228.858 160.049 228.556 159.694 228.298 159.308C228.048 158.924 227.789 158.58 227.522 158.274C227.262 157.97 226.948 157.777 226.581 157.694C226.074 157.581 225.594 157.674 225.142 157.975C224.691 158.267 224.25 158.661 223.82 159.155L222.569 158.149C222.907 157.741 223.287 157.343 223.71 156.954C224.133 156.565 224.617 156.271 225.161 156.073C225.713 155.877 226.337 155.857 227.032 156.012ZM241.075 159.155C241.661 159.286 242.13 159.514 242.484 159.839C242.845 160.166 243.151 160.521 243.401 160.905C243.651 161.289 243.898 161.631 244.143 161.932C244.387 162.232 244.689 162.423 245.048 162.503C245.532 162.611 246.008 162.517 246.476 162.22C246.944 161.923 247.389 161.527 247.812 161.031L249.055 162.072C248.729 162.466 248.35 162.857 247.919 163.244C247.49 163.623 247.002 163.916 246.456 164.122C245.912 164.32 245.292 164.341 244.597 164.185C244.051 164.063 243.601 163.839 243.247 163.514C242.902 163.191 242.6 162.837 242.342 162.451C242.092 162.067 241.833 161.722 241.565 161.416C241.305 161.112 240.992 160.919 240.625 160.837C240.117 160.723 239.637 160.817 239.185 161.117C238.734 161.41 238.294 161.803 237.863 162.297L236.613 161.292C236.95 160.884 237.33 160.485 237.753 160.096C238.176 159.707 238.66 159.414 239.205 159.216C239.757 159.02 240.38 158.999 241.075 159.155ZM254.329 157.362L262.09 164.939L261.639 166.954L251.506 170.527L250.765 168.837L260.175 165.581L253.048 158.637L254.329 157.362ZM290.472 165.45L291.083 167.173L281.681 170.393L288.803 177.361L287.427 178.565L279.772 171.011L280.222 168.997L290.472 165.45ZM297.248 171.725C297.834 171.856 298.303 172.084 298.657 172.409C299.018 172.736 299.324 173.091 299.574 173.475C299.824 173.859 300.072 174.201 300.316 174.502C300.56 174.803 300.862 174.993 301.221 175.073C301.705 175.182 302.181 175.087 302.649 174.79C303.117 174.494 303.563 174.097 303.985 173.601L305.228 174.642C304.902 175.036 304.523 175.427 304.092 175.814C303.663 176.194 303.176 176.486 302.629 176.692C302.085 176.89 301.466 176.911 300.771 176.756C300.224 176.633 299.774 176.41 299.421 176.085C299.075 175.761 298.773 175.407 298.515 175.021C298.265 174.637 298.006 174.292 297.738 173.987C297.478 173.683 297.165 173.489 296.798 173.407C296.291 173.294 295.811 173.387 295.358 173.688C294.907 173.98 294.467 174.374 294.036 174.868L292.786 173.862C293.123 173.454 293.503 173.055 293.927 172.666C294.35 172.277 294.833 171.984 295.378 171.786C295.93 171.59 296.553 171.57 297.248 171.725ZM310.502 169.932L318.263 177.51L317.812 179.524L307.679 183.097L306.938 181.407L316.349 178.151L309.221 171.207L310.502 169.932ZM343.147 174.643C344.107 174.857 344.892 175.214 345.502 175.711C346.12 176.21 346.551 176.777 346.794 177.414C347.038 178.042 347.092 178.665 346.954 179.282C346.786 180.031 346.508 180.613 346.121 181.026C345.735 181.432 345.294 181.751 344.799 181.985C344.314 182.212 343.826 182.435 343.334 182.653C342.844 182.863 342.409 183.143 342.027 183.492C341.654 183.843 341.394 184.342 341.249 184.99L341.069 185.798L339.089 185.355L339.297 184.43C339.466 183.673 339.743 183.075 340.128 182.636C340.521 182.2 340.964 181.852 341.456 181.593C341.949 181.334 342.435 181.103 342.915 180.899C343.397 180.687 343.818 180.437 344.177 180.148C344.537 179.86 344.774 179.458 344.89 178.943C345.038 178.279 344.887 177.709 344.437 177.231C343.988 176.745 343.369 176.414 342.581 176.237C342.027 176.113 341.426 176.123 340.779 176.265C340.134 176.399 339.503 176.713 338.884 177.206L337.71 175.861C338.576 175.21 339.461 174.793 340.363 174.61C341.274 174.42 342.202 174.431 343.147 174.643ZM339.584 188.036C340.037 188.137 340.381 188.374 340.618 188.747C340.854 189.119 340.924 189.52 340.828 189.95C340.73 190.387 340.494 190.728 340.12 190.972C339.747 191.208 339.335 191.276 338.882 191.174C338.445 191.076 338.112 190.842 337.883 190.471C337.656 190.092 337.592 189.685 337.69 189.247C337.786 188.818 338.016 188.484 338.381 188.246C338.746 188.008 339.147 187.938 339.584 188.036ZM351.867 191.903C351.952 191.521 352.119 191.197 352.366 190.933C352.616 190.661 352.913 190.469 353.258 190.358C353.612 190.24 353.984 190.225 354.374 190.313C354.773 190.402 355.107 190.575 355.377 190.832C355.649 191.082 355.84 191.383 355.95 191.735C356.061 192.08 356.074 192.443 355.989 192.826C355.903 193.208 355.735 193.54 355.483 193.819C355.234 194.092 354.932 194.286 354.578 194.404C354.225 194.513 353.85 194.524 353.452 194.435C353.062 194.347 352.73 194.179 352.458 193.929C352.196 193.674 352.01 193.37 351.9 193.018C351.792 192.657 351.781 192.286 351.867 191.903ZM385.277 184.07C386.237 184.285 387.022 184.641 387.632 185.138C388.25 185.637 388.681 186.205 388.924 186.842C389.168 187.47 389.221 188.093 389.083 188.71C388.916 189.459 388.638 190.04 388.25 190.454C387.865 190.859 387.424 191.179 386.929 191.412C386.444 191.64 385.955 191.863 385.464 192.08C384.974 192.291 384.539 192.57 384.157 192.919C383.784 193.27 383.524 193.77 383.379 194.418L383.198 195.226L381.219 194.783L381.426 193.858C381.596 193.1 381.873 192.503 382.258 192.064C382.651 191.627 383.094 191.28 383.586 191.021C384.078 190.762 384.565 190.531 385.045 190.327C385.527 190.115 385.948 189.865 386.307 189.576C386.667 189.288 386.904 188.886 387.02 188.371C387.168 187.707 387.017 187.136 386.567 186.658C386.118 186.173 385.499 185.842 384.711 185.665C384.156 185.541 383.556 185.55 382.909 185.692C382.264 185.827 381.633 186.14 381.014 186.633L379.839 185.288C380.706 184.638 381.591 184.221 382.493 184.038C383.404 183.848 384.332 183.859 385.277 184.07ZM381.714 197.463C382.167 197.565 382.511 197.802 382.748 198.174C382.984 198.547 383.054 198.948 382.958 199.377C382.86 199.815 382.624 200.155 382.25 200.399C381.877 200.636 381.464 200.703 381.012 200.602C380.574 200.504 380.242 200.27 380.013 199.899C379.786 199.52 379.722 199.112 379.82 198.675C379.916 198.246 380.146 197.912 380.511 197.674C380.876 197.436 381.277 197.366 381.714 197.463ZM399.32 187.213C400.28 187.428 401.065 187.784 401.676 188.281C402.294 188.78 402.724 189.348 402.967 189.984C403.211 190.613 403.265 191.235 403.127 191.852C402.959 192.602 402.681 193.183 402.294 193.596C401.908 194.002 401.467 194.321 400.973 194.555C400.487 194.782 399.999 195.005 399.507 195.223C399.018 195.433 398.582 195.713 398.201 196.062C397.827 196.413 397.568 196.912 397.423 197.56L397.242 198.368L395.263 197.925L395.47 197C395.639 196.243 395.916 195.645 396.301 195.207C396.694 194.77 397.137 194.422 397.629 194.163C398.122 193.905 398.608 193.673 399.088 193.469C399.57 193.257 399.991 193.007 400.35 192.719C400.71 192.43 400.948 192.028 401.063 191.513C401.211 190.85 401.06 190.279 400.61 189.801C400.161 189.315 399.543 188.984 398.754 188.808C398.2 188.684 397.599 188.693 396.953 188.835C396.308 188.969 395.676 189.283 395.057 189.776L393.883 188.431C394.75 187.78 395.634 187.364 396.536 187.18C397.447 186.991 398.375 187.001 399.32 187.213ZM395.757 200.606C396.21 200.707 396.555 200.944 396.791 201.317C397.027 201.69 397.097 202.091 397.001 202.52C396.903 202.957 396.667 203.298 396.293 203.542C395.92 203.778 395.508 203.846 395.055 203.744C394.618 203.647 394.285 203.412 394.056 203.041C393.83 202.663 393.765 202.255 393.863 201.818C393.959 201.388 394.189 201.055 394.554 200.816C394.919 200.578 395.32 200.508 395.757 200.606ZM422.083 207.616C422.169 207.234 422.335 206.91 422.583 206.646C422.832 206.374 423.129 206.182 423.474 206.071C423.828 205.953 424.201 205.938 424.591 206.025C424.989 206.115 425.323 206.288 425.594 206.545C425.866 206.794 426.057 207.095 426.166 207.448C426.278 207.792 426.291 208.156 426.205 208.539C426.119 208.921 425.951 209.252 425.7 209.532C425.45 209.804 425.149 209.999 424.794 210.117C424.442 210.226 424.067 210.237 423.669 210.147C423.278 210.06 422.947 209.892 422.675 209.642C422.412 209.387 422.226 209.083 422.117 208.73C422.009 208.37 421.997 207.999 422.083 207.616ZM436.126 210.759C436.212 210.376 436.379 210.053 436.626 209.788C436.876 209.516 437.173 209.325 437.517 209.213C437.872 209.096 438.244 209.081 438.634 209.168C439.032 209.257 439.367 209.43 439.637 209.688C439.909 209.937 440.1 210.238 440.21 210.59C440.321 210.935 440.334 211.299 440.248 211.681C440.163 212.064 439.994 212.395 439.743 212.675C439.494 212.947 439.192 213.142 438.838 213.259C438.485 213.369 438.11 213.379 437.712 213.29C437.321 213.203 436.99 213.034 436.718 212.785C436.456 212.529 436.27 212.225 436.16 211.873C436.052 211.513 436.041 211.141 436.126 210.759ZM464.213 217.044C464.299 216.661 464.465 216.338 464.713 216.074C464.962 215.802 465.259 215.61 465.604 215.498C465.958 215.381 466.33 215.366 466.721 215.453C467.119 215.542 467.453 215.715 467.724 215.973C467.996 216.222 468.187 216.523 468.296 216.875C468.408 217.22 468.421 217.584 468.335 217.966C468.249 218.349 468.081 218.68 467.83 218.96C467.58 219.232 467.279 219.427 466.924 219.544C466.572 219.654 466.197 219.664 465.798 219.575C465.408 219.488 465.077 219.319 464.805 219.07C464.542 218.815 464.356 218.511 464.246 218.158C464.139 217.798 464.127 217.426 464.213 217.044ZM478.256 220.186C478.342 219.804 478.508 219.48 478.756 219.216C479.006 218.944 479.303 218.752 479.647 218.641C480.002 218.523 480.374 218.508 480.764 218.596C481.162 218.685 481.497 218.858 481.767 219.115C482.039 219.365 482.23 219.666 482.34 220.018C482.451 220.363 482.464 220.726 482.378 221.109C482.293 221.491 482.124 221.823 481.873 222.103C481.624 222.375 481.322 222.569 480.968 222.687C480.615 222.797 480.24 222.807 479.842 222.718C479.451 222.63 479.12 222.462 478.848 222.213C478.586 221.957 478.399 221.653 478.29 221.301C478.182 220.94 478.171 220.569 478.256 220.186ZM492.3 223.329C492.385 222.946 492.552 222.623 492.799 222.359C493.049 222.087 493.346 221.895 493.691 221.783C494.045 221.666 494.417 221.651 494.807 221.738C495.206 221.827 495.54 222.001 495.81 222.258C496.082 222.507 496.273 222.808 496.383 223.161C496.494 223.505 496.507 223.869 496.422 224.251C496.336 224.634 496.168 224.965 495.916 225.245C495.667 225.517 495.365 225.712 495.011 225.829C494.658 225.939 494.283 225.949 493.885 225.86C493.495 225.773 493.163 225.605 492.891 225.355C492.629 225.1 492.443 224.796 492.333 224.443C492.225 224.083 492.214 223.712 492.3 223.329ZM529.209 218.873L529.819 220.596L520.417 223.817L527.539 230.784L526.163 231.989L518.508 224.435L518.959 222.421L529.209 218.873ZM542.971 225.691L542.591 227.389L533.48 225.351L533.86 223.653L542.971 225.691ZM541.977 230.13L541.595 231.839L532.484 229.801L532.867 228.091L541.977 230.13ZM557.014 228.834L556.634 230.532L547.523 228.493L547.903 226.795L557.014 228.834ZM556.021 233.272L555.638 234.982L546.527 232.943L546.91 231.233L556.021 233.272ZM563.282 226.498L571.042 234.076L570.592 236.09L560.459 239.664L559.718 237.973L569.128 234.717L562 227.773L563.282 226.498ZM599.425 234.586L600.036 236.309L590.633 239.53L597.756 246.497L596.379 247.702L588.724 240.148L589.175 238.134L599.425 234.586ZM613.187 241.404L612.807 243.102L603.696 241.063L604.076 239.365L613.187 241.404ZM612.194 245.842L611.811 247.552L602.701 245.513L603.083 243.804L612.194 245.842ZM633.498 242.211L641.259 249.789L640.808 251.803L630.675 255.376L629.934 253.686L639.345 250.43L632.217 243.486L633.498 242.211ZM655.317 250.832L654.937 252.53L645.826 250.491L646.206 248.793L655.317 250.832ZM654.324 255.27L653.941 256.98L644.83 254.941L645.213 253.231L654.324 255.27Z" fill="white"/>
<path d="M706.838 189.854L706.073 193.274C706.691 193.478 707.316 193.745 707.947 194.075C708.578 194.404 709.183 194.777 709.763 195.194C710.343 195.603 710.861 196.038 711.315 196.5L710.851 198.573C710.049 197.762 709.33 197.11 708.694 196.615C708.069 196.114 707.513 195.723 707.026 195.442C706.54 195.161 706.107 194.954 705.727 194.82L704.49 200.347C705.04 200.675 705.578 201.054 706.105 201.483C706.632 201.912 707.098 202.394 707.503 202.927C707.909 203.461 708.2 204.046 708.377 204.684C708.555 205.315 708.564 205.989 708.404 206.707C708.238 207.449 707.956 208.103 707.558 208.67C707.171 209.231 706.693 209.698 706.126 210.071C705.561 210.436 704.936 210.698 704.253 210.857C703.57 211.016 702.854 211.064 702.105 211.003L701.589 213.31L700.008 212.957L700.509 210.72C699.832 210.593 699.233 210.43 698.712 210.232C698.189 210.041 697.667 209.772 697.146 209.426C696.625 209.08 696.02 208.617 695.33 208.036L695.801 205.928C696.6 206.681 697.283 207.256 697.85 207.653C698.425 208.052 698.95 208.342 699.426 208.522C699.904 208.695 700.4 208.826 700.912 208.916L702.579 201.469C701.314 200.71 700.386 199.892 699.796 199.014C699.215 198.129 699.046 197.145 699.289 196.06C699.43 195.427 699.723 194.853 700.166 194.338C700.617 193.824 701.205 193.431 701.93 193.158C702.657 192.878 703.511 192.799 704.492 192.92L705.257 189.501L706.838 189.854ZM704.037 202.373L702.517 209.165C703.064 209.173 703.589 209.097 704.092 208.939C704.602 208.783 705.048 208.494 705.43 208.071C705.813 207.64 706.092 207.034 706.267 206.254C706.409 205.621 706.274 204.96 705.863 204.269C705.453 203.571 704.845 202.939 704.037 202.373ZM704.133 194.524C703.468 194.49 702.88 194.646 702.369 194.99C701.865 195.337 701.539 195.838 701.393 196.494C701.27 197.04 701.315 197.538 701.526 197.987C701.745 198.437 702.244 198.934 703.024 199.478L704.133 194.524ZM697.445 194.024L696.575 196.264L688.679 198.961L695.801 205.928L695.33 208.036L686.77 199.579L687.221 197.565L697.445 194.024ZM751.301 199.804L750.536 203.224C751.154 203.428 751.779 203.694 752.41 204.024C753.041 204.354 753.646 204.727 754.225 205.144C754.806 205.552 755.324 205.988 755.778 206.45L755.314 208.523C754.511 207.712 753.796 207.06 753.169 206.567C752.535 206.065 751.975 205.673 751.489 205.392C751.003 205.111 750.57 204.904 750.19 204.769L748.953 210.297C749.502 210.625 750.041 211.003 750.568 211.433C751.095 211.862 751.561 212.344 751.966 212.877C752.371 213.41 752.662 213.996 752.839 214.634C753.018 215.264 753.027 215.939 752.866 216.657C752.7 217.398 752.423 218.054 752.033 218.622C751.637 219.181 751.156 219.647 750.589 220.021C750.023 220.386 749.399 220.648 748.716 220.807C748.033 220.965 747.317 221.014 746.568 220.953L746.052 223.26L744.471 222.906L744.972 220.67C744.295 220.543 743.696 220.38 743.175 220.181C742.652 219.991 742.13 219.722 741.609 219.376C741.088 219.03 740.482 218.567 739.793 217.986L740.264 215.878C741.063 216.631 741.75 217.207 742.325 217.606C742.892 218.003 743.413 218.292 743.889 218.472C744.367 218.645 744.862 218.776 745.375 218.866L747.042 211.418C745.777 210.66 744.853 209.842 744.27 208.966C743.682 208.08 743.509 207.095 743.752 206.009C743.893 205.377 744.189 204.804 744.64 204.29C745.084 203.774 745.672 203.381 746.405 203.111C747.131 202.831 747.981 202.75 748.955 202.87L749.72 199.45L751.301 199.804ZM748.499 212.323L746.98 219.115C747.527 219.122 748.056 219.048 748.567 218.892C749.069 218.734 749.511 218.443 749.893 218.02C750.276 217.59 750.555 216.984 750.73 216.203C750.871 215.571 750.737 214.91 750.325 214.219C749.916 213.521 749.307 212.889 748.499 212.323ZM748.596 204.474C747.931 204.44 747.347 204.596 746.843 204.943C746.331 205.287 746.002 205.788 745.856 206.443C745.733 206.99 745.782 207.488 746 207.939C746.211 208.388 746.707 208.884 747.487 209.428L748.596 204.474ZM741.908 203.974L741.037 206.214L733.142 208.911L740.264 215.878L739.793 217.986L731.233 209.529L731.684 207.514L741.908 203.974ZM755.778 206.45L764.356 214.826L763.905 216.84L754.004 220.367L755.088 217.941L762.441 215.467L755.314 208.523L755.778 206.45ZM795.773 209.756L795.008 213.175C795.626 213.379 796.251 213.646 796.882 213.976C797.513 214.306 798.118 214.679 798.697 215.095C799.278 215.504 799.795 215.94 800.249 216.402L799.786 218.475C798.983 217.664 798.268 217.012 797.641 216.519C797.007 216.017 796.447 215.625 795.961 215.344C795.475 215.063 795.042 214.855 794.662 214.721L793.425 220.248C793.974 220.576 794.513 220.955 795.04 221.385C795.567 221.814 796.033 222.295 796.438 222.829C796.843 223.362 797.134 223.948 797.311 224.586C797.49 225.216 797.499 225.89 797.338 226.609C797.172 227.35 796.891 228.005 796.493 228.571C796.105 229.132 795.628 229.599 795.061 229.972C794.495 230.338 793.871 230.6 793.188 230.758C792.505 230.917 791.789 230.966 791.04 230.905L790.524 233.212L788.943 232.858L789.444 230.621C788.767 230.495 788.168 230.332 787.647 230.133C787.124 229.942 786.602 229.674 786.081 229.328C785.56 228.982 784.954 228.518 784.265 227.938L784.736 225.83C785.535 226.582 786.222 227.158 786.797 227.557C787.364 227.955 787.885 228.244 788.361 228.424C788.839 228.597 789.334 228.728 789.847 228.818L791.514 221.37C790.249 220.612 789.325 219.794 788.742 218.918C788.154 218.032 787.981 217.046 788.224 215.961C788.365 215.329 788.661 214.756 789.112 214.242C789.556 213.726 790.144 213.333 790.877 213.063C791.603 212.782 792.453 212.702 793.427 212.822L794.192 209.402L795.773 209.756ZM792.971 222.274L791.452 229.066C791.999 229.074 792.528 229 793.039 228.844C793.541 228.686 793.983 228.395 794.365 227.972C794.748 227.541 795.027 226.936 795.202 226.155C795.343 225.523 795.209 224.861 794.797 224.171C794.388 223.473 793.779 222.84 792.971 222.274ZM793.068 214.426C792.403 214.392 791.819 214.548 791.315 214.895C790.803 215.239 790.474 215.739 790.328 216.395C790.205 216.942 790.254 217.44 790.472 217.891C790.683 218.34 791.179 218.836 791.959 219.379L793.068 214.426ZM800.249 216.402L808.828 224.777L808.377 226.792L798.476 230.319L799.56 227.893L806.913 225.419L799.786 218.475L800.249 216.402ZM839.452 225.175L838.983 227.271L829.581 230.491L836.703 237.459L836.231 239.567L827.671 231.109L828.122 229.095L839.452 225.175ZM846.94 227.428L845.633 233.272L851.406 234.564L851.036 236.215L845.263 234.923L843.963 240.731L842.125 240.32L843.425 234.511L837.71 233.233L838.08 231.582L843.794 232.86L845.102 227.017L846.94 227.428ZM882.744 234.862L882.275 236.958L872.872 240.179L879.995 247.146L879.523 249.254L870.963 240.797L871.414 238.783L882.744 234.862ZM896.211 237.876L904.789 246.251L904.338 248.265L892.99 252.268L893.464 250.148L902.874 246.893L895.747 239.949L896.211 237.876ZM890.232 237.116L888.925 242.959L894.698 244.251L894.328 245.903L888.555 244.611L887.255 250.419L885.417 250.008L886.717 244.199L881.002 242.92L881.371 241.269L887.086 242.548L888.394 236.705L890.232 237.116ZM937.755 247.173L937.286 249.269L927.884 252.489L935.006 259.457L934.534 261.565L925.975 253.107L926.425 251.093L937.755 247.173ZM943.521 248.168L945.605 248.634L944.011 254.659L950.21 253.882L950.362 256.007L944.204 256.326L947.042 261.83L945.022 262.78L942.714 256.939L938.496 261.172L937 259.559L941.604 255.744L936.029 252.799L937.174 250.977L942.422 254.341L943.521 248.168ZM981.047 256.86L980.578 258.956L971.175 262.177L978.298 269.144L977.826 271.252L969.266 262.795L969.717 260.781L981.047 256.86ZM994.514 259.874L1003.09 268.249L1002.64 270.263L991.293 274.266L991.767 272.146L1001.18 268.891L994.05 261.947L994.514 259.874ZM986.813 257.855L988.897 258.322L987.303 264.347L993.502 263.57L993.654 265.694L987.496 266.013L990.334 271.518L988.314 272.468L986.006 266.627L981.787 270.86L980.292 269.246L984.896 265.432L979.32 262.487L980.466 260.665L985.714 264.028L986.813 257.855ZM1037.05 268.814L1046.39 277.939L1045.94 279.953L1033.58 284.295L1024.28 275.105L1024.73 273.091L1037.05 268.814ZM1034.05 282.199L1044.48 278.58L1036.58 270.91L1026.19 274.487L1034.05 282.199ZM1082.61 279.06L1082.15 281.144L1071.82 284.699L1079.64 292.339L1079.17 294.435L1069.91 285.317L1070.36 283.303L1082.61 279.06ZM1089.73 280.653L1099.05 289.723L1098.6 291.737L1086.28 296.064L1086.76 293.932L1097.14 290.364L1089.27 282.726L1089.73 280.653ZM1087.5 278.111L1083.17 297.434L1081.42 297.04L1085.74 277.718L1087.5 278.111ZM1130.45 296.049L1129.35 299.06L1131.25 299.485L1130.91 300.995L1128.79 300.521L1127.26 304.804L1125.58 304.426L1127.13 300.149L1123.73 299.389L1122.18 303.666L1120.5 303.289L1122.05 299.014L1120.19 298.598L1120.53 297.087L1122.59 297.548L1123.71 294.539L1121.81 294.115L1122.15 292.581L1124.25 293.05L1126.26 287.646L1127.95 288.023L1125.9 293.419L1129.33 294.187L1131.34 288.783L1133.03 289.161L1130.98 294.557L1132.86 294.976L1132.51 296.51L1130.45 296.049ZM1124.27 297.923L1127.67 298.686L1128.79 295.677L1125.37 294.911L1124.27 297.923ZM1145.64 298.094L1145.3 299.616L1134.49 297.198L1134.83 295.675L1145.64 298.094ZM1144.12 302.12L1143.78 303.631L1132.99 301.215L1133.32 299.704L1144.12 302.12ZM1183.46 310.604L1182.43 315.242L1180.59 314.83L1181.63 310.193L1171.75 307.984L1170.72 312.621L1168.88 312.21L1169.92 307.573L1165.37 306.556L1165.74 304.905L1170.29 305.921L1171.33 301.249L1173.17 301.66L1172.12 306.333L1182 308.542L1183.04 303.869L1184.88 304.281L1183.83 308.953L1193.71 311.162L1194.75 306.49L1196.59 306.901L1195.54 311.574L1200.15 312.604L1199.78 314.255L1195.17 313.225L1194.14 317.862L1192.3 317.451L1193.34 312.814L1183.46 310.604ZM1240.13 312.143L1242.12 312.589L1240.9 317.297L1245.71 316.712L1245.89 318.696L1241.06 319.017L1243.11 323.412L1241.29 324.208L1239.48 319.697L1235.92 323.008L1234.61 321.509L1238.34 318.409L1234.11 316.06L1235.12 314.343L1239.22 316.92L1240.13 312.143ZM1227.63 313.036L1229.62 313.481L1228.41 318.19L1233.21 317.605L1233.39 319.589L1228.56 319.91L1230.62 324.304L1228.79 325.101L1226.98 320.589L1223.43 323.9L1222.12 322.402L1225.85 319.302L1221.61 316.952L1222.62 315.236L1226.72 317.813L1227.63 313.036ZM1251.05 318.277L1253.04 318.722L1251.83 323.431L1256.63 322.846L1256.81 324.83L1251.98 325.151L1254.04 329.545L1252.21 330.342L1250.41 325.83L1246.85 329.141L1245.54 327.643L1249.27 324.543L1245.03 322.194L1246.05 320.477L1250.14 323.054L1251.05 318.277ZM1278.2 335.433C1278.32 334.925 1278.6 334.524 1279.04 334.23C1279.49 333.937 1279.98 333.85 1280.51 333.969C1281.06 334.092 1281.47 334.38 1281.74 334.835C1282.03 335.292 1282.11 335.774 1282 336.282C1281.88 336.813 1281.6 337.224 1281.14 337.517C1280.7 337.804 1280.21 337.886 1279.66 337.763C1279.13 337.645 1278.72 337.361 1278.44 336.912C1278.16 336.457 1278.09 335.964 1278.2 335.433ZM1280.09 326.99C1280.17 326.63 1280.33 326.329 1280.56 326.084C1280.78 325.84 1281.06 325.668 1281.38 325.569C1281.71 325.462 1282.05 325.447 1282.4 325.526C1282.95 325.648 1283.36 325.933 1283.64 326.38C1283.92 326.829 1284.01 327.316 1283.89 327.839C1283.77 328.354 1283.49 328.762 1283.04 329.062C1282.59 329.356 1282.1 329.443 1281.55 329.32C1281.02 329.201 1280.61 328.914 1280.33 328.457C1280.06 327.994 1279.98 327.505 1280.09 326.99ZM1291.13 326.754L1300.99 334.937L1300.55 336.928L1288.14 340.127L1288.57 338.218L1298.91 335.516L1290.7 328.674L1291.13 326.754ZM1306.29 341.718C1306.41 341.21 1306.68 340.809 1307.13 340.515C1307.58 340.222 1308.07 340.136 1308.6 340.254C1309.15 340.377 1309.56 340.665 1309.83 341.12C1310.11 341.577 1310.2 342.059 1310.09 342.567C1309.97 343.098 1309.68 343.51 1309.23 343.802C1308.79 344.089 1308.3 344.171 1307.75 344.049C1307.22 343.93 1306.81 343.646 1306.53 343.197C1306.25 342.742 1306.17 342.249 1306.29 341.718ZM1308.18 333.275C1308.26 332.916 1308.41 332.614 1308.64 332.369C1308.87 332.125 1309.14 331.953 1309.47 331.854C1309.8 331.747 1310.14 331.733 1310.49 331.811C1311.03 331.933 1311.45 332.218 1311.72 332.666C1312.01 333.115 1312.09 333.601 1311.98 334.124C1311.86 334.639 1311.58 335.047 1311.12 335.347C1310.68 335.642 1310.19 335.728 1309.64 335.605C1309.11 335.487 1308.7 335.199 1308.42 334.742C1308.14 334.279 1308.07 333.79 1308.18 333.275Z" fill="white"/>
<path d="M685.331 375.925L687.111 376.323L682.91 395.095L681.13 394.697L685.331 375.925ZM674.557 373.514L676.337 373.912L672.137 392.684L670.357 392.286L674.557 373.514ZM664.252 371.208L666.032 371.606L661.832 390.378L660.052 389.98L648.425 378.524L648.875 376.51L664.252 371.208ZM660.526 387.86L663.788 373.281L650.334 377.906L660.526 387.86ZM742.652 388.752L744.432 389.15L740.231 407.922L738.451 407.524L742.652 388.752ZM733.307 386.661L735.087 387.059L730.886 405.831L729.106 405.433L717.479 393.977L717.93 391.963L733.307 386.661ZM729.58 403.313L732.843 388.734L719.388 393.359L729.58 403.313ZM788.318 398.971L790.098 399.369L785.897 418.141L784.118 417.743L772.491 406.287L772.941 404.273L788.318 398.971ZM784.592 415.623L787.854 401.044L774.4 405.669L784.592 415.623ZM824.662 408.813L834.007 417.938L833.556 419.952L821.198 424.294L811.892 415.104L812.343 413.09L824.662 408.813ZM821.667 422.198L832.093 418.58L824.193 410.909L813.801 414.486L821.667 422.198ZM861.734 415.4L873.385 426.75L872.934 428.764L857.534 434.172L855.754 433.773L859.954 415.002L861.734 415.4ZM858.008 432.052L871.471 427.391L861.27 417.473L858.008 432.052ZM907.391 425.617L903.191 444.389L901.411 443.99L905.612 425.219L907.391 425.617ZM916.736 427.708L928.387 439.058L927.936 441.072L912.536 446.48L910.756 446.081L914.956 427.31L916.736 427.708ZM913.01 444.36L926.473 439.7L916.273 429.781L913.01 444.36ZM964.703 438.442L960.503 457.214L958.723 456.815L962.923 438.044L964.703 438.442ZM975.477 440.853L971.276 459.624L969.496 459.226L973.697 440.454L975.477 440.853ZM985.782 443.159L997.432 454.509L996.982 456.523L981.581 461.931L979.801 461.532L984.002 442.76L985.782 443.159ZM982.055 459.811L995.518 455.15L985.318 445.232L982.055 459.811ZM1009.99 459.298L1010.38 457.565L1019.98 459.714L1019.59 461.447L1009.99 459.298ZM1016.33 452.32L1017.51 453.886L1013.35 456.816C1012.95 457.088 1012.63 457.296 1012.4 457.439C1012.16 457.583 1011.88 457.712 1011.55 457.827L1011.16 459.56C1011.41 459.805 1011.61 460.042 1011.76 460.273C1011.92 460.504 1012.11 460.827 1012.36 461.243L1014.87 465.666L1013.14 466.583L1008.37 458.026L1016.33 452.32ZM1019.11 461.34L1019.5 459.607L1034.02 462.857L1033.63 464.59L1019.11 461.34ZM1044.53 467.027L1033.16 464.483L1033.54 462.75L1044.92 465.294L1044.53 467.027ZM1066.07 481.476L1070.95 459.671L1081.66 462.069L1081.28 463.767L1072.43 461.786L1068.3 480.218L1077.16 482.199L1076.78 483.874L1066.07 481.476ZM1085.19 462.858L1080.31 484.663L1078.55 484.27L1083.43 462.465L1085.19 462.858ZM1123.72 470.94C1124.59 471.135 1125.33 471.398 1125.92 471.726C1126.51 472.048 1126.92 472.499 1127.14 473.082C1127.37 473.666 1127.38 474.443 1127.17 475.413L1126.15 480.067C1126.06 480.466 1126.02 480.829 1126.03 481.159C1126.04 481.481 1126.15 481.771 1126.34 482.028C1126.54 482.285 1126.86 482.521 1127.3 482.735C1127.75 482.951 1128.37 483.147 1129.16 483.323L1128.81 484.892C1128.02 484.716 1127.38 484.629 1126.88 484.632C1126.38 484.635 1125.98 484.714 1125.69 484.871C1125.41 485.029 1125.2 485.256 1125.05 485.551C1124.9 485.838 1124.79 486.18 1124.7 486.578L1123.69 491.075C1123.48 492.035 1123.14 492.742 1122.67 493.196C1122.21 493.651 1121.64 493.907 1120.95 493.967C1120.27 494.035 1119.48 493.971 1118.61 493.775L1112.13 492.326L1112.48 490.792L1118.95 492.241C1119.8 492.431 1120.45 492.441 1120.9 492.271C1121.35 492.101 1121.65 491.653 1121.82 490.927L1122.91 486.055C1123.06 485.36 1123.25 484.817 1123.48 484.425C1123.72 484.027 1124.02 483.751 1124.39 483.596C1124.76 483.433 1125.23 483.366 1125.8 483.395C1125.03 483.067 1124.53 482.623 1124.3 482.064C1124.09 481.499 1124.09 480.729 1124.32 479.755L1125.43 474.839C1125.59 474.121 1125.5 473.592 1125.16 473.253C1124.82 472.916 1124.23 472.652 1123.38 472.462L1116.9 471.013L1117.24 469.491L1123.72 470.94ZM1113.74 468.707L1115.51 469.103L1110.4 491.938L1108.63 491.542L1113.74 468.707ZM1149.84 491.467L1148.6 490.426C1148.92 490.032 1149.3 489.645 1149.73 489.266C1150.16 488.879 1150.65 488.586 1151.19 488.388C1151.74 488.182 1152.36 488.157 1153.05 488.313C1153.6 488.435 1154.05 488.659 1154.4 488.984C1154.75 489.307 1155.05 489.662 1155.31 490.047C1155.56 490.431 1155.82 490.776 1156.09 491.082C1156.35 491.386 1156.66 491.579 1157.03 491.661C1157.39 491.743 1157.72 491.754 1157.99 491.693C1158.27 491.624 1158.54 491.536 1158.8 491.431C1159.06 491.316 1159.34 491.232 1159.66 491.18C1159.97 491.119 1160.35 491.138 1160.79 491.236L1171.3 493.589L1170.92 495.299L1160.77 493.027C1160.3 492.932 1159.91 492.914 1159.6 492.974C1159.28 493.025 1158.98 493.101 1158.7 493.203C1158.42 493.305 1158.12 493.382 1157.8 493.432C1157.47 493.481 1157.06 493.452 1156.58 493.343C1155.99 493.212 1155.52 492.984 1155.17 492.659C1154.81 492.333 1154.5 491.977 1154.25 491.593C1154 491.209 1153.75 490.867 1153.51 490.567C1153.26 490.266 1152.96 490.075 1152.6 489.995C1152.12 489.887 1151.64 489.981 1151.18 490.278C1150.71 490.575 1150.26 490.971 1149.84 491.467ZM1211.56 501.712L1212.8 502.753C1212.48 503.147 1212.1 503.538 1211.67 503.925C1211.24 504.305 1210.75 504.597 1210.2 504.803C1209.66 505.001 1209.04 505.022 1208.35 504.867C1207.8 504.744 1207.35 504.521 1207 504.196C1206.65 503.872 1206.35 503.518 1206.09 503.132C1205.84 502.748 1205.58 502.403 1205.31 502.098C1205.05 501.793 1204.74 501.6 1204.37 501.518C1204.01 501.436 1203.64 501.477 1203.28 501.642C1202.91 501.806 1202.53 502.008 1202.14 502.249C1201.76 502.491 1201.35 502.686 1200.91 502.833C1200.46 502.978 1199.95 502.989 1199.4 502.865C1198.85 502.742 1198.41 502.519 1198.06 502.196C1197.71 501.871 1197.4 501.517 1197.15 501.133C1196.9 500.747 1196.64 500.402 1196.38 500.098C1196.11 499.792 1195.79 499.598 1195.43 499.516C1194.92 499.403 1194.44 499.496 1193.99 499.797C1193.54 500.089 1193.09 500.482 1192.66 500.976L1191.41 499.971C1191.75 499.563 1192.13 499.164 1192.55 498.775C1192.98 498.386 1193.47 498.094 1194.02 497.898C1194.56 497.7 1195.18 497.678 1195.88 497.834C1196.46 497.965 1196.94 498.194 1197.3 498.521C1197.65 498.846 1197.95 499.2 1198.2 499.584C1198.45 499.968 1198.7 500.31 1198.94 500.611C1199.19 500.911 1199.49 501.102 1199.85 501.182C1200.21 501.263 1200.56 501.219 1200.91 501.051C1201.25 500.882 1201.61 500.676 1202 500.433C1202.37 500.189 1202.79 499.995 1203.25 499.852C1203.7 499.709 1204.23 499.703 1204.82 499.836C1205.41 499.967 1205.88 500.195 1206.23 500.52C1206.59 500.847 1206.9 501.202 1207.15 501.586C1207.4 501.97 1207.65 502.312 1207.89 502.613C1208.13 502.914 1208.44 503.104 1208.8 503.184C1209.28 503.293 1209.76 503.198 1210.22 502.901C1210.69 502.604 1211.14 502.208 1211.56 501.712ZM1244.71 501.223L1245.79 502.326L1231.07 516.051L1230.03 514.956L1244.71 501.223ZM1240.74 511.439C1240.28 511.335 1239.84 511.435 1239.44 511.739C1239.04 512.034 1238.74 512.591 1238.56 513.411C1238.39 514.168 1238.42 514.793 1238.63 515.284C1238.85 515.776 1239.2 516.075 1239.67 516.181C1240.14 516.286 1240.58 516.182 1240.97 515.869C1241.36 515.555 1241.65 514.98 1241.84 514.145C1242.03 513.302 1242.01 512.667 1241.79 512.239C1241.55 511.81 1241.2 511.543 1240.74 511.439ZM1236.42 501.03C1235.96 500.927 1235.53 501.031 1235.13 501.342C1234.72 501.653 1234.43 502.206 1234.25 503.002C1234.08 503.768 1234.1 504.396 1234.32 504.887C1234.54 505.371 1234.89 505.666 1235.36 505.773C1235.83 505.877 1236.27 505.773 1236.66 505.461C1237.05 505.146 1237.34 504.572 1237.53 503.736C1237.72 502.893 1237.7 502.258 1237.48 501.831C1237.24 501.402 1236.89 501.135 1236.42 501.03ZM1236.74 499.625C1237.47 499.789 1238.06 500.1 1238.49 500.557C1238.92 501.014 1239.2 501.558 1239.35 502.189C1239.49 502.818 1239.48 503.468 1239.33 504.14C1239.19 504.796 1238.91 505.383 1238.52 505.901C1238.12 506.417 1237.62 506.799 1237.03 507.044C1236.45 507.282 1235.79 507.319 1235.05 507.154C1234.33 506.992 1233.75 506.677 1233.31 506.211C1232.88 505.736 1232.59 505.18 1232.44 504.541C1232.3 503.902 1232.3 503.255 1232.45 502.599C1232.6 501.92 1232.87 501.33 1233.27 500.829C1233.67 500.32 1234.17 499.951 1234.76 499.723C1235.35 499.495 1236.01 499.462 1236.74 499.625ZM1241.05 510.022C1241.79 510.186 1242.37 510.5 1242.8 510.965C1243.23 511.422 1243.52 511.966 1243.66 512.597C1243.8 513.227 1243.79 513.877 1243.64 514.548C1243.49 515.212 1243.22 515.803 1242.83 516.321C1242.43 516.83 1241.93 517.207 1241.35 517.453C1240.76 517.691 1240.1 517.727 1239.37 517.563C1238.64 517.401 1238.06 517.086 1237.62 516.619C1237.19 516.145 1236.9 515.592 1236.75 514.961C1236.61 514.322 1236.61 513.671 1236.76 513.008C1236.91 512.328 1237.19 511.734 1237.59 511.226C1237.99 510.717 1238.48 510.348 1239.08 510.12C1239.67 509.892 1240.33 509.859 1241.05 510.022ZM1257.47 504.079L1258.55 505.182L1243.84 518.908L1242.79 517.813L1257.47 504.079ZM1253.5 514.295C1253.04 514.192 1252.61 514.292 1252.2 514.595C1251.8 514.89 1251.51 515.448 1251.32 516.267C1251.16 517.025 1251.18 517.649 1251.4 518.141C1251.62 518.632 1251.96 518.931 1252.44 519.038C1252.91 519.142 1253.34 519.038 1253.73 518.723C1254.12 518.411 1254.42 517.837 1254.6 517.001C1254.79 516.158 1254.77 515.522 1254.54 515.093C1254.31 514.666 1253.97 514.4 1253.5 514.295ZM1249.19 503.886C1248.73 503.783 1248.3 503.887 1247.89 504.198C1247.48 504.509 1247.19 505.063 1247.01 505.859C1246.84 506.624 1246.87 507.252 1247.08 507.744C1247.3 508.227 1247.65 508.522 1248.13 508.629C1248.6 508.734 1249.03 508.629 1249.42 508.315C1249.81 508.002 1250.11 507.428 1250.29 506.593C1250.48 505.749 1250.46 505.113 1250.23 504.684C1250 504.257 1249.66 503.991 1249.19 503.886ZM1249.5 502.481C1250.24 502.645 1250.82 502.956 1251.25 503.413C1251.68 503.87 1251.97 504.413 1252.1 505.042C1252.25 505.674 1252.25 506.325 1252.1 506.996C1251.95 507.652 1251.67 508.238 1251.27 508.755C1250.88 509.273 1250.39 509.655 1249.8 509.9C1249.21 510.138 1248.55 510.175 1247.82 510.011C1247.09 509.848 1246.51 509.534 1246.07 509.067C1245.64 508.593 1245.35 508.036 1245.21 507.397C1245.06 506.758 1245.06 506.111 1245.21 505.455C1245.36 504.776 1245.64 504.186 1246.04 503.685C1246.44 503.176 1246.93 502.808 1247.53 502.58C1248.12 502.351 1248.78 502.319 1249.5 502.481ZM1253.82 512.878C1254.55 513.042 1255.13 513.357 1255.56 513.822C1255.99 514.279 1256.28 514.822 1256.41 515.451C1256.56 516.082 1256.56 516.733 1256.41 517.405C1256.26 518.068 1255.98 518.658 1255.58 519.175C1255.19 519.686 1254.7 520.064 1254.11 520.309C1253.52 520.547 1252.86 520.584 1252.13 520.419C1251.4 520.257 1250.82 519.942 1250.39 519.476C1249.95 519.001 1249.66 518.449 1249.51 517.818C1249.37 517.179 1249.37 516.528 1249.52 515.864C1249.67 515.185 1249.95 514.591 1250.35 514.082C1250.75 513.573 1251.25 513.205 1251.84 512.977C1252.43 512.748 1253.09 512.715 1253.82 512.878Z" fill="white"/>
<path d="M656.865 321.409C656.978 320.901 657.256 320.501 657.699 320.206C658.15 319.914 658.641 319.827 659.172 319.945C659.718 320.068 660.129 320.356 660.405 320.811C660.688 321.268 660.772 321.75 660.659 322.258C660.54 322.789 660.255 323.201 659.804 323.493C659.363 323.78 658.869 323.862 658.323 323.74C657.792 323.621 657.384 323.337 657.099 322.888C656.824 322.433 656.746 321.94 656.865 321.409ZM658.754 312.966C658.834 312.607 658.988 312.305 659.215 312.06C659.442 311.816 659.718 311.644 660.043 311.545C660.371 311.438 660.71 311.424 661.061 311.502C661.608 311.625 662.02 311.909 662.297 312.357C662.581 312.806 662.665 313.292 662.548 313.815C662.433 314.33 662.149 314.738 661.696 315.038C661.253 315.333 660.759 315.419 660.212 315.296C659.681 315.178 659.274 314.89 658.991 314.433C658.718 313.97 658.639 313.481 658.754 312.966ZM669.79 312.73L679.653 320.913L679.208 322.904L666.798 326.103L667.225 324.195L677.569 321.492L669.361 314.651L669.79 312.73ZM698.995 330.837C699.108 330.329 699.386 329.928 699.829 329.634C700.28 329.341 700.771 329.254 701.302 329.373C701.848 329.495 702.259 329.784 702.534 330.239C702.818 330.696 702.902 331.178 702.789 331.686C702.67 332.216 702.385 332.628 701.934 332.921C701.493 333.207 700.999 333.29 700.453 333.167C699.922 333.048 699.514 332.765 699.229 332.316C698.954 331.86 698.876 331.367 698.995 330.837ZM700.884 322.393C700.964 322.034 701.118 321.733 701.345 321.488C701.572 321.244 701.848 321.072 702.173 320.973C702.501 320.866 702.84 320.851 703.191 320.93C703.738 321.052 704.149 321.337 704.426 321.784C704.711 322.233 704.795 322.719 704.678 323.242C704.563 323.758 704.279 324.166 703.826 324.466C703.383 324.76 702.889 324.846 702.342 324.724C701.811 324.605 701.404 324.317 701.121 323.861C700.848 323.398 700.769 322.909 700.884 322.393ZM722.905 324.616L722.475 326.536L712.134 329.227L720.339 336.08L719.912 337.989L710.049 329.806L710.495 327.815L722.905 324.616ZM740.007 328.443L749.87 336.626L749.425 338.617L737.014 341.816L737.442 339.907L747.785 337.205L739.577 330.363L740.007 328.443ZM755.168 343.407C755.281 342.899 755.56 342.498 756.003 342.204C756.453 341.911 756.944 341.825 757.475 341.943C758.022 342.066 758.432 342.354 758.708 342.809C758.991 343.266 759.075 343.748 758.962 344.256C758.843 344.787 758.558 345.198 758.108 345.491C757.666 345.778 757.172 345.86 756.626 345.738C756.095 345.619 755.687 345.335 755.402 344.886C755.127 344.431 755.049 343.938 755.168 343.407ZM757.057 334.964C757.138 334.605 757.291 334.303 757.518 334.058C757.745 333.814 758.021 333.642 758.347 333.543C758.674 333.436 759.013 333.422 759.364 333.5C759.911 333.622 760.323 333.907 760.6 334.355C760.884 334.804 760.968 335.29 760.851 335.813C760.736 336.328 760.452 336.736 760 337.036C759.557 337.331 759.062 337.417 758.515 337.294C757.985 337.176 757.578 336.888 757.294 336.431C757.021 335.968 756.942 335.479 757.057 334.964ZM793.121 340.329L792.691 342.249L782.35 344.94L790.556 351.793L790.129 353.702L780.266 345.519L780.711 343.528L793.121 340.329ZM797.298 352.835C797.411 352.327 797.69 351.926 798.132 351.632C798.583 351.339 799.074 351.252 799.605 351.371C800.151 351.493 800.562 351.782 800.838 352.237C801.121 352.694 801.205 353.176 801.092 353.684C800.973 354.214 800.688 354.626 800.237 354.919C799.796 355.205 799.302 355.288 798.756 355.165C798.225 355.046 797.817 354.763 797.532 354.313C797.257 353.858 797.179 353.365 797.298 352.835ZM799.187 344.391C799.267 344.032 799.421 343.73 799.648 343.486C799.875 343.242 800.151 343.07 800.476 342.971C800.804 342.864 801.143 342.849 801.494 342.928C802.041 343.05 802.453 343.335 802.73 343.782C803.014 344.231 803.098 344.717 802.981 345.24C802.866 345.756 802.582 346.163 802.129 346.464C801.687 346.758 801.192 346.844 800.645 346.722C800.114 346.603 799.707 346.315 799.424 345.859C799.151 345.396 799.072 344.907 799.187 344.391ZM825.08 360.478C825.194 359.971 825.472 359.57 825.915 359.275C826.366 358.983 826.857 358.896 827.388 359.015C827.934 359.137 828.345 359.426 828.62 359.881C828.903 360.338 828.988 360.82 828.874 361.327C828.756 361.858 828.471 362.27 828.02 362.562C827.579 362.849 827.085 362.931 826.539 362.809C826.008 362.69 825.6 362.406 825.315 361.957C825.04 361.502 824.962 361.009 825.08 360.478ZM826.97 352.035C827.05 351.676 827.204 351.374 827.431 351.13C827.657 350.885 827.934 350.713 828.259 350.614C828.586 350.507 828.926 350.493 829.277 350.571C829.823 350.694 830.235 350.978 830.512 351.426C830.797 351.875 830.881 352.361 830.764 352.884C830.649 353.399 830.365 353.807 829.912 354.107C829.469 354.402 828.974 354.488 828.428 354.366C827.897 354.247 827.49 353.959 827.207 353.502C826.934 353.039 826.854 352.55 826.97 352.035ZM839.428 362.262C839.541 361.755 839.819 361.354 840.262 361.059C840.713 360.767 841.204 360.68 841.735 360.799C842.281 360.921 842.692 361.21 842.967 361.665C843.251 362.122 843.335 362.604 843.222 363.111C843.103 363.642 842.818 364.054 842.367 364.347C841.926 364.633 841.432 364.715 840.886 364.593C840.355 364.474 839.947 364.19 839.662 363.741C839.387 363.286 839.309 362.793 839.428 362.262ZM841.317 353.819C841.397 353.46 841.551 353.158 841.778 352.914C842.005 352.669 842.281 352.498 842.606 352.398C842.934 352.291 843.273 352.277 843.624 352.356C844.171 352.478 844.582 352.763 844.86 353.21C845.144 353.659 845.228 354.145 845.111 354.668C844.996 355.183 844.712 355.591 844.259 355.892C843.816 356.186 843.322 356.272 842.775 356.15C842.244 356.031 841.837 355.743 841.554 355.286C841.281 354.823 841.202 354.334 841.317 353.819ZM852.353 353.583L862.216 361.767L861.771 363.758L849.361 366.957L849.788 365.048L860.132 362.346L851.924 355.504L852.353 353.583ZM891.424 362.327L890.995 364.247L880.653 366.938L888.859 373.791L888.432 375.7L878.569 367.517L879.014 365.526L891.424 362.327ZM895.601 374.832C895.714 374.325 895.993 373.924 896.436 373.63C896.886 373.337 897.377 373.25 897.908 373.369C898.455 373.491 898.865 373.78 899.141 374.235C899.424 374.692 899.509 375.174 899.395 375.682C899.276 376.212 898.991 376.624 898.541 376.917C898.099 377.203 897.606 377.285 897.059 377.163C896.528 377.044 896.12 376.76 895.836 376.311C895.56 375.856 895.482 375.363 895.601 374.832ZM897.49 366.389C897.571 366.03 897.724 365.728 897.951 365.484C898.178 365.24 898.454 365.068 898.78 364.969C899.107 364.861 899.446 364.847 899.797 364.926C900.344 365.048 900.756 365.333 901.033 365.78C901.318 366.229 901.401 366.715 901.284 367.238C901.169 367.754 900.885 368.161 900.433 368.462C899.99 368.756 899.495 368.842 898.948 368.72C898.418 368.601 898.011 368.313 897.728 367.857C897.454 367.394 897.375 366.905 897.49 366.389ZM909.644 377.975C909.758 377.468 910.036 377.067 910.479 376.772C910.93 376.48 911.421 376.393 911.951 376.512C912.498 376.634 912.909 376.923 913.184 377.378C913.467 377.834 913.552 378.317 913.438 378.824C913.319 379.355 913.035 379.767 912.584 380.059C912.143 380.346 911.649 380.428 911.102 380.306C910.571 380.187 910.164 379.903 909.879 379.454C909.604 378.999 909.525 378.506 909.644 377.975ZM911.534 369.532C911.614 369.173 911.767 368.871 911.994 368.627C912.221 368.382 912.497 368.21 912.823 368.111C913.15 368.004 913.489 367.99 913.841 368.068C914.387 368.191 914.799 368.475 915.076 368.923C915.361 369.372 915.445 369.858 915.328 370.381C915.212 370.896 914.928 371.304 914.476 371.604C914.033 371.899 913.538 371.985 912.992 371.863C912.461 371.744 912.054 371.456 911.771 370.999C911.497 370.536 911.418 370.047 911.534 369.532ZM936.613 372.439L946.476 380.622L946.031 382.613L933.621 385.812L934.048 383.903L944.392 381.201L936.183 374.359L936.613 372.439ZM951.774 387.403C951.888 386.895 952.166 386.494 952.609 386.2C953.06 385.907 953.55 385.82 954.081 385.939C954.628 386.062 955.039 386.35 955.314 386.805C955.597 387.262 955.682 387.744 955.568 388.252C955.449 388.783 955.165 389.194 954.714 389.487C954.273 389.774 953.779 389.856 953.232 389.733C952.701 389.615 952.294 389.331 952.009 388.882C951.733 388.427 951.655 387.934 951.774 387.403ZM953.663 378.96C953.744 378.6 953.897 378.299 954.124 378.054C954.351 377.81 954.627 377.638 954.953 377.539C955.28 377.432 955.619 377.417 955.971 377.496C956.517 377.618 956.929 377.903 957.206 378.35C957.491 378.799 957.575 379.286 957.458 379.809C957.342 380.324 957.058 380.732 956.606 381.032C956.163 381.326 955.668 381.413 955.122 381.29C954.591 381.171 954.184 380.884 953.901 380.427C953.627 379.964 953.548 379.475 953.663 378.96ZM965.817 390.545C965.931 390.038 966.209 389.637 966.652 389.343C967.103 389.05 967.594 388.963 968.125 389.082C968.671 389.204 969.082 389.493 969.357 389.948C969.64 390.405 969.725 390.887 969.611 391.394C969.493 391.925 969.208 392.337 968.757 392.63C968.316 392.916 967.822 392.998 967.276 392.876C966.745 392.757 966.337 392.473 966.052 392.024C965.777 391.569 965.699 391.076 965.817 390.545ZM967.707 382.102C967.787 381.743 967.941 381.441 968.168 381.197C968.394 380.953 968.671 380.781 968.996 380.681C969.323 380.574 969.663 380.56 970.014 380.639C970.56 380.761 970.972 381.046 971.249 381.493C971.534 381.942 971.618 382.428 971.501 382.951C971.386 383.466 971.102 383.874 970.649 384.175C970.206 384.469 969.711 384.555 969.165 384.433C968.634 384.314 968.227 384.026 967.944 383.569C967.671 383.106 967.591 382.617 967.707 382.102Z" fill="white"/>
<path d="M681.808 251.829L691.153 260.954L690.702 262.968L678.344 267.31L669.038 258.12L669.489 256.106L681.808 251.829ZM678.813 265.214L689.239 261.595L681.339 253.925L670.947 257.502L678.813 265.214ZM716.008 267.967C716.328 268.038 716.631 268.024 716.915 267.924C717.192 267.822 717.474 267.68 717.761 267.498C718.047 267.316 718.357 267.14 718.691 266.969C719.016 266.796 719.388 266.674 719.806 266.603C720.215 266.531 720.685 266.554 721.216 266.673C721.755 266.794 722.198 266.975 722.546 267.216C722.886 267.456 723.166 267.724 723.387 268.019C723.608 268.315 723.813 268.607 724.002 268.895C724.184 269.182 724.379 269.43 724.586 269.64C724.793 269.851 725.056 269.992 725.376 270.063C725.696 270.135 725.999 270.121 726.284 270.02C726.561 269.918 726.846 269.777 727.141 269.597C727.427 269.416 727.737 269.239 728.071 269.068C728.397 268.895 728.764 268.772 729.174 268.7C729.584 268.627 730.054 268.651 730.585 268.769C731.123 268.89 731.563 269.07 731.902 269.31C732.242 269.55 732.526 269.819 732.755 270.116C732.984 270.413 733.189 270.705 733.371 270.991C733.545 271.276 733.739 271.525 733.954 271.737C734.169 271.949 734.432 272.09 734.745 272.16C735.065 272.231 735.367 272.217 735.652 272.117C735.929 272.015 736.211 271.873 736.497 271.691C736.784 271.509 737.09 271.332 737.416 271.159C737.749 270.987 738.121 270.866 738.53 270.793C738.94 270.721 739.414 270.745 739.953 270.866C740.492 270.986 740.931 271.167 741.271 271.407C741.618 271.648 741.902 271.917 742.123 272.212C742.344 272.508 742.545 272.799 742.727 273.085C742.917 273.374 743.115 273.623 743.322 273.833C743.529 274.043 743.793 274.184 744.113 274.256C744.55 274.354 745.013 274.265 745.501 273.989C745.991 273.705 746.427 273.331 746.809 272.867L748.3 274.062C748.059 274.409 747.687 274.753 747.185 275.091C746.683 275.43 746.124 275.694 745.507 275.884C744.893 276.066 744.3 276.093 743.73 275.966C743.192 275.845 742.753 275.665 742.413 275.425C742.073 275.185 741.789 274.916 741.56 274.619C741.339 274.324 741.138 274.033 740.956 273.746C740.774 273.46 740.576 273.21 740.361 272.998C740.154 272.788 739.89 272.647 739.57 272.576C739.258 272.506 738.958 272.529 738.67 272.644C738.383 272.753 738.095 272.905 737.805 273.103C737.516 273.292 737.208 273.481 736.878 273.67C736.551 273.851 736.181 273.985 735.768 274.073C735.348 274.152 734.869 274.13 734.331 274.01C733.792 273.889 733.356 273.714 733.022 273.483C732.681 273.251 732.398 272.995 732.173 272.716C731.943 272.426 731.735 272.146 731.55 271.875C731.364 271.604 731.167 271.367 730.959 271.165C730.744 270.953 730.472 270.81 730.144 270.737C729.832 270.667 729.535 270.674 729.254 270.759C728.973 270.843 728.692 270.965 728.41 271.123C728.123 271.272 727.819 271.421 727.498 271.571C727.172 271.711 726.806 271.81 726.399 271.866C725.993 271.923 725.525 271.892 724.994 271.773C724.455 271.652 724.016 271.472 723.676 271.232C723.336 270.992 723.056 270.725 722.835 270.429C722.607 270.132 722.401 269.84 722.22 269.554C722.038 269.267 721.843 269.019 721.636 268.808C721.421 268.596 721.154 268.454 720.834 268.383C720.521 268.313 720.221 268.336 719.933 268.452C719.646 268.56 719.358 268.712 719.068 268.91C718.78 269.099 718.471 269.289 718.142 269.477C717.814 269.658 717.444 269.793 717.031 269.88C716.612 269.959 716.133 269.938 715.594 269.817C715.063 269.698 714.639 269.542 714.322 269.348C713.997 269.152 713.728 268.941 713.517 268.713C713.307 268.477 713.113 268.249 712.932 268.029C712.746 267.798 712.536 267.583 712.302 267.383C712.068 267.184 711.763 267.025 711.388 266.908L711.823 264.964C712.381 265.073 712.836 265.236 713.189 265.455C713.535 265.663 713.824 265.896 714.053 266.152C714.283 266.408 714.484 266.663 714.657 266.914C714.83 267.166 715.022 267.39 715.233 267.584C715.437 267.769 715.696 267.897 716.008 267.967ZM716.912 260.299L718.087 261.866L713.926 264.796C713.529 265.068 713.212 265.275 712.975 265.419C712.738 265.563 712.455 265.692 712.126 265.807L711.738 267.54C711.987 267.784 712.188 268.022 712.341 268.253C712.494 268.484 712.693 268.807 712.936 269.222L715.45 273.646L713.721 274.563L708.946 266.005L716.912 260.299ZM798.459 286.418C798.772 286.487 799.06 286.482 799.324 286.402C799.597 286.316 799.866 286.195 800.13 286.041C800.394 285.887 800.684 285.743 801.001 285.609C801.318 285.475 801.678 285.388 802.081 285.346C802.493 285.299 802.974 285.346 803.525 285.485L803.09 287.429C802.701 287.375 802.358 287.388 802.061 287.469C801.764 287.55 801.482 287.655 801.215 287.784C800.958 287.907 800.685 288.03 800.395 288.154C800.107 288.27 799.774 288.347 799.396 288.386C799.027 288.426 798.576 288.387 798.045 288.268C797.507 288.147 797.064 287.962 796.719 287.713C796.382 287.457 796.105 287.178 795.885 286.874C795.668 286.564 795.469 286.261 795.289 285.966C795.111 285.664 794.915 285.403 794.702 285.183C794.491 284.956 794.229 284.807 793.917 284.737C793.597 284.665 793.294 284.68 793.009 284.78C792.733 284.882 792.451 285.024 792.164 285.206C791.878 285.387 791.571 285.565 791.246 285.738C790.912 285.909 790.541 286.031 790.131 286.103C789.721 286.176 789.247 286.151 788.709 286.031C788.178 285.912 787.741 285.74 787.397 285.516C787.054 285.292 786.768 285.047 786.541 284.783C786.307 284.51 786.095 284.245 785.907 283.99C785.712 283.725 785.505 283.494 785.287 283.298C785.068 283.101 784.803 282.968 784.491 282.898C784.163 282.825 783.86 282.839 783.584 282.941C783.301 283.034 783.017 283.163 782.734 283.329C782.451 283.495 782.148 283.661 781.824 283.826C781.494 283.982 781.129 284.093 780.729 284.159C780.321 284.224 779.847 284.196 779.309 284.075C778.77 283.954 778.332 283.77 777.994 283.522C777.65 283.265 777.368 282.985 777.149 282.682C776.932 282.371 776.733 282.068 776.553 281.774C776.375 281.471 776.179 281.21 775.966 280.99C775.754 280.763 775.492 280.614 775.18 280.544C774.86 280.473 774.562 280.488 774.285 280.59C774 280.69 773.714 280.831 773.428 281.013C773.141 281.195 772.835 281.372 772.509 281.545C772.176 281.716 771.804 281.838 771.394 281.91C770.985 281.983 770.511 281.959 769.972 281.838C769.402 281.711 768.878 281.433 768.4 281.007C767.923 280.572 767.53 280.095 767.22 279.574C766.91 279.054 766.72 278.585 766.649 278.168L768.507 277.723C768.656 278.305 768.891 278.829 769.213 279.295C769.537 279.753 769.917 280.03 770.355 280.128C770.675 280.2 770.973 280.185 771.25 280.083C771.527 279.981 771.813 279.84 772.107 279.66C772.394 279.478 772.7 279.301 773.026 279.127C773.351 278.954 773.723 278.833 774.14 278.762C774.55 278.69 775.024 278.714 775.563 278.834C776.101 278.955 776.541 279.135 776.88 279.375C777.22 279.615 777.504 279.884 777.733 280.181C777.954 280.476 778.155 280.767 778.337 281.054C778.519 281.34 778.717 281.59 778.932 281.802C779.139 282.012 779.403 282.153 779.723 282.225C780.035 282.295 780.334 282.279 780.618 282.179C780.903 282.079 781.189 281.938 781.475 281.756C781.754 281.573 782.06 281.395 782.394 281.224C782.727 281.053 783.099 280.931 783.509 280.858C783.918 280.786 784.392 280.81 784.931 280.931C785.462 281.05 785.897 281.229 786.237 281.469C786.577 281.709 786.861 281.978 787.09 282.275C787.311 282.57 787.516 282.862 787.705 283.15C787.887 283.437 788.085 283.686 788.3 283.898C788.507 284.109 788.771 284.25 789.091 284.321C789.411 284.393 789.71 284.378 789.987 284.276C790.264 284.174 790.549 284.033 790.844 283.853C791.13 283.671 791.436 283.493 791.762 283.32C792.088 283.147 792.455 283.025 792.865 282.952C793.283 282.882 793.761 282.907 794.299 283.027C794.83 283.146 795.266 283.325 795.605 283.565C795.953 283.807 796.237 284.076 796.458 284.371C796.687 284.668 796.892 284.96 797.074 285.247C797.255 285.533 797.45 285.782 797.657 285.992C797.872 286.204 798.139 286.346 798.459 286.418ZM800.909 279.096L805.684 287.653L797.718 293.359L796.543 291.793L800.704 288.863C801.101 288.591 801.418 288.383 801.655 288.239C801.892 288.096 802.175 287.966 802.504 287.851L802.892 286.118C802.643 285.874 802.442 285.636 802.289 285.405C802.136 285.174 801.937 284.851 801.694 284.436L799.18 280.012L800.909 279.096ZM835.377 287.387L835.988 289.11L826.586 292.33L833.708 299.298L832.332 300.502L824.676 292.948L825.127 290.934L835.377 287.387ZM850.741 290.825L858.502 298.403L858.051 300.417L847.918 303.99L847.177 302.3L856.588 299.044L849.46 292.1L850.741 290.825ZM851.03 296.017L852.273 297.058C851.947 297.452 851.569 297.843 851.138 298.23C850.708 298.61 850.221 298.902 849.675 299.108C849.13 299.306 848.511 299.327 847.816 299.172C847.269 299.049 846.823 298.827 846.478 298.503C846.124 298.178 845.822 297.824 845.572 297.44C845.314 297.054 845.055 296.709 844.795 296.405C844.527 296.099 844.21 295.905 843.843 295.823C843.476 295.741 843.111 295.782 842.746 295.947C842.381 296.111 842.008 296.314 841.626 296.557C841.236 296.797 840.819 296.991 840.377 297.138C839.926 297.283 839.424 297.294 838.869 297.17C838.323 297.047 837.877 296.824 837.531 296.501C837.177 296.176 836.875 295.822 836.625 295.438C836.367 295.052 836.108 294.707 835.848 294.403C835.581 294.097 835.263 293.903 834.897 293.821C834.389 293.708 833.909 293.801 833.457 294.102C833.006 294.394 832.565 294.787 832.135 295.281L830.884 294.276C831.222 293.868 831.602 293.469 832.025 293.08C832.448 292.691 832.936 292.399 833.488 292.203C834.032 292.005 834.652 291.983 835.347 292.139C835.932 292.27 836.406 292.499 836.767 292.826C837.121 293.151 837.423 293.505 837.673 293.889C837.923 294.273 838.17 294.615 838.414 294.916C838.659 295.216 838.96 295.407 839.319 295.487C839.679 295.568 840.033 295.524 840.382 295.356C840.723 295.187 841.085 294.981 841.467 294.738C841.841 294.494 842.258 294.3 842.716 294.157C843.174 294.014 843.7 294.008 844.294 294.141C844.879 294.272 845.352 294.501 845.714 294.828C846.067 295.153 846.369 295.507 846.619 295.891C846.87 296.275 847.117 296.617 847.361 296.918C847.605 297.219 847.907 297.409 848.266 297.489C848.75 297.598 849.226 297.503 849.694 297.206C850.163 296.909 850.608 296.513 851.03 296.017ZM895.611 312.462C896.064 312.563 896.405 312.799 896.633 313.17C896.869 313.543 896.94 313.944 896.844 314.373C896.746 314.81 896.51 315.151 896.135 315.395C895.77 315.633 895.362 315.701 894.909 315.6C894.472 315.502 894.135 315.267 893.899 314.894C893.672 314.516 893.607 314.108 893.705 313.671C893.801 313.241 894.032 312.908 894.396 312.669C894.769 312.433 895.174 312.364 895.611 312.462ZM889.817 296.975C890.778 297.19 891.567 297.547 892.185 298.046C892.795 298.543 893.221 299.11 893.464 299.746C893.709 300.375 893.762 300.997 893.624 301.614C893.456 302.363 893.179 302.945 892.791 303.358C892.405 303.764 891.965 304.083 891.47 304.317C890.984 304.544 890.496 304.767 890.005 304.985C889.515 305.195 889.083 305.476 888.71 305.826C888.328 306.176 888.065 306.674 887.92 307.322L887.739 308.13L885.76 307.687L885.967 306.762C886.137 306.005 886.418 305.408 886.811 304.971C887.196 304.533 887.634 304.184 888.127 303.925C888.619 303.667 889.105 303.435 889.585 303.231C890.067 303.019 890.488 302.769 890.848 302.481C891.207 302.192 891.445 301.79 891.56 301.275C891.709 300.612 891.558 300.041 891.107 299.563C890.658 299.077 890.04 298.746 889.251 298.57C888.697 298.446 888.097 298.455 887.45 298.597C886.805 298.731 886.173 299.045 885.555 299.538L884.38 298.193C885.247 297.542 886.135 297.126 887.045 296.945C887.949 296.753 888.873 296.763 889.817 296.975ZM886.255 310.368C886.707 310.469 887.052 310.706 887.288 311.079C887.525 311.451 887.595 311.852 887.499 312.282C887.401 312.719 887.165 313.06 886.79 313.304C886.418 313.54 886.005 313.608 885.552 313.506C885.115 313.408 884.782 313.174 884.554 312.803C884.327 312.425 884.262 312.017 884.36 311.58C884.456 311.15 884.687 310.816 885.052 310.578C885.416 310.34 885.817 310.27 886.255 310.368ZM939.559 308.106C940.519 308.321 941.304 308.677 941.915 309.174C942.532 309.673 942.963 310.241 943.206 310.877C943.45 311.506 943.504 312.128 943.366 312.745C943.226 313.37 943.007 313.87 942.71 314.246C942.415 314.614 942.074 314.911 941.687 315.136C941.301 315.361 940.9 315.558 940.485 315.728C940.072 315.89 939.673 316.075 939.29 316.284C938.917 316.488 938.582 316.757 938.286 317.093C937.997 317.43 937.789 317.883 937.662 318.453L937.481 319.261L935.502 318.818L935.709 317.893C935.878 317.136 936.155 316.542 936.538 316.111C936.929 315.682 937.37 315.342 937.86 315.091C938.351 314.84 938.836 314.613 939.317 314.409C939.799 314.197 940.22 313.943 940.582 313.647C940.943 313.351 941.183 312.937 941.302 312.406C941.45 311.743 941.299 311.172 940.849 310.694C940.4 310.208 939.782 309.877 938.993 309.701C938.798 309.657 938.529 309.63 938.187 309.619C937.855 309.602 937.453 309.659 936.981 309.791C936.51 309.916 935.972 310.16 935.366 310.524C934.769 310.883 934.105 311.415 933.373 312.12L934.122 309.324C934.989 308.673 935.873 308.256 936.775 308.073C937.686 307.883 938.614 307.894 939.559 308.106ZM935.996 321.499C936.449 321.6 936.794 321.837 937.03 322.21C937.266 322.582 937.336 322.983 937.24 323.413C937.142 323.85 936.906 324.191 936.532 324.435C936.159 324.671 935.747 324.739 935.294 324.637C934.857 324.54 934.524 324.305 934.295 323.934C934.069 323.556 934.004 323.148 934.102 322.711C934.198 322.281 934.428 321.947 934.793 321.709C935.158 321.471 935.559 321.401 935.996 321.499ZM930.191 306.009C931.151 306.224 931.94 306.581 932.558 307.08C933.168 307.577 933.595 308.144 933.837 308.781C934.082 309.409 934.135 310.032 933.997 310.649C933.83 311.398 933.552 311.979 933.164 312.393C932.779 312.798 932.342 313.119 931.855 313.354C931.362 313.58 930.869 313.802 930.378 314.02C929.888 314.23 929.457 314.51 929.083 314.861C928.701 315.21 928.438 315.709 928.293 316.357L928.112 317.165L926.133 316.722L926.34 315.797C926.51 315.039 926.791 314.442 927.184 314.006C927.569 313.567 928.008 313.219 928.5 312.96C928.992 312.701 929.479 312.47 929.959 312.266C930.441 312.054 930.862 311.804 931.221 311.515C931.581 311.227 931.818 310.825 931.934 310.31C932.082 309.646 931.931 309.075 931.481 308.597C931.032 308.112 930.413 307.781 929.625 307.604C929.07 307.48 928.47 307.489 927.823 307.631C927.178 307.766 926.547 308.08 925.928 308.572L924.753 307.227C925.62 306.577 926.509 306.161 927.418 305.979C928.322 305.788 929.246 305.798 930.191 306.009ZM926.628 319.403C927.081 319.504 927.425 319.741 927.662 320.113C927.898 320.486 927.968 320.887 927.872 321.316C927.774 321.754 927.538 322.094 927.164 322.338C926.791 322.575 926.378 322.642 925.926 322.541C925.488 322.443 925.156 322.209 924.927 321.838C924.7 321.459 924.636 321.051 924.734 320.614C924.83 320.185 925.06 319.851 925.425 319.613C925.79 319.375 926.191 319.305 926.628 319.403ZM967.465 329.66C967.551 329.277 967.718 328.954 967.965 328.69C968.215 328.418 968.516 328.227 968.868 328.117C969.215 327.998 969.583 327.982 969.973 328.069C970.371 328.158 970.706 328.332 970.976 328.589C971.248 328.838 971.439 329.139 971.549 329.492C971.66 329.836 971.673 330.2 971.587 330.582C971.502 330.965 971.333 331.296 971.082 331.576C970.833 331.848 970.531 332.043 970.177 332.16C969.824 332.27 969.449 332.28 969.051 332.191C968.661 332.104 968.333 331.936 968.069 331.689C967.799 331.432 967.609 331.127 967.499 330.774C967.391 330.414 967.38 330.043 967.465 329.66ZM975.897 331.547C975.982 331.164 976.149 330.841 976.397 330.577C976.646 330.304 976.943 330.113 977.288 330.001C977.642 329.884 978.014 329.869 978.405 329.956C978.803 330.045 979.137 330.218 979.408 330.476C979.68 330.725 979.871 331.026 979.98 331.378C980.092 331.723 980.105 332.087 980.019 332.469C979.933 332.852 979.765 333.183 979.514 333.463C979.264 333.735 978.963 333.93 978.608 334.047C978.256 334.157 977.881 334.167 977.482 334.078C977.092 333.991 976.761 333.822 976.489 333.573C976.226 333.317 976.04 333.013 975.93 332.661C975.822 332.301 975.811 331.929 975.897 331.547ZM1020.85 341.607C1020.94 341.224 1021.1 340.901 1021.35 340.636C1021.6 340.364 1021.9 340.173 1022.25 340.064C1022.6 339.944 1022.97 339.929 1023.36 340.016C1023.76 340.105 1024.09 340.278 1024.36 340.535C1024.63 340.785 1024.83 341.086 1024.93 341.438C1025.05 341.783 1025.06 342.146 1024.97 342.529C1024.89 342.912 1024.72 343.243 1024.47 343.523C1024.22 343.795 1023.92 343.99 1023.56 344.107C1023.21 344.217 1022.84 344.227 1022.44 344.138C1022.05 344.051 1021.72 343.883 1021.46 343.635C1021.18 343.378 1020.99 343.073 1020.89 342.721C1020.78 342.361 1020.77 341.989 1020.85 341.607ZM1030.22 343.703C1030.31 343.32 1030.47 342.997 1030.72 342.733C1030.97 342.461 1031.27 342.269 1031.61 342.157C1031.97 342.04 1032.34 342.025 1032.73 342.112C1033.13 342.201 1033.46 342.375 1033.73 342.632C1034 342.881 1034.19 343.182 1034.3 343.535C1034.41 343.879 1034.43 344.243 1034.34 344.625C1034.26 345.008 1034.09 345.339 1033.84 345.619C1033.59 345.891 1033.29 346.086 1032.93 346.203C1032.58 346.313 1032.2 346.323 1031.81 346.234C1031.42 346.147 1031.08 345.979 1030.81 345.729C1030.55 345.474 1030.36 345.17 1030.25 344.817C1030.15 344.457 1030.13 344.086 1030.22 343.703ZM1011.48 339.51C1011.57 339.128 1011.74 338.804 1011.98 338.54C1012.23 338.268 1012.53 338.077 1012.89 337.967C1013.23 337.848 1013.6 337.832 1013.99 337.919C1014.39 338.009 1014.72 338.182 1014.99 338.439C1015.27 338.688 1015.46 338.989 1015.57 339.342C1015.68 339.686 1015.69 340.05 1015.61 340.433C1015.52 340.815 1015.35 341.146 1015.1 341.426C1014.85 341.698 1014.55 341.893 1014.19 342.011C1013.84 342.12 1013.47 342.131 1013.07 342.042C1012.68 341.954 1012.35 341.787 1012.09 341.539C1011.82 341.282 1011.63 340.977 1011.52 340.624C1011.41 340.264 1011.4 339.893 1011.48 339.51ZM1073.84 346.222L1065.65 344.388L1066.03 342.678L1074.23 344.513L1073.84 346.222ZM1072.85 350.672L1064.65 348.838L1065.03 347.128L1073.23 348.962L1072.85 350.672ZM1070.09 339.331L1071.26 340.898L1069.44 342.163C1069.22 342.325 1068.97 342.488 1068.7 342.65C1068.45 342.805 1068.12 342.942 1067.73 343.058L1066.14 344.498L1064.58 345.588L1065.53 347.238L1066.35 349.218C1066.66 349.492 1066.89 349.754 1067.06 350.004C1067.23 350.256 1067.38 350.507 1067.52 350.758L1068.62 352.678L1066.89 353.595L1062.12 345.037L1070.09 339.331ZM1073.37 346.115L1073.75 344.406L1088.27 347.655L1087.89 349.365L1073.37 346.115ZM1072.37 350.565L1072.75 348.856L1087.27 352.105L1086.89 353.815L1072.37 350.565ZM1087.41 349.258L1087.79 347.548L1102.31 350.798L1101.93 352.507L1087.41 349.258ZM1086.41 353.708L1086.8 351.998L1101.32 355.248L1100.93 356.957L1086.41 353.708ZM1101.45 352.401L1101.84 350.691L1110.03 352.525L1109.65 354.235L1101.45 352.401ZM1100.46 356.85L1100.84 355.141L1109.04 356.975L1108.65 358.685L1100.46 356.85ZM1107.79 347.768L1112.56 356.326L1104.6 362.032L1103.42 360.465L1105.24 359.2C1105.47 359.03 1105.71 358.867 1105.97 358.711C1106.23 358.557 1106.56 358.421 1106.96 358.305L1108.55 356.865L1110.1 355.775L1109.16 354.125L1108.33 352.145C1108.03 351.871 1107.79 351.609 1107.61 351.357C1107.45 351.099 1107.3 350.848 1107.17 350.605L1106.06 348.685L1107.79 347.768ZM1149.7 367.304L1148.64 368.739L1137.08 360.164L1138.11 358.797L1149.7 367.304ZM1148.05 372.641L1147 374.079L1135.43 365.501L1136.46 364.133L1148.05 372.641ZM1151.96 357.186L1137.85 359.956L1137.08 360.164L1137.5 358.279L1151.62 355.436L1151.96 357.186ZM1178.31 373.708L1192.42 370.95L1192.77 372.627L1178.66 375.457L1178.31 373.708ZM1177.53 379.238L1191.64 376.48L1191.99 378.157L1177.87 380.985L1177.53 379.238ZM1180.58 363.59L1181.64 362.154L1193.19 370.741L1192.77 372.627L1192.16 372.109L1180.58 363.59Z" fill="white"/>
<g filter="url(#filter0_f_606_2207)">
<ellipse cx="342.986" cy="188.074" rx="398.799" ry="284.655" transform="rotate(98.9097 342.986 188.074)" fill="black" fill-opacity="0.65"/>
</g>
</g>
<defs>
<filter id="filter0_f_606_2207" x="-127.799" y="-391.207" width="941.57" height="1158.56" filterUnits="userSpaceOnUse" color-interpolation-filters="sRGB">
<feFlood flood-opacity="0" result="BackgroundImageFix"/>
<feBlend mode="normal" in="SourceGraphic" in2="BackgroundImageFix" result="shape"/>
<feGaussianBlur stdDeviation="91.4" result="effect1_foregroundBlur_606_2207"/>
</filter>
<clipPath id="clip0_606_2207">
<rect width="1320" height="598" fill="white"/>
</clipPath>
</defs>
</svg>
