<svg width="2094" height="883" viewBox="0 0 2094 883" fill="none" xmlns="http://www.w3.org/2000/svg">
<path d="M2 521.798C62.9935 537.061 106.322 549.766 169.746 557.525C235.56 565.575 326.427 568.599 391.83 563.479C583.458 548.477 764.746 482.497 937.469 404.695C1010.99 371.577 1088.87 330.246 1160.99 293.547C1196.24 275.61 1247.51 248.713 1286.34 233.011C1295.31 229.385 1317.21 220.892 1329.97 223.484C1336.7 224.85 1340.04 232.676 1345 235.988" stroke="white" stroke-width="3" stroke-linecap="round"/>
<path d="M735.373 845.536C786.374 808.765 821.914 780.914 877.953 750.214C936.103 718.357 1019.39 681.889 1082.03 662.418C1265.59 605.369 1458.42 599.502 1647.67 607.789C1728.24 611.316 1815.88 620.859 1896.47 628.232C1935.86 631.835 1993.44 637.828 2035.32 638.03C2045 638.077 2068.49 637.852 2079.38 630.716C2085.13 626.955 2085.33 618.45 2088.71 613.536" stroke="white" stroke-width="3" stroke-linecap="round"/>
<path d="M35.8887 164.148C93.7584 188.73 134.578 208.031 196.018 225.579C259.773 243.787 349.059 260.935 414.461 266.07C606.085 281.114 795.44 244.193 978.178 194.258C1055.97 173.002 1139.33 144.313 1216.29 119.302C1253.91 107.077 1308.74 88.498 1349.54 79.039C1358.96 76.8546 1381.92 71.8791 1394.13 76.4283C1400.56 78.8261 1402.64 87.077 1407.02 91.1213" stroke="white" stroke-width="3" stroke-linecap="round"/>
</svg>
